<svg focusable="false" xmlns="http://www.w3.org/2000/svg" fill="none" role="img" aria-label="Icon" viewBox="0 0 14 14">
  <g stroke="currentColor" stroke-linecap="round" stroke-linejoin="round">
    <path d="M3.855 10.97a3.675 3.675 0 0 1 6.29 0M7 7.681A1.84 1.84 0 1 0 7 4a1.84 1.84 0 0 0 0 3.681"/>
    <path d="m5.163 2.29.471-1.13c.189-.377.471-.66.942-.66h.848c.377 0 .754.283.942.66l.471 1.13 1.413.848 1.225-.189c.377-.094.848.094 1.036.471l.377.66c.188.377.188.753-.094 1.13l-.754.942v1.696l.754.942c.282.282.282.753.094 1.13l-.377.66c-.188.377-.565.565-1.036.47l-1.225-.188-1.413.848-.471 1.13c-.188.377-.471.66-.942.66h-.848c-.377 0-.753-.283-.942-.66l-.47-1.13-1.414-.848-1.225.189c-.376.094-.847-.094-1.036-.471l-.377-.66c-.188-.377-.188-.753.095-1.13l.753-.942V6.152l-.753-.942c-.283-.282-.283-.753-.095-1.13l.377-.66c.189-.377.565-.565 1.036-.47l1.225.188z" stroke-miterlimit="10"/>
  </g>
</svg>
