<svg focusable="false" xmlns="http://www.w3.org/2000/svg" fill="none" role="img" aria-label="Icon" viewBox="0 0 14 14">
  <g stroke="currentColor" stroke-linecap="round" stroke-linejoin="round">
    <path d="M3.393 7.197c.442 1.592 2.211 2.565 3.803 2.123.974-.354 1.77-1.15 2.035-2.123M4.322 4.986a.221.221 0 1 1 0-.443m.001.443a.221.221 0 1 0 0-.443m3.982.443a.221.221 0 1 1 0-.443m.001.443a.221.221 0 1 0 0-.443"/>
    <path d="M12.063 6.313a5.75 5.75 0 1 0-5.75 5.75m5.06-2.636v4M9.436 11.37h4"/>
  </g>
</svg>
