<svg focusable="false" xmlns="http://www.w3.org/2000/svg" fill="none" role="img" aria-label="Icon" viewBox="0 0 14 14">
  <path d="M5.014 3.454h-3.5a1 1 0 0 0-1 1v8a1 1 0 0 0 1 1h9a1 1 0 0 0 1-1v-4m-11-2.5h6.5m.388-1.974c-.35-.061-.35-.565 0-.626A3.176 3.176 0 0 0 9.96.904l.022-.097c.076-.347.57-.349.648-.003l.026.113a3.193 3.193 0 0 0 2.566 2.435c.352.062.352.568 0 .63a3.193 3.193 0 0 0-2.566 2.435l-.026.112c-.079.346-.572.344-.648-.003L9.96 6.43a3.176 3.176 0 0 0-2.558-2.45" stroke="currentColor" stroke-linecap="round" stroke-linejoin="round"/>
</svg>
