<svg focusable="false" xmlns="http://www.w3.org/2000/svg" fill="none" role="img" aria-label="Icon" viewBox="0 0 14 14">
  <g stroke="currentColor" stroke-linecap="round" stroke-linejoin="round">
    <path d="M4 12a3 3 0 0 1 3-3v0a3 3 0 0 1 3 3v.5a1 1 0 0 1-1 1H5a1 1 0 0 1-1-1z"/>
    <path d="M5.75 11.75a.25.25 0 1 1 0-.5m0 .5a.25.25 0 1 0 0-.5m2.5.5a.25.25 0 1 1 0-.5m0 .5a.25.25 0 1 0 0-.5M7 9V7.5m4.78 1.906a2.73 2.73 0 0 0-.397-5.19.246.246 0 0 1-.173-.2 3.868 3.868 0 0 0-7.509-.91.228.228 0 0 1-.21.128 3.192 3.192 0 0 0-1.886 5.589 3 3 0 0 0 1 .583"/>
  </g>
</svg>
