<svg focusable="false" xmlns="http://www.w3.org/2000/svg" fill="none" role="img" aria-label="Icon" viewBox="0 0 14 14">
  <g stroke="currentColor" stroke-linecap="round" stroke-linejoin="round">
    <path d="M2.5 8.833H.679m12.642 0H11.5m-9-3.666H.679m12.642 0H11.5M5.167 2.5V.679m0 12.642V11.5m3.666-9V.679m0 12.642V11.5m1.667-9h-7a1 1 0 0 0-1 1v7a1 1 0 0 0 1 1h7a1 1 0 0 0 1-1v-7a1 1 0 0 0-1-1"/>
    <path d="M4.25 8.5A2.75 2.75 0 0 1 7 5.75v0A2.75 2.75 0 0 1 9.75 8.5v.25a1 1 0 0 1-1 1h-3.5a1 1 0 0 1-1-1z"/>
    <path d="M6 8.25a.25.25 0 0 1 0-.5m0 .5a.25.25 0 0 0 0-.5m2 .5a.25.25 0 0 1 0-.5m0 .5a.25.25 0 0 0 0-.5m-1-2v-1.5"/>
  </g>
</svg>
