<svg focusable="false" xmlns="http://www.w3.org/2000/svg" fill="none" role="img" aria-label="Icon" viewBox="0 0 14 14">
  <g stroke="currentColor" stroke-linecap="round" stroke-linejoin="round">
    <path d="M2.5 8.833H.679m12.642 0H11.5m-9-3.666H.679m12.642 0H11.5M5.167 2.5V.679m0 12.642V11.5m3.666-9V.679m0 12.642V11.5m1.667-9h-7a1 1 0 0 0-1 1v7a1 1 0 0 0 1 1h7a1 1 0 0 0 1-1v-7a1 1 0 0 0-1-1"/>
    <path d="M4.667 7.25c-.281-.048-.281-.452 0-.5a2.546 2.546 0 0 0 2.05-1.965l.018-.077c.06-.278.457-.28.52-.003l.02.09a2.56 2.56 0 0 0 2.057 1.953c.283.05.283.455 0 .504a2.56 2.56 0 0 0-2.057 1.952l-.02.09c-.063.278-.46.276-.52-.002l-.017-.077A2.546 2.546 0 0 0 4.667 7.25"/>
  </g>
</svg>
