<svg focusable="false" xmlns="http://www.w3.org/2000/svg" fill="none" role="img" aria-label="Icon" viewBox="0 0 14 14">
  <g stroke="currentColor" stroke-linecap="round" stroke-linejoin="round">
    <path d="M6.076 4.759c3.038 0 5.5-.95 5.5-2.12S9.114.519 6.076.519c-3.037 0-5.5.95-5.5 2.12s2.463 2.12 5.5 2.12m5.5.761V2.64"/>
    <path d="M.576 2.64V9.4c0 1.036 1.92 1.867 4.458 2.072"/>
    <path d="M7.076 8.099h-1c-3 .04-5.5-.91-5.5-2.08m6.764 4.654c-.351-.061-.351-.565 0-.626a3.176 3.176 0 0 0 2.558-2.45L9.92 7.5c.076-.347.57-.349.649-.003l.026.113a3.193 3.193 0 0 0 2.565 2.436c.353.06.353.567 0 .629a3.193 3.193 0 0 0-2.565 2.435l-.026.113c-.079.346-.573.344-.649-.003l-.02-.097a3.176 3.176 0 0 0-2.56-2.45"/>
  </g>
</svg>
