<svg focusable="false" xmlns="http://www.w3.org/2000/svg" fill="none" role="img" aria-label="Icon" viewBox="0 0 14 14">
  <g stroke="currentColor" stroke-linecap="round" stroke-linejoin="round">
    <path d="M7.5 12a3 3 0 0 1 3-3v0a3 3 0 0 1 3 3v.5a1 1 0 0 1-1 1h-4a1 1 0 0 1-1-1z"/>
    <path d="M9.25 11.75a.25.25 0 1 1 0-.5m0 .5a.25.25 0 1 0 0-.5m2.5.5a.25.25 0 1 1 0-.5m0 .5a.25.25 0 1 0 0-.5M10.5 9V7.5M6 4.74c3.038 0 5.5-.95 5.5-2.12S9.038.5 6 .5.5 1.45.5 2.62 2.962 4.74 6 4.74m5.5.76V2.62"/>
    <path d="M.5 2.62v6.76c0 1.12 2.24 2 5.08 2.11"/>
    <path d="M7 8.08H6C3 8.12.5 7.17.5 6"/>
  </g>
</svg>
