<svg focusable="false" xmlns="http://www.w3.org/2000/svg" fill="none" role="img" aria-label="Icon" viewBox="0 0 14 14">
  <g stroke="currentColor" stroke-linecap="round" stroke-linejoin="round">
    <path d="M5.076 9.546h-3.5a1 1 0 0 1-1-1v-7a1 1 0 0 1 1-1h10a1 1 0 0 1 1 1v4.5"/>
    <path d="m.576 1.806 6 4.24 6-4.24m-5.236 8.84c-.351-.06-.351-.564 0-.626a3.176 3.176 0 0 0 2.558-2.45l.021-.096c.076-.347.57-.35.649-.003l.026.112a3.193 3.193 0 0 0 2.565 2.436c.353.061.353.568 0 .629a3.193 3.193 0 0 0-2.565 2.435l-.026.113c-.079.346-.573.344-.649-.003l-.021-.097a3.176 3.176 0 0 0-2.558-2.45"/>
  </g>
</svg>
