<svg focusable="false" xmlns="http://www.w3.org/2000/svg" fill="none" role="img" aria-label="Icon" viewBox="0 0 14 14">
  <path d="m6.926 13.202-3 .26.26-3 6.24-6.2a1 1 0 0 1 1.43 0l1.27 1.28a1.001 1.001 0 0 1 0 1.42zM.842 3.972c-.351-.061-.351-.565 0-.626A3.176 3.176 0 0 0 3.4.896l.021-.097c.076-.346.57-.349.65-.002l.025.112A3.193 3.193 0 0 0 6.66 3.345c.353.06.353.567 0 .629a3.193 3.193 0 0 0-2.565 2.435l-.026.113c-.079.346-.573.344-.649-.003l-.02-.097a3.176 3.176 0 0 0-2.56-2.45" stroke="currentColor" stroke-linecap="round" stroke-linejoin="round"/>
</svg>
