<svg focusable="false" xmlns="http://www.w3.org/2000/svg" fill="none" role="img" aria-label="Icon" viewBox="0 0 14 14">
  <g stroke="currentColor" stroke-linecap="round" stroke-linejoin="round">
    <path d="M2.424 5.5v-4a1 1 0 0 1 1-1h6.5l3.5 3.5v8.5a1 1 0 0 1-1 1h-6"/>
    <path d="M.84 10.692c-.351-.061-.351-.565 0-.626a3.177 3.177 0 0 0 2.558-2.45l.021-.097c.076-.347.57-.349.649-.003l.026.113a3.193 3.193 0 0 0 2.565 2.436c.353.06.353.567 0 .628a3.193 3.193 0 0 0-2.565 2.436l-.026.112c-.079.347-.573.344-.649-.002l-.021-.097a3.176 3.176 0 0 0-2.558-2.45"/>
  </g>
</svg>
