<svg focusable="false" xmlns="http://www.w3.org/2000/svg" fill="none" role="img" aria-label="Icon" viewBox="0 0 14 14">
  <g stroke="currentColor" stroke-linecap="round" stroke-linejoin="round">
    <path d="M2.77 8.286A3.495 3.495 0 0 1 5.577 6.88c.818 0 1.57.28 2.166.75"/>
    <path d="M5.076 10.629h-3.5a1 1 0 0 1-1-1v-8a1 1 0 0 1 1-1h8a1 1 0 0 1 1 1v3"/>
    <path d="M5.576 5.379a1.5 1.5 0 1 0 0-3 1.5 1.5 0 0 0 0 3m1.764 5.184c-.351-.061-.351-.565 0-.626a3.176 3.176 0 0 0 2.558-2.45l.021-.097c.076-.347.57-.349.649-.003l.026.113a3.193 3.193 0 0 0 2.565 2.435c.353.062.353.568 0 .63A3.193 3.193 0 0 0 10.594 13l-.026.113c-.079.346-.573.344-.649-.003l-.021-.097a3.176 3.176 0 0 0-2.558-2.45"/>
  </g>
</svg>
