<svg focusable="false" xmlns="http://www.w3.org/2000/svg" fill="none" role="img" aria-label="Icon" viewBox="0 0 14 14">
  <path d="M.5 2v11m5.2-7.5V11M3.1 5.5v4M13.5 7v6m-2.6-3.5V11M8.3 8.5v1m-.884-5.066c-.351-.061-.351-.565 0-.626a3.176 3.176 0 0 0 2.558-2.45l.022-.097c.076-.347.57-.349.648-.003l.026.113a3.193 3.193 0 0 0 2.566 2.435c.352.062.352.568 0 .63A3.193 3.193 0 0 0 10.67 6.87l-.026.113c-.079.346-.572.344-.648-.003l-.022-.097a3.176 3.176 0 0 0-2.558-2.45" stroke="currentColor" stroke-linecap="round" stroke-linejoin="round"/>
</svg>
