<svg focusable="false" xmlns="http://www.w3.org/2000/svg" fill="none" role="img" aria-label="Icon" viewBox="0 0 14 14">
  <path d="M.5 4.121H5m-4.5 3H5m-4.5 6h13m-13-3h13M7.263 4.313c-.35-.061-.35-.565 0-.626a3.176 3.176 0 0 0 2.559-2.45l.02-.097c.077-.347.57-.349.65-.003l.025.113a3.192 3.192 0 0 0 2.566 2.435c.352.062.352.568 0 .63a3.192 3.192 0 0 0-2.566 2.435l-.025.113c-.08.346-.573.344-.65-.003l-.02-.097a3.176 3.176 0 0 0-2.559-2.45" stroke="currentColor" stroke-linecap="round" stroke-linejoin="round"/>
</svg>
