<svg focusable="false" xmlns="http://www.w3.org/2000/svg" fill="none" role="img" aria-label="Icon" viewBox="0 0 14 14">
  <g stroke="currentColor" stroke-linecap="round" stroke-linejoin="round">
    <path d="M2.12 13.462a1.597 1.597 0 1 0 0-3.193 1.597 1.597 0 0 0 0 3.193m7.186-1.597a1.597 1.597 0 1 0 0-3.193 1.597 1.597 0 0 0 0 3.193"/>
    <path d="M3.717 11.865V5.383a.4.4 0 0 1 .295-.384l1.261-.361M3.717 7.474l4.06-1.128m3.125 3.923V8.86m-3.51-4.888c-.35-.061-.35-.565 0-.626A3.176 3.176 0 0 0 9.951.896l.021-.097c.076-.347.57-.349.649-.003l.026.113a3.192 3.192 0 0 0 2.565 2.435c.353.062.353.568 0 .63a3.192 3.192 0 0 0-2.565 2.435l-.026.112c-.08.347-.573.344-.649-.002l-.021-.097a3.176 3.176 0 0 0-2.559-2.45"/>
  </g>
</svg>
