<svg focusable="false" xmlns="http://www.w3.org/2000/svg" fill="none" role="img" aria-label="Icon" viewBox="0 0 14 14">
  <g stroke="currentColor" stroke-linecap="round" stroke-linejoin="round">
    <path d="M7.5 5a3 3 0 0 1 3-3v0a3 3 0 0 1 3 3v.5a1 1 0 0 1-1 1h-4a1 1 0 0 1-1-1z"/>
    <path d="M9.25 4.75a.25.25 0 0 1 0-.5m0 .5a.25.25 0 0 0 0-.5m2.5.5a.25.25 0 1 1 0-.5m0 .5a.25.25 0 1 0 0-.5M10.5 2V.5m-8.403 13a1.597 1.597 0 1 0 0-3.193 1.597 1.597 0 0 0 0 3.193m7.185-1.996a1.597 1.597 0 1 0 0-3.194 1.597 1.597 0 0 0 0 3.194"/>
    <path d="M3.694 11.903V5.421a.4.4 0 0 1 .295-.384L5.5 4.604M3.694 7.512l2.39-.664m4.795 3.059V8"/>
  </g>
</svg>
