<svg focusable="false" xmlns="http://www.w3.org/2000/svg" fill="none" role="img" aria-label="Icon" viewBox="0 0 14 14">
  <g stroke="currentColor" stroke-linecap="round" stroke-linejoin="round">
    <path d="M.5 11.5a3 3 0 0 1 3-3v0a3 3 0 0 1 3 3v.5a1 1 0 0 1-1 1h-4a1 1 0 0 1-1-1z"/>
    <path d="M2.25 11.25a.25.25 0 1 1 0-.5m0 .5a.25.25 0 1 0 0-.5m2.5.5a.25.25 0 1 1 0-.5m0 .5a.25.25 0 1 0 0-.5M3.5 8.5V7m-1-2V2a1 1 0 0 1 1-1h6a1 1 0 0 1 1 1v1.5l2.32-1.25a.5.5 0 0 1 .68.47v4.56a.5.5 0 0 1-.68.47L10.5 6.5V8a1 1 0 0 1-1 1H9"/>
  </g>
</svg>
