<svg focusable="false" xmlns="http://www.w3.org/2000/svg" fill="none" role="img" aria-label="Icon" viewBox="0 0 14 14">
  <g stroke="currentColor" stroke-linecap="round" stroke-linejoin="round">
    <path d="M.576 8.819a3.745 3.745 0 0 0 3.745 3.745v0a3.745 3.745 0 0 0 3.745-3.745v0"/>
    <path d="M2.449 6.478a1.873 1.873 0 1 1 3.745 0v2.34a1.872 1.872 0 0 1-3.745 0zm1.872 6.086v.936M7.34 3.934c-.351-.061-.351-.565 0-.626A3.176 3.176 0 0 0 9.898.858L9.92.76c.076-.347.57-.349.649-.003l.026.113a3.192 3.192 0 0 0 2.565 2.435c.353.062.353.568 0 .63a3.192 3.192 0 0 0-2.565 2.435l-.026.113c-.079.346-.573.344-.649-.003l-.02-.097a3.176 3.176 0 0 0-2.56-2.45"/>
  </g>
</svg>
