<svg focusable="false" xmlns="http://www.w3.org/2000/svg" fill="none" role="img" aria-label="Icon" viewBox="0 0 14 14">
  <g stroke="currentColor" stroke-linecap="round" stroke-linejoin="round">
    <path d="M11.076 5.04v-3.5a1 1 0 0 0-1-1h-8.5a1 1 0 0 0-1 1v8.5a1 1 0 0 0 1 1h3.5"/>
    <path d="M3.826 7.68V3.9a.36.36 0 0 1 .55-.31l3.27 1.89a.36.36 0 0 1 0 .62l-3.27 1.94a.36.36 0 0 1-.55-.36m3.514 2.972c-.351-.06-.351-.565 0-.626a3.177 3.177 0 0 0 2.558-2.45l.021-.097c.076-.346.57-.349.649-.002l.026.112a3.193 3.193 0 0 0 2.565 2.436c.353.061.353.567 0 .629a3.193 3.193 0 0 0-2.565 2.435l-.026.113c-.079.346-.573.344-.649-.003l-.021-.097a3.176 3.176 0 0 0-2.558-2.45"/>
  </g>
</svg>
