<svg focusable="false" xmlns="http://www.w3.org/2000/svg" fill="none" role="img" aria-label="Icon" viewBox="0 0 14 14">
  <g stroke="currentColor" stroke-linecap="round" stroke-linejoin="round">
    <path d="M5.277 8.231H1.09a.492.492 0 0 0-.493.492v4.186c0 .272.22.493.493.493h4.186c.271 0 .492-.22.492-.493V8.723a.492.492 0 0 0-.492-.492m7.654 0H8.746a.492.492 0 0 0-.493.492v4.186c0 .272.22.493.493.493h4.186c.272 0 .492-.22.492-.493V8.723a.492.492 0 0 0-.492-.492M5.277.577H1.09a.492.492 0 0 0-.493.492v4.186c0 .272.22.493.493.493h4.186a.493.493 0 0 0 .492-.493V1.07a.492.492 0 0 0-.492-.492m2.709 4.206a2.709 2.709 0 0 1 2.709-2.709v0a2.709 2.709 0 0 1 2.708 2.709v.246a.985.985 0 0 1-.985.985H8.97a.985.985 0 0 1-.985-.985z"/>
    <path d="M9.709 4.538a.246.246 0 1 1 0-.493m0 .493a.246.246 0 1 0 0-.493m1.97.493a.246.246 0 0 1 0-.493m0 .493a.246.246 0 1 0 0-.493m-.985-1.97V.598"/>
  </g>
</svg>
