<svg focusable="false" xmlns="http://www.w3.org/2000/svg" fill="none" role="img" aria-label="Icon" viewBox="0 0 14 14">
  <g stroke="currentColor" stroke-linecap="round" stroke-linejoin="round">
    <path d="M7.5 5a3 3 0 0 1 3-3v0a3 3 0 0 1 3 3v.5a1 1 0 0 1-1 1h-4a1 1 0 0 1-1-1z"/>
    <path d="M9.25 4.75a.25.25 0 0 1 0-.5m0 .5a.25.25 0 0 0 0-.5m2.5.5a.25.25 0 1 1 0-.5m0 .5a.25.25 0 1 0 0-.5M10.5 2V.5M4.4 7.02v2.31m1.156-1.155H3.245m1.91-3.632h-.917a3 3 0 0 0-2.982 2.669l-.412 3.71a2.283 2.283 0 0 0 4.31 1.273l.36-.72h2.971l.36.72a2.283 2.283 0 0 0 4.31-1.273L12.832 8"/>
    <path d="M8.733 8.752a.248.248 0 0 1 .495 0m-.495 0a.248.248 0 0 0 .495 0"/>
  </g>
</svg>
