<svg focusable="false" xmlns="http://www.w3.org/2000/svg" fill="none" role="img" aria-label="Icon" viewBox="0 0 14 14">
  <g stroke="currentColor" stroke-linecap="round" stroke-linejoin="round">
    <path d="M12.479 7.424c2.955-2.955-1.399-8.688-5.475-4.066-4.076-4.622-8.45 1.09-5.474 4.066L5.5 11.02m2 .98a3 3 0 0 1 3-3v0a3 3 0 0 1 3 3v.5a1 1 0 0 1-1 1h-4a1 1 0 0 1-1-1z"/>
    <path d="M9.25 11.75a.25.25 0 1 1 0-.5m0 .5a.25.25 0 1 0 0-.5m2.5.5a.25.25 0 1 1 0-.5m0 .5a.25.25 0 1 0 0-.5M10.5 9V7.5"/>
  </g>
</svg>
