<svg focusable="false" xmlns="http://www.w3.org/2000/svg" fill="none" role="img" aria-label="Icon" viewBox="0 0 14 14">
  <g stroke="currentColor" stroke-linecap="round" stroke-linejoin="round">
    <path d="M12.84 6.477c2.194-3.036-1.947-8.05-5.836-3.642-4.076-4.621-8.45 1.091-5.474 4.066l3.948 3.576"/>
    <path d="M7.366 10.097c-.35-.06-.35-.564 0-.625a3.176 3.176 0 0 0 2.558-2.45l.022-.097c.076-.347.57-.35.648-.003l.026.113a3.193 3.193 0 0 0 2.566 2.435c.352.061.352.568 0 .629a3.193 3.193 0 0 0-2.566 2.435l-.026.113c-.079.346-.572.344-.648-.003l-.022-.096a3.176 3.176 0 0 0-2.558-2.45"/>
  </g>
</svg>
