<svg focusable="false" xmlns="http://www.w3.org/2000/svg" fill="none" role="img" aria-label="Icon" viewBox="0 0 14 14">
  <path d="M11.02 8.974v2.746a1 1 0 0 1-.725.961l-2.774.793-3.5-1-2.226.636a1 1 0 0 1-1.274-.962V4.554a1 1 0 0 1 .725-.962l2.775-.793 1.396.4M7.52 13.474v-7m-3.5 6V2.799M7.395 3.96c-.35-.061-.35-.565 0-.626A3.176 3.176 0 0 0 9.954.884l.021-.097c.076-.347.57-.349.649-.003l.025.113a3.193 3.193 0 0 0 2.566 2.435c.353.062.353.568 0 .63a3.193 3.193 0 0 0-2.566 2.435l-.025.113c-.08.346-.573.344-.649-.003l-.021-.097a3.176 3.176 0 0 0-2.559-2.45" stroke="currentColor" stroke-linecap="round" stroke-linejoin="round"/>
</svg>
