<svg focusable="false" xmlns="http://www.w3.org/2000/svg" fill="none" role="img" aria-label="Icon" viewBox="0 0 14 14">
  <g stroke="currentColor" stroke-linecap="round" stroke-linejoin="round">
    <path d="M7.5 5a3 3 0 0 1 3-3v0a3 3 0 0 1 3 3v.5a1 1 0 0 1-1 1h-4a1 1 0 0 1-1-1z"/>
    <path d="M9.25 4.75a.25.25 0 0 1 0-.5m0 .5a.25.25 0 0 0 0-.5m2.5.5a.25.25 0 1 1 0-.5m0 .5a.25.25 0 1 0 0-.5M10.5 2V.5m.5 8v3.246a1 1 0 0 1-.725.961L7.5 13.5l-3.5-1-2.225.636A1 1 0 0 1 .5 12.174V4.58a1 1 0 0 1 .725-.962L4 2.825l1.75.5M7.5 13.5v-5m-3.5 4V2.825"/>
  </g>
</svg>
