<svg focusable="false" xmlns="http://www.w3.org/2000/svg" fill="none" role="img" aria-label="Icon" viewBox="0 0 14 14">
  <path d="M10.51 8.485a5 5 0 1 1-5-5m0 2.75v4.5m-2.25-2.25h4.5m-.354-4.536c-.351-.061-.351-.565 0-.626A3.176 3.176 0 0 0 9.964.873l.021-.097c.076-.347.57-.35.649-.003l.026.113a3.193 3.193 0 0 0 2.565 2.435c.353.061.353.568 0 .63a3.193 3.193 0 0 0-2.565 2.435l-.026.112c-.08.346-.573.344-.649-.003L9.964 6.4a3.176 3.176 0 0 0-2.558-2.45" stroke="currentColor" stroke-linecap="round" stroke-linejoin="round"/>
</svg>
