<svg focusable="false" xmlns="http://www.w3.org/2000/svg" fill="none" role="img" aria-label="Icon" viewBox="0 0 14 14">
  <g stroke="currentColor" stroke-linecap="round" stroke-linejoin="round">
    <path d="M3.519 6.746a1.75 1.75 0 1 0 3.5 0 1.75 1.75 0 1 0-3.5 0"/>
    <path d="M9.629 8.74c-.948 2.542-3.366 4.756-4.36 4.756-1.25 0-4.75-3.5-4.75-6.75a4.75 4.75 0 0 1 5.19-4.73M7.696 3.77c-.334-.059-.334-.538 0-.596a3.02 3.02 0 0 0 2.433-2.33l.02-.092c.072-.33.542-.331.617-.002l.024.107a3.036 3.036 0 0 0 2.44 2.316c.335.058.335.54 0 .598a3.036 3.036 0 0 0-2.44 2.316l-.024.107c-.075.329-.545.327-.617-.003l-.02-.092a3.02 3.02 0 0 0-2.433-2.33"/>
  </g>
</svg>
