<svg focusable="false" xmlns="http://www.w3.org/2000/svg" fill="none" role="img" aria-label="Icon" viewBox="0 0 14 14">
  <g stroke="currentColor" stroke-linecap="round" stroke-linejoin="round">
    <path d="M7.5 5a3 3 0 0 1 3-3v0a3 3 0 0 1 3 3v.5a1 1 0 0 1-1 1h-4a1 1 0 0 1-1-1z"/>
    <path d="M9.25 4.75a.25.25 0 0 1 0-.5m0 .5a.25.25 0 0 0 0-.5m2.5.5a.25.25 0 1 1 0-.5m0 .5a.25.25 0 1 0 0-.5M10.5 2V.5"/>
    <path d="M7.423 1.57a6 6 0 1 0 4.916 7.314M.5 7.5h5.077"/>
    <path d="M6.5 1.5a10.357 10.357 0 0 0-2.308 6 10.357 10.357 0 0 0 2.308 6 10.357 10.357 0 0 0 2.142-4.615"/>
  </g>
</svg>
