<svg focusable="false" xmlns="http://www.w3.org/2000/svg" fill="none" role="img" aria-label="Icon" viewBox="0 0 14 14">
  <g stroke="currentColor" stroke-linecap="round" stroke-linejoin="round">
    <path d="M5.02 3.485h-3.5a1 1 0 0 0-1 1v8a1 1 0 0 0 1 1h9a1 1 0 0 0 1-1v-4m-11-2.5h6.5"/>
    <path d="m3.02 10.985 1.5-1.5-1.5-1.5m3 3h1.5m-.124-7.036c-.35-.061-.35-.565 0-.626A3.176 3.176 0 0 0 9.955.873l.02-.097c.077-.347.57-.349.65-.003l.025.113a3.192 3.192 0 0 0 2.566 2.435c.352.062.352.568 0 .63a3.192 3.192 0 0 0-2.566 2.435l-.026.112c-.079.346-.572.344-.648-.003L9.955 6.4a3.176 3.176 0 0 0-2.559-2.45"/>
  </g>
</svg>
