<svg focusable="false" xmlns="http://www.w3.org/2000/svg" fill="none" role="img" aria-label="Icon" viewBox="0 0 14 14">
  <g stroke="currentColor" stroke-linecap="round" stroke-linejoin="round">
    <path d="M4 7.75a3 3 0 0 1 3-3v0a3 3 0 0 1 3 3v.5a1 1 0 0 1-1 1H5a1 1 0 0 1-1-1z"/>
    <path d="M5.75 7.5a.25.25 0 0 1 0-.5m0 .5a.25.25 0 0 0 0-.5m2.5.5a.25.25 0 0 1 0-.5m0 .5a.25.25 0 0 0 0-.5M7 4.75v-1.5M13.5 7A6.5 6.5 0 0 1 .998 9.5M.5 7a6.5 6.5 0 0 1 12.502-2.5"/>
    <path d="M13.5 2.5v2h-2m-11 7v-2h2"/>
  </g>
</svg>
