<svg focusable="false" xmlns="http://www.w3.org/2000/svg" fill="none" role="img" aria-label="Icon" viewBox="0 0 14 14">
  <path d="M5.92 2.57h-.687a.838.838 0 0 0-.78.537l-.36.93-1.24.703-.988-.15a.838.838 0 0 0-.838.41l-.335.587a.838.838 0 0 0 .067.946l.628.78V8.72l-.611.78a.838.838 0 0 0-.067.946l.335.586a.838.838 0 0 0 .838.411l.988-.15 1.223.703.36.93a.838.838 0 0 0 .78.536h.704a.838.838 0 0 0 .779-.536l.36-.93 1.223-.704.989.151a.838.838 0 0 0 .838-.41l.335-.587a.838.838 0 0 0-.067-.947l-.629-.779v-.907m-5.864.203a1.676 1.676 0 1 0 3.35 0 1.676 1.676 0 0 0-3.35 0M8.1 3.542c-.306-.053-.306-.494 0-.547A2.779 2.779 0 0 0 10.34.85l.019-.084c.066-.304.498-.306.567-.003l.023.099a2.793 2.793 0 0 0 2.244 2.13c.309.054.309.497 0 .55a2.793 2.793 0 0 0-2.244 2.132l-.023.098c-.069.303-.501.301-.568-.002l-.018-.085a2.779 2.779 0 0 0-2.238-2.144" stroke="currentColor" stroke-linecap="round" stroke-linejoin="round"/>
</svg>
