<svg focusable="false" xmlns="http://www.w3.org/2000/svg" fill="none" role="img" aria-label="Icon" viewBox="0 0 14 14">
  <g stroke="currentColor" stroke-linecap="round" stroke-linejoin="round">
    <path d="M6.022 4.347a18.452 18.452 0 0 0-1.93 1.686C1.248 8.877-.192 12.046.874 13.113c1.066 1.066 4.236-.375 7.079-3.219a18.452 18.452 0 0 0 1.686-1.93"/>
    <path d="M9.639 7.964c1.677 2.226 2.36 4.32 1.532 5.148-1.067 1.067-4.236-.374-7.08-3.218C1.249 7.051-.191 3.882.875 2.815c.828-.827 2.922-.145 5.148 1.532"/>
    <path d="M5.522 7.964a.5.5 0 1 0 1 0 .5.5 0 0 0-1 0m2.51-4.354c-.315-.055-.315-.505 0-.56a2.843 2.843 0 0 0 2.29-2.193L10.34.77c.068-.31.51-.312.58-.002l.024.1a2.858 2.858 0 0 0 2.296 2.18c.316.055.316.509 0 .564a2.858 2.858 0 0 0-2.296 2.18l-.024.1c-.07.31-.512.308-.58-.002l-.02-.087A2.843 2.843 0 0 0 8.03 3.61"/>
  </g>
</svg>
