<svg focusable="false" xmlns="http://www.w3.org/2000/svg" fill="none" role="img" aria-label="Icon" viewBox="0 0 14 14">
  <g stroke="currentColor" stroke-linecap="round" stroke-linejoin="round">
    <path d="M6.623 3.145a.838.838 0 0 0-.78-.537h-.686a.838.838 0 0 0-.78.537l-.36.93-1.24.703-.988-.15a.838.838 0 0 0-.838.41l-.335.587a.838.838 0 0 0 .067.946l.628.78v1.407l-.612.78a.838.838 0 0 0-.067.946l.335.586a.838.838 0 0 0 .838.41l.989-.15 1.223.704.36.93a.838.838 0 0 0 .78.536h.703a.838.838 0 0 0 .78-.536l.36-.93 1.223-.704.988.15a.837.837 0 0 0 .838-.41l.335-.586a.837.837 0 0 0-.067-.947l-.628-.78V7.85m-5.865.204a1.676 1.676 0 1 0 3.352 0 1.676 1.676 0 0 0-3.352 0"/>
    <path d="M8 4.75A2.75 2.75 0 0 1 10.75 2v0a2.75 2.75 0 0 1 2.75 2.75V5a1 1 0 0 1-1 1H9a1 1 0 0 1-1-1z"/>
    <path d="M9.75 4.5a.25.25 0 0 1 0-.5m0 .5a.25.25 0 0 0 0-.5m2 .5a.25.25 0 1 1 0-.5m0 .5a.25.25 0 1 0 0-.5m-1-2V.5"/>
  </g>
</svg>
