<svg focusable="false" xmlns="http://www.w3.org/2000/svg" fill="none" role="img" aria-label="Icon" viewBox="0 0 14 14">
  <path d="M.5 3.44V1.429A.93.93 0 0 1 1.429.5h2.01m7.121 0h2.011a.93.93 0 0 1 .93.929v2.01M.5 10.56v2.011a.93.93 0 0 0 .929.929h2.01M13.5 10.56v2.011a.929.929 0 0 1-.929.929h-2.01M3.419 7.385c-.432-.075-.432-.695 0-.77A3.909 3.909 0 0 0 6.567 3.6l.026-.119c.093-.427.701-.43.798-.003l.032.138a3.929 3.929 0 0 0 3.157 2.997c.434.075.434.699 0 .774a3.929 3.929 0 0 0-3.157 2.997l-.032.138c-.097.426-.705.424-.798-.003l-.026-.119a3.909 3.909 0 0 0-3.148-3.015" stroke="currentColor" stroke-linecap="round" stroke-linejoin="round"/>
</svg>
