<svg focusable="false" xmlns="http://www.w3.org/2000/svg" fill="none" role="img" aria-label="Icon" viewBox="0 0 14 14">
  <g stroke="currentColor" stroke-linecap="round" stroke-linejoin="round">
    <path d="M5.5 8a.5.5 0 1 0 1 0 .5.5 0 0 0-1 0m2-3a3 3 0 0 1 3-3v0a3 3 0 0 1 3 3v.5a1 1 0 0 1-1 1h-4a1 1 0 0 1-1-1z"/>
    <path d="M9.25 4.75a.25.25 0 0 1 0-.5m0 .5a.25.25 0 0 0 0-.5m2.5.5a.25.25 0 1 1 0-.5m0 .5a.25.25 0 1 0 0-.5M10.5 2V.5M6 4.384a18.453 18.453 0 0 0-1.93 1.685C1.225 8.913-.216 12.082.851 13.15c1.066 1.066 4.235-.375 7.079-3.218A18.453 18.453 0 0 0 9.616 8"/>
    <path d="M9.616 8c1.677 2.226 2.36 4.32 1.532 5.148-1.066 1.067-4.235-.374-7.079-3.217C1.226 7.087-.215 3.918.852 2.85 1.679 2.025 3.774 2.708 6 4.385"/>
  </g>
</svg>
