<svg focusable="false" xmlns="http://www.w3.org/2000/svg" fill="none" role="img" aria-label="Icon" viewBox="0 0 14 14">
  <path d="M.838 3.534c-.303-.053-.303-.49 0-.542A2.75 2.75 0 0 0 3.053.871l.019-.084c.065-.3.493-.302.561-.002l.022.097a2.764 2.764 0 0 0 2.221 2.109c.306.053.306.491 0 .544a2.764 2.764 0 0 0-2.22 2.108l-.023.098c-.068.3-.496.298-.561-.002l-.019-.084A2.75 2.75 0 0 0 .838 3.534M4.333 9.26c-.522-.092-.522-.842 0-.932A4.728 4.728 0 0 0 8.142 4.68l.031-.144c.113-.516.848-.52.966-.004l.038.167a4.752 4.752 0 0 0 3.819 3.625c.525.092.525.845 0 .937a4.752 4.752 0 0 0-3.819 3.625l-.038.167c-.118.516-.853.512-.966-.004l-.031-.144A4.728 4.728 0 0 0 4.333 9.26" stroke="currentColor" stroke-linecap="round" stroke-linejoin="round"/>
</svg>
