<svg focusable="false" xmlns="http://www.w3.org/2000/svg" fill="none" role="img" aria-label="Icon" viewBox="0 0 14 14">
  <g stroke="currentColor" stroke-linecap="round" stroke-linejoin="round">
    <path d="m6.5 12.45-.831.831a.75.75 0 0 1-1.06 0l-3.89-3.89a.75.75 0 0 1 0-1.06l7.72-7.72a.36.36 0 0 1 .29-.11l3.83.59a.37.37 0 0 1 .35.35l.59 3.83a.36.36 0 0 1-.11.29l-.939.939"/>
    <path d="M9.89 4.61a.5.5 0 1 1 0-1 .5.5 0 0 1 0 1m-2.474 6.082c-.35-.06-.35-.565 0-.626a3.176 3.176 0 0 0 2.559-2.45l.02-.096c.077-.347.57-.35.65-.003l.025.112a3.193 3.193 0 0 0 2.566 2.436c.352.061.352.568 0 .629a3.192 3.192 0 0 0-2.566 2.435l-.025.113c-.08.346-.573.344-.65-.003l-.02-.097a3.176 3.176 0 0 0-2.559-2.45"/>
  </g>
</svg>
