<svg focusable="false" xmlns="http://www.w3.org/2000/svg" fill="none" role="img" aria-label="Icon" viewBox="0 0 14 14">
  <g stroke="currentColor" stroke-linecap="round" stroke-linejoin="round">
    <path d="m.5 10 2.444 2.036a2 2 0 0 0 1.28.464h6.443c.46 0 .833-.373.833-.833 0-.92-.746-1.667-1.667-1.667H5.354"/>
    <path d="m3.5 9 .75.75a1.06 1.06 0 0 0 1.5-1.5L4.586 7.086A2 2 0 0 0 3.172 6.5H.5m7-.5a3 3 0 0 1 3-3v0a3 3 0 0 1 3 3v.5a1 1 0 0 1-1 1h-4a1 1 0 0 1-1-1z"/>
    <path d="M9.25 5.75a.25.25 0 0 1 0-.5m0 .5a.25.25 0 0 0 0-.5m2.5.5a.25.25 0 1 1 0-.5m0 .5a.25.25 0 1 0 0-.5M10.5 3V1.5"/>
  </g>
</svg>
