<svg focusable="false" xmlns="http://www.w3.org/2000/svg" fill="none" role="img" aria-label="Icon" viewBox="0 0 14 14">
  <g stroke="currentColor" stroke-linecap="round" stroke-linejoin="round">
    <path d="M5.669 13.281a.75.75 0 0 1-1.06 0l-3.89-3.89a.75.75 0 0 1 0-1.06l7.72-7.72a.36.36 0 0 1 .29-.11l3.83.59a.37.37 0 0 1 .35.35l.59 3.83a.36.36 0 0 1-.11.29l-.889.889"/>
    <path d="M9.89 4.61a.5.5 0 1 1 0-1 .5.5 0 0 1 0 1M7.5 12a3 3 0 0 1 3-3v0a3 3 0 0 1 3 3v.5a1 1 0 0 1-1 1h-4a1 1 0 0 1-1-1z"/>
    <path d="M9.25 11.75a.25.25 0 1 1 0-.5m0 .5a.25.25 0 1 0 0-.5m2.5.5a.25.25 0 1 1 0-.5m0 .5a.25.25 0 1 0 0-.5M10.5 9V7.5"/>
  </g>
</svg>
