<svg focusable="false" xmlns="http://www.w3.org/2000/svg" fill="none" role="img" aria-label="Icon" viewBox="0 0 14 14">
  <g stroke="currentColor" stroke-linecap="round" stroke-linejoin="round">
    <path d="M8.406 7.97c-.386.44-.856.8-1.385 1.061v1.5a.5.5 0 0 1-.5.5h-3a.5.5 0 0 1-.5-.5v-1.5A4.5 4.5 0 0 1 6.875.9M3.021 13.5h4"/>
    <path d="M7.395 3.934c-.351-.061-.351-.565 0-.626A3.176 3.176 0 0 0 9.953.858L9.974.76c.076-.347.57-.349.649-.003l.026.113a3.193 3.193 0 0 0 2.565 2.435c.353.062.353.568 0 .63A3.193 3.193 0 0 0 10.65 6.37l-.026.113c-.079.346-.573.344-.649-.003l-.02-.097a3.176 3.176 0 0 0-2.56-2.45"/>
  </g>
</svg>
