<svg focusable="false" xmlns="http://www.w3.org/2000/svg" fill="none" role="img" aria-label="Icon" viewBox="0 0 14 14">
  <g stroke="currentColor" stroke-linecap="round" stroke-linejoin="round">
    <path d="M.736 10.212 3.18 12.25a2 2 0 0 0 1.28.463h6.443c.46 0 .833-.373.833-.833 0-.92-.746-1.667-1.667-1.667H5.59"/>
    <path d="m3.736 9.212.75.75a1.06 1.06 0 1 0 1.5-1.5L4.822 7.298a2 2 0 0 0-1.414-.586H.736m6.444-1.99c-.351-.061-.351-.565 0-.626a3.176 3.176 0 0 0 2.558-2.45l.022-.097c.075-.347.57-.35.648-.003l.026.113a3.193 3.193 0 0 0 2.565 2.435c.353.061.353.568 0 .63a3.193 3.193 0 0 0-2.565 2.435l-.026.112c-.079.346-.573.344-.648-.003l-.022-.096a3.176 3.176 0 0 0-2.558-2.45"/>
  </g>
</svg>
