<svg focusable="false" xmlns="http://www.w3.org/2000/svg" fill="none" role="img" aria-label="Icon" viewBox="0 0 14 14">
  <g stroke="currentColor" stroke-linecap="round" stroke-linejoin="round">
    <path d="M6.5 12.5a6 6 0 1 0 0-12 6 6 0 0 0 0 12m4.24-1.76 2.76 2.76"/>
    <path d="M3.45 6.828c-.368-.064-.368-.592 0-.656a3.33 3.33 0 0 0 2.68-2.568l.022-.101c.08-.364.597-.366.68-.003l.027.118A3.346 3.346 0 0 0 9.55 6.17c.37.065.37.595 0 .66a3.346 3.346 0 0 0-2.69 2.552l-.027.118c-.083.363-.6.36-.68-.003l-.022-.101A3.33 3.33 0 0 0 3.45 6.828"/>
  </g>
</svg>
