<svg focusable="false" xmlns="http://www.w3.org/2000/svg" fill="none" role="img" aria-label="Icon" viewBox="0 0 14 14">
  <g stroke="currentColor" stroke-linecap="round" stroke-linejoin="round">
    <path d="M5.513 4.963H4.77a1 1 0 0 0-1 .68L3 7.963H1.5a1 1 0 0 0-1 1v2a1 1 0 0 0 1 1H2m10-4h.5a1 1 0 0 1 1 1v2a1 1 0 0 1-1 1H12"/>
    <path d="M10.499 13.463a1.501 1.501 0 1 1 0-3.002 1.501 1.501 0 0 1 0 3.002m-7 0a1.501 1.501 0 1 1 0-3.002 1.501 1.501 0 0 1 0 3.002m5.499-1.5H5M7.416 3.97c-.351-.06-.351-.564 0-.625A3.176 3.176 0 0 0 9.974.895l.022-.097c.075-.347.57-.349.648-.003l.026.113a3.193 3.193 0 0 0 2.565 2.435c.353.062.353.568 0 .63a3.193 3.193 0 0 0-2.565 2.435l-.026.112c-.079.346-.573.344-.648-.003l-.022-.096a3.176 3.176 0 0 0-2.558-2.45"/>
  </g>
</svg>
