<svg focusable="false" xmlns="http://www.w3.org/2000/svg" fill="none" role="img" aria-label="Icon" viewBox="0 0 14 14">
  <g stroke="currentColor" stroke-linecap="round" stroke-linejoin="round">
    <path d="M5.5 5h-.73a1 1 0 0 0-1 .68L3 8H1.5a1 1 0 0 0-1 1v2a1 1 0 0 0 1 1H2m8.5-4h2a1 1 0 0 1 1 1v2a1 1 0 0 1-1 1H12"/>
    <path d="M10.499 13.5a1.501 1.501 0 1 1 0-3.002 1.501 1.501 0 0 1 0 3.002m-7 0a1.501 1.501 0 1 1 0-3.002 1.501 1.501 0 0 1 0 3.002M8.998 12H5m2.5-7a3 3 0 0 1 3-3v0a3 3 0 0 1 3 3v.5a1 1 0 0 1-1 1h-4a1 1 0 0 1-1-1z"/>
    <path d="M9.25 4.75a.25.25 0 0 1 0-.5m0 .5a.25.25 0 0 0 0-.5m2.5.5a.25.25 0 1 1 0-.5m0 .5a.25.25 0 1 0 0-.5M10.5 2V.5"/>
  </g>
</svg>
