<svg focusable="false" xmlns="http://www.w3.org/2000/svg" fill="none" role="img" aria-label="Icon" viewBox="0 0 14 14">
  <path d="M7 11.652a10.73 10.73 0 0 1-2.145 1.457c-.938.479-2.015.13-2.76-.614a3.25 3.25 0 0 1-.664-3.65l2.941-6.454a2.888 2.888 0 0 1 5.256 0l2.941 6.454a3.25 3.25 0 0 1-.664 3.65c-.745.744-1.822 1.093-2.76.614A10.729 10.729 0 0 1 7 11.652m0 0c1.05-.922 1.859-2.033 1.859-3.07 0-1.39-.93-2.317-1.859-2.317-.93 0-1.859.927-1.859 2.317 0 1.037.808 2.148 1.859 3.07" stroke="currentColor" stroke-linecap="round" stroke-linejoin="round"/>
</svg>
