<svg focusable="false" xmlns="http://www.w3.org/2000/svg" fill="none" role="img" aria-label="Icon" viewBox="0 0 14 14">
  <path d="M9.146 13.274 7 12.344l-2.146.93a.99.99 0 0 1-1.035-1.665L5.72 10 5.5 7.969l-3.637.821a.989.989 0 0 1-.665-1.846l1.916-.972M13.5 13.5.5.5M5.031 5l-.19-1.298a2.966 2.966 0 0 1 .607-2.267 1.977 1.977 0 0 1 3.104 0c.505.64.725 1.46.607 2.267L8.969 5l3.833 1.944a.989.989 0 0 1-.665 1.846L8.5 7.97l-.052.48" stroke="currentColor" stroke-linecap="round" stroke-linejoin="round"/>
</svg>
