<svg focusable="false" xmlns="http://www.w3.org/2000/svg" fill="none" role="img" aria-label="Icon" viewBox="0 0 14 14">
  <g stroke="currentColor" stroke-linecap="round" stroke-linejoin="round">
    <path d="M13.207.793a1 1 0 0 1 .293.707v11a1 1 0 0 1-1 1h-11a1 1 0 0 1-1-1v-11a1 1 0 0 1 1-1h11a1 1 0 0 1 .707.293m-2.76 4.412v3.59M9.25 5.205h2.394"/>
    <path d="M6.747 5.205v3.59h2.095m-6.592 0L3.352 5.49a.415.415 0 0 1 .394-.284v0c.179 0 .337.114.394.284l1.102 3.306M2.649 7.598h2.194"/>
  </g>
</svg>
