<svg focusable="false" xmlns="http://www.w3.org/2000/svg" fill="none" role="img" aria-label="Icon" viewBox="0 0 14 14">
  <g stroke="currentColor" stroke-linecap="round" stroke-linejoin="round">
    <path d="M8.469 6.777c0 1.046-1.06 1.893-2.367 1.893-1.308 0-2.368-.847-2.368-1.893s1.06-1.894 2.368-1.894h2.367"/>
    <path d="M3.734 2.988c0-1.046 1.06-1.894 2.368-1.894 1.307 0 2.367.848 2.367 1.894v4.018c.082.403.42 1.25 1.11 1.415M.84 10.061c1.135 1.03 3.57 1.996 6.6 1.848 3.03-.148 5.179-1.338 5.874-1.914"/>
    <path d="M10.545 9.495c1.178-.423 2.78.33 2.78.33s-.08 1.769-1.005 2.613"/>
  </g>
</svg>
