<svg focusable="false" xmlns="http://www.w3.org/2000/svg" fill="none" role="img" aria-label="Icon" viewBox="0 0 14 14">
  <g stroke="currentColor" stroke-linecap="round" stroke-linejoin="round">
    <path d="M9.159 10.773V4a1 1 0 0 0-1-1H1.702a1 1 0 0 0-1 1v6.626a1 1 0 0 0 1 1h.787m10.809-3.893H9.16"/>
    <path d="M11.638 11.626h.682a1 1 0 0 0 1-1.008l-.024-3.18-1.392-2.85a1 1 0 0 0-.899-.562h-1.86m-6.643 7.63a1.396 1.396 0 1 0 2.792 0 1.396 1.396 0 1 0-2.792 0"/>
    <path d="M8.839 11.656a1.396 1.396 0 1 0 2.792 0 1.396 1.396 0 1 0-2.792 0M3.431 7H6.43m-1.5-1.499v2.998m3.909 3.127H5.294"/>
  </g>
</svg>
