<svg focusable="false" xmlns="http://www.w3.org/2000/svg" fill="none" role="img" aria-label="Icon" viewBox="0 0 14 14">
  <g stroke="currentColor" stroke-linecap="round" stroke-linejoin="round">
    <path d="M6.458 3.026a1.058 1.058 0 0 0 1.084 0c1.645-1.077 3.9-.438 4.782 1.355 1.425 2.711.444 6.332-1.518 8.477-.39.381-.898.608-1.434.638a2.216 2.216 0 0 1-1.494-.47 1.48 1.48 0 0 0-1.756 0 2.216 2.216 0 0 1-1.494.47 2.232 2.232 0 0 1-1.434-.638C1.232 10.713.251 7.092 1.676 4.38c.882-1.793 3.137-2.432 4.782-1.355"/>
    <path d="M9.5.5C7 1 7 3 7 3v.175"/>
  </g>
</svg>
