<svg focusable="false" xmlns="http://www.w3.org/2000/svg" fill="none" role="img" aria-label="Icon" viewBox="0 0 14 14">
  <path d="M8.194 6.069a4 4 0 1 0-5.66 1.92m1.98-3.5 1.5-1.5m6.3 4.09-1.06.29a.34.34 0 0 0-.24.32v1.3l-4.4.52a2.48 2.48 0 0 0-2.31 3 .66.66 0 0 0 .83.47l2.65-.71.23-.02 1.33 1.15a.39.39 0 0 0 .34.08l1.2-.33a.36.36 0 0 0 .17-.61l-.83-.88.17-.05 2.59-.7a.67.67 0 0 0 .49-.8l-.76-2.81a.34.34 0 0 0-.4-.22" stroke="currentColor" stroke-linecap="round" stroke-linejoin="round"/>
</svg>
