<svg focusable="false" xmlns="http://www.w3.org/2000/svg" fill="none" role="img" aria-label="Icon" viewBox="0 0 14 14">
  <g stroke="currentColor" stroke-linecap="round" stroke-linejoin="round">
    <path d="M7.5 5a3 3 0 0 1 3-3v0a3 3 0 0 1 3 3v.5a1 1 0 0 1-1 1h-4a1 1 0 0 1-1-1z"/>
    <path d="M9.25 4.75a.25.25 0 0 1 0-.5m0 .5a.25.25 0 0 0 0-.5m2.5.5a.25.25 0 1 1 0-.5m0 .5a.25.25 0 1 0 0-.5M10.5 2V.5M7 8v2.289a2.724 2.724 0 1 1-5.439-.23C.994 9.452.636 8.26.636 7.266c0-1.354.665-2.671 1.617-3.189a2.38 2.38 0 0 1 4.11-1.879"/>
    <path d="M3.511 5.694c-.35-.08-1.141-.599-1.26-1.611m.039 4.549c-.356.28-.64.917-.731 1.427m5.441.23a2.724 2.724 0 1 0 5.439-.23c.333-.357.594-.917.753-1.519"/>
    <path d="M11.71 8.632c.356.28.64.917.731 1.427"/>
  </g>
</svg>
