<svg focusable="false" xmlns="http://www.w3.org/2000/svg" fill="none" role="img" aria-label="Icon" viewBox="0 0 14 14">
  <g stroke="currentColor" stroke-linecap="round" stroke-linejoin="round">
    <path d="M4.62 1.438A2.38 2.38 0 0 1 7 3.818v6.47a2.724 2.724 0 1 1-5.439-.228C.994 9.45.636 8.26.636 7.265c0-1.354.665-2.671 1.617-3.189A2.38 2.38 0 0 1 4.62 1.438m4.76 0A2.38 2.38 0 0 0 7 3.818v6.47a2.724 2.724 0 1 0 5.439-.228c.567-.61.924-1.8.924-2.795 0-1.354-.664-2.67-1.617-3.189A2.38 2.38 0 0 0 9.38 1.438"/>
    <path d="M10.489 5.694c.35-.08 1.141-.599 1.26-1.611M9.03 8.365C7.602 8.205 7.037 6.699 7 6.086m4.71 2.546c.356.28.64.917.731 1.427M2.5 7.5a1 1 0 1 0 2 0 1 1 0 1 0-2 0m2 0H7M7 10H4.5v1M7 4.5H4.5L2.687 2.688"/>
  </g>
</svg>
