<svg focusable="false" xmlns="http://www.w3.org/2000/svg" fill="none" role="img" aria-label="Icon" viewBox="0 0 14 14">
  <g stroke="currentColor" stroke-linecap="round" stroke-linejoin="round">
    <path d="M8.5 1.5h4v4h-4zm1 0v-1m2 1v-1m-2 6v-1m2 1v-1m1-3h1m-1 2h1m-6-2h1m-1 2h1M7 7.318v2.97a2.724 2.724 0 1 1-5.439-.228C.994 9.45.636 8.26.636 7.265c0-1.354.665-2.671 1.617-3.189A2.38 2.38 0 0 1 5.5 1.606"/>
    <path d="M3.511 5.694c-.35-.08-1.141-.599-1.26-1.611m.039 4.549c-.356.28-.64.917-.731 1.427m5.441.23a2.724 2.724 0 1 0 5.439-.23c.497-.533.833-1.514.908-2.418"/>
    <path d="M11.71 8.632c.356.28.64.917.731 1.427"/>
  </g>
</svg>
