<svg focusable="false" xmlns="http://www.w3.org/2000/svg" fill="none" role="img" aria-label="Icon" viewBox="0 0 14 14">
  <g stroke="currentColor" stroke-linecap="round" stroke-linejoin="round">
    <path d="M9.282 9.282c-3.36 3.36-7.106 5.063-8.366 3.803-1.26-1.26.442-5.006 3.802-8.367 3.36-3.36 7.106-5.063 8.367-3.802 1.26 1.26-.443 5.005-3.803 8.366"/>
    <path d="M4.718 9.282c3.36 3.36 7.106 5.063 8.367 3.802 1.26-1.26-.443-5.005-3.803-8.366C5.922 1.358 2.176-.345.916.916c-1.26 1.26.442 5.005 3.802 8.366"/>
    <path d="M7 7.5a.5.5 0 0 1 0-1m0 1a.5.5 0 0 0 0-1"/>
  </g>
</svg>
