<svg focusable="false" xmlns="http://www.w3.org/2000/svg" fill="none" role="img" aria-label="Icon" viewBox="0 0 14 14">
  <g stroke="currentColor" stroke-linecap="round" stroke-linejoin="round">
    <path d="M5.9 3.373v2.073h1.602a1.037 1.037 0 1 0 0-2.073z"/>
    <path d="M5.9 5.446v2.45h1.79a1.225 1.225 0 0 0 0-2.45zm7.45-1.32a1.131 1.131 0 0 0-1.067-.753h-.754a1.13 1.13 0 0 0-1.13 1.13v2.262a1.13 1.13 0 0 0 1.13 1.131h.754c.493 0 .912-.315 1.067-.754M.648 7.896 2.037 3.73a.523.523 0 0 1 .496-.357v0c.225 0 .425.144.496.357l1.389 4.166M1.151 6.388h2.764M.898 10.627a.25.25 0 1 1 0-.5m0 .5a.25.25 0 1 0 0-.5m6.102.5a.25.25 0 1 1 0-.5m0 .5a.25.25 0 1 0 0-.5m-3.05.5a.25.25 0 1 1 0-.5m0 .5a.25.25 0 1 0 0-.5m6.1.5a.25.25 0 1 1 0-.5m0 .5a.25.25 0 1 0 0-.5m3.052.5a.25.25 0 1 1 0-.5m0 .5a.25.25 0 0 0 0-.5"/>
  </g>
</svg>
