<svg focusable="false" xmlns="http://www.w3.org/2000/svg" fill="none" role="img" aria-label="Icon" viewBox="0 0 14 14">
  <g stroke="currentColor" stroke-linecap="round" stroke-linejoin="round">
    <path d="M4.874 11.57c-4.079-2.981-.453-8.944 1.36-9.796 1.45-.681 2.719 0 3.172.426 1.713 1.609-.16 3.36.747 4.638 2.788 3.29-1.338 7.612-5.279 4.732"/>
    <path d="M6.282 9.257a1.229 1.229 0 1 0 2.458 0 1.229 1.229 0 1 0-2.458 0m.002-4.75a1.005 1.005 0 1 0 2.01 0 1.005 1.005 0 1 0-2.01 0M5.152 7.235a.25.25 0 1 1 0-.5m0 .5a.25.25 0 1 0 0-.5M7.53 1.486V.542M5.945 1.944l-.528-.782m-.626 1.943-.8-.5m-.184 2.103-.853-.404m.239 2.136-.926-.182m.747 1.854-.943.027m1.312 1.636-.868.37m1.829.987-.657.677m2.133.316-.434.838m2.144.495v-.944m1.797.588-.408-.851m1.958-.239-.665-.67m1.718-1.35-.923-.2m.75-2.042-.881.34m-.043-1.995-.88.34m1.113-2.029-.938-.107m.665-1.813-.874.356M9.41 1.045l-.531.78"/>
  </g>
</svg>
