<svg focusable="false" xmlns="http://www.w3.org/2000/svg" fill="none" role="img" aria-label="Icon" viewBox="0 0 14 14">
  <g stroke="currentColor" stroke-linecap="round" stroke-linejoin="round">
    <path d="M7.582 7.956a1.027 1.027 0 0 0 1.043-1.028v0a1.027 1.027 0 0 0-1.028-1.027H6.015a.375.375 0 0 0-.375.375v3.75a.375.375 0 0 0 .375.375h1.567a1.215 1.215 0 0 0 0-2.43zm.015 0H5.64M6.884 5.9v-.69m0 6v-.81"/>
    <path d="M7 13.5c3.5 0 6-1.238 6-3.994 0-2.995-1.5-4.992-4.5-6.49l1.18-1.518A.658.658 0 0 0 9.12.5H4.88a.66.66 0 0 0-.56.998L5.5 3.026C2.5 4.534 1 6.531 1 9.526 1 12.262 3.5 13.5 7 13.5"/>
  </g>
</svg>
