<svg focusable="false" xmlns="http://www.w3.org/2000/svg" fill="none" role="img" aria-label="Icon" viewBox="0 0 14 14">
  <g stroke="currentColor" stroke-linecap="round" stroke-linejoin="round">
    <path d="M9.75 8.5c2.19 0 3.75-.77 3.75-2.45 0-1.85-.94-3.09-2.81-4l.74-.95a.41.41 0 0 0-.35-.6H8.42a.41.41 0 0 0-.35.59l.74 1C6.94 3 6 4.2 6 6.05 6 7.73 7.56 8.5 9.75 8.5M.5 11l2.444 2.036a2 2 0 0 0 1.28.464h6.443c.46 0 .833-.373.833-.833 0-.92-.746-1.667-1.667-1.667H5.354"/>
    <path d="m3.5 10 .75.75a1.06 1.06 0 0 0 1.5-1.5L4.586 8.086A2 2 0 0 0 3.172 7.5H.5"/>
  </g>
</svg>
