<svg focusable="false" xmlns="http://www.w3.org/2000/svg" fill="none" role="img" aria-label="Icon" viewBox="0 0 14 14">
  <g stroke="currentColor" stroke-linejoin="round">
    <path d="M9.188 5.575 9 4.67h.17l2.55.83a.67.67 0 0 0 .85-.41l.9-2.77a.34.34 0 0 0-.21-.36l-1-.34a.34.34 0 0 0-.39.13l-.73 1.13-4-2a2.49 2.49 0 0 0-3.61 1.31.68.68 0 0 0 .47.9l2.61.84.26.09.11.377" stroke-linecap="round"/>
    <path d="M.5 12.5v-4a1 1 0 0 1 1-1h7a1 1 0 0 1 1 1v4a1 1 0 0 1-1 1h-7a1 1 0 0 1-1-1Z"/>
    <path d="M3.25 13.5V7.25a1.75 1.75 0 1 1 3.5 0v6.25"/>
  </g>
</svg>
