<svg focusable="false" xmlns="http://www.w3.org/2000/svg" fill="none" role="img" aria-label="Icon" viewBox="0 0 14 14">
  <g stroke="currentColor" stroke-linecap="round" stroke-linejoin="round">
    <path d="M4.704 11.276c3.424-1.226 5.251-4.87 4.08-8.14l-.608-.665.23.622c-.15 3.47-3.218 6.155-6.851 5.997-.705-.03-1.274.676-.81 1.207a6.186 6.186 0 0 0 3.315 1.95c-.064-.369.2-.812.644-.971"/>
    <path d="M4.704 11.276c3.424-1.226 5.251-4.87 4.08-8.14l-.973-1.064a.648.648 0 0 1 .26-1.047l.923-.33a.629.629 0 0 1 .653.138c.762.746 2.84 2.882 3.447 4.577 1.087 3.036-.61 6.42-3.789 7.558a6.231 6.231 0 0 1-4.894-.27c-.63-.315-.371-1.184.293-1.422"/>
  </g>
</svg>
