<svg focusable="false" xmlns="http://www.w3.org/2000/svg" fill="none" role="img" aria-label="Icon" viewBox="0 0 14 14">
  <path d="M10.645 6.131a2.668 2.668 0 0 0-2.668 2.668h5.337a2.668 2.668 0 0 0-2.669-2.668M7.977 8.8a2.668 2.668 0 0 0 4.847 1.539m-3.96-6.874h3.558M.86 7.021h2.984m-2.985 0v4.448h2.985c1.374 0 2.488-.996 2.488-2.224S5.218 7.021 3.844 7.021m-2.985 0V2.574h2.985c1.374 0 2.488.996 2.488 2.224 0 1.228-1.114 2.223-2.488 2.223" stroke="currentColor" stroke-linecap="round" stroke-linejoin="round"/>
</svg>
