<svg focusable="false" xmlns="http://www.w3.org/2000/svg" fill="none" role="img" aria-label="Icon" viewBox="0 0 14 14">
  <g stroke="currentColor" stroke-linecap="round" stroke-linejoin="round">
    <path d="M10 1.75H1.5a1 1 0 0 0-1 1v6a1 1 0 0 0 1 1H10a1 1 0 0 0 1-1v-6a1 1 0 0 0-1-1"/>
    <path d="M3.5 12.25h9a1 1 0 0 0 1-1v-5M2.525 5.857a.25.25 0 0 1 0-.5m0 .5a.25.25 0 0 0 0-.5m6.45.5a.25.25 0 0 1 0-.5m0 .5a.25.25 0 0 0 0-.5M5.75 7a1.25 1.25 0 1 0 0-2.5 1.25 1.25 0 0 0 0 2.5"/>
  </g>
</svg>
