<svg focusable="false" xmlns="http://www.w3.org/2000/svg" fill="none" role="img" aria-label="Icon" viewBox="0 0 14 14">
  <path d="M2.385 1.678V4.17c0 .651.527 1.179 1.178 1.179h.875A1.18 1.18 0 0 0 5.617 4.17V1.68c0-.653-.528-1.18-1.179-1.18h-.875c-.65 0-1.178.528-1.178 1.178M8.288 9.83v2.492c0 .65.528 1.178 1.178 1.178h.876c.65 0 1.178-.527 1.178-1.178V9.83c0-.651-.528-1.179-1.178-1.179h-.876c-.65 0-1.178.528-1.178 1.179M9.95.554v4.71M8.38 1.732h.393c.65 0 1.177-.528 1.177-1.178m1.57 4.71H8.38M3.955 8.707v4.71m-1.57-3.533h.392c.65 0 1.178-.527 1.178-1.177m1.57 4.71h-3.14" stroke="currentColor" stroke-linecap="round" stroke-linejoin="round"/>
</svg>
