<svg focusable="false" xmlns="http://www.w3.org/2000/svg" fill="none" role="img" aria-label="Icon" viewBox="0 0 14 14">
  <g stroke="currentColor" stroke-linecap="round" stroke-linejoin="round">
    <path d="M11.458 6.005h.992a.992.992 0 0 1 .992 1.12l-.724 5.455a.991.991 0 0 1-.992.863H2.264a.991.991 0 0 1-.991-.863L.558 7.126a.992.992 0 0 1 .982-1.121h.992"/>
    <path d="M10.426 13.443 9.37 8.732 8.314 4.02h.416a1.736 1.736 0 0 0 0-3.471H5.26a1.736 1.736 0 0 0 0 3.471h.406L4.615 8.73l-1.052 4.712"/>
  </g>
</svg>
