<svg focusable="false" xmlns="http://www.w3.org/2000/svg" fill="none" role="img" aria-label="Icon" viewBox="0 0 14 14">
  <path d="M3.55.5h-2.5a.5.5 0 0 0-.5.5v12a.5.5 0 0 0 .5.5h2.5a.5.5 0 0 0 .5-.5V1a.5.5 0 0 0-.5-.5m3.5 2h-2.5a.5.5 0 0 0-.5.5v10a.5.5 0 0 0 .5.5h2.5a.5.5 0 0 0 .5-.5V3a.5.5 0 0 0-.5-.5m3.347-.274-1.94.486a.5.5 0 0 0-.364.606l2.427 9.701a.5.5 0 0 0 .607.364l1.94-.486a.5.5 0 0 0 .364-.606L11.003 2.59a.5.5 0 0 0-.606-.364M.55 10h3.5m6 1 2.88-.72" stroke="currentColor" stroke-linecap="round" stroke-linejoin="round"/>
</svg>
