<svg focusable="false" xmlns="http://www.w3.org/2000/svg" fill="none" role="img" aria-label="Icon" viewBox="0 0 14 14">
  <g stroke="currentColor" stroke-linecap="round" stroke-linejoin="round">
    <path d="M5.5 4.5c-.39 0-1.083.304-1.133 1.148-.03.497-.198 1.017-.643 1.24L3.5 7l.224.112c.445.223.613.743.643 1.24.05.844.743 1.148 1.133 1.148m3-5c.39 0 1.083.304 1.133 1.148.03.497.198 1.017.643 1.24L10.5 7l-.224.112c-.445.223-.613.743-.643 1.24A1.174 1.174 0 0 1 8.5 9.5"/>
    <path d="M7 13.25A6.25 6.25 0 1 0 7 .75a6.25 6.25 0 0 0 0 12.5"/>
  </g>
</svg>
