<svg focusable="false" xmlns="http://www.w3.org/2000/svg" fill="none" role="img" aria-label="Icon" viewBox="0 0 14 14">
  <path d="m2.834 13.45-.394-.664a1.715 1.715 0 0 1 1.157-2.561l1.036-.195V5.322c0-.765.62-1.385 1.385-1.385v0c.765 0 1.385.62 1.385 1.385v3.212h1.489a2.573 2.573 0 0 1 2.573 2.573v2.343M1.716 1.566a.375.375 0 0 1 0-.75m0 .75a.375.375 0 0 0 0-.75m4.26.75a.375.375 0 0 1 0-.75m0 .75a.375.375 0 0 0 0-.75m6.858.75a.375.375 0 0 1 0-.75m0 .75a.375.375 0 0 0 0-.75m0 4.337a.375.375 0 0 1 0-.75m0 .75a.375.375 0 0 0 0-.75m-2.898.75a.375.375 0 1 1 0-.75m0 .75a.375.375 0 0 0 0-.75m-8.22.75a.375.375 0 1 1 0-.75m0 .75a.375.375 0 0 0 0-.75m0 4.319a.375.375 0 0 1 0-.75m0 .75a.375.375 0 0 0 0-.75" stroke="currentColor" stroke-linecap="round" stroke-linejoin="round"/>
</svg>
