<svg focusable="false" xmlns="http://www.w3.org/2000/svg" fill="none" role="img" aria-label="Icon" viewBox="0 0 14 14">
  <g stroke="currentColor" stroke-linecap="round" stroke-linejoin="round">
    <path d="M.5 3.494h13m-8.266 7.53a1.702 1.702 0 1 0 0-3.405 1.702 1.702 0 0 0 0 3.405"/>
    <path d="M6.465 8.145 8.802 5.76a.365.365 0 0 1 .26-.11.36.36 0 0 1 .258.11l1.149 1.192m-2.791-.043 1.048 1.048"/>
    <path d="M12.5.5h-11a1 1 0 0 0-1 1v11a1 1 0 0 0 1 1h11a1 1 0 0 0 1-1v-11a1 1 0 0 0-1-1"/>
  </g>
</svg>
