<svg focusable="false" xmlns="http://www.w3.org/2000/svg" fill="none" role="img" aria-label="Icon" viewBox="0 0 14 14">
  <g stroke="currentColor" stroke-linecap="round" stroke-linejoin="round">
    <path d="M7.427 5.015c.151-.064.287.086.223.193a3.617 3.617 0 0 0-.445 1.268 2.997 2.997 0 0 0 0 .877c.017.104.04.206.071.306a1.9 1.9 0 0 0 .338.649.172.172 0 0 0 .13.064.173.173 0 0 0 .136-.057l.2-.207a2.32 2.32 0 0 0 .166-.206 1.29 1.29 0 0 0 .136-.207c.036-.071.165-.185.352 0 .43.352.724.943.667 1.51a2.24 2.24 0 0 1-.373 1.198 2.573 2.573 0 0 1-2.033 1.028 2.592 2.592 0 0 1-2.059-.978 2.502 2.502 0 0 1-.344-1.247c0-.824.25-1.629.718-2.31a5.106 5.106 0 0 1 2.117-1.88M.5 3.494h13"/>
    <path d="M12.5.5h-11a1 1 0 0 0-1 1v11a1 1 0 0 0 1 1h11a1 1 0 0 0 1-1v-11a1 1 0 0 0-1-1"/>
  </g>
</svg>
