<svg focusable="false" xmlns="http://www.w3.org/2000/svg" fill="none" role="img" aria-label="Icon" viewBox="0 0 14 14">
  <g stroke="currentColor" stroke-linejoin="round">
    <path d="M4.75 10.5v-2a.5.5 0 0 1 .5-.5h3.5a.5.5 0 0 1 .5.5v2a.5.5 0 0 1-.5.5h-3.5a.5.5 0 0 1-.5-.5Z"/>
    <path d="M5.5 8V7A1.5 1.5 0 0 1 7 5.5v0A1.5 1.5 0 0 1 8.5 7v1m-8-4.506h13" stroke-linecap="round"/>
    <path d="M12.5.5h-11a1 1 0 0 0-1 1v11a1 1 0 0 0 1 1h11a1 1 0 0 0 1-1v-11a1 1 0 0 0-1-1" stroke-linecap="round"/>
  </g>
</svg>
