<svg focusable="false" xmlns="http://www.w3.org/2000/svg" fill="none" role="img" aria-label="Icon" viewBox="0 0 14 14">
  <g stroke="currentColor" stroke-linecap="round" stroke-linejoin="round">
    <path d="M.5 3.494h13M12.5.5h-11a1 1 0 0 0-1 1v11a1 1 0 0 0 1 1h11a1 1 0 0 0 1-1v-11a1 1 0 0 0-1-1"/>
    <path d="m7.22 5.573.744 1.495a.233.233 0 0 0 .19.139l1.652.25a.25.25 0 0 1 .138.433L8.725 9.048a.242.242 0 0 0 0 .225l.234 1.642a.25.25 0 0 1-.372.268l-1.47-.778a.294.294 0 0 0-.242 0l-1.47.778a.251.251 0 0 1-.371-.268l.276-1.642a.242.242 0 0 0-.043-.225L4.048 7.881a.25.25 0 0 1 .139-.423l1.65-.243a.233.233 0 0 0 .19-.138l.744-1.495a.25.25 0 0 1 .45-.01"/>
  </g>
</svg>
