<svg focusable="false" xmlns="http://www.w3.org/2000/svg" fill="none" role="img" aria-label="Icon" viewBox="0 0 14 14">
  <g stroke="currentColor">
    <path d="m.865 10.397 2.6 2.601a1 1 0 0 0 1.415 0l5.294-5.293-4.016-4.016L.865 8.983a1 1 0 0 0 0 1.414" stroke-linecap="round" stroke-linejoin="round"/>
    <path d="m.6 9.562 5.378 1.409a1 1 0 0 0 1.22-1.221L5.724 4.129" stroke-linecap="round" stroke-linejoin="round"/>
    <path d="M6.648 4.18c.122-.191.36-.502.547-.651a2.111 2.111 0 0 1 2.97.33c.73.911.583 2.24-.329 2.97l-.297.237" stroke-linecap="round"/>
    <path d="M6.46 4.003a1.784 1.784 0 0 1 0-2.523 1.79 1.79 0 0 1 2.083-.326l.055-.058a1.782 1.782 0 0 1 2.524 0c.315.316.488.72.518 1.134.41.032.814.199 1.127.512a1.784 1.784 0 0 1 0 2.523l-.06.058A1.785 1.785 0 0 1 9.86 7.404" stroke-linejoin="round"/>
  </g>
</svg>
