<svg focusable="false" xmlns="http://www.w3.org/2000/svg" fill="none" role="img" aria-label="Icon" viewBox="0 0 14 14">
  <g stroke="currentColor" stroke-linecap="round" stroke-linejoin="round">
    <path d="M2.278 2.85a2 2 0 0 1 2-2h5.444a2 2 0 0 1 2 2v7.85a1 1 0 0 1-1 1H3.278a1 1 0 0 1-1-1zm1.518 8.85v1.663M.686 5.902v-1.16c0-.474.384-.858.857-.858h.735"/>
    <path d="M13.324 5.902v-1.16a.858.858 0 0 0-.858-.858h-.744M10.217 11.7v1.663m1.505-5.205H2.278m9.444-4.274H2.278M4.51 9.9h-.714m6.421 0h-.714"/>
  </g>
</svg>
