<svg focusable="false" xmlns="http://www.w3.org/2000/svg" fill="none" role="img" aria-label="Icon" viewBox="0 0 14 14">
  <g stroke="currentColor" stroke-linecap="round" stroke-linejoin="round">
    <path d="M.5 6V4a2 2 0 0 1 2-2H5"/>
    <path d="M3.5.5 5 2 3.5 3.5m10 4.5v2a2 2 0 0 1-2 2H9"/>
    <path d="M10.5 10.5 9 12l1.5 1.5m-3-10v2a1 1 0 0 0 1 1h4a1 1 0 0 0 1-1v-2a1 1 0 0 0-1-1h-4a1 1 0 0 0-1 1m1.75-1v-1a1 1 0 0 1 1-1h.5a1 1 0 0 1 1 1v1M.5 10.5v2a1 1 0 0 0 1 1h4a1 1 0 0 0 1-1v-2a1 1 0 0 0-1-1h-4a1 1 0 0 0-1 1m1.75-1v-1a1 1 0 0 1 1-1h.5a1 1 0 0 1 1 1v1"/>
  </g>
</svg>
