<svg focusable="false" xmlns="http://www.w3.org/2000/svg" fill="none" role="img" aria-label="Icon" viewBox="0 0 14 14">
  <g stroke="currentColor" stroke-linecap="round" stroke-linejoin="round">
    <path d="M10.625 8.754a.44.44 0 0 1-.055.216.403.403 0 0 1-.151.154.377.377 0 0 1-.407 0L7.179 7.156a.408.408 0 0 1-.132-.15.44.44 0 0 1 0-.402.407.407 0 0 1 .132-.151l2.833-1.98a.377.377 0 0 1 .407 0c.062.036.115.09.151.154a.44.44 0 0 1 .055.216z"/>
    <path d="M7.001 8.754a.44.44 0 0 1-.055.216.403.403 0 0 1-.151.154.377.377 0 0 1-.407 0L3.555 7.156a.408.408 0 0 1-.132-.15.44.44 0 0 1 0-.402.408.408 0 0 1 .132-.151l2.833-1.98a.377.377 0 0 1 .407 0c.06.035.112.086.148.15a.439.439 0 0 1 .058.208zM3.377 4.11v5.366"/>
    <path d="M.5 7a6.5 6.5 0 1 0 13 0 6.5 6.5 0 1 0-13 0"/>
  </g>
</svg>
