<svg focusable="false" xmlns="http://www.w3.org/2000/svg" fill="none" role="img" aria-label="Icon" viewBox="0 0 14 14">
  <g stroke="currentColor" stroke-linecap="round" stroke-linejoin="round">
    <path d="M.5 7a6.5 6.5 0 1 0 13 0 6.5 6.5 0 1 0-13 0"/>
    <path d="M4 8.956c0 .076.019.15.055.215a.403.403 0 0 0 .151.154.377.377 0 0 0 .407 0l2.833-1.967a.42.42 0 0 0 .132-.151.44.44 0 0 0 0-.402.408.408 0 0 0-.132-.15l-2.833-1.98a.377.377 0 0 0-.407 0 .403.403 0 0 0-.15.154.44.44 0 0 0-.056.215z"/>
    <path d="M7.624 8.956c0 .076.019.15.055.215a.403.403 0 0 0 .151.154.377.377 0 0 0 .407 0l2.833-1.967a.42.42 0 0 0 .132-.151.44.44 0 0 0 0-.402.408.408 0 0 0-.132-.15l-2.833-1.98a.377.377 0 0 0-.407 0 .402.402 0 0 0-.148.149.439.439 0 0 0-.058.208z"/>
  </g>
</svg>
