<svg focusable="false" xmlns="http://www.w3.org/2000/svg" fill="none" role="img" aria-label="Icon" viewBox="0 0 14 14">
  <g stroke="currentColor" stroke-linecap="round">
    <path d="M7.698 6.82v1.746a1 1 0 0 0 1 1h.498a1 1 0 0 0 1-1V6.82a1 1 0 0 0-1-1h-.498a1 1 0 0 0-1 1M3.804 8.63v-.156c0-.518.42-.937.937-.937h.624c.517 0 .937.42.937.937v.156c0 .517-.42.936-.937.936h-.624a.937.937 0 0 1-.937-.936m0 0V6.756c0-.517.42-.936.937-.936h.624c.408 0 .755.26.883.624" stroke-linejoin="round"/>
    <path d="M5 2h2a5.75 5.75 0 1 1-4 1.62"/>
    <path d="M6.5.5 5 2l1.5 1.5" stroke-linejoin="round"/>
  </g>
</svg>
