<svg focusable="false" xmlns="http://www.w3.org/2000/svg" fill="none" role="img" aria-label="Icon" viewBox="0 0 14 14">
  <g stroke="currentColor" stroke-linecap="round" stroke-linejoin="round">
    <path d="M10 8.956a.44.44 0 0 1-.055.215.403.403 0 0 1-.151.154.377.377 0 0 1-.407 0L6.554 7.358a.408.408 0 0 1-.132-.151.44.44 0 0 1 0-.402.408.408 0 0 1 .132-.15l2.833-1.98a.377.377 0 0 1 .407 0 .39.39 0 0 1 .15.154.44.44 0 0 1 .056.215z"/>
    <path d="M6.376 8.956a.44.44 0 0 1-.055.215.403.403 0 0 1-.151.154.377.377 0 0 1-.407 0L2.93 7.358a.408.408 0 0 1-.132-.151.44.44 0 0 1 0-.402.408.408 0 0 1 .132-.15l2.833-1.98a.377.377 0 0 1 .407 0 .4.4 0 0 1 .148.149.439.439 0 0 1 .058.208z"/>
    <path d="M.5 7a6.5 6.5 0 1 0 13 0 6.5 6.5 0 1 0-13 0"/>
  </g>
</svg>
