<svg focusable="false" xmlns="http://www.w3.org/2000/svg" fill="none" role="img" aria-label="Icon" viewBox="0 0 14 14">
  <g stroke="currentColor" stroke-linecap="round" stroke-linejoin="round">
    <path d="M3.375 8.754c0 .076.019.15.055.216a.403.403 0 0 0 .151.154.377.377 0 0 0 .407 0l2.833-1.968c.055-.037.1-.09.132-.15a.44.44 0 0 0 0-.402.407.407 0 0 0-.132-.151l-2.833-1.98a.377.377 0 0 0-.407 0 .403.403 0 0 0-.151.154.44.44 0 0 0-.055.216z"/>
    <path d="M6.999 8.754c0 .076.019.15.055.216a.403.403 0 0 0 .151.154.377.377 0 0 0 .407 0l2.833-1.968c.055-.037.1-.09.132-.15a.44.44 0 0 0 0-.402.407.407 0 0 0-.132-.151l-2.833-1.98a.377.377 0 0 0-.407 0 .402.402 0 0 0-.148.15.439.439 0 0 0-.058.208zm3.624-4.644v5.366"/>
    <path d="M.5 7a6.5 6.5 0 1 0 13 0 6.5 6.5 0 1 0-13 0"/>
  </g>
</svg>
