<svg focusable="false" xmlns="http://www.w3.org/2000/svg" fill="none" role="img" aria-label="Icon" viewBox="0 0 14 14">
  <g stroke="currentColor" stroke-linecap="round" stroke-linejoin="round">
    <path d="M11.5.5h-9a1 1 0 0 0-1 1v11a1 1 0 0 0 1 1h9a1 1 0 0 0 1-1v-11a1 1 0 0 0-1-1m-10 5h11"/>
    <path d="M4.25 8.5a.25.25 0 0 1 0-.5m0 .5a.25.25 0 0 0 0-.5M7 8.5A.25.25 0 0 1 7 8m0 .5A.25.25 0 0 0 7 8m2.75.5a.25.25 0 0 1 0-.5m0 .5a.25.25 0 0 0 0-.5m-5.5 3a.25.25 0 1 1 0-.5m0 .5a.25.25 0 1 0 0-.5M7 11a.25.25 0 1 1 0-.5m0 .5a.25.25 0 1 0 0-.5m2.75.5a.25.25 0 1 1 0-.5m0 .5a.25.25 0 1 0 0-.5M10 3H9"/>
  </g>
</svg>
