<svg focusable="false" xmlns="http://www.w3.org/2000/svg" fill="none" role="img" aria-label="Icon" viewBox="0 0 14 14">
  <g stroke="currentColor" stroke-linecap="round" stroke-linejoin="round">
    <path d="M1.5 2a1 1 0 0 0-1 1v9.5a1 1 0 0 0 1 1h11a1 1 0 0 0 1-1V3a1 1 0 0 0-1-1h-2M3.5.5v3m7-3v3M3.5 2h5"/>
    <path d="M7.528 5.015c.148-.063.282.085.218.19-.515.9-.726 2.2-.035 3.066a.178.178 0 0 0 .26.007c.184-.19.494-.613.494-.613.035-.07.162-.183.346 0 .689.69.839 1.842.288 2.678a2.56 2.56 0 0 1-1.996 1.017c-1.283.015-2.349-.912-2.359-2.2 0-1.77 1.224-3.394 2.784-4.145"/>
  </g>
</svg>
