<svg focusable="false" xmlns="http://www.w3.org/2000/svg" fill="none" role="img" aria-label="Icon" viewBox="0 0 14 14">
  <g stroke="currentColor" stroke-linecap="round" stroke-linejoin="round">
    <path d="M1.5 2a1 1 0 0 0-1 1v9.5a1 1 0 0 0 1 1h11a1 1 0 0 0 1-1V3a1 1 0 0 0-1-1h-2M3.5.5v3m7-3v3M3.5 2h5"/>
    <path d="m3.17 7.22.802-.273a.272.272 0 0 1 .312.104l.585.905 3.204-1.602a1.995 1.995 0 0 1 2.892 1.05.546.546 0 0 1-.377.72l-1.844.583-.208.072-.393 1.346a.288.288 0 0 1-.192.2l-1.192.395a.298.298 0 0 1-.384-.328l.208-1.002h-.136l-2.043.665a.537.537 0 0 1-.68-.328l-.722-2.22a.272.272 0 0 1 .169-.288"/>
  </g>
</svg>
