<svg focusable="false" xmlns="http://www.w3.org/2000/svg" fill="none" role="img" aria-label="Icon" viewBox="0 0 14 14">
  <g stroke="currentColor" stroke-linecap="round" stroke-linejoin="round">
    <path d="M1.5 2a1 1 0 0 0-1 1v9.5a1 1 0 0 0 1 1h11a1 1 0 0 0 1-1V3a1 1 0 0 0-1-1h-2M3.5.5v3m7-3v3M3.5 2h5M7 4.5v1.393m-2.813.232 1.207.696M4.187 9.375l1.207-.696M7 11V9.607m2.814-.232L8.606 8.68m1.208-2.555-1.208.696"/>
    <path d="M7 9.607a1.857 1.857 0 1 0 0-3.714 1.857 1.857 0 0 0 0 3.714"/>
  </g>
</svg>
