<svg focusable="false" xmlns="http://www.w3.org/2000/svg" fill="none" role="img" aria-label="Icon" viewBox="0 0 14 14">
  <g stroke="currentColor" stroke-linejoin="round">
    <path d="M1.5 2a1 1 0 0 0-1 1v9.5a1 1 0 0 0 1 1h11a1 1 0 0 0 1-1V3a1 1 0 0 0-1-1h-2M3.5.5v3m7-3v3M3.5 2h5" stroke-linecap="round"/>
    <path d="M4.75 10V8a.5.5 0 0 1 .5-.5h3.5a.5.5 0 0 1 .5.5v2a.5.5 0 0 1-.5.5h-3.5a.5.5 0 0 1-.5-.5Z"/>
    <path d="M5.5 7.5v-1A1.5 1.5 0 0 1 7 5v0a1.5 1.5 0 0 1 1.5 1.5v1" stroke-linecap="round"/>
  </g>
</svg>
