<svg focusable="false" xmlns="http://www.w3.org/2000/svg" fill="none" role="img" aria-label="Icon" viewBox="0 0 14 14">
  <path d="M5.761 8.69a1.061 1.061 0 0 1-1.484 0 1.052 1.052 0 0 0-1.474 0L.926 10.549a1.062 1.062 0 0 0 0 1.484l.442.433a3.135 3.135 0 0 0 3.931.432 28.444 28.444 0 0 0 2.647-2.021M.5.5l13 13M9.467 9.467a28.437 28.437 0 0 0 3.46-4.177 3.135 3.135 0 0 0-.433-3.931L12.06.916a1.061 1.061 0 0 0-1.484 0L8.71 2.784a1.052 1.052 0 0 0 0 1.474 1.042 1.042 0 0 1 0 1.484L7.226 7.226" stroke="currentColor" stroke-linecap="round" stroke-linejoin="round"/>
</svg>
