<svg focusable="false" xmlns="http://www.w3.org/2000/svg" fill="none" role="img" aria-label="Icon" viewBox="0 0 14 14">
  <path d="M7.506 13.065a2.7 2.7 0 0 0 3.37-.36l.38-.38a.91.91 0 0 0 0-1.28l-1.6-1.59a.9.9 0 0 0-1.27 0v0a.91.91 0 0 1-1.28 0l-2.55-2.55a.91.91 0 0 1 0-1.28v0a.9.9 0 0 0 0-1.27l-1.54-1.6a.91.91 0 0 0-1.28 0l-.38.38a2.7 2.7 0 0 0-.41 3.37 24.23 24.23 0 0 0 6.56 6.56m5.959-9.893h-2.748a.215.215 0 0 1-.215-.216v0a.22.22 0 0 1 .053-.142l1.96-2.24a.204.204 0 0 1 .153-.07v0c.113 0 .204.092.204.204v3.353M8.85 4.06H6.48v-.505a.89.89 0 0 1 .533-.814l1.319-.577a.866.866 0 0 0-.347-1.66h-.616a.89.89 0 0 0-.838.593" stroke="currentColor" stroke-linecap="round" stroke-linejoin="round"/>
</svg>
