<svg focusable="false" xmlns="http://www.w3.org/2000/svg" fill="none" role="img" aria-label="Icon" viewBox="0 0 14 14">
  <g stroke="currentColor" stroke-linecap="round" stroke-linejoin="round">
    <path d="m.713 10.521.949-1.238-.536-1.325a3.978 3.978 0 0 1-.29-1.49V3.636A1.13 1.13 0 0 1 3.08 3.43l.365 1.96.74-1.2m4.898 3.156.59-.976a1.456 1.456 0 0 0-2.49-1.511l-.594.972a1.46 1.46 0 1 0 2.494 1.515"/>
    <path d="m6.606 5.82.59-.975a1.456 1.456 0 0 0-2.49-1.511l-.594.972A1.46 1.46 0 1 0 6.606 5.82m-.094 7.5.792-1.016 1.026-.373a4 4 0 0 0 2.139-1.829l2.815-5.106a1.225 1.225 0 0 0-2.134-1.203L9.477 6.697"/>
  </g>
</svg>
