<svg focusable="false" xmlns="http://www.w3.org/2000/svg" fill="none" role="img" aria-label="Icon" viewBox="0 0 14 14">
  <g stroke="currentColor" stroke-linecap="round" stroke-linejoin="round">
    <path d="M9.5 12H7C3.41 12 .5 10.88.5 9.5c0-.563.484-1.082 1.3-1.5m9.7 3.304c1.233-.455 2-1.095 2-1.804 0-.563-.484-1.082-1.3-1.5"/>
    <path d="M8 10.5 9.5 12 8 13.5M10.5 5a1 1 0 0 0-1-1H9L8 2.5H6L5 4h-.5a1 1 0 0 0-1 1v2.5a1 1 0 0 0 1 1h5a1 1 0 0 0 1-1z"/>
    <path d="M7 6.375a.375.375 0 1 1 0-.75m0 .75a.375.375 0 1 0 0-.75"/>
  </g>
</svg>
