<svg focusable="false" xmlns="http://www.w3.org/2000/svg" fill="none" role="img" aria-label="Icon" viewBox="0 0 14 14">
  <g stroke="currentColor" stroke-linecap="round" stroke-linejoin="round">
    <path d="m8.799 9.98-.057-.642a1.183 1.183 0 0 1 1.075-1.282v0a1.183 1.183 0 0 1 1.211.764l1.411 3.772M3.57 2.822a1.715 1.715 0 1 0 3.43 0 1.715 1.715 0 1 0-3.43 0"/>
    <path d="m2.099 12.592 2.573-8.148c.278.706 1.565 2.557 3.194 2.386"/>
    <path d="m3.57 7.963 2.087 1.503a1 1 0 0 1 .388.577l.615 2.549"/>
  </g>
</svg>
