<svg focusable="false" xmlns="http://www.w3.org/2000/svg" fill="none" role="img" aria-label="Icon" viewBox="0 0 14 14">
  <path d="M3.68 8.84h6.64M4 10.544h.5m5-.044h.5m-6 3v-1m6 1v-1m-6.5 0a1 1 0 0 1-1-1v-1.368c0-.274.131-.532.353-.693.276-.201.546-.417.832-.604l.537-2.33a.858.858 0 0 1 .836-.664h3.884c.4 0 .746.276.836.665l.537 2.33c.286.186.556.402.832.603a.856.856 0 0 1 .353.693V11.5a1 1 0 0 1-1 1zM3 2a1.5 1.5 0 1 0 3 0 1.5 1.5 0 1 0-3 0m3 0h4v1.5M8 2v1.5" stroke="currentColor" stroke-linecap="round" stroke-linejoin="round"/>
</svg>
