<svg focusable="false" xmlns="http://www.w3.org/2000/svg" fill="none" role="img" aria-label="Icon" viewBox="0 0 14 14">
  <g stroke="currentColor" stroke-linecap="round">
    <path d="M7.69 5.99v2.02c0 .567.459 1.027 1.026 1.027h.663c.567 0 1.026-.46 1.026-1.027V5.99c0-.567-.46-1.027-1.026-1.027h-.663c-.567 0-1.027.46-1.027 1.026m-1.463-.347a1.019 1.019 0 0 0-.96-.679h-.679c-.562 0-1.018.456-1.018 1.019v2.036c0 .563.456 1.019 1.018 1.019h.679c.443 0 .82-.284.96-.68m7.224 5.093h-2.106v-.479c0-.334.186-.637.473-.771l1.172-.547a.824.824 0 0 0 .461-.752c0-.453-.344-.82-.77-.82h-.546a.795.795 0 0 0-.745.561" stroke-linejoin="round"/>
    <path d="M13.45 7a6.45 6.45 0 1 0-4.478 6.143"/>
  </g>
</svg>
