<svg focusable="false" xmlns="http://www.w3.org/2000/svg" fill="none" role="img" aria-label="Icon" viewBox="0 0 14 14">
  <g stroke="currentColor" stroke-linecap="round" stroke-linejoin="round">
    <path d="M2.14 1.672a1 1 0 0 1 1-1h7.72a1 1 0 0 1 1 1v10.656a1 1 0 0 1-1 1H3.14a1 1 0 0 1-1-1z"/>
    <path d="M5.174 7.27a.5.5 0 0 1 0-.54l1.405-2.184a.5.5 0 0 1 .841 0l1.406 2.183a.5.5 0 0 1 0 .542L7.42 9.454a.5.5 0 0 1-.84 0zm-.981-4.244a.25.25 0 0 1 0-.5m0 .5a.25.25 0 0 0 0-.5m5.614 8.948a.25.25 0 1 1 0-.5m0 .5a.25.25 0 1 0 0-.5"/>
  </g>
</svg>
