<svg focusable="false" xmlns="http://www.w3.org/2000/svg" fill="none" role="img" aria-label="Icon" viewBox="0 0 14 14">
  <g stroke="currentColor" stroke-linecap="round" stroke-linejoin="round">
    <path d="m11.775 10.538.115.417a.52.52 0 0 1-.38.639l-7.28 1.888a.54.54 0 0 1-.66-.368L.784 3.044a.52.52 0 0 1 .38-.638L8.445.518a.54.54 0 0 1 .66.368l1.349 4.761"/>
    <path d="M9.683 2.957c1.546.68 4.345 2.523 3.401 4.196-1.18 2.092-5.46.14-7.095-.477"/>
    <path d="M7.444 9.53 5.995 6.67l2.86-1.448"/>
  </g>
</svg>
