<svg focusable="false" xmlns="http://www.w3.org/2000/svg" fill="none" role="img" aria-label="Icon" viewBox="0 0 14 14">
  <g stroke="currentColor" stroke-linecap="round" stroke-linejoin="round">
    <path d="M7 13.5a6.5 6.5 0 1 0 0-13 6.5 6.5 0 0 0 0 13"/>
    <path d="M7.9 8.85a.25.25 0 0 1 0-.5m0 .5a.25.25 0 1 0 0-.5m-1.8.5a.25.25 0 0 1 0-.5m0 .5a.25.25 0 0 0 0-.5m.9-5.3a.25.25 0 0 1 0-.5m0 .5a.25.25 0 0 0 0-.5m0 8.9a.25.25 0 1 1 0-.5m0 .5a.25.25 0 1 0 0-.5m-4.2-3.7a.25.25 0 0 1 0-.5m0 .5a.25.25 0 0 0 0-.5m2.3.5a.25.25 0 0 1 0-.5m0 .5a.25.25 0 0 0 0-.5m3.7.5a.25.25 0 0 1 0-.5m0 .5a.25.25 0 0 0 0-.5m-.9-1.1a.25.25 0 1 1 0-.5m0 .5a.25.25 0 1 0 0-.5m-1.8.5a.25.25 0 1 1 0-.5m0 .5a.25.25 0 1 0 0-.5m5 2.1a.25.25 0 1 1 0-.5m0 .5a.25.25 0 1 0 0-.5M10 4.15a.25.25 0 1 1 0-.5m0 .5a.25.25 0 1 0 0-.5m-6.1.5a.25.25 0 1 1 0-.5m0 .5a.25.25 0 1 0 0-.5m6.1 6.7a.25.25 0 1 1 0-.5m0 .5a.25.25 0 1 0 0-.5m-6.1.5a.25.25 0 1 1 0-.5m0 .5a.25.25 0 1 0 0-.5"/>
  </g>
</svg>
