<svg focusable="false" xmlns="http://www.w3.org/2000/svg" fill="none" role="img" aria-label="Icon" viewBox="0 0 14 14">
  <g stroke="currentColor" stroke-linecap="round" stroke-linejoin="round">
    <path d="M2.728.635h8.545s.5 0 .5.5v6.529s0 .5-.5.5H2.728s-.5 0-.5-.5V1.135s0-.5.5-.5m-1.049 9.778h10.679s.5 0 .5.5v2.07s0 .5-.5.5H1.679s-.5 0-.5-.5v-2.07s0-.5.5-.5m4.738 1.535h1.166m.653-3.784.847 2.249M5.802 8.164l-.847 2.249"/>
    <path d="M8.117 3.233a.874.874 0 0 0-.825-.584h-.678a.781.781 0 0 0-.167 1.544l1.032.226a.875.875 0 0 1-.187 1.73h-.584a.875.875 0 0 1-.825-.583"/>
  </g>
</svg>
