<svg focusable="false" xmlns="http://www.w3.org/2000/svg" fill="none" role="img" aria-label="Icon" viewBox="0 0 14 14">
  <path d="M9.527 4.846c-.773-.547-1.633-.852-2.511-.892-.877.042-1.734.349-2.505.895M2.098 2.828A7.912 7.912 0 0 1 7.003.952a7.9 7.9 0 0 1 4.9 1.876m-1.689 8.324h1.306v.87c0 .722-.584 1.307-1.306 1.307h-.87a1.306 1.306 0 0 1-1.306-1.306V9.41c0-.72.585-1.305 1.306-1.305h.87c.569 0 1.053.363 1.232.87M6.45 12.023H2.414a.316.316 0 0 1-.316-.316v0c0-.077.027-.151.078-.209l2.879-3.29a.3.3 0 0 1 .225-.102v0a.3.3 0 0 1 .3.299v4.924" stroke="currentColor" stroke-linecap="round" stroke-linejoin="round"/>
</svg>
