<svg focusable="false" xmlns="http://www.w3.org/2000/svg" fill="none" role="img" aria-label="Icon" viewBox="0 0 14 14">
  <path d="M9.59 4.846c-.773-.547-1.633-.852-2.512-.892-.877.042-1.734.349-2.504.895M2.16 2.828A7.912 7.912 0 0 1 7.066.952a7.9 7.9 0 0 1 4.899 1.876m-1.821 8.449h1.306v.87c0 .722-.585 1.307-1.306 1.307h-.87a1.306 1.306 0 0 1-1.306-1.306V9.536c0-.72.584-1.305 1.306-1.305h.87c.569 0 1.052.363 1.232.87m-5.4-.867H3.148l-.435 2.61.32-.16A2.61 2.61 0 0 1 4.2 10.41h.688c.721 0 1.305.584 1.305 1.305v.435c0 .72-.584 1.305-1.305 1.305h-.87a1.305 1.305 0 0 1-1.23-.87" stroke="currentColor" stroke-linecap="round" stroke-linejoin="round"/>
</svg>
