<svg focusable="false" xmlns="http://www.w3.org/2000/svg" fill="none" role="img" aria-label="Icon" viewBox="0 0 14 14">
  <g stroke="currentColor" stroke-linecap="round" stroke-linejoin="round">
    <path d="M3.227 13.5a.58.58 0 0 1 .46-.575c.786-.162 2.09-.368 3.313-.368 1.222 0 2.527.206 3.313.368.272.056.46.298.46.575M.842 6.897h1.68l.403 2.042c.09.455.557.788 1.105.788h5.94c.548 0 1.015-.333 1.105-.788l.404-2.042h1.68"/>
    <path d="m4.092 9.727.55-5.408c-.472-.159-.944-.668-.944-1.432 0-.764 1.415-1.432 1.415-1.432S5.585.5 6.056.5h1.887c.472 0 .943.955.943.955s1.415.668 1.415 1.432c0 .764-.471 1.273-.943 1.432l.55 5.408M7 9.727V13.5m-.472-6.397h.944"/>
  </g>
</svg>
