<svg focusable="false" xmlns="http://www.w3.org/2000/svg" fill="none" role="img" aria-label="Icon" viewBox="0 0 14 14">
  <g stroke="currentColor" stroke-linecap="round" stroke-linejoin="round">
    <path d="M3 13.443h8c1.4 0 2.5-1.1 2.5-2.5s-1.1-2.5-2.5-2.5H3"/>
    <path d="M3.5 11.193a.25.25 0 1 0 0-.5m0 .5a.25.25 0 1 1 0-.5m3.5.5a.25.25 0 1 0 0-.5m0 .5a.25.25 0 1 1 0-.5m3.5.5a.25.25 0 1 0 0-.5m0 .5a.25.25 0 1 1 0-.5M7.242 2.036l-.836-.642.642-.837"/>
    <path d="M4.862 2.801a2.595 2.595 0 1 0 1.6-1.457"/>
  </g>
</svg>
