<svg focusable="false" xmlns="http://www.w3.org/2000/svg" fill="none" role="img" aria-label="Icon" viewBox="0 0 14 14">
  <path d="m13.175.81-2.272 2.253M10.44.5l-.91.91M.5 10.44l2.937-2.936M4.306.541.527 4.321M1.085.542l-.578.577M7.376.518 7.04.853M.505 7.39 2.77 5.123M13.5 3.589l-2.345 2.345m2.318 3.775-.737.736m.729-3.775-2.158 2.16m-4.3-1.19a2.664 2.664 0 1 0 0-5.33 2.664 2.664 0 0 0 0 5.33M1.784 13.5a5.328 5.328 0 0 1 10.443 0" stroke="currentColor" stroke-linecap="round" stroke-linejoin="round"/>
</svg>
