<svg focusable="false" xmlns="http://www.w3.org/2000/svg" fill="none" role="img" aria-label="Icon" viewBox="0 0 14 14">
  <g stroke="currentColor" stroke-linecap="round" stroke-linejoin="round">
    <path d="m4.5 12.5-4 1 1-3v-9a1 1 0 0 1 1-1h10a1 1 0 0 1 1 1v10a1 1 0 0 1-1 1z"/>
    <path d="m7.748 3.403.836 1.681a.262.262 0 0 0 .214.156l1.857.282a.282.282 0 0 1 .155.486L9.44 7.31a.272.272 0 0 0 0 .253l.262 1.847a.282.282 0 0 1-.418.301l-1.652-.875a.33.33 0 0 0-.272 0l-1.653.875a.282.282 0 0 1-.418-.301L5.6 7.563a.272.272 0 0 0-.048-.253l-1.37-1.312a.282.282 0 0 1 .155-.476l1.856-.272a.263.263 0 0 0 .214-.156l.836-1.681a.282.282 0 0 1 .505-.01"/>
  </g>
</svg>
