<svg focusable="false" xmlns="http://www.w3.org/2000/svg" fill="none" role="img" aria-label="Icon" viewBox="0 0 14 14">
  <g stroke="currentColor" stroke-linecap="round" stroke-linejoin="round">
    <path d="M6.998.56a6.44 6.44 0 0 0-5.36 10.006L.558 13.44l3.617-.654A6.44 6.44 0 1 0 6.998.56"/>
    <path d="m7.274 3.778.84 1.69a.264.264 0 0 0 .214.156l1.866.283a.283.283 0 0 1 .156.488l-1.377 1.31a.273.273 0 0 0 0 .253l.264 1.856a.283.283 0 0 1-.42.303l-1.66-.88a.332.332 0 0 0-.274 0l-1.66.88a.284.284 0 0 1-.42-.303l.312-1.856a.273.273 0 0 0-.049-.254L3.69 6.386a.283.283 0 0 1 .157-.479l1.865-.273a.264.264 0 0 0 .215-.157l.84-1.69a.283.283 0 0 1 .508-.009"/>
  </g>
</svg>
