<svg focusable="false" xmlns="http://www.w3.org/2000/svg" fill="none" role="img" aria-label="Icon" viewBox="0 0 14 14">
  <g stroke="currentColor" stroke-linecap="round" stroke-linejoin="round">
    <path d="M4.145 12.84a6.5 6.5 0 1 0-2.556-2.238m2.556 2.239L.5 13.5l1.089-2.897m2.556 2.238.005-.001m-2.561-2.237.001-.003"/>
    <path d="m10.135 5.25-1.52.673v-.808a.539.539 0 0 0-.538-.539h-4.04a.539.539 0 0 0-.538.539v3.77a.539.539 0 0 0 .539.539h4.04a.539.539 0 0 0 .538-.539v-.808l1.519.674a.27.27 0 0 0 .366-.254V5.503a.27.27 0 0 0-.366-.254"/>
  </g>
</svg>
