<svg focusable="false" xmlns="http://www.w3.org/2000/svg" fill="none" role="img" aria-label="Icon" viewBox="0 0 14 14">
  <g stroke="currentColor" stroke-linecap="round" stroke-linejoin="round">
    <path d="m4.5 12.5-4 1 1-3v-9a1 1 0 0 1 1-1h10a1 1 0 0 1 1 1v10a1 1 0 0 1-1 1z"/>
    <path d="m7.836 2.966.84 1.69a.264.264 0 0 0 .215.155l1.865.284a.283.283 0 0 1 .157.488L9.535 6.892a.273.273 0 0 0 0 .254L9.8 9a.283.283 0 0 1-.42.303l-1.66-.879a.332.332 0 0 0-.274 0l-1.66.879A.283.283 0 0 1 5.366 9l.313-1.855a.273.273 0 0 0-.05-.254L4.253 5.573a.283.283 0 0 1 .156-.478l1.865-.274a.264.264 0 0 0 .215-.156l.84-1.69a.283.283 0 0 1 .508-.01"/>
  </g>
</svg>
