<svg focusable="false" xmlns="http://www.w3.org/2000/svg" fill="none" role="img" aria-label="Icon" viewBox="0 0 14 14">
  <g stroke="currentColor" stroke-linecap="round" stroke-linejoin="round">
    <path d="M4.145 12.84a6.5 6.5 0 1 0-2.556-2.238m2.556 2.239L.5 13.5l1.089-2.897m2.556 2.238.005-.001m-2.561-2.237.001-.003"/>
    <path d="M6.367 10.486a2.14 2.14 0 0 1-2.46-.58l-.31-.31a.67.67 0 0 1-.12-.92l1-1a.67.67 0 0 1 .92.12.67.67 0 0 0 .92.12l1.6-1.6a.67.67 0 0 0-.12-.92.67.67 0 0 1-.12-.92l1-1a.67.67 0 0 1 .92.12l.31.31a2.15 2.15 0 0 1 .58 2.46 12 12 0 0 1-4.12 4.12"/>
  </g>
</svg>
