<svg focusable="false" xmlns="http://www.w3.org/2000/svg" fill="none" role="img" aria-label="Icon" viewBox="0 0 14 14">
  <g stroke="currentColor" stroke-linecap="round" stroke-linejoin="round">
    <path d="m4.5 12.5-4 1 1-3v-9a1 1 0 0 1 1-1h10a1 1 0 0 1 1 1v10a1 1 0 0 1-1 1z"/>
    <path d="M6.867 9.986a2.14 2.14 0 0 1-2.46-.58l-.31-.31a.67.67 0 0 1-.12-.92l1-1a.67.67 0 0 1 .92.12.67.67 0 0 0 .92.12l1.6-1.6a.67.67 0 0 0-.12-.92.67.67 0 0 1-.12-.92l1-1a.67.67 0 0 1 .92.12l.31.31a2.15 2.15 0 0 1 .58 2.46 12 12 0 0 1-4.12 4.12"/>
  </g>
</svg>
