<svg focusable="false" xmlns="http://www.w3.org/2000/svg" fill="none" role="img" aria-label="Icon" viewBox="0 0 14 14">
  <g stroke="currentColor" stroke-linecap="round" stroke-linejoin="round">
    <path d="M9.5 1.5H11a1 1 0 0 1 1 1v10a1 1 0 0 1-1 1H3a1 1 0 0 1-1-1v-10a1 1 0 0 1 1-1h1.5"/>
    <path d="M8.5.5h-3a1 1 0 0 0-1 1V2a1 1 0 0 0 1 1h3a1 1 0 0 0 1-1v-.5a1 1 0 0 0-1-1M6.303 5.21a.43.43 0 0 0-.43.43v1.207H4.666a.43.43 0 0 0-.43.43v1.395c0 .237.193.43.43.43h1.207v1.207c0 .237.193.43.43.43h1.395a.43.43 0 0 0 .43-.43V9.101h1.207a.43.43 0 0 0 .43-.429V7.277a.43.43 0 0 0-.43-.43H8.128V5.64a.43.43 0 0 0-.43-.429z"/>
  </g>
</svg>
