<svg focusable="false" xmlns="http://www.w3.org/2000/svg" fill="none" role="img" aria-label="Icon" viewBox="0 0 14 14">
  <g stroke="currentColor" stroke-linecap="round" stroke-linejoin="round">
    <path d="M2.42 11.256a.969.969 0 0 1 .92-.662h7.321c.417 0 .787.267.92.662l.747 2.244H1.672z"/>
    <path d="M3.572 10.594c.158-.83 1.306-1.783 2.117-2.418 1.945-1.522 1.765-2.824 1.447-3.177L5.193 6.11a1.233 1.233 0 0 1-1.437-.154v0a1.233 1.233 0 0 1-.237-1.543L4.983 1.93 4.42.658c.93-.33 3.501-.155 4.518.635 1.27.989 2.894 2.489 1.553 9.3"/>
    <path d="M7.773 3.971a1.89 1.89 0 0 1-.631 1.03"/>
  </g>
</svg>
