<svg focusable="false" xmlns="http://www.w3.org/2000/svg" fill="none" role="img" aria-label="Icon" viewBox="0 0 14 14">
  <g stroke="currentColor" stroke-linecap="round" stroke-linejoin="round">
    <path d="M2.887 11.485a.87.87 0 0 1 .825-.595h6.576a.87.87 0 0 1 .825.595l.672 2.015h-9.57zm2.765-5.307L3.226 5.034 4.748 8.87l-.274 2.02h5.052l-.274-2.02 1.522-3.836-2.426 1.144L7 4.653z"/>
    <path d="M9.95 5.432c0-1.546-1.32-2.8-2.95-2.8-1.629 0-2.95 1.254-2.95 2.8"/>
    <path d="M5.934 1.566a1.066 1.066 0 1 0 2.132 0 1.066 1.066 0 0 0-2.132 0"/>
  </g>
</svg>
