<svg focusable="false" xmlns="http://www.w3.org/2000/svg" fill="none" role="img" aria-label="Icon" viewBox="0 0 14 14">
  <path d="M3.5.519v.96m2 .5.5-.5m-4.5.5-.5-.5m12.288 8.466.115-.574a5.001 5.001 0 0 0 .03-1.803l-.316-1.887a1.03 1.03 0 0 0-2.039.283l.148 1.33L7.543 3.61A1.042 1.042 0 0 0 6.07 5.084L5.186 4.2a1.042 1.042 0 0 0-1.473 1.474l1.473 1.473A1.042 1.042 0 0 0 3.713 8.62l4.373 4.373a1.67 1.67 0 0 0 1.179.488h.488M5.186 7.147l1.915 1.915M6.07 5.084l2.21 2.21m-5.86-1.13-.435-.435a.87.87 0 1 0-1.23 1.23l1.23 1.23A.87.87 0 0 0 .755 9.42l3.652 3.653c.261.26.615.408.985.408h.407" stroke="currentColor" stroke-linecap="round" stroke-linejoin="round"/>
</svg>
