<svg focusable="false" xmlns="http://www.w3.org/2000/svg" fill="none" role="img" aria-label="Icon" viewBox="0 0 14 14">
  <path d="M9.318 10.452a1.715 1.715 0 0 1 1.702-1.503h.135c.865 0 1.595.644 1.702 1.503l.34 2.715H8.978zm1.77-1.502V.907M4 4.5A1.75 1.75 0 1 0 4 1a1.75 1.75 0 0 0 0 3.5m1.703 6.356L5.277 13H2.723l-.426-2.144H.926c-.229 0-.415-.193-.426-.436 0-.015 0-.028.002-.043C.545 10 1.21 4.5 4 4.5c2.791 0 3.455 5.499 3.498 5.877a.266.266 0 0 1 .002.043c-.011.243-.197.436-.426.436z" stroke="currentColor" stroke-linecap="round" stroke-linejoin="round"/>
</svg>
