<svg focusable="false" xmlns="http://www.w3.org/2000/svg" fill="none" role="img" aria-label="Icon" viewBox="0 0 14 14">
  <g stroke="currentColor" stroke-linecap="round" stroke-linejoin="round">
    <path d="M3.76 10.215h1.363c.718 0 1.363-.574 1.363-1.363V8.35m6.815-.067c-.364-.219-.802-.292-1.24-.292h-1.677c-.73 0-1.386.584-1.386 1.386 0 .802.73 1.24 1.459 1.24.51 0 .948.438.948.948v.672" stroke-miterlimit="10"/>
    <path d="M5.199.7c-2.7 0-4.125 1.98-4.5 2.7.375.72 1.8 2.7 4.5 2.7s4.125-1.98 4.5-2.7c-.375-.72-1.8-2.7-4.5-2.7"/>
    <path d="M4.275 3.319a.924.924 0 1 0 1.848 0 .924.924 0 1 0-1.848 0m6.857.936a4.95 4.95 0 1 1-7.676 3.359"/>
  </g>
</svg>
