<svg focusable="false" xmlns="http://www.w3.org/2000/svg" fill="none" role="img" aria-label="Icon" viewBox="0 0 14 14">
  <g stroke="currentColor" stroke-linecap="round" stroke-linejoin="round">
    <path d="M3.374 5.725 2.7 4.867a.924.924 0 0 1-.074-1.043l.369-.647a.922.922 0 0 1 .921-.452l1.088.166 1.345-.775.397-1.025a.923.923 0 0 1 .857-.59h.756a.92.92 0 0 1 .857.59l.396 1.025 1.364.775 1.087-.166a.92.92 0 0 1 .922.452l.369.647a.924.924 0 0 1-.074 1.043l-.691.858v1.55l.672.86a.924.924 0 0 1 .074 1.042l-.369.647a.922.922 0 0 1-.921.452l-1.088-.166-1.345.775-.396 1.025a.923.923 0 0 1-.857.59"/>
    <path d="M8.687 8.206A1.844 1.844 0 0 0 9.825 6.5a1.848 1.848 0 0 0-1.843-1.846 1.841 1.841 0 0 0-1.703 1.14M3.5 13.5a3 3 0 1 0 0-6 3 3 0 0 0 0 6m.75-3.75-.75.75"/>
  </g>
</svg>
