<svg focusable="false" xmlns="http://www.w3.org/2000/svg" fill="none" role="img" aria-label="Icon" viewBox="0 0 14 14">
  <g stroke="currentColor" stroke-linecap="round" stroke-linejoin="round">
    <path d="M10.242 7.889H7.495a.215.215 0 0 1-.216-.215v0a.22.22 0 0 1 .053-.142l1.96-2.24a.204.204 0 0 1 .154-.07v0c.112 0 .204.091.204.204v3.352m-3.522 0h-2.37v-.505a.89.89 0 0 1 .532-.815l1.32-.577a.866.866 0 0 0-.348-1.66h-.615a.89.89 0 0 0-.839.594"/>
    <path d="M13.002 4.5A6.502 6.502 0 0 0 .5 7a6.5 6.5 0 0 0 12.826 1.5"/>
    <path d="M13.5 2v2.5H11"/>
  </g>
</svg>
