<svg focusable="false" xmlns="http://www.w3.org/2000/svg" fill="none" role="img" aria-label="Icon" viewBox="0 0 14 14">
  <g stroke="currentColor" stroke-linecap="round" stroke-linejoin="round">
    <path d="M2 11.062A3.195 3.195 0 0 1 .52 8.577a3.193 3.193 0 0 1 2.972-3.4.228.228 0 0 0 .21-.126 3.868 3.868 0 0 1 7.508.91.246.246 0 0 0 .173.2A2.73 2.73 0 0 1 12 11.249M8.108 8.946 5.89 10.055"/>
    <path d="M8 8.5a1 1 0 1 0 2 0 1 1 0 1 0-2 0m-4 2a1 1 0 1 0 2 0 1 1 0 1 0-2 0m4 2a1 1 0 1 0 2 0 1 1 0 1 0-2 0m-2.11-1.555 2.218 1.109"/>
  </g>
</svg>
