<svg focusable="false" xmlns="http://www.w3.org/2000/svg" fill="none" role="img" aria-label="Icon" viewBox="0 0 14 14">
  <g stroke="currentColor" stroke-linecap="round" stroke-linejoin="round">
    <path d="m3.602 5.216-.288.744-.992.563-.791-.121a.67.67 0 0 0-.67.328l-.269.47a.67.67 0 0 0 .054.757l.503.623v1.126l-.49.624a.67.67 0 0 0-.053.757l.268.47a.67.67 0 0 0 .67.328l.791-.121.979.563.288.744a.67.67 0 0 0 .623.429h.563a.669.669 0 0 0 .624-.43l.288-.743.978-.563.791.12a.672.672 0 0 0 .67-.328l.269-.469a.67.67 0 0 0-.054-.757l-.503-.624V8.58l.49-.623a.67.67 0 0 0 .053-.757l-.268-.47a.67.67 0 0 0-.67-.328l-.791.12-.979-.562-.288-.744a.67.67 0 0 0-.623-.43h-.55a.67.67 0 0 0-.623.43"/>
    <path d="M3.46 9.838a1.25 1.25 0 1 1 2.08-1.39 1.25 1.25 0 0 1-2.08 1.39m6.979-9.07-.18.465-.62.352-.495-.075a.419.419 0 0 0-.419.205l-.167.293a.419.419 0 0 0 .033.473l.314.39v.704l-.305.39a.419.419 0 0 0-.034.473l.168.293a.419.419 0 0 0 .419.205l.494-.075.612.352.18.465a.418.418 0 0 0 .39.268h.351a.419.419 0 0 0 .39-.268l.18-.465.611-.352.495.075a.419.419 0 0 0 .419-.205l.167-.293a.42.42 0 0 0-.033-.474l-.314-.39v-.703l.305-.39a.42.42 0 0 0 .034-.473l-.168-.293a.419.419 0 0 0-.419-.205l-.494.075-.611-.352-.18-.465a.418.418 0 0 0-.39-.268h-.344a.419.419 0 0 0-.39.268"/>
    <path d="M11 3.473a.25.25 0 1 1 0-.5m0 .5a.25.25 0 1 0 0-.5"/>
  </g>
</svg>
