<svg focusable="false" xmlns="http://www.w3.org/2000/svg" fill="none" role="img" aria-label="Icon" viewBox="0 0 14 14">
  <path d="M3 13.25v-7.5m2.5 7.5v-5.5m3 5.5v-5.5m2.5 5.5v-7.5m-.004-5H3.004c-.45 0-.893.121-1.28.352a2.538 2.538 0 0 0-1.217 2.25c.038.9.591 1.746 1.4 2.14a2.498 2.498 0 0 0 3.385-1.245h3.416a2.498 2.498 0 0 0 3.384 1.246 2.538 2.538 0 0 0 1.401-2.141c.038-.9-.444-1.79-1.217-2.25a2.497 2.497 0 0 0-1.28-.352" stroke="currentColor" stroke-linecap="round" stroke-linejoin="round"/>
</svg>
