<svg focusable="false" xmlns="http://www.w3.org/2000/svg" fill="none" role="img" aria-label="Icon" viewBox="0 0 14 14">
  <path d="M11.506.5H2.52a.998.998 0 0 0-.998.998V7.49c0 .552.447.999.998.999h8.986a.998.998 0 0 0 .999-.999V1.5a.998.998 0 0 0-.999-1m.779 10.534a1 1 0 0 0-.899-.55H2.64a.999.999 0 0 0-.899.55l-.499.998a.998.998 0 0 0 .05.999.998.998 0 0 0 .849.469h9.745a.999.999 0 0 0 .848-.47.999.999 0 0 0 0-.998zM1.522 5.992h10.983" stroke="currentColor" stroke-linecap="round" stroke-linejoin="round"/>
</svg>
