<svg focusable="false" xmlns="http://www.w3.org/2000/svg" fill="none" role="img" aria-label="Icon" viewBox="0 0 14 14">
  <g stroke="currentColor" stroke-linecap="round" stroke-linejoin="round">
    <path d="M5.222 1.985H1a.5.5 0 0 0-.5.5v8a.5.5 0 0 0 .5.5h12a.5.5 0 0 0 .5-.5V6.87M6 10.985l-1 2.5m3-2.5 1 2.5m-5 0h6"/>
    <path d="M7.263 3.949c-.35-.061-.35-.565 0-.626A3.176 3.176 0 0 0 9.822.873l.02-.097c.077-.347.57-.35.65-.003l.025.113a3.192 3.192 0 0 0 2.566 2.435c.352.061.352.568 0 .63a3.192 3.192 0 0 0-2.566 2.435l-.025.112c-.08.346-.573.344-.65-.003l-.02-.096a3.176 3.176 0 0 0-2.559-2.45"/>
  </g>
</svg>
