<svg focusable="false" xmlns="http://www.w3.org/2000/svg" fill="none" role="img" aria-label="Icon" viewBox="0 0 14 14">
  <g stroke="currentColor" stroke-linecap="round" stroke-linejoin="round">
    <path d="m2.257 7.399 1.1-3.3a.414.414 0 0 1 .393-.284v0c.178 0 .337.115.393.284l1.1 3.3M2.655 6.204h2.19m4.239.439v1.604h1.24a.802.802 0 1 0 0-1.604zm0 1.604v1.896h1.385a.948.948 0 0 0 0-1.896z"/>
    <path d="M.5 1.5a1 1 0 0 1 1-1H6a1 1 0 0 1 1 1v8.214a1 1 0 0 1-1 1H1.5a1 1 0 0 1-1-1zm13 11V4.286a1 1 0 0 0-1-1H8a1 1 0 0 0-1 1V12.5a1 1 0 0 0 1 1h4.5a1 1 0 0 0 1-1"/>
  </g>
</svg>
