<svg focusable="false" xmlns="http://www.w3.org/2000/svg" fill="none" role="img" aria-label="Icon" viewBox="0 0 14 14">
  <g stroke="currentColor" stroke-linecap="round" stroke-linejoin="round">
    <path d="M8.583 8.15H5.03a.279.279 0 0 1-.279-.278v0c0-.068.024-.133.069-.184L7.355 4.79a.264.264 0 0 1 .198-.09v0c.146 0 .264.118.264.264V9.3"/>
    <path d="M10.5 2.5h-7a1 1 0 0 0-1 1v7a1 1 0 0 0 1 1h7a1 1 0 0 0 1-1v-7a1 1 0 0 0-1-1M5 2.5v-2m4 2v-2M2.5 9h-2m2-4h-2M9 11.5v2m-4-2v2M11.5 5h2m-2 4h2"/>
  </g>
</svg>
