<svg focusable="false" xmlns="http://www.w3.org/2000/svg" fill="none" role="img" aria-label="Icon" viewBox="0 0 14 14">
  <g stroke="currentColor" stroke-linecap="round" stroke-linejoin="round">
    <path d="M6.719 6.813h.562a1.031 1.031 0 1 0 0-2.063H6.72a1.031 1.031 0 1 0 0 2.063"/>
    <path d="M6.719 9.25h.562a1.219 1.219 0 1 0 0-2.437H6.72a1.219 1.219 0 1 0 0 2.437"/>
    <path d="M10.5 2.5h-7a1 1 0 0 0-1 1v7a1 1 0 0 0 1 1h7a1 1 0 0 0 1-1v-7a1 1 0 0 0-1-1M5 2.5v-2m4 2v-2M2.5 9h-2m2-4h-2M9 11.5v2m-4-2v2M11.5 5h2m-2 4h2"/>
  </g>
</svg>
