<svg focusable="false" xmlns="http://www.w3.org/2000/svg" fill="none" role="img" aria-label="Icon" viewBox="0 0 14 14">
  <g stroke="currentColor" stroke-linejoin="round">
    <path d="M4.4 5.02v2.31m1.156-1.155H3.245" stroke-linecap="round"/>
    <path d="m1.256 5.212-.412 3.71a2.283 2.283 0 0 0 4.311 1.273l.36-.72h2.97l.36.72a2.283 2.283 0 0 0 4.31-1.273l-.411-3.71a3 3 0 0 0-2.982-2.669H4.238a3 3 0 0 0-2.982 2.669Z"/>
    <path d="M10.466 5.514a.248.248 0 0 1 0-.495m0 .495a.248.248 0 1 0 0-.495M8.733 6.752a.248.248 0 0 1 .495 0m-.495 0a.248.248 0 1 0 .495 0" stroke-linecap="round"/>
  </g>
</svg>
