<svg focusable="false" xmlns="http://www.w3.org/2000/svg" fill="none" role="img" aria-label="Icon" viewBox="0 0 14 14">
  <g stroke="currentColor" stroke-linecap="round" stroke-linejoin="round">
    <path d="M.594 5.813a3 3 0 0 1 3-3h1.075a1 1 0 0 1 1 1v8.5a1 1 0 0 1-1 1H3.594a3 3 0 0 1-3-3zm12.669 2.25a3 3 0 0 1-3 3H9.188a1 1 0 0 1-1-1v-8.5a1 1 0 0 1 1-1h1.075a3 3 0 0 1 3 3zM3.094 9.469v1.594m7.669-6.657V2.813M3.89 10.266H2.298M9.966 3.61h1.594"/>
    <path d="M2.131 6.063a1 1 0 1 0 2 0 1 1 0 1 0-2 0m9.594 1.75a1 1 0 1 0-2 0 1 1 0 1 0 2 0"/>
  </g>
</svg>
