<svg focusable="false" xmlns="http://www.w3.org/2000/svg" fill="none" role="img" aria-label="Icon" viewBox="0 0 14 14">
  <g stroke="currentColor" stroke-linecap="round" stroke-linejoin="round">
    <path d="M2.717 9.666h1.652m-.826-.826v1.652m6.77-3.936H3.78v.005a3.11 3.11 0 1 0 2.344 4.933h1.671a3.11 3.11 0 1 0 2.516-4.938m0 0s0 0 0 0"/>
    <path d="M9.367 10.742a.25.25 0 1 1 0-.5m0 .5a.25.25 0 1 0 0-.5m1.687-1.25a.25.25 0 1 1 0-.5m0 .5a.25.25 0 1 0 0-.5M3.196 1.45C3.672 1.135 5.098.5 7 .5s3.328.634 3.804.95M5.098 3.828C5.415 3.67 6.24 3.353 7 3.353s1.585.317 1.902.475"/>
  </g>
</svg>
