<svg focusable="false" xmlns="http://www.w3.org/2000/svg" fill="none" role="img" aria-label="Icon" viewBox="0 0 14 14">
  <path d="M3.5 5.266A1.15 1.15 0 0 0 2.416 4.5H1.65A1.15 1.15 0 0 0 .5 5.65v2.299c0 .634.515 1.15 1.15 1.15h.766c.5 0 .926-.32 1.084-.767m9.935-3.07a1.142 1.142 0 0 0-1.078-.762h-.885a1.02 1.02 0 0 0-.218 2.017l1.347.294a1.143 1.143 0 0 1-.244 2.26h-.762c-.497 0-.92-.318-1.078-.761M5.5 5.643v2.286c0 .63.512 1.142 1.143 1.142h.762c.63 0 1.143-.511 1.143-1.142V5.643c0-.631-.512-1.143-1.143-1.143h-.762c-.631 0-1.143.512-1.143 1.143" stroke="currentColor" stroke-linecap="round" stroke-linejoin="round"/>
</svg>
