<svg focusable="false" xmlns="http://www.w3.org/2000/svg" fill="none" role="img" aria-label="Icon" viewBox="0 0 14 14">
  <g stroke="currentColor" stroke-linecap="round" stroke-linejoin="round">
    <path d="M10.44 11.276V3.308c0-.4-.324-.725-.724-.725H4.284c-.4 0-.725.325-.725.725v7.968c0 .4.325.724.725.724h5.432c.4 0 .725-.324.725-.724M7.905 2.583V12M5.37 9.103v1.086"/>
    <path d="M1.906 4.583h-.834a.491.491 0 0 1-.35-.146.503.503 0 0 1-.144-.354v-3A.5.5 0 0 1 .723.73a.491.491 0 0 1 .35-.147h11.855a.496.496 0 0 1 .494.5v3c0 .133-.052.26-.145.354a.491.491 0 0 1-.35.146h-.833"/>
  </g>
</svg>
