<svg focusable="false" xmlns="http://www.w3.org/2000/svg" fill="none" role="img" aria-label="Icon" viewBox="0 0 14 14">
  <g stroke="currentColor" stroke-linecap="round" stroke-linejoin="round">
    <path d="M9.5 13.5V11h2a1 1 0 0 0 1-1V6a5.5 5.5 0 1 0-8 4.9v2.6"/>
    <path d="m6.11 3.88.216-.558A.503.503 0 0 1 6.794 3h.412a.503.503 0 0 1 .468.322l.216.558.734.422.593-.09a.503.503 0 0 1 .503.246l.2.352a.503.503 0 0 1-.04.568l-.367.467v.845l.377.467a.503.503 0 0 1 .04.568l-.2.352a.503.503 0 0 1-.503.246l-.593-.09-.734.422-.216.558a.503.503 0 0 1-.468.322h-.422a.503.503 0 0 1-.468-.322l-.216-.558-.734-.422-.593.09a.503.503 0 0 1-.503-.246l-.2-.352a.503.503 0 0 1 .04-.568l.367-.467v-.845l-.377-.467a.503.503 0 0 1-.04-.568l.2-.352a.503.503 0 0 1 .503-.247l.593.091z"/>
    <path d="M6.5 6.268a.5.5 0 1 0 1 0 .5.5 0 1 0-1 0"/>
  </g>
</svg>
