<svg focusable="false" xmlns="http://www.w3.org/2000/svg" fill="none" role="img" aria-label="Icon" viewBox="0 0 14 14">
  <g stroke="currentColor" stroke-linecap="round" stroke-linejoin="round">
    <path d="M3.114 3.29A6.49 6.49 0 0 0 .5 8.5c0 1.133.29 2.197.799 3.125a6.018 6.018 0 0 1 3.248-3.602m6.355-4.722A6.49 6.49 0 0 1 13.5 8.5a6.47 6.47 0 0 1-.799 3.125 6.017 6.017 0 0 0-3.247-3.602"/>
    <path d="M4.412 7.588 3.354 4.151c-.218-.708-.024-1.487.62-1.852a6.12 6.12 0 0 1 6.051 0c.645.365.839 1.144.62 1.852L9.589 7.588a2.708 2.708 0 0 1-5.176 0M11 9l2-3M3 9 1 6"/>
  </g>
</svg>
