<svg focusable="false" xmlns="http://www.w3.org/2000/svg" fill="none" role="img" aria-label="Icon" viewBox="0 0 14 14">
  <g stroke="currentColor" stroke-linecap="round" stroke-linejoin="round">
    <path d="M.5 8h5m-3 0V6h1m-3 4.5H2m4.5 3v-2h1m-.5-8v2h1m-3.75 5.25a.25.25 0 1 1 0-.5m0 .5a.25.25 0 1 0 0-.5"/>
    <path d="M12 10v2.5a1 1 0 0 1-1 1H1.5a1 1 0 0 1-1-1v-9a3 3 0 0 1 3-3H10v3"/>
    <path d="M13 7h-3a.5.5 0 0 0-.5.5v2a.5.5 0 0 0 .5.5h3a.5.5 0 0 0 .5-.5v-2A.5.5 0 0 0 13 7m-1 0V4.5a1 1 0 0 0-1-1H3.5"/>
  </g>
</svg>
