<svg focusable="false" xmlns="http://www.w3.org/2000/svg" fill="none" role="img" aria-label="Icon" viewBox="0 0 14 14">
  <g stroke="currentColor">
    <path d="M.516.515v1.5m0 2.323v1.5m0 2.323v1.5m0 2.323v1.5h1.5m11.468.001h-1.5m-2.322-.001h-1.5m-2.324 0h-1.5" stroke-linecap="round" stroke-linejoin="round"/>
    <path d="M11.422 3.89c0 3.382-2.756 6.125-6.156 6.125" stroke-linecap="round"/>
    <path d="M10.109 2.577a1.313 1.313 0 1 0 2.626 0 1.313 1.313 0 1 0-2.626 0m-7.465 7.438a1.313 1.313 0 1 0 2.626 0 1.313 1.313 0 1 0-2.626 0"/>
  </g>
</svg>
