<svg focusable="false" xmlns="http://www.w3.org/2000/svg" fill="none" role="img" aria-label="Icon" viewBox="0 0 14 14">
  <g stroke="currentColor" stroke-linecap="round" stroke-linejoin="round">
    <path d="M10.783 3.094V1.736c0-.622-.52-1.142-1.142-1.142H1.646c-.622 0-1.142.52-1.142 1.142V9.73c0 .622.52 1.142 1.142 1.142h1.577"/>
    <path d="M12.353 13.406c.631 0 1.142-.511 1.142-1.142V4.27c0-.622-.52-1.142-1.142-1.142H4.36c-.622 0-1.142.52-1.142 1.142v7.994c0 .622.52 1.142 1.142 1.142z"/>
    <path d="M8.358 10.935 5.891 8.65C4.51 7.301 6.5 4.686 8.358 6.791c1.858-2.105 3.848.51 2.467 1.858z"/>
  </g>
</svg>
