<svg focusable="false" xmlns="http://www.w3.org/2000/svg" fill="none" role="img" aria-label="Icon" viewBox="0 0 14 14">
  <g stroke="currentColor" stroke-linecap="round" stroke-linejoin="round">
    <path d="M2.576 9.561a2.58 2.58 0 0 0-1.984 2.52v.506a.863.863 0 0 0 .863.863h2.103a.863.863 0 0 0 .863-.863.853.853 0 0 1 .863-.853h3.432a.851.851 0 0 1 .863.853.863.863 0 0 0 .863.863h2.143a.863.863 0 0 0 .863-.863v-.506a2.579 2.579 0 0 0-1.984-2.52 23.293 23.293 0 0 0-8.888 0M1.187 7.796a.992.992 0 0 1-.635-.923v-.804a.992.992 0 0 1 .635-.922l1.1-.437.834-1.438-.178-1.17a.992.992 0 0 1 .486-1.052l.694-.367a.992.992 0 0 1 1.121.089l.923.744h1.666l.923-.744a.992.992 0 0 1 1.12-.09l.695.407a.991.991 0 0 1 .486.992l-.178 1.171.833 1.439 1.101.436a.992.992 0 0 1 .635.923v.803a.992.992 0 0 1-.635.923"/>
    <path d="M8.984 7.002a1.984 1.984 0 1 0-3.968 0"/>
  </g>
</svg>
