<svg focusable="false" xmlns="http://www.w3.org/2000/svg" fill="none" role="img" aria-label="Icon" viewBox="0 0 14 14">
  <g stroke="currentColor" stroke-linecap="round" stroke-linejoin="round">
    <path d="M3 7V4.37A3.93 3.93 0 0 1 7 .5a3.93 3.93 0 0 1 4 3.87V7M1.5 5.5h1A.5.5 0 0 1 3 6v3a.5.5 0 0 1-.5.5h-1a1 1 0 0 1-1-1v-2a1 1 0 0 1 1-1m11 4h-1A.5.5 0 0 1 11 9V6a.5.5 0 0 1 .5-.5h1a1 1 0 0 1 1 1v2a1 1 0 0 1-1 1M9 12.25a2 2 0 0 0 2-2V8m-2 4.25a1.25 1.25 0 0 1-1.25 1.25h-1.5a1.25 1.25 0 0 1 0-2.5h1.5A1.25 1.25 0 0 1 9 12.25M5.5 7c0 1.5 3 1.5 3 0"/>
    <path d="M5.5 5a.25.25 0 0 1 0-.5m0 .5a.25.25 0 0 0 0-.5m3 .5a.25.25 0 0 1 0-.5m0 .5a.25.25 0 0 0 0-.5"/>
  </g>
</svg>
