<svg focusable="false" xmlns="http://www.w3.org/2000/svg" fill="none" role="img" aria-label="Icon" viewBox="0 0 14 14">
  <g stroke="currentColor" stroke-linecap="round" stroke-linejoin="round">
    <path d="M8.167 1.854a1.167 1.167 0 1 1-2.334 0 1.167 1.167 0 0 1 2.334 0M7 3.02v2.25m1.75 5.48s-.55.583-1.75.583-1.75-.583-1.75-.583m-.208-2.208a.25.25 0 1 1 0-.5m0 .5a.25.25 0 1 0 0-.5m3.916.5a.25.25 0 1 1 0-.5m0 .5a.25.25 0 1 0 0-.5"/>
    <path d="M1.5 11.313v-4a2 2 0 0 1 2-2h7a2 2 0 0 1 2 2v4a2 2 0 0 1-2 2h-7a2 2 0 0 1-2-2"/>
  </g>
</svg>
