<svg focusable="false" xmlns="http://www.w3.org/2000/svg" fill="none" role="img" aria-label="Icon" viewBox="0 0 14 14">
  <path d="M13 6.5H9a.5.5 0 0 0-.5.5v6a.5.5 0 0 0 .5.5h4a.5.5 0 0 0 .5-.5V7a.5.5 0 0 0-.5-.5m0-6H9a.5.5 0 0 0-.5.5v2.01a.5.5 0 0 0 .5.5h4a.5.5 0 0 0 .5-.5V1a.5.5 0 0 0-.5-.5m-8 0H1a.5.5 0 0 0-.5.5v6a.5.5 0 0 0 .5.5h4a.5.5 0 0 0 .5-.5V1A.5.5 0 0 0 5 .5m0 9.99H1a.5.5 0 0 0-.5.5V13a.5.5 0 0 0 .5.5h4a.5.5 0 0 0 .5-.5v-2.01a.5.5 0 0 0-.5-.5" stroke="currentColor" stroke-linecap="round" stroke-linejoin="round"/>
</svg>
