<svg focusable="false" xmlns="http://www.w3.org/2000/svg" fill="none" role="img" aria-label="Icon" viewBox="0 0 14 14">
  <path d="M6.5 13V9a.5.5 0 0 1 .5-.5h6a.5.5 0 0 1 .5.5v4a.5.5 0 0 1-.5.5H7a.5.5 0 0 1-.5-.5m-6 0V9a.5.5 0 0 1 .5-.5h2.01a.5.5 0 0 1 .5.5v4a.5.5 0 0 1-.5.5H1a.5.5 0 0 1-.5-.5m0-8V1A.5.5 0 0 1 1 .5h6a.5.5 0 0 1 .5.5v4a.5.5 0 0 1-.5.5H1A.5.5 0 0 1 .5 5m9.99 0V1a.5.5 0 0 1 .5-.5H13a.5.5 0 0 1 .5.5v4a.5.5 0 0 1-.5.5h-2.01a.5.5 0 0 1-.5-.5" stroke="currentColor" stroke-linecap="round" stroke-linejoin="round"/>
</svg>
