<svg focusable="false" xmlns="http://www.w3.org/2000/svg" fill="none" role="img" aria-label="Icon" viewBox="0 0 14 14">
  <g stroke="currentColor" stroke-linecap="round" stroke-linejoin="round">
    <path d="M6 4.74c3.038 0 5.5-.95 5.5-2.12S9.038.5 6 .5.5 1.45.5 2.62 2.962 4.74 6 4.74m5.5.76V2.62"/>
    <path d="M.5 2.62v6.76c0 1.042 1.94 1.877 4.5 2.076"/>
    <path d="M.5 6C.5 7.17 3 8.12 6 8.08h.5m6.925 4.53a.62.62 0 0 1-.202.81.55.55 0 0 1-.288.08h-5.87a.55.55 0 0 1-.49-.3.62.62 0 0 1 0-.59l2.95-5.32a.54.54 0 0 1 1 0zm-3.42-2.11v-1"/>
    <path d="M10 12.125a.125.125 0 0 1 0-.25m0 .25a.125.125 0 1 0 0-.25"/>
  </g>
</svg>
