<svg focusable="false" xmlns="http://www.w3.org/2000/svg" fill="none" role="img" aria-label="Icon" viewBox="0 0 14 14">
  <g stroke="currentColor" stroke-linecap="round" stroke-linejoin="round">
    <path d="M6 4.74c3.038 0 5.5-.95 5.5-2.12S9.038.5 6 .5.5 1.45.5 2.62 2.962 4.74 6 4.74m5.5.26V2.62"/>
    <path d="M.5 2.62v6.76c0 1.071 2.048 1.923 4.71 2.091"/>
    <path d="M.5 6c0 1.086 2.155 1.983 4.865 2.074M10.47 6.5V8m-3.03.25 1.3.75m-1.3 2.75 1.3-.75m1.73 2.5V12m3.03-.25L12.2 11m1.3-2.75L12.2 9m-1.73 3a2 2 0 1 0 0-4 2 2 0 0 0 0 4"/>
  </g>
</svg>
