<svg focusable="false" xmlns="http://www.w3.org/2000/svg" fill="none" role="img" aria-label="Icon" viewBox="0 0 14 14">
  <g stroke="currentColor" stroke-linecap="round" stroke-linejoin="round">
    <path d="M6 4.74c3.038 0 5.5-.95 5.5-2.12S9.038.5 6 .5.5 1.45.5 2.62 2.962 4.74 6 4.74m5.5.26V2.62"/>
    <path d="M.5 2.62v6.76c0 1.12 2.24 2 5.08 2.11"/>
    <path d="M.5 6c0 1.063 2.066 1.945 4.695 2.067m5.474 5.403a.5.5 0 0 1-.34 0 4.48 4.48 0 0 1-2.83-4.16V8a.47.47 0 0 1 .46-.5h5.08a.47.47 0 0 1 .46.5v1.31a4.48 4.48 0 0 1-2.83 4.16"/>
  </g>
</svg>
