<svg focusable="false" xmlns="http://www.w3.org/2000/svg" fill="none" role="img" aria-label="Icon" viewBox="0 0 14 14">
  <g stroke="currentColor" stroke-linecap="round" stroke-linejoin="round">
    <path d="M12.5.5h-11a1 1 0 0 0-1 1v3a1 1 0 0 0 1 1h11a1 1 0 0 0 1-1v-3a1 1 0 0 0-1-1M7.5 3H11M1.5 5.5a1 1 0 0 0-1 1v3a1 1 0 0 0 1 1h11a1 1 0 0 0 1-1v-3a1 1 0 0 0-1-1"/>
    <path d="M3.25 8.25a.25.25 0 0 1 0-.5m0 .5a.25.25 0 0 0 0-.5m0-4.5a.25.25 0 0 1 0-.5m0 .5a.25.25 0 0 0 0-.5M7.5 8H11m-4 2.5v3m-5 0h10"/>
  </g>
</svg>
