<svg focusable="false" xmlns="http://www.w3.org/2000/svg" fill="none" role="img" aria-label="Icon" viewBox="0 0 14 14">
  <g stroke="currentColor" stroke-linecap="round" stroke-linejoin="round">
    <path d="M6.294.98h-1.36c-.947 0-1.715.767-1.715 1.715v2.283m5.807 7.994h1.36c.948 0 1.716-.768 1.716-1.716V8.973M7.5 4a3 3 0 1 0 6 0 3 3 0 0 0-6 0"/>
    <path d="M7.525 3.613A2.99 2.99 0 0 0 9 4a2.99 2.99 0 0 0 2.25-1.016A2.993 2.993 0 0 0 13.5 4m-8.964.023-1.31.951-1.311-.95m8.87 5.903 1.31-.95 1.311.95M.5 10a3 3 0 1 0 6 0 3 3 0 0 0-6 0m3-3v6"/>
    <path d="M.536 9.533c.195.174 1.183.967 2.964.967 1.78 0 2.769-.793 2.964-.967"/>
  </g>
</svg>
