<svg focusable="false" xmlns="http://www.w3.org/2000/svg" fill="none" role="img" aria-label="Icon" viewBox="0 0 14 14">
  <path d="M13.5 13.474H13a2 2 0 0 1-2-2 2 2 0 0 1-4 0 2 2 0 0 1-4 0 2 2 0 0 1-2 2H.5m4.223-2.25v-.88l-.46-.308A4.731 4.731 0 0 1 3.036 8.85L1.984 7.376a.974.974 0 0 1 1.554-1.175l.792.989V2.674a.986.986 0 1 1 1.97 0v2.545V1.49a.986.986 0 0 1 1.972 0v4.122-2.15a.986.986 0 0 1 1.971 0v5.44c0 .417-.166.818-.462 1.114l-.326.327v.88" stroke="currentColor" stroke-linecap="round" stroke-linejoin="round"/>
</svg>
