<svg focusable="false" xmlns="http://www.w3.org/2000/svg" fill="none" role="img" aria-label="Icon" viewBox="0 0 14 14">
  <path d="M13.145 3.038a1.057 1.057 0 0 0 0-1.485l-.747-.748a1.057 1.057 0 0 0-1.436 0L6.975 4.742 3.038.805a1.057 1.057 0 0 0-1.485 0l-.748.748a1.057 1.057 0 0 0 0 1.485l3.987 3.987-3.987 3.937a1.057 1.057 0 0 0 0 1.486l.748.747a1.057 1.057 0 0 0 1.485 0l3.937-3.987 3.987 3.937a1.057 1.057 0 0 0 1.485 0l.748-.747a1.057 1.057 0 0 0 0-1.485L9.208 6.975z" stroke="currentColor" stroke-linecap="round" stroke-linejoin="round"/>
</svg>
