<svg focusable="false" xmlns="http://www.w3.org/2000/svg" fill="none" role="img" aria-label="Icon" viewBox="0 0 14 14">
  <g stroke="currentColor" stroke-linecap="round" stroke-linejoin="round">
    <path d="M7.76 2H1a.5.5 0 0 0-.5.5v8a.5.5 0 0 0 .5.5h12a.5.5 0 0 0 .5-.5v-1M6 11l-1 2.5M8 11l1 2.5m-5 0h6"/>
    <path d="M13.424 2.722a1.331 1.331 0 0 0-1.257-.889h-1.032a1.19 1.19 0 0 0-.255 2.353l1.572.344a1.334 1.334 0 0 1-.285 2.637h-.89c-.58 0-1.074-.371-1.257-.89m1.702-4.444V.5m0 8V7.167"/>
  </g>
</svg>
