<svg focusable="false" xmlns="http://www.w3.org/2000/svg" fill="none" role="img" aria-label="Icon" viewBox="0 0 14 14">
  <g stroke="currentColor" stroke-linecap="round" stroke-linejoin="round">
    <path d="M13.5 10.5v-8A.5.5 0 0 0 13 2H1c-.265 0-.5.235-.5.5v8c0 .265.235.5.5.5h12c.265 0 .5-.235.5-.5M6 11l-1 2.5M8 11l1 2.5m-5 0h6"/>
    <path d="M4.557 7.571C5.033 8.056 5.874 8.5 7 8.5s1.967-.444 2.443-.929M5.25 5a.25.25 0 0 1 0-.5m0 .5a.25.25 0 0 0 0-.5m3.5.5a.25.25 0 0 1 0-.5m0 .5a.25.25 0 1 0 0-.5"/>
  </g>
</svg>
