<svg focusable="false" xmlns="http://www.w3.org/2000/svg" fill="none" role="img" aria-label="Icon" viewBox="0 0 14 14">
  <g stroke="currentColor" stroke-linecap="round" stroke-linejoin="round">
    <path d="M13.5 8.475V10.5a.5.5 0 0 1-.5.5H1a.5.5 0 0 1-.5-.5v-8A.5.5 0 0 1 1 2h3.541M6 11l-1 2.5M8 11l1 2.5m-5 0h6"/>
    <path d="m10.272.653.836 1.682a.262.262 0 0 0 .214.155l1.857.282a.282.282 0 0 1 .155.486l-1.37 1.303a.272.272 0 0 0 0 .252l.262 1.847a.282.282 0 0 1-.418.302l-1.652-.875a.33.33 0 0 0-.272 0l-1.653.875a.282.282 0 0 1-.418-.302l.311-1.847a.272.272 0 0 0-.048-.252l-1.37-1.312a.282.282 0 0 1 .155-.477L8.717 2.5a.262.262 0 0 0 .214-.155L9.767.663a.282.282 0 0 1 .505-.01"/>
  </g>
</svg>
