<svg focusable="false" xmlns="http://www.w3.org/2000/svg" fill="none" role="img" aria-label="Icon" viewBox="0 0 14 14">
  <path d="M.646 5.406v3.15M.646.5v3.15m0 6.663v3.15M6.777.5v3.15M8.654.5v3.15M2.62 5.406v3.15m.017-6.882a1.174 1.174 0 1 1 2.349 0v.783a1.174 1.174 0 0 1-2.35 0zM4.415 6.58a1.174 1.174 0 1 1 2.349 0v.783a1.174 1.174 0 1 1-2.349 0zm-1.778 4.925a1.174 1.174 0 1 1 2.349 0v.783a1.174 1.174 0 1 1-2.35 0zM8 9.5h5c.3 0 .5.2.5.5v3c0 .3-.2.5-.5.5H8c-.3 0-.5-.2-.5-.5v-3c0-.3.2-.5.5-.5m.5 0v-1c0-1.1.9-2 2-2s2 .9 2 2v1" stroke="currentColor" stroke-linecap="round" stroke-linejoin="round"/>
</svg>
