<svg focusable="false" xmlns="http://www.w3.org/2000/svg" fill="none" role="img" aria-label="Icon" viewBox="0 0 14 14">
  <g stroke="currentColor" stroke-linecap="round" stroke-linejoin="round">
    <path d="M7 5.594V.625m0 12.75V8.406M8.406 7h4.969M.625 7h4.969m2.4-.994 3.514-3.514m-9.016 9.016 3.514-3.514m1.988 0 3.514 3.514M2.492 2.492l3.514 3.514M.615 7a6.385 6.385 0 1 0 12.77 0A6.385 6.385 0 1 0 .615 7"/>
    <path d="M5.594 7a1.406 1.406 0 1 0 2.812 0 1.406 1.406 0 1 0-2.812 0"/>
  </g>
</svg>
