<svg focusable="false" xmlns="http://www.w3.org/2000/svg" fill="none" role="img" aria-label="Icon" viewBox="0 0 14 14">
  <path d="M7.5 13.5V8.25a1.25 1.25 0 0 1 2.5 0V11h1.5a2 2 0 0 1 2 2v.5M1 1.5a.5.5 0 1 0 0-1 .5.5 0 0 0 0 1m4 0a.5.5 0 1 0 0-1 .5.5 0 0 0 0 1m4 0a.5.5 0 1 0 0-1 .5.5 0 0 0 0 1M1 5a.5.5 0 1 0 0-1 .5.5 0 0 0 0 1m4 0a.5.5 0 1 0 0-1 .5.5 0 0 0 0 1m0 3.5a.5.5 0 1 0 0-1 .5.5 0 0 0 0 1M9 5a.5.5 0 1 0 0-1 .5.5 0 0 0 0 1M1 8.5a.5.5 0 1 0 0-1 .5.5 0 0 0 0 1" stroke="currentColor" stroke-linecap="round" stroke-linejoin="round"/>
</svg>
