<svg focusable="false" xmlns="http://www.w3.org/2000/svg" fill="none" role="img" aria-label="Icon" viewBox="0 0 14 14">
  <path d="M2 3.5a1.5 1.5 0 1 0 0-3 1.5 1.5 0 0 0 0 3m0 5a1.5 1.5 0 1 0 0-3 1.5 1.5 0 0 0 0 3m5-5a1.5 1.5 0 1 0 0-3 1.5 1.5 0 0 0 0 3m0 5a1.5 1.5 0 1 0 0-3 1.5 1.5 0 0 0 0 3m0 5a1.5 1.5 0 1 0 0-3 1.5 1.5 0 0 0 0 3m5-10a1.5 1.5 0 1 0 0-3 1.5 1.5 0 0 0 0 3m0 5a1.5 1.5 0 1 0 0-3 1.5 1.5 0 0 0 0 3m-10 5a1.5 1.5 0 1 0 0-3 1.5 1.5 0 0 0 0 3m10 0a1.5 1.5 0 1 0 0-3 1.5 1.5 0 0 0 0 3" stroke="currentColor" stroke-linecap="round" stroke-linejoin="round"/>
</svg>
