<svg focusable="false" xmlns="http://www.w3.org/2000/svg" fill="none" role="img" aria-label="Icon" viewBox="0 0 14 14">
  <path d="M5.5.5H1a.5.5 0 0 0-.5.5v2a.5.5 0 0 0 .5.5h4.5A.5.5 0 0 0 6 3V1a.5.5 0 0 0-.5-.5m7.5 0H8.5A.5.5 0 0 0 8 1v2a.5.5 0 0 0 .5.5H13a.5.5 0 0 0 .5-.5V1a.5.5 0 0 0-.5-.5m-7.5 8H1A.5.5 0 0 1 .5 8V6a.5.5 0 0 1 .5-.5h4.5m6.5 3h1a.5.5 0 0 0 .5-.5V6a.5.5 0 0 0-.5-.5h-3m-2.5 8V8.25a1.25 1.25 0 0 1 2.5 0V11h1.5a2 2 0 0 1 2 2v.5" stroke="currentColor" stroke-linecap="round" stroke-linejoin="round"/>
</svg>
