<svg focusable="false" xmlns="http://www.w3.org/2000/svg" fill="none" role="img" aria-label="Icon" viewBox="0 0 14 14">
  <path d="m.5.5 13 13m-1.75-10a1.25 1.25 0 1 0 0-2.5 1.25 1.25 0 0 0 0 2.5M7 3.5A1.25 1.25 0 1 0 7 1a1.25 1.25 0 0 0 0 2.5M3.5 2.25a1.25 1.25 0 0 0-2.134-.884l1.768 1.768c.226-.226.366-.539.366-.884m8.25 6a1.25 1.25 0 1 0 0-2.5 1.25 1.25 0 0 0 0 2.5M8.25 7a1.25 1.25 0 0 0-2.134-.884l1.768 1.768c.226-.226.366-.539.366-.884M7 13a1.25 1.25 0 1 0 0-2.5A1.25 1.25 0 0 0 7 13M2.25 8.25a1.25 1.25 0 1 0 0-2.5 1.25 1.25 0 0 0 0 2.5" stroke="currentColor" stroke-linecap="round" stroke-linejoin="round"/>
</svg>
