<svg focusable="false" xmlns="http://www.w3.org/2000/svg" fill="none" role="img" aria-label="Icon" viewBox="0 0 14 14">
  <g stroke="currentColor" stroke-linecap="round" stroke-linejoin="round">
    <path d="M12.5 3.5h-8a1 1 0 0 0-1 1v8a1 1 0 0 0 1 1h8a1 1 0 0 0 1-1v-8a1 1 0 0 0-1-1"/>
    <path d="M10.36 1A1 1 0 0 0 9.5.5h-8a1 1 0 0 0-1 1v8a1 1 0 0 0 .49.86M6.25 6.5a.25.25 0 0 1 0-.5m0 .5a.25.25 0 0 0 0-.5m4.5.5a.25.25 0 1 1 0-.5m0 .5a.25.25 0 0 0 0-.5m-4.5 5a.25.25 0 1 1 0-.5m0 .5a.25.25 0 1 0 0-.5M8.5 8.75a.25.25 0 0 1 0-.5m0 .5a.25.25 0 0 0 0-.5M10.75 11a.25.25 0 1 1 0-.5m0 .5a.25.25 0 0 0 0-.5"/>
  </g>
</svg>
