<svg focusable="false" xmlns="http://www.w3.org/2000/svg" fill="none" role="img" aria-label="Icon" viewBox="0 0 14 14">
  <g stroke="currentColor" stroke-linecap="round" stroke-linejoin="round">
    <path d="M7.929 3.286V1.5a1 1 0 0 0-1-1H1.5a1 1 0 0 0-1 1v5.429a1 1 0 0 0 1 1h1.786m3.785-1.858H12.5s1 0 1 1V12.5s0 1-1 1H7.071s-1 0-1-1V7.071s0-1 1-1"/>
    <path d="M8.654 11.166a.25.25 0 0 1 0-.5m0 .5a.25.25 0 1 0 0-.5M3.221 3.505a.25.25 0 0 1 0-.5"/>
    <path d="M3.22 3.505a.25.25 0 0 0 0-.5m7.699 6.1a.25.25 0 0 1 0-.5m0 .5a.25.25 0 0 0 0-.5"/>
  </g>
</svg>
