<svg focusable="false" xmlns="http://www.w3.org/2000/svg" fill="none" role="img" aria-label="Icon" viewBox="0 0 14 14">
  <path d="m5.182 4.567 1.395-2.816a.48.48 0 0 1 .87 0l1.414 2.853a.453.453 0 0 0 .364.267l3.12.462a.48.48 0 0 1 .266.827l-2.248 2.23a.47.47 0 0 0-.143.427l.163.94m-.068 2.769a.488.488 0 0 1-.263-.057l-2.809-1.484a.524.524 0 0 0-.462 0L3.973 12.47a.488.488 0 0 1-.711-.516l.542-3.173a.471.471 0 0 0-.143-.426L1.386 6.159a.48.48 0 0 1 .294-.826l1.492-.221M.5.5l13 13" stroke="currentColor" stroke-linecap="round" stroke-linejoin="round"/>
</svg>
