<svg focusable="false" xmlns="http://www.w3.org/2000/svg" fill="none" role="img" aria-label="Icon" viewBox="0 0 14 14">
  <g stroke="currentColor" stroke-linecap="round" stroke-linejoin="round">
    <path d="M12.247 8.462c0-5.008-4.423-7.326-6.506-7.868.78 1.95.737 3.393-.27 5.171a.478.478 0 0 1-.777.069l-1.28-1.452c-3.35 3.558-1.422 9.281 3.881 9.015 4.057-.25 4.952-2.952 4.952-4.935m-6.58 2.462L8.951 7.64"/>
    <path d="M6.065 8.118a.25.25 0 1 1 0-.5m0 .5a.25.25 0 0 0 0-.5m2.659 3.329a.25.25 0 0 1 0-.5m0 .5a.25.25 0 0 0 0-.5"/>
  </g>
</svg>
