<svg focusable="false" xmlns="http://www.w3.org/2000/svg" fill="none" role="img" aria-label="Icon" viewBox="0 0 14 14">
  <g stroke="currentColor" stroke-linecap="round" stroke-linejoin="round">
    <path d="M1.046 1.835h2.351v6.26H1.046A.496.496 0 0 1 .55 7.6V2.331a.496.496 0 0 1 .496-.496"/>
    <path d="m3.397 8.095 2.52 4.028a1.081 1.081 0 0 0 .933.516 1.1 1.1 0 0 0 1.14-1.091V8.66h4.356a1.141 1.141 0 0 0 1.091-1.31l-.793-5.12a1.131 1.131 0 0 0-1.121-.991H5.014c-.31-.001-.615.07-.892.208l-.715.357m-.01 6.291v-6.26"/>
  </g>
</svg>
