<svg focusable="false" xmlns="http://www.w3.org/2000/svg" fill="none" role="img" aria-label="Icon" viewBox="0 0 14 14">
  <g stroke="currentColor" stroke-linecap="round" stroke-linejoin="round">
    <path d="M3 5.25v8h2a2 2 0 0 0 2-2v-1m4-5v8H9a2 2 0 0 1-2-2v-1.5"/>
    <path d="M8 9.25H6l1 1z"/>
    <path d="M11 10.25h.278a2 2 0 0 0 1.99-2.21l-.297-2.815A4.999 4.999 0 0 0 8 .75H6a4.999 4.999 0 0 0-4.971 4.475L.733 8.041a2 2 0 0 0 1.989 2.209H3"/>
    <path d="M5.5 6a.25.25 0 0 1 0-.5m0 .5a.25.25 0 1 0 0-.5m3 .5a.25.25 0 0 1 0-.5m0 .5a.25.25 0 1 0 0-.5"/>
  </g>
</svg>
