<svg focusable="false" xmlns="http://www.w3.org/2000/svg" fill="none" role="img" aria-label="Icon" viewBox="0 0 14 14">
  <g stroke="currentColor" stroke-linecap="round" stroke-linejoin="round">
    <path d="M8.473 1C11.265 1 13.5 3.883 13.5 6.5v1a2 2 0 0 1-2 2h-.327a4.239 4.239 0 0 1-8.346 0H2.5a2 2 0 0 1-2-2v-1C.5 3.883 2.735 1 5.527 1z"/>
    <path d="m3.5 4-.678 4.068a4.236 4.236 0 1 0 8.356 0L10.5 4"/>
    <path d="M7.75 9.5h-1.5L7 10zM5.5 6.25a.25.25 0 0 1 0-.5m0 .5a.25.25 0 1 0 0-.5m3 .5a.25.25 0 0 1 0-.5m0 .5a.25.25 0 1 0 0-.5"/>
  </g>
</svg>
