<svg focusable="false" xmlns="http://www.w3.org/2000/svg" fill="none" role="img" aria-label="Icon" viewBox="0 0 14 14">
  <g stroke="currentColor" stroke-linecap="round" stroke-linejoin="round">
    <path d="M9.806 4.24a1.019 1.019 0 0 0-.961-.68h-.79a.91.91 0 0 0-.194 1.798l1.201.263a1.02 1.02 0 0 1-.217 2.016h-.68a1.02 1.02 0 0 1-.961-.68M8.505 3.56V2.54m0 6.116v-1.02"/>
    <path d="M3.614 5.598a4.891 4.891 0 1 0 9.782 0 4.891 4.891 0 1 0-9.782 0m-2.411.536a4.89 4.89 0 0 0 6.437 6.73"/>
  </g>
</svg>
