<svg focusable="false" xmlns="http://www.w3.org/2000/svg" fill="none" role="img" aria-label="Icon" viewBox="0 0 14 14">
  <g stroke="currentColor">
    <path d="M.5 7a6.5 6.5 0 1 0 13 0 6.5 6.5 0 1 0-13 0" stroke-linecap="round" stroke-linejoin="round"/>
    <path d="M5 7a2 2 0 1 0 4 0 2 2 0 1 0-4 0m6.5-.5-.5 1M3 9l1 1m4-7.5 1 1" stroke-linecap="round" stroke-linejoin="round"/>
    <path d="M3.5 4.75a.25.25 0 0 1 0-.5m0 .5a.25.25 0 0 0 0-.5m5 7a.25.25 0 1 1 0-.5m0 .5a.25.25 0 1 0 0-.5"/>
  </g>
</svg>
