<svg focusable="false" xmlns="http://www.w3.org/2000/svg" fill="none" role="img" aria-label="Icon" viewBox="0 0 14 14">
  <g stroke="currentColor" stroke-linecap="round" stroke-linejoin="round">
    <path d="m6.74 11.48-3.16 1.67a.55.55 0 0 1-.8-.58L3.39 9a.53.53 0 0 0-.16-.48L.67 6.05A.54.54 0 0 1 1 5.12l3.51-.52a.51.51 0 0 0 .41-.3l1.59-3.21a.54.54 0 0 1 .98 0L9.08 4.3a.51.51 0 0 0 .41.3l3.51.52a.54.54 0 0 1 .3.93l-.923.916"/>
    <path d="m10.719 7.9.737 1.483a.231.231 0 0 0 .189.137l1.638.25a.25.25 0 0 1 .138.428l-1.21 1.15a.24.24 0 0 0 0 .222l.232 1.63a.248.248 0 0 1-.37.266l-1.457-.772a.29.29 0 0 0-.24 0l-1.459.772a.25.25 0 0 1-.369-.266l.275-1.63a.24.24 0 0 0-.043-.223L7.57 10.19a.249.249 0 0 1 .138-.42l1.638-.24a.232.232 0 0 0 .189-.137l.738-1.484a.25.25 0 0 1 .446-.009"/>
  </g>
</svg>
