<svg focusable="false" xmlns="http://www.w3.org/2000/svg" fill="none" role="img" aria-label="Icon" viewBox="0 0 14 14">
  <g stroke="currentColor" stroke-linecap="round" stroke-linejoin="round">
    <path d="M7 .78a6.218 6.218 0 0 0-3.205 11.55A6.19 6.19 0 0 0 7 13.22 6.222 6.222 0 0 0 13.219 7a6.2 6.2 0 0 0-1.867-4.442A6.199 6.199 0 0 0 7 .78"/>
    <path d="M.844 6.111c1.163.296 4.024.711 6.156 0 2.132-.71 3.79-2.665 4.352-3.553"/>
    <path d="M3.446 1.896c.889.516 3.02 2.083 4.442 4.215 1.422 2.133 2.137 5.035 2.317 6.22"/>
    <path d="M3.795 12.33c.592-.888 2.684-2.843 4.537-3.553 1.854-.711 3.84-.889 4.824-.889"/>
  </g>
</svg>
