<svg focusable="false" xmlns="http://www.w3.org/2000/svg" fill="none" role="img" aria-label="Icon" viewBox="0 0 14 14">
  <g stroke="currentColor" stroke-linecap="round" stroke-linejoin="round">
    <path d="M2.092 8.953C2.092 4.307 7 .6 7 .6s4.908 3.707 4.908 8.353c0 3.003-2.486 4.447-4.908 4.447s-4.908-1.444-4.908-4.447"/>
    <path d="M6.379 6.014a.382.382 0 0 0-.382.382v1.076H4.92a.382.382 0 0 0-.382.382v1.242c0 .212.171.383.382.383h1.076v1.075c0 .211.17.382.382.382H7.62a.382.382 0 0 0 .383-.382V9.479h1.075a.382.382 0 0 0 .382-.383V7.854a.382.382 0 0 0-.382-.382H8.004V6.396a.382.382 0 0 0-.383-.382z"/>
  </g>
</svg>
