<svg focusable="false" xmlns="http://www.w3.org/2000/svg" fill="none" role="img" aria-label="Icon" viewBox="0 0 14 14">
  <g stroke="currentColor" stroke-linecap="round" stroke-linejoin="round">
    <path d="M2.251 3.644C2.771 2.232 4.07.639 6.322.639c3.037 0 4.698 2.205 4.698 4.384 0 2.116-1.313 3.482-2.31 4.214-.628.461-1.328 1.005-1.328 1.916 0 2.297-2.934 3.078-4.177.664"/>
    <path d="M4.3 4.849c.229-.62.8-1.32 1.79-1.32 1.334 0 2.065.969 2.065 1.926 0 .93-.536 1.142-.974 1.463-.276.203-1.091.355-1.091 1.953 0 1.01-1.593 1.7-2.14.639"/>
  </g>
</svg>
