<svg focusable="false" xmlns="http://www.w3.org/2000/svg" fill="none" role="img" aria-label="Icon" viewBox="0 0 14 14">
  <g stroke="currentColor" stroke-linecap="round" stroke-linejoin="round">
    <path d="M10.5 8.5a5 5 0 1 1-8.25-3.8"/>
    <path d="M5.28 6.65a1.6 1.6 0 0 0-.046 1.287 1.52 1.52 0 0 0 1.416.943.77.77 0 0 1 .77.77v3.47M.57 9.27h1.85A1.54 1.54 0 0 1 4 10.81v2.45m9.26-11.29-1-.34a.34.34 0 0 0-.39.13l-.73 1.13-4-2A2.49 2.49 0 0 0 3.53 2.2a.68.68 0 0 0 .47.9l2.61.84.26.09.49 1.68a.36.36 0 0 0 .24.25l1.18.38a.37.37 0 0 0 .48-.41L9 4.68h.17l2.55.83a.67.67 0 0 0 .85-.41l.9-2.77a.34.34 0 0 0-.21-.36"/>
  </g>
</svg>
