<svg focusable="false" xmlns="http://www.w3.org/2000/svg" fill="none" role="img" aria-label="Icon" viewBox="0 0 14 14">
  <g stroke="currentColor" stroke-linecap="round" stroke-linejoin="round">
    <path d="M5.253.802 3 3.956h2.704L3.9 6.66M7.5 5h1.28a1 1 0 0 1 1 .68L10.5 8h2a1 1 0 0 1 1 1v2a1 1 0 0 1-1 1H12M2.5 8h-1a1 1 0 0 0-1 1v2a1 1 0 0 0 1 1H2"/>
    <path d="M10.499 13.5a1.501 1.501 0 1 1 0-3.002 1.501 1.501 0 0 1 0 3.002m-7 0a1.501 1.501 0 1 1 0-3.002 1.501 1.501 0 0 1 0 3.002M8.998 12H5"/>
  </g>
</svg>
