<svg focusable="false" xmlns="http://www.w3.org/2000/svg" fill="none" role="img" aria-label="Icon" viewBox="0 0 14 14">
  <g stroke="currentColor" stroke-linecap="round" stroke-linejoin="round">
    <path d="M8.678.978h-.914a.858.858 0 0 0-.857.857v10.72c0 .474.384.858.857.858h4.618a.858.858 0 0 0 .858-.858V8.76M3.785 3.923h.418c.473 0 .857.384.857.858v3.972c0 .947.768 1.715 1.716 1.715h.13M1.848 2.5h.937a1 1 0 0 1 1 1v.846a1 1 0 0 1-1 1h-.937zm.001.659H.5m1.349 1.528H.5"/>
    <path d="M12.79.916 10.535 4.07h2.704l-1.802 2.704"/>
  </g>
</svg>
