<svg focusable="false" xmlns="http://www.w3.org/2000/svg" fill="none" role="img" aria-label="Icon" viewBox="0 0 14 14">
  <path d="M13.191 10.39a2.431 2.431 0 0 0-1.734-.73 2.43 2.43 0 0 0-1.734.73 2.51 2.51 0 0 0-.698 1.445h-4.27a2.512 2.512 0 0 0-.698-1.445 2.431 2.431 0 0 0-1.734-.73 2.43 2.43 0 0 0-1.734.73m5.401-.265h2.02m-6.531 2.048a.93.93 0 1 0 1.86 0 .93.93 0 0 0-1.86 0m9.101 0a.93.93 0 1 0 1.86 0 .93.93 0 0 0-1.86 0m.71-2.513-.71-7.472m-1.777 0h3.553M3.031.802.778 3.956h2.704L1.679 6.66" stroke="currentColor" stroke-linecap="round" stroke-linejoin="round"/>
</svg>
