<svg focusable="false" xmlns="http://www.w3.org/2000/svg" fill="none" role="img" aria-label="Icon" viewBox="0 0 14 14">
  <path d="M9.81.688a.5.5 0 0 0-.5.5v1.184H8.124a.5.5 0 0 0-.5.5V4.19a.5.5 0 0 0 .5.5h1.184v1.184a.5.5 0 0 0 .5.5h1.32a.5.5 0 0 0 .5-.5V4.691h1.184a.5.5 0 0 0 .5-.5V2.87a.5.5 0 0 0-.5-.5h-1.185V1.189a.5.5 0 0 0-.5-.5zM7.132 12.954a2.547 2.547 0 0 0 3.194-.352l.36-.351a.862.862 0 0 0 0-1.206L9.16 9.535a.855.855 0 0 0-1.197 0 .863.863 0 0 1-1.206 0L4.36 7.14a.846.846 0 0 1 0-1.206.855.855 0 0 0 0-1.198L2.843 3.218a.863.863 0 0 0-1.206 0l-.351.36a2.548 2.548 0 0 0-.351 3.194 23.112 23.112 0 0 0 6.197 6.182" stroke="currentColor" stroke-linecap="round" stroke-linejoin="round"/>
</svg>
