<svg focusable="false" xmlns="http://www.w3.org/2000/svg" fill="none" role="img" aria-label="Icon" viewBox="0 0 14 14">
  <g stroke="currentColor" stroke-linecap="round" stroke-linejoin="round">
    <path d="M12.32 6.536c.638 1.544 1.197 3.545 1.18 4.643-.024 1.48-.928 2.32-1.856 2.32-.843-.395-1.859-2.32-2.786-2.32H5.142c-.927 0-1.943 1.925-2.786 2.32-.928 0-1.832-.84-1.856-2.32-.018-1.098.542-3.099 1.18-4.643m1.605-5.107v2.785a.93.93 0 0 0 .929.929h5.571a.929.929 0 0 0 .929-.929V1.43l-1.857.928L7 .5 5.142 2.357z"/>
    <path d="M3.5 8.25a1 1 0 1 0 2 0 1 1 0 1 0-2 0m5 0a1 1 0 1 0 2 0 1 1 0 1 0-2 0"/>
  </g>
</svg>
