<svg focusable="false" xmlns="http://www.w3.org/2000/svg" fill="none" role="img" aria-label="Icon" viewBox="0 0 14 14">
  <g stroke="currentColor" stroke-linecap="round" stroke-linejoin="round">
    <path d="M12.632 4.677c.692-1.482.82-2.706.216-3.312-1.19-1.197-4.773.466-8.003 3.713-3.23 3.247-4.883 6.849-3.693 8.045.617.62 2.188.479 3.693-.521"/>
    <path d="M7.506 3.684c-1.508 0-2.73 1.11-2.73 2.48h5.46c0-1.37-1.222-2.48-2.73-2.48"/>
    <path d="M13.066 8.094c.02-.219.03-.442.03-.67 0-3.601-2.078-5.619-5.366-5.65-3.463-.033-5.806 2.144-5.806 5.651 0 3.986 2.486 5.681 5.806 5.65 2.538-.024 4.33-1.411 5.034-3.515H9.787c-.497.611-1.296 1.008-2.197 1.008-1.508 0-2.73-1.11-2.73-2.48h8.206"/>
  </g>
</svg>
