<svg focusable="false" xmlns="http://www.w3.org/2000/svg" fill="none" role="img" aria-label="Icon" viewBox="0 0 14 14">
  <g stroke="currentColor" stroke-linecap="round" stroke-linejoin="round">
    <path d="M8.626 8.27s-.413.813-1.626.813c-1.213 0-1.626-.813-1.626-.813m-.271-2.145a.25.25 0 0 1 0-.5m0 .5a.25.25 0 0 0 0-.5m3.794.5a.25.25 0 0 1 0-.5m0 .5a.25.25 0 0 0 0-.5"/>
    <path d="M11.395 7.02a4.395 4.395 0 1 1-8.79 0 4.395 4.395 0 0 1 8.79 0M13.5 10.5v2a1 1 0 0 1-1 1h-2m0-13h2a1 1 0 0 1 1 1v2m-13 0v-2a1 1 0 0 1 1-1h2m0 13h-2a1 1 0 0 1-1-1v-2"/>
  </g>
</svg>
