<svg focusable="false" xmlns="http://www.w3.org/2000/svg" fill="none" role="img" aria-label="Icon" viewBox="0 0 14 14">
  <g stroke="currentColor" stroke-linecap="round" stroke-linejoin="round">
    <path d="M7 10.656A5.078 5.078 0 1 0 7 .5a5.078 5.078 0 0 0 0 10.156m0 0V13.5m-2.5 0h5"/>
    <path d="M6.036 5.5a1 1 0 0 0 .514.874l-.929 1.674a1.715 1.715 0 0 1-2.956.073C1.955 6.978 2.776 5.5 4.122 5.5zm.485-.858-.942-1.57C4.9 1.94 5.715.5 7.036.5S9.17 1.94 8.492 3.072l-.942 1.57a.995.995 0 0 0-1.029 0m1 1.733.889 1.6c.64 1.155 2.296 1.168 2.956.025.66-1.143-.18-2.57-1.5-2.548l-1.83.031V5.5a1 1 0 0 1-.515.875"/>
    <path d="M7.036 6.5a1 1 0 1 0 0-2 1 1 0 0 0 0 2"/>
  </g>
</svg>
