<svg focusable="false" xmlns="http://www.w3.org/2000/svg" fill="none" role="img" aria-label="Icon" viewBox="0 0 14 14">
  <g stroke="currentColor" stroke-linecap="round" stroke-linejoin="round">
    <path d="m4.148.652.836 1.682a.262.262 0 0 0 .214.155l1.857.282a.282.282 0 0 1 .155.486L5.84 4.56a.272.272 0 0 0 0 .252l.262 1.847a.282.282 0 0 1-.418.301l-1.652-.874a.33.33 0 0 0-.272 0l-1.653.874a.282.282 0 0 1-.418-.3L2 4.811a.272.272 0 0 0-.048-.252L.582 3.247a.282.282 0 0 1 .155-.476L2.593 2.5a.262.262 0 0 0 .214-.155L3.643.662a.282.282 0 0 1 .505-.01M7.5 13.5a2 2 0 1 0 0-4 2 2 0 0 0 0 4"/>
    <path d="M9.5 11.5v-9 0a4 4 0 0 1 4 4v0"/>
  </g>
</svg>
