<svg focusable="false" xmlns="http://www.w3.org/2000/svg" fill="none" role="img" aria-label="Icon" viewBox="0 0 14 14">
  <g stroke="currentColor" stroke-linecap="round" stroke-linejoin="round">
    <path d="M2.536 2.759c0-1.11.899-2.009 2.008-2.009H7v4.018H4.544c-1.11 0-2.008-.9-2.008-2.01m8.928.001c0-1.11-.899-2.009-2.008-2.009H7v4.018h2.456c1.11 0 2.008-.9 2.008-2.01"/>
    <path d="M11.464 7A2.232 2.232 0 1 0 7 7a2.232 2.232 0 0 0 4.464 0m-8.928 4.241c0-1.11.899-2.009 2.008-2.009H7v1.786c0 1.233-1 2.232-2.232 2.232h-.224c-1.11 0-2.008-.9-2.008-2.009"/>
    <path d="M2.536 7c0-1.233.999-2.232 2.232-2.232H7v4.464H4.768c-1.233 0-2.232-1-2.232-2.232"/>
  </g>
</svg>
