<svg focusable="false" xmlns="http://www.w3.org/2000/svg" fill="none" role="img" aria-label="Icon" viewBox="0 0 14 14">
  <g stroke="currentColor" stroke-linecap="round" stroke-linejoin="round">
    <path d="M8.5.5h-7a1 1 0 0 0-1 1v11a1 1 0 0 0 1 1h11a1 1 0 0 0 1-1v-7z"/>
    <path d="M8.5 5V.5l5 5H9a.5.5 0 0 1-.5-.5m0 4.5h3M6.23 5.222a1.333 1.333 0 0 0-1.258-.889H3.94a1.19 1.19 0 0 0-.254 2.353l1.571.344a1.334 1.334 0 0 1-.285 2.637h-.889c-.58 0-1.074-.371-1.257-.89m1.702-4.444V3m0 8V9.667"/>
  </g>
</svg>
