<svg focusable="false" xmlns="http://www.w3.org/2000/svg" fill="none" role="img" aria-label="Icon" viewBox="0 0 14 14">
  <g stroke="currentColor" stroke-linecap="round" stroke-linejoin="round">
    <path d="M.75 6a4.75 4.75 0 1 0 9.5 0 4.75 4.75 0 1 0-9.5 0m9.5.25v5a1.5 1.5 0 0 0 3 0"/>
    <path d="M5.5 3.945a.25.25 0 0 1 0-.5m0 .5a.25.25 0 0 0 0-.5m0 5.11a.25.25 0 0 1 0-.5m0 .5a.25.25 0 0 0 0-.5M3.195 6.25a.25.25 0 0 1 0-.5m0 .5a.25.25 0 0 0 0-.5m4.61.5a.25.25 0 1 1 0-.5m0 .5a.25.25 0 0 0 0-.5"/>
  </g>
</svg>
