<svg focusable="false" xmlns="http://www.w3.org/2000/svg" fill="none" role="img" aria-label="Icon" viewBox="0 0 14 14">
  <g stroke="currentColor" stroke-linecap="round" stroke-linejoin="round">
    <path d="M.996 3.57A2.573 2.573 0 0 1 3.57.995h6.862a2.573 2.573 0 0 1 2.573 2.573v6.862a2.573 2.573 0 0 1-2.573 2.573H3.569A2.573 2.573 0 0 1 .996 10.43z"/>
    <path d="M8.715.996C7.43 2.283 6.142 5.37 6.142 7.43H7.43c0 2.144.429 4.288.858 5.575m1.714-8.578v1.287M3.998 4.427v1.287"/>
    <path d="M3.57 9.573c.571.286 2.058.858 3.43.858 1.372 0 2.859-.572 3.43-.858"/>
  </g>
</svg>
