<svg focusable="false" xmlns="http://www.w3.org/2000/svg" fill="none" role="img" aria-label="Icon" viewBox="0 0 14 14">
  <path d="M9.23 2.28a5 5 0 0 1 1.034 1.811M.5 6.72v1.67A5 5 0 0 0 3.56 13M8 1.28a5 5 0 0 0-6.83 1.83A4.91 4.91 0 0 0 .6 4.63m4.38-1.12a2.51 2.51 0 0 1 2.787 1.402M3.2 5A2.53 2.53 0 0 0 3 6v2a2.5 2.5 0 0 0 2.368 2.536M5.5 6.11v1.67M8 9.5h5c.3 0 .5.2.5.5v3c0 .3-.2.5-.5.5H8c-.3 0-.5-.2-.5-.5v-3c0-.3.2-.5.5-.5m.5 0v-1c0-1.1.9-2 2-2s2 .9 2 2v1" stroke="currentColor" stroke-linecap="round" stroke-linejoin="round"/>
</svg>
