<svg focusable="false" xmlns="http://www.w3.org/2000/svg" fill="none" role="img" aria-label="Icon" viewBox="0 0 14 14">
  <g stroke="currentColor" stroke-linecap="round" stroke-linejoin="round">
    <path d="M7 11.856a3.995 3.995 0 0 0 3.995-3.995V6.139c0-.625-.147-1.237-.422-1.788M3.005 7.026v.835a3.995 3.995 0 0 0 1.9 3.403M8.998 2.68A3.995 3.995 0 0 0 3.22 4.844m3.364-.383a2.006 2.006 0 0 1 2.414 1.99v.786"/>
    <path d="M8.486 8.915A1.998 1.998 0 0 1 5.002 7.55v-1.1a2.022 2.022 0 0 1 .16-.8M7 6.539v.834m6.5 3.127v2a1 1 0 0 1-1 1h-2m0-13h2a1 1 0 0 1 1 1v2m-13 0v-2a1 1 0 0 1 1-1h2m0 13h-2a1 1 0 0 1-1-1v-2"/>
  </g>
</svg>
