<svg focusable="false" xmlns="http://www.w3.org/2000/svg" fill="none" role="img" aria-label="Icon" viewBox="0 0 14 14">
  <g stroke="currentColor" stroke-linecap="round" stroke-linejoin="round">
    <path d="M7.177 5.886c2.185.282 5.071 1.296 4.758 3.208-.182 1.109-.282 2.96-1.762 4.406m-6.397-.002c-2.002-.798-2.312-2.824-2.22-4.239.058-.885.862-1.502 1.749-1.502h3.234a1.055 1.055 0 0 1 .246 2.081l-1.827.438c.575-.094 1.89.487 1.939 1.755M5.184 2.976l-.89-1.764a1.297 1.297 0 0 0-2.33 1.14L3.89 6.419"/>
    <path d="m3.407 7.733 2.056-5.368a1.38 1.38 0 0 1 1.834-.785 1.494 1.494 0 0 1 .813 1.896L6.49 7.733"/>
  </g>
</svg>
