<svg focusable="false" xmlns="http://www.w3.org/2000/svg" fill="none" role="img" aria-label="Icon" viewBox="0 0 14 14">
  <path d="m9.405 1.854 1.17-1.31m-2.95 1.31L6.32.679m6.072 8.874-1.169-1.01.621-4.025a1.044 1.044 0 0 0-.038-.55c-.13-.326-.357-.5-.764-.5-.479 0-.684.221-1.089.8L8.768 5.672 3.494 1.715a1.169 1.169 0 0 0-1.677.292v0a1.169 1.169 0 0 0 .206 1.522l3.54 3.096c-.806 1.405-3.078 3.141-1.474 4.659 1.656 1.566 2.79 1.9 3.473 1.9" stroke="currentColor" stroke-linecap="round" stroke-linejoin="round"/>
</svg>
