<svg focusable="false" xmlns="http://www.w3.org/2000/svg" fill="none" role="img" aria-label="Icon" viewBox="0 0 14 14">
  <g stroke="currentColor" stroke-linecap="round" stroke-linejoin="round">
    <path d="M13.5 7.5H.5v6h13zm-13 3h13m-8 0v3m3-6v3"/>
    <path d="M6.489.53a.255.255 0 0 0-.24 0 .138.138 0 0 0-.056.085.128.128 0 0 0 .02.098c.738 1.144.894 2.7-.114 3.56A3.018 3.018 0 0 1 5.2 3.2a2.23 2.23 0 0 0-.892.79 1.92 1.92 0 0 0-.306 1.09c.015.336.105.666.265.97s.386.578.665.804c.28.225.606.398.962.508.355.11.73.156 1.106.134 1.93 0 2.932-1.074 2.998-2.416.078-1.611-1.2-3.593-3.508-4.549"/>
  </g>
</svg>
