<svg focusable="false" xmlns="http://www.w3.org/2000/svg" fill="none" role="img" aria-label="Icon" viewBox="0 0 14 14">
  <g stroke="currentColor" stroke-linecap="round" stroke-linejoin="round">
    <path d="M6.492 4.205C6.685 2.56 7.266.604 8.647.604c0 1.104 2.423 2.39 3.28 3.408"/>
    <path d="M6.858 13.12a6.258 6.258 0 0 0 5.137-9.835c-.22 3.13-1.113 3.577-2.454 3.577 0 1.34-.894 3.129-2.683 3.129-1.788 0-2.682-1.788-2.682-2.682s1.341-1.341 2.235-1.341c0-1.789-3.129-2.236-3.751-3.747a6.258 6.258 0 0 0 4.199 10.9"/>
    <path d="M9.54 6.861a2.682 2.682 0 0 0-3.988-2.343"/>
  </g>
</svg>
