<svg focusable="false" xmlns="http://www.w3.org/2000/svg" fill="none" role="img" aria-label="Icon" viewBox="0 0 14 14">
  <g stroke="currentColor" stroke-linecap="round" stroke-linejoin="round">
    <path d="M7.36 13.433a1 1 0 0 1-.72 0A9.565 9.565 0 0 1 .505 4.498V1.499a1 1 0 0 1 1-.999h10.993a1 1 0 0 1 1 1v2.998a9.565 9.565 0 0 1-6.137 8.935"/>
    <path d="M6.449 2.254c-.195-.083-.37.111-.287.25.292.51.487 1.068.574 1.65.12.818 0 1.716-.528 2.38a.222.222 0 0 1-.167.083.222.222 0 0 1-.176-.074c-.239-.247-.486-.498-.648-.806-.046-.092-.213-.24-.454 0-.582.48-.936 1.215-.862 1.964.03 1.66 1.498 2.873 3.106 2.892 1.641.02 3.088-1.195 3.101-2.892 0-1.07-.323-2.117-.926-3.001a6.605 6.605 0 0 0-2.733-2.446"/>
  </g>
</svg>
