<svg focusable="false" xmlns="http://www.w3.org/2000/svg" fill="none" role="img" aria-label="Icon" viewBox="0 0 14 14">
  <g stroke="currentColor" stroke-linecap="round" stroke-linejoin="round">
    <path d="M6.033 7.92.852 13.102M7 9.006l-.16.16a2 2 0 0 0-.005 2.815l.332.336m1.188-9.809 3.09 3.09L8.45 9.535a.5.5 0 0 1-.751.051L4.367 6.254a.5.5 0 0 1 .05-.752z"/>
    <path d="M7.936 2.09a.721.721 0 0 1-.17-.263.538.538 0 0 1-.027-.282.397.397 0 0 1 .11-.231c.06-.06.14-.099.232-.111l4.357-.406a.56.56 0 0 1 .263.04.726.726 0 0 1 .403.403.56.56 0 0 1 .04.263l-.394 4.37a.397.397 0 0 1-.11.23.397.397 0 0 1-.232.111.535.535 0 0 1-.274-.025.718.718 0 0 1-.259-.16zm2.088 8.488.451.45m2.35-.45-.452.45m-2.349 2.074.451-.451m2.35.451-.452-.451"/>
  </g>
</svg>
