<svg focusable="false" xmlns="http://www.w3.org/2000/svg" fill="none" role="img" aria-label="Icon" viewBox="0 0 14 14">
  <g stroke="currentColor" stroke-linecap="round" stroke-linejoin="round">
    <path d="M13.25 8.5H8.5m0-1.5h-2m5.5 5h1.5V8.766a1 1 0 0 0-.132-.497L11.79 5.506a1 1 0 0 0-.871-.504l-1.421.005a1 1 0 0 0-.997 1V12M6.5 12V6.5a1 1 0 0 0-1-1h-4a1 1 0 0 0-1 1V12H2M10.5.5l-9 5M9 12H5"/>
    <path d="M10.499 13.5a1.501 1.501 0 1 1 0-3.002 1.501 1.501 0 0 1 0 3.002m-7 0a1.501 1.501 0 1 1 0-3.002 1.501 1.501 0 0 1 0 3.002"/>
  </g>
</svg>
