<svg focusable="false" xmlns="http://www.w3.org/2000/svg" fill="none" role="img" aria-label="Icon" viewBox="0 0 14 14">
  <path d="m4.47 13.209-.199-3.096a.5.5 0 0 0-.466-.467l-3.097-.2M12.565.973a24.775 24.775 0 0 0-4.073.121.484.484 0 0 0-.28.828l1.933 1.934 1.933 1.933c.29.29.782.127.828-.28a24.77 24.77 0 0 0 .121-4.074.487.487 0 0 0-.462-.462M4.239 9.68l5.95-5.781M5.563 5.603l2.834 2.834M3.943 7.223l2.834 2.834m.42-6.09 2.834 2.834" stroke="currentColor" stroke-linecap="round" stroke-linejoin="round"/>
</svg>
