<svg focusable="false" xmlns="http://www.w3.org/2000/svg" fill="none" role="img" aria-label="Icon" viewBox="0 0 14 14">
  <g stroke="currentColor" stroke-linecap="round" stroke-linejoin="round">
    <path d="M6.85 2.2C8.83.22 11.562.788 12.505 1.495c.707.942 1.273 3.677-.707 5.657S7.792 9.036 6.496 8.918c.707.707 1.06 2.475-.707 4.243 0 0-2.475-2.475-1.414-3.536C3.314 10.686.839 8.211.839 8.211c1.768-1.768 3.536-1.414 4.243-.707-.118-1.296-.213-3.323 1.767-5.303"/>
    <path d="M7.91 3.969s0 .707.707 1.414 1.414.707 1.414.707m.219-2.59a.25.25 0 1 1 0-.5m0 .5a.25.25 0 1 0 0-.5"/>
  </g>
</svg>
