<svg focusable="false" xmlns="http://www.w3.org/2000/svg" fill="none" role="img" aria-label="Icon" viewBox="0 0 14 14">
  <g stroke="currentColor" stroke-linecap="round" stroke-linejoin="round">
    <path d="M.5.5V4a1 1 0 0 0 1 1v0a1 1 0 0 0 1-1v0M5 6.5C2.2 6.5.667 8.833.5 10c.167 1.167 1.7 3.5 4.5 3.5S9.167 12 10 11c0 1 1 2.5 3.5 2.5 0 0 0-3.5-1.5-3.5 1.5 0 1.5-3.5 1.5-3.5C11 6.5 10 8 10 9c-.833-1-2.2-2.5-5-2.5"/>
    <path d="M3.25 9.5a.25.25 0 0 1 0-.5m0 .5a.25.25 0 1 0 0-.5m2.25-.5S6 9 6 10s-.5 1.5-.5 1.5"/>
  </g>
</svg>
