<svg focusable="false" xmlns="http://www.w3.org/2000/svg" fill="none" role="img" aria-label="Icon" viewBox="0 0 14 14">
  <g stroke="currentColor" stroke-linecap="round" stroke-linejoin="round">
    <path d="M10.64 4.66c1.538 0 2.513-1.04 2.86-1.56v8.84c-.347.52-1.322 1.56-2.86 1.56-2.585 0-3.64-4.16-6.76-4.16-2.068 0-3.248 2.03-3.38 2.6V3.1C.632 2.53 1.812.5 3.88.5 7 .5 8.055 4.66 10.64 4.66"/>
    <path d="M13.5 7.52c-.347.52-1.322 1.56-2.86 1.56-2.585 0-3.64-4.16-6.76-4.16C1.812 4.92.632 6.95.5 7.52"/>
  </g>
</svg>
