<svg focusable="false" xmlns="http://www.w3.org/2000/svg" fill="none" role="img" aria-label="Icon" viewBox="0 0 14 14">
  <g stroke="currentColor" stroke-linecap="round" stroke-linejoin="round">
    <path d="M5.25 8a.25.25 0 0 1 0-.5m0 .5a.25.25 0 0 0 0-.5m3.5.5a.25.25 0 0 1 0-.5m0 .5a.25.25 0 0 0 0-.5m-1 3h-1.5L7 11z"/>
    <path d="M10.994.586h.499v7.488l1.765 1.06a.5.5 0 0 1-.01.86l-5.753 3.288a.998.998 0 0 1-.99 0L.752 9.995a.5.5 0 0 1-.01-.862l1.765-1.059V.586h.5c1.656 0 2.995 1.383 2.995 3.026.163-.02.33-.03.499-.03h.998c.17 0 .336.01.5.03 0-1.643 1.338-3.026 2.995-3.026"/>
    <path d="M4.005 4.457A3.977 3.977 0 0 1 6.5 3.581h.998c.945 0 1.812.328 2.496.876"/>
  </g>
</svg>
