<svg focusable="false" xmlns="http://www.w3.org/2000/svg" fill="none" role="img" aria-label="Icon" viewBox="0 0 14 14">
  <g stroke="currentColor" stroke-linecap="round" stroke-linejoin="round">
    <path d="M7.013 9c3 0 5.713-2 5.713-5.083M7.013 5c-3 0-5.739 2-5.739 5.083"/>
    <path d="M5 7a2 2 0 1 0 4 0 2 2 0 1 0-4 0"/>
    <path d="M8.739 7.989C10.239 5.39 9.863 2.042 7.193.5M5.274 5.989c-1.5 2.598-1.137 5.97 1.533 7.511"/>
    <path d="M8.725 5.989c-1.5-2.598-4.588-3.947-7.258-2.406m3.794 4.406c1.5 2.598 4.602 3.97 7.272 2.428"/>
  </g>
</svg>
