<svg focusable="false" xmlns="http://www.w3.org/2000/svg" fill="none" role="img" aria-label="Icon" viewBox="0 0 14 14">
  <g stroke="currentColor" stroke-linecap="round" stroke-linejoin="round">
    <path d="M4.88 13.281h7.722a.702.702 0 0 0 .702-.702V4.86a.702.702 0 0 0-.702-.703H4.881a.702.702 0 0 0-.702.702v7.721c0 .388.314.702.702.702"/>
    <path d="M10.314 8.368a1.228 1.228 0 1 0 0-2.457 1.228 1.228 0 0 0 0 2.457m.105 4.913A5.166 5.166 0 0 0 5.225 9.07a5.547 5.547 0 0 0-1.053.098"/>
    <path d="M13.297 10.761a5.537 5.537 0 0 0-3.952.161m.483-8.641v-.86a.702.702 0 0 0-.702-.702H1.405a.702.702 0 0 0-.702.702v7.72c0 .388.314.703.702.703h.72"/>
  </g>
</svg>
