<svg focusable="false" xmlns="http://www.w3.org/2000/svg" fill="none" role="img" aria-label="Icon" viewBox="0 0 14 14">
  <g stroke="currentColor" stroke-linecap="round" stroke-linejoin="round">
    <path d="M1.5.5h11s1 0 1 1v11s0 1-1 1h-11s-1 0-1-1v-11s0-1 1-1"/>
    <path d="M5.5 2.5H3a.5.5 0 0 0-.5.5v2.5A.5.5 0 0 0 3 6h2.5a.5.5 0 0 0 .5-.5V3a.5.5 0 0 0-.5-.5m5.5 0H8.5A.5.5 0 0 0 8 3v2.5a.5.5 0 0 0 .5.5H11a.5.5 0 0 0 .5-.5V3a.5.5 0 0 0-.5-.5M5.5 8H3a.5.5 0 0 0-.5.5V11a.5.5 0 0 0 .5.5h2.5A.5.5 0 0 0 6 11V8.5a.5.5 0 0 0-.5-.5M11 8H8.5a.5.5 0 0 0-.5.5V11a.5.5 0 0 0 .5.5H11a.5.5 0 0 0 .5-.5V8.5A.5.5 0 0 0 11 8"/>
  </g>
</svg>
