<svg focusable="false" xmlns="http://www.w3.org/2000/svg" fill="none" role="img" aria-label="Icon" viewBox="0 0 14 14">
  <g stroke="currentColor" stroke-linecap="round" stroke-linejoin="round">
    <path d="M8.925 5 7.805.85a.472.472 0 0 0-.577-.334L.849 2.226a.472.472 0 0 0-.333.577l2.441 9.113c.068.251.326.4.578.333L5 11.83M9.662 1.078l2.296.414a.472.472 0 0 1 .38.548L11.81 5"/>
    <path d="M7.071 8.071a1 1 0 0 1 1-1H12.5a1 1 0 0 1 1 1V12.5a1 1 0 0 1-1 1H8.07a1 1 0 0 1-1-1z"/>
    <path d="M9.154 11.566a.25.25 0 1 1 0-.5"/>
    <path d="M9.153 11.566a.25.25 0 1 0 0-.5m2.266-1.56a.25.25 0 1 1 0-.5"/>
    <path d="M11.418 9.505a.25.25 0 0 0 0-.5M6.623 5.582 4.92 4.084l-.866 2.562 1.322 1.162"/>
  </g>
</svg>
