<svg focusable="false" xmlns="http://www.w3.org/2000/svg" fill="none" role="img" aria-label="Icon" viewBox="0 0 14 14">
  <path d="M4.382 12.956a6.573 6.573 0 0 0 5.236 0c1.308-.568 1.77-2.232 1.524-3.707a10.265 10.265 0 0 1-.145-1.691c0-2.353.444-5.176.444-5.176L8.332.5v5.168c0 .78-.596 1.411-1.332 1.411-.736 0-1.332-.632-1.332-1.411V.5L2.559 2.382s.444 2.823.444 5.176c0 .602-.058 1.174-.145 1.69-.247 1.476.216 3.14 1.524 3.708M5.669 1.488h2.658" stroke="currentColor" stroke-linecap="round" stroke-linejoin="round"/>
</svg>
