<svg focusable="false" xmlns="http://www.w3.org/2000/svg" fill="none" role="img" aria-label="Icon" viewBox="0 0 14 14">
  <g stroke="currentColor" stroke-linecap="round" stroke-linejoin="round">
    <path d="M10.314 12.68C8.15 10.877 5.7 11.376 3.88 10.274M.5 8.162l1.807.451.904-.903"/>
    <path d="m1.63 10.616 2.324-.34.62-1.486M.627 5.46l1.215 1.085L3.31 5.84M1.594 3.01l.741 1.042 1.412-.22m-.06-2.061.27-.45m-.27 11.359c2.163-1.803 4.613-1.304 6.434-2.406M13.5 8.162l-1.807.451-.904-.903"/>
    <path d="m12.37 10.616-2.324-.34-.62-1.486m3.947-3.33-1.215 1.085-1.469-.704m1.717-2.831-.741 1.042-1.412-.22m.061-2.061-.271-.45"/>
  </g>
</svg>
