<svg focusable="false" xmlns="http://www.w3.org/2000/svg" fill="none" role="img" aria-label="Icon" viewBox="0 0 14 14">
  <g stroke="currentColor" stroke-linecap="round" stroke-linejoin="round">
    <path d="M3.798 7.876a.25.25 0 0 1 0-.5m0 .5a.25.25 0 0 0 0-.5m-2.094.843a.25.25 0 0 1 0-.5m0 .5a.25.25 0 0 0 0-.5M3 10.078a.25.25 0 0 1 0-.5m0 .5a.25.25 0 0 0 0-.5"/>
    <path d="m.686 9.53.857 3.431h2.573l.858-3.43m3.867-6.838a1.833 1.833 0 1 0 3.666 0 1.833 1.833 0 1 0-3.666 0"/>
    <path d="m12.25 9.659-.391 3.302H9.716L8.593 6.834l-3.017-.208a1 1 0 0 1-.931-.997v-.104c0-.552.45-1 1.003-1h5.037a2.738 2.738 0 0 1 2.738 2.738v2.005a.391.391 0 0 1-.391.391z"/>
  </g>
</svg>
