<svg focusable="false" xmlns="http://www.w3.org/2000/svg" fill="none" role="img" aria-label="Icon" viewBox="0 0 14 14">
  <g stroke="currentColor" stroke-linecap="round" stroke-linejoin="round">
    <path d="M13.438 4.656v4.289s0 2-2 2H2.563s-2 0-2-2V4.656s0-2 2-2h8.875s2 0 2 2M6 5.045h1.756m0 3.51H6m.878-3.51v3.51"/>
    <path d="M3.758 7.093h.878v.585a.878.878 0 0 1-.878.878h-.585a.878.878 0 0 1-.878-.878V5.923c0-.485.393-.878.878-.878h.585a.88.88 0 0 1 .828.585m4.799 2.926v-3.51h2.34m-2.34 1.608h2.047"/>
  </g>
</svg>
