<svg focusable="false" xmlns="http://www.w3.org/2000/svg" fill="none" role="img" aria-label="Icon" viewBox="0 0 14 14">
  <g stroke="currentColor" stroke-linecap="round" stroke-linejoin="round">
    <path d="m.509 10.987 2.444 2.036a2 2 0 0 0 1.28.464h6.443c.46 0 .833-.373.833-.833 0-.921-.746-1.667-1.667-1.667H5.363"/>
    <path d="m3.509 9.987.75.75a1.06 1.06 0 0 0 1.5-1.5L4.595 8.073a2 2 0 0 0-1.415-.586H.51M10.249.67l.86 1.73a.27.27 0 0 0 .22.16l1.91.29a.29.29 0 0 1 .16.5l-1.41 1.34a.28.28 0 0 0 0 .26l.27 1.9a.29.29 0 0 1-.43.31l-1.7-.9a.34.34 0 0 0-.28 0l-1.7.9a.29.29 0 0 1-.43-.31l.32-1.9a.28.28 0 0 0-.05-.26l-1.41-1.35a.29.29 0 0 1 .16-.49l1.91-.28a.27.27 0 0 0 .22-.16l.86-1.73a.29.29 0 0 1 .52-.01"/>
  </g>
</svg>
