<svg focusable="false" xmlns="http://www.w3.org/2000/svg" fill="none" role="img" aria-label="Icon" viewBox="0 0 14 14">
  <g stroke="currentColor" stroke-linecap="round" stroke-linejoin="round">
    <path d="M9.67.66c-.194-.083-.37.111-.287.25a4.73 4.73 0 0 1 .574 1.65c.056.377.056.761 0 1.139a3.094 3.094 0 0 1-.092.398 2.436 2.436 0 0 1-.436.843.222.222 0 0 1-.167.084.222.222 0 0 1-.176-.075l-.259-.268a3.01 3.01 0 0 1-.213-.269 1.677 1.677 0 0 1-.176-.269c-.046-.092-.213-.24-.454 0a2.55 2.55 0 0 0-.861 1.418 2.779 2.779 0 0 0 0 .546c.01.554.177 1.094.481 1.557a3.326 3.326 0 0 0 5.28.065 3.27 3.27 0 0 0 .445-1.622 5.33 5.33 0 0 0-.926-3.001A6.605 6.605 0 0 0 9.67.66"/>
    <path d="M5.75 3.001a5.25 5.25 0 1 0 4.481 7.986"/>
    <path d="M.904 10.27h1.413a1.413 1.413 0 0 0 1.414-1.413V7.645a1.413 1.413 0 0 1 1.413-1.413M6.558 9.26a1.414 1.414 0 0 0 1.413 1.414 1.01 1.01 0 0 1 1.01 1.01v.702"/>
  </g>
</svg>
