<svg focusable="false" xmlns="http://www.w3.org/2000/svg" fill="none" role="img" aria-label="Icon" viewBox="0 0 14 14">
  <g stroke="currentColor" stroke-linecap="round" stroke-linejoin="round">
    <path d="M4.5 9V2a1.5 1.5 0 0 0-3 0v7a2.5 2.5 0 1 0 3 0m3.035 1.952A5.25 5.25 0 1 0 6.573.774"/>
    <path d="M6.645 4.145a1.413 1.413 0 0 1 1-.414 1.413 1.413 0 0 0 1.413-1.414V.557M13.5 5.67a2.876 2.876 0 0 0-1.308-.324h-1.72a1.413 1.413 0 1 0 0 2.827 1.01 1.01 0 0 1 1.009 1.01v.702"/>
  </g>
</svg>
