<svg focusable="false" xmlns="http://www.w3.org/2000/svg" fill="none" role="img" aria-label="Icon" viewBox="0 0 14 14">
  <g stroke="currentColor" stroke-linecap="round" stroke-linejoin="round">
    <path d="M11.366 7.318a5.506 5.506 0 1 0-7.549 3.736M.512 6.006h11.011"/>
    <path d="M4.382 8.547a9.503 9.503 0 0 1-.484-2.541A9.504 9.504 0 0 1 6.016.5a9.504 9.504 0 0 1 2.117 5.506A9.505 9.505 0 0 1 8.02 7.06m1.438 1.118 4.03 1.746-4.03 1.746-4.03-1.746z"/>
    <path d="m7.257 10.72.004 1.9s.665.88 2.197.88 2.2-.88 2.2-.88v-1.9m-6.229 2.275V9.924"/>
  </g>
</svg>
