<svg focusable="false" xmlns="http://www.w3.org/2000/svg" fill="none" role="img" aria-label="Icon" viewBox="0 0 14 14">
  <g stroke="currentColor" stroke-linecap="round" stroke-linejoin="round">
    <path d="M1.743 12.003h2.65V3.088l-.812-.52C2.406 1.816.86 2.658.86 4.05v7.074c0 .486.396.88.884.88"/>
    <path d="M.86 4.05v1.176l3.533 2.263 2.65 1.698 2.65-1.698 3.534-2.263V4.049c0-1.392-1.547-2.234-2.723-1.48l-.81.52-2.651 1.697-2.65-1.698-.812-.52C2.406 1.816.86 2.658.86 4.05"/>
    <path d="M9.693 12.003h2.65a.882.882 0 0 0 .884-.88V4.049c0-1.392-1.547-2.234-2.723-1.48l-.81.52z"/>
  </g>
</svg>
