<svg focusable="false" xmlns="http://www.w3.org/2000/svg" fill="none" role="img" aria-label="Icon" viewBox="0 0 14 14">
  <g stroke="currentColor" stroke-linecap="round" stroke-linejoin="round">
    <path d="M1.745 6.875a1 1 0 0 1 1-1h8.656a1 1 0 0 1 1 1v6.426H1.745z"/>
    <path d="M8.057 8.988c0-.65.527-1.175 1.176-1.175v0c.65 0 1.176.526 1.176 1.175v4.313H8.057zM.857 13.3H13.29M2.93 4.533a1 1 0 0 1 1-1h6.287a1 1 0 0 1 1 1v1.342H2.93zm4.07-1V.596M3.738 8.988c0-.65.526-1.176 1.176-1.176v0c.65 0 1.176.527 1.176 1.176v4.313H3.738zM7 .596h1.25"/>
  </g>
</svg>
