<svg focusable="false" xmlns="http://www.w3.org/2000/svg" fill="none" role="img" aria-label="Icon" viewBox="0 0 14 14">
  <g stroke="currentColor" stroke-linecap="round" stroke-linejoin="round">
    <path d="M.643.643v12.714h12.714"/>
    <path d="M4.581 3.854a1.776 1.776 0 1 1 0 3.552 1.776 1.776 0 0 1 0-3.552m7-2.968a1.776 1.776 0 1 1 0 3.551 1.776 1.776 0 0 1 0-3.551m-2.469 6.52a1.776 1.776 0 1 1 0 3.552 1.776 1.776 0 0 1 0-3.552M.643 9.424l2.534-2.706m2.953-.202L7.755 8.03m2.141-.452 1.171-3.219"/>
  </g>
</svg>
