<svg focusable="false" xmlns="http://www.w3.org/2000/svg" fill="none" role="img" aria-label="Icon" viewBox="0 0 14 14">
  <g stroke="currentColor" stroke-linecap="round" stroke-linejoin="round">
    <path d="M5.5 12a1.5 1.5 0 1 0 3 0 1.5 1.5 0 1 0-3 0m0-6a1.5 1.5 0 1 0 3 0 1.5 1.5 0 1 0-3 0m-3 0a1.5 1.5 0 1 0 3 0 1.5 1.5 0 1 0-3 0m6 0a1.5 1.5 0 1 0 3 0 1.5 1.5 0 1 0-3 0"/>
    <path d="M7 9a1.5 1.5 0 1 0 3 0 1.5 1.5 0 1 0-3 0M4 9a1.5 1.5 0 1 0 3 0 1.5 1.5 0 1 0-3 0m3-4.5c-.5-.167-1.291-.836-1-2 .5-2 3.474-1.423 3 0C8.5 4 4.5 3 5.5.5"/>
  </g>
</svg>
