<svg focusable="false" xmlns="http://www.w3.org/2000/svg" fill="none" role="img" aria-label="Icon" viewBox="0 0 14 14">
  <g stroke="currentColor" stroke-linecap="round" stroke-linejoin="round">
    <path d="M11.627.5H2.373c-.465 0-.842.448-.842 1v11c0 .552.377 1 .842 1h9.254c.465 0 .842-.448.842-1v-11c0-.552-.377-1-.842-1M1.531 7H12.47M3.844 2.764H7m-3.156 2h6.312"/>
    <path d="m3.82 13.5 4.59-4.282a.442.442 0 0 1 .565 0l3.494 2.528m-8.202-1.373a.89.89 0 1 0 0-1.78.89.89 0 0 0 0 1.78"/>
  </g>
</svg>
