<svg focusable="false" xmlns="http://www.w3.org/2000/svg" fill="none" role="img" aria-label="Icon" viewBox="0 0 14 14">
  <g stroke="currentColor" stroke-linecap="round" stroke-linejoin="round">
    <path d="M3.792 4.042a.25.25 0 0 1 0-.5m0 .5a.25.25 0 0 0 0-.5m3.208.5a.25.25 0 0 1 0-.5m0 .5a.25.25 0 0 0 0-.5m3.209.5a.25.25 0 1 1 0-.5m0 .5a.25.25 0 1 0 0-.5M3.792 7.25a.25.25 0 0 1 0-.5m0 .5a.25.25 0 0 0 0-.5m0 3.708a.25.25 0 1 1 0-.5m0 .5a.25.25 0 1 0 0-.5M7 7.25a.25.25 0 0 1 0-.5m0 .5a.25.25 0 0 0 0-.5m0 3.708a.25.25 0 1 1 0-.5m0 .5a.25.25 0 1 0 0-.5m3.209-2.708a.25.25 0 1 1 0-.5m0 .5a.25.25 0 1 0 0-.5m0 3.708a.25.25 0 1 1 0-.5m0 .5a.25.25 0 1 0 0-.5"/>
    <path d="M.5 12.5v-11a1 1 0 0 1 1-1h11a1 1 0 0 1 1 1v11a1 1 0 0 1-1 1h-11a1 1 0 0 1-1-1"/>
  </g>
</svg>
