<svg focusable="false" xmlns="http://www.w3.org/2000/svg" fill="none" role="img" aria-label="Icon" viewBox="0 0 14 14">
  <g stroke="currentColor" stroke-linecap="round" stroke-linejoin="round">
    <path d="m5.518 3.754 1.111 1.112 1.853-2.594"/>
    <path d="M11.782.545H2.218a.718.718 0 0 0-.718.718V6c0 .397.322.718.718.718h9.564A.718.718 0 0 0 12.5 6V1.263a.718.718 0 0 0-.718-.718m-8.301 9.988a1.141 1.141 0 1 0 0-2.283 1.141 1.141 0 0 0 0 2.283m-2.055 2.946a2.06 2.06 0 0 1 .267-.993 2.077 2.077 0 0 1 1.787-1.045 2.077 2.077 0 0 1 1.788 1.045c.171.303.263.645.267.993m4.991-2.946a1.141 1.141 0 1 0 0-2.283 1.141 1.141 0 0 0 0 2.283M8.47 13.479a2.06 2.06 0 0 1 .267-.993 2.077 2.077 0 0 1 1.788-1.045 2.077 2.077 0 0 1 1.788 1.045c.171.303.263.645.267.993"/>
  </g>
</svg>
