<svg focusable="false" xmlns="http://www.w3.org/2000/svg" fill="none" role="img" aria-label="Icon" viewBox="0 0 14 14">
  <g stroke="currentColor" stroke-linecap="round" stroke-linejoin="round">
    <path d="M8.209 9.582a2.748 2.748 0 0 0 1.086-3.377l1.545-1.54h.914l1.293-1.294a1 1 0 0 0 0-1.414l-1-1a1 1 0 0 0-1.414 0L9.34 2.25v.914L7.795 4.705a2.748 2.748 0 0 0-3.376 1.086 1.72 1.72 0 0 1-1.091.777C1.737 6.889.5 8.318.5 10A3.5 3.5 0 0 0 4 13.5c1.682 0 3.11-1.237 3.432-2.828a1.72 1.72 0 0 1 .777-1.09"/>
    <path d="M5.75 7.25a1 1 0 1 0 2 0 1 1 0 1 0-2 0M2.5 9.5l2 2"/>
  </g>
</svg>
