<svg focusable="false" xmlns="http://www.w3.org/2000/svg" fill="none" role="img" aria-label="Icon" viewBox="0 0 14 14">
  <g stroke="currentColor" stroke-linecap="round" stroke-linejoin="round">
    <path d="M7.002.522a.539.539 0 0 0-.489.319L4.927 4.193a.519.519 0 0 1-.409.309l-3.531.509a.579.579 0 0 0-.3.997l2.554 2.624a.579.579 0 0 1 .16.499l-.639 3.69a.559.559 0 0 0 .798.6l3.193-1.737a.549.549 0 0 1 .249-.07z"/>
    <path d="M6.998.522a.539.539 0 0 1 .489.319L8.513 3.01m1.927 1.63 2.573.37a.579.579 0 0 1 .3.998l-1.937 1.99m-4.378 3.617a.54.54 0 0 1 .25.07l.983.534 2.209 1.201a.557.557 0 0 0 .798-.598l-.363-2.097"/>
  </g>
</svg>
