<svg focusable="false" xmlns="http://www.w3.org/2000/svg" fill="none" role="img" aria-label="Icon" viewBox="0 0 14 14">
  <path d="M1.31 13.5c.224-3.005.549-6.19 1.456-9.051.19-.599.427-1.166.684-1.73.165-.365.37-.753.744-.87.318-.099.562.05.728.362.395.741.602 1.67.816 2.491.189.723.36 1.45.558 2.17.108.393.292 1.17.765 1.195.364.02.656-.628.799-.911.518-1.026.9-2.134 1.404-3.169.453-.927.983-1.819 1.595-2.622.122-.16.645-1.001.932-.846.31.168.45.756.527 1.088.217.943.3 1.957.34 2.926.07 1.672 0 2.477 0 5.299" stroke="currentColor" stroke-linecap="round" stroke-linejoin="round"/>
</svg>
