<svg focusable="false" xmlns="http://www.w3.org/2000/svg" fill="none" role="img" aria-label="Icon" viewBox="0 0 14 14">
  <path d="M2.58 3.486A2.548 2.548 0 0 0 .57 5.994l-.006.502a.862.862 0 0 0 .853.853l2.146-.011a.855.855 0 0 0 .847-.847.862.862 0 0 1 .852-.853h3.389a.847.847 0 0 1 .852.853.855.855 0 0 0 .847.847h2.146a.863.863 0 0 0 .853-.853l-.006-.503a2.548 2.548 0 0 0-2.01-2.507 23.112 23.112 0 0 0-8.753.011M7 7.939v4.717m-1.872-1.871L7 12.656l1.872-1.872" stroke="currentColor" stroke-linecap="round" stroke-linejoin="round"/>
</svg>
