<svg focusable="false" xmlns="http://www.w3.org/2000/svg" fill="none" role="img" aria-label="Icon" viewBox="0 0 14 14">
  <g stroke="currentColor" stroke-linecap="round" stroke-linejoin="round">
    <path d="M10.917 4.565a.125.125 0 0 1 0-.25m0 .25a.125.125 0 0 0 0-.25M1.89 2.434v4.012m2.008-4.012v4.012M1.89 4.441h2.007"/>
    <path d="M8.91 4.44a2.006 2.006 0 1 0 4.012 0 2.006 2.006 0 1 0-4.012 0m-2.297 0H5.409m1.204 0c.664 0 1.203-.45 1.203-1.003 0-.554-.539-1.003-1.203-1.003H5.409v4.012h1.204c.664 0 1.203-.449 1.203-1.003 0-.554-.539-1.003-1.203-1.003M.732 11.833V9.689c0-.71.501-1.287 1.12-1.287S2.97 8.978 2.97 9.69v2.144m0-.001V9.689c0-.71.502-1.287 1.12-1.287.618 0 1.12.576 1.12 1.287v2.144m5.82-3.431 2.238 3.431m0-3.431-2.239 3.431m-4.258-1.715a1.343 1.715 0 1 0 2.686 0 1.343 1.715 0 1 0-2.686 0m2.692-1.716v3.431"/>
  </g>
</svg>
