<svg focusable="false" xmlns="http://www.w3.org/2000/svg" fill="none" role="img" aria-label="Icon" viewBox="0 0 14 14">
  <g stroke="currentColor" stroke-linecap="round">
    <path d="M11.643.98c.448.387.756.907.93 1.512"/>
    <path d="m3.1 8.521.46.461m-2.615.605 1.493 1.493m1.71-4.706 1.493 1.493m5.968 2.467v2.186m-1.169-2.186h2.338m-8.832 1.769c.281.281.658.574 1.438.5 1.261-.12 1.75-.931 2-1.781.25-.85 1.125-2.031 1.5-2.344.75-.937 1.937-1.719 1.781-3.875-.156-2.156-2.063-3.531-4.75-3.156-1.914.267-2.716 2.14-2.942 3.341" stroke-linejoin="round"/>
    <path d="M5.576 4.47c.344-.547.69-.738 1.031-.829C8.031 3.263 9.12 5.05 7.89 6.376" stroke-linejoin="round"/>
  </g>
</svg>
