<svg focusable="false" xmlns="http://www.w3.org/2000/svg" fill="none" role="img" aria-label="Icon" viewBox="0 0 14 14">
  <g stroke="currentColor">
    <path d="M.988 8.62C-.74 2.272 4.658-.007 8.458 1.403c3.8 1.41 4.917 5.57 4.917 8.328 0 3.217-3.986 3.856-6.143 3.562-3.617-.184-5.67-2.565-6.244-4.673Z" stroke-linecap="round"/>
    <path d="M3.5 6.861c-1.106-3.578 2.034-4.57 4.063-3.818 2.03.753 2.605 2.57 2.605 4.043 0 1.719-2.182 2.428-3.334 2.27-1.931-.097-2.99-1.38-3.334-2.495Z" stroke-linecap="round"/>
    <path d="M5.193 5.581a1.255 1.215 0 1 0 2.51 0 1.255 1.215 0 1 0-2.51 0"/>
  </g>
</svg>
