<svg focusable="false" xmlns="http://www.w3.org/2000/svg" fill="none" role="img" aria-label="Icon" viewBox="0 0 14 14">
  <g stroke="currentColor" stroke-linecap="round" stroke-linejoin="round">
    <path d="M12.5 5.375h-11a1 1 0 0 0-1 1v6a1 1 0 0 0 1 1h11a1 1 0 0 0 1-1v-6a1 1 0 0 0-1-1m-1.623-1.562c1.083-1.355-1.084-1.896 0-3.25m-3.564 3.25c1.083-1.355-1.084-1.896 0-3.25m-3.565 3.25c1.083-1.355-1.084-1.896 0-3.25m3.254 10.718V7.47m2.094 3.811V7.47m2.094 3.811V7.47"/>
    <path d="M2.914 7.969a.25.25 0 0 1 0-.5m0 .5a.25.25 0 0 0 0-.5"/>
  </g>
</svg>
