<svg focusable="false" xmlns="http://www.w3.org/2000/svg" fill="none" role="img" aria-label="Icon" viewBox="0 0 14 14">
  <g stroke="currentColor" stroke-linecap="round" stroke-linejoin="round">
    <path d="M9.043 4.598V1.43M7.226 12.533l.503-2.162M5.588 2.413h6.797M5.015 12.52l6.69.04a.999.999 0 0 0 .643-.229l1.039-.859m-2.538 1.088-.492-2.19M1.778 5.905.675 4.035a.858.858 0 0 1 .37-1.21l.131-.062a.858.858 0 0 1 1.136.39l.482.964c.145.29.442.474.767.474H8.9a3.942 3.942 0 0 1 3.942 3.941 1.838 1.838 0 0 1-1.838 1.839H8.039a3 3 0 0 1-2.9-2.231l-.125-.474a.858.858 0 0 0-.541-.588l-2.245-.8a.858.858 0 0 1-.45-.373"/>
    <path d="M7.878 4.598v1.06a3 3 0 0 0 3.225 2.992l1.741-.13"/>
  </g>
</svg>
