<svg focusable="false" xmlns="http://www.w3.org/2000/svg" fill="none" role="img" aria-label="Icon" viewBox="0 0 14 14">
  <g stroke="currentColor" stroke-linecap="round" stroke-linejoin="round">
    <path d="M6.816 3.53V.5m-3.65 9.269s.756-.831 3.65-.831c2.895 0 3.651.83 3.651.83M3.166 6.615s.756-.832 3.65-.832c2.895 0 3.651.832 3.651.832M1.51 13.5h2.242"/>
    <path d="M3.007 7.34a3.81 3.81 0 0 1 3.81-3.81v0a3.81 3.81 0 0 1 3.81 3.81v2.111a2 2 0 0 1-2 2h-3.62a2 2 0 0 1-2-2zM2.5 13.5c0-.826.619-1.564 1.588-2.049M9.883 13.5h2.242M1.226 1.59h11.548M6.816 8.938V5.783m4.317 7.717c0-.826-.62-1.564-1.588-2.049"/>
  </g>
</svg>
