<svg focusable="false" xmlns="http://www.w3.org/2000/svg" fill="none" role="img" aria-label="Icon" viewBox="0 0 14 14">
  <path d="M3.5.5h-2a1 1 0 0 0-1 1v2a1 1 0 0 0 1 1h2a1 1 0 0 0 1-1v-2a1 1 0 0 0-1-1m0 9h-2a1 1 0 0 0-1 1v2a1 1 0 0 0 1 1h2a1 1 0 0 0 1-1v-2a1 1 0 0 0-1-1m-1 0v-5m10 5h-2a1 1 0 0 0-1 1v2a1 1 0 0 0 1 1h2a1 1 0 0 0 1-1v-2a1 1 0 0 0-1-1m-1.5-3a.5.5 0 1 0 1 0 .5.5 0 1 0-1 0m0-4a.5.5 0 1 0 1 0 .5.5 0 1 0-1 0" stroke="currentColor" stroke-linecap="round" stroke-linejoin="round"/>
</svg>
