<svg focusable="false" xmlns="http://www.w3.org/2000/svg" fill="none" role="img" aria-label="Icon" viewBox="0 0 14 14">
  <path d="M5.5 10.25h-4a1 1 0 0 1-1-1v-4.5a1 1 0 0 1 1-1h4a1 1 0 0 1 1 1v4.5a1 1 0 0 1-1 1M6.5 7h4m0 5h-1a1 1 0 0 1-1-1V3a1 1 0 0 1 1-1h1m2 11.5h-1a1 1 0 0 1-1-1v-1a1 1 0 0 1 1-1h1a1 1 0 0 1 1 1v1a1 1 0 0 1-1 1m0-5h-1a1 1 0 0 1-1-1v-1a1 1 0 0 1 1-1h1a1 1 0 0 1 1 1v1a1 1 0 0 1-1 1m0-5h-1a1 1 0 0 1-1-1v-1a1 1 0 0 1 1-1h1a1 1 0 0 1 1 1v1a1 1 0 0 1-1 1" stroke="currentColor" stroke-linecap="round" stroke-linejoin="round"/>
</svg>
