<svg focusable="false" xmlns="http://www.w3.org/2000/svg" fill="none" role="img" aria-label="Icon" viewBox="0 0 14 14">
  <path d="M7 4.5v.25A2.25 2.25 0 0 1 4.75 7 2.25 2.25 0 0 0 2.5 9.25v.25m4.5-5v.25A2.25 2.25 0 0 0 9.25 7a2.25 2.25 0 0 1 2.25 2.25v.25M8 .5H6a1 1 0 0 0-1 1v2a1 1 0 0 0 1 1h2a1 1 0 0 0 1-1v-2a1 1 0 0 0-1-1m-4.5 9h-2a1 1 0 0 0-1 1v2a1 1 0 0 0 1 1h2a1 1 0 0 0 1-1v-2a1 1 0 0 0-1-1m9 0h-2a1 1 0 0 0-1 1v2a1 1 0 0 0 1 1h2a1 1 0 0 0 1-1v-2a1 1 0 0 0-1-1" stroke="currentColor" stroke-linecap="round" stroke-linejoin="round"/>
</svg>
