<svg focusable="false" xmlns="http://www.w3.org/2000/svg" fill="none" role="img" aria-label="Icon" viewBox="0 0 14 14">
  <path d="M3.75 5.5v-4a1 1 0 0 1 1-1h4.5a1 1 0 0 1 1 1v4a1 1 0 0 1-1 1h-4.5a1 1 0 0 1-1-1M7 6.5v4m-5 0v-1a1 1 0 0 1 1-1h8a1 1 0 0 1 1 1v1m-11.5 2v-1a1 1 0 0 1 1-1h1a1 1 0 0 1 1 1v1a1 1 0 0 1-1 1h-1a1 1 0 0 1-1-1m5 0v-1a1 1 0 0 1 1-1h1a1 1 0 0 1 1 1v1a1 1 0 0 1-1 1h-1a1 1 0 0 1-1-1m5 0v-1a1 1 0 0 1 1-1h1a1 1 0 0 1 1 1v1a1 1 0 0 1-1 1h-1a1 1 0 0 1-1-1" stroke="currentColor" stroke-linecap="round" stroke-linejoin="round"/>
</svg>
