<svg focusable="false" xmlns="http://www.w3.org/2000/svg" fill="none" role="img" aria-label="Icon" viewBox="0 0 14 14">
  <path d="M3.5 10H1a.5.5 0 0 0-.5.5V13a.5.5 0 0 0 .5.5h2.5A.5.5 0 0 0 4 13v-2.5a.5.5 0 0 0-.5-.5m9.5 0h-2.5a.5.5 0 0 0-.5.5V13a.5.5 0 0 0 .5.5H13a.5.5 0 0 0 .5-.5v-2.5a.5.5 0 0 0-.5-.5M8.5.5h-3A.5.5 0 0 0 5 1v3a.5.5 0 0 0 .5.5h3A.5.5 0 0 0 9 4V1a.5.5 0 0 0-.5-.5M4 12h6M5.09 4.29 2.5 10m6.41-5.71L11.5 10" stroke="currentColor" stroke-linecap="round" stroke-linejoin="round"/>
</svg>
