<svg focusable="false" xmlns="http://www.w3.org/2000/svg" fill="none" role="img" aria-label="Icon" viewBox="0 0 14 14">
  <g stroke="currentColor" stroke-linecap="round" stroke-linejoin="round">
    <path d="M12.564 5.39c0 3.333-2.572 7.378-5.744 7.378S1.076 8.723 1.076 5.389C1.076 2.055 3.647.694 6.82.694s5.744 1.361 5.744 4.695"/>
    <path d="M10.617 10.673c-1.012 1.243-2.341 2.095-3.797 2.095-1.454 0-2.782-.85-3.794-2.092.641-1.745 2.1-2.493 3.796-2.493 1.696 0 3.153.747 3.795 2.49m-8.473 1.593L1.076 13.27m10.78-1.004 1.068 1.003M4.497 3.365h4.648s1.271 0 1.271 1.271v0s0 1.271-1.271 1.271H4.497s-1.271 0-1.271-1.271v0s0-1.271 1.271-1.271"/>
  </g>
</svg>
