<svg focusable="false" xmlns="http://www.w3.org/2000/svg" fill="none" role="img" aria-label="Icon" viewBox="0 0 14 14">
  <g stroke="currentColor" stroke-linecap="round" stroke-linejoin="round">
    <path d="m3.114 11.952-.21-.136a5.342 5.342 0 0 1-1.4-1.323l-.79-1.079a.843.843 0 0 1 1.33-1.032l.695.847c.286-.004.908.084 1.427.43"/>
    <path d="m2.74 9.23-.052-4.262a.853.853 0 0 1 .842-.863v0a.853.853 0 0 1 .863.842l.031 2.558-.044-3.58a.853.853 0 0 1 .843-.863v0a.853.853 0 0 1 .862.842l.01.852m.629 8.464-.095-.097a2 2 0 0 1-.569-1.421l.059-4.798a.853.853 0 0 1 .862-.842v0a.854.854 0 0 1 .843.863L7.797 9.14l.047-3.921a.853.853 0 0 1 .863-.842v0a.852.852 0 0 1 .842.863l-.043 3.58.03-2.557a.853.853 0 0 1 .864-.843v0c.47.006.847.393.842.863l-.052 4.263.694-.847a.843.843 0 0 1 1.332 1.032l-.877 1.197a4.543 4.543 0 0 1-1.19 1.125l-.334.216M7.39.7l.16 1.333m2.067-.923L9.19 2.383m2.31-.097-.925.975"/>
  </g>
</svg>
