<svg focusable="false" xmlns="http://www.w3.org/2000/svg" fill="none" role="img" aria-label="Icon" viewBox="0 0 14 14">
  <g stroke="currentColor" stroke-linecap="round" stroke-linejoin="round">
    <path d="M12.578 12.752H1.366M7.49 1.275 2.778 6.188 8 10.232l3.573-5.786a1 1 0 0 0-.245-1.322L8.825 1.178a1 1 0 0 0-1.335.097"/>
    <path d="M7.997 10.227 2.779 6.186l.425 2.335a1 1 0 0 1-.194.79l-.775 1.003 1.902 1.474.776-1.003a1 1 0 0 1 .718-.385zm-4.065 1.404-.877 1.113-2.291.003L2.51 10.53z"/>
  </g>
</svg>
