<svg focusable="false" xmlns="http://www.w3.org/2000/svg" fill="none" role="img" aria-label="Icon" viewBox="0 0 14 14">
  <g stroke="currentColor" stroke-linecap="round" stroke-linejoin="round">
    <path d="M2 2.5v-1a1 1 0 0 1 1-1h8a1 1 0 0 1 1 1v1a1 1 0 0 1-1 1H3a1 1 0 0 1-1-1m.121 9.485-.845-3.379A4.99 4.99 0 0 1 3 3.5h8a4.99 4.99 0 0 1 1.724 5.106l-.845 3.38a2 2 0 0 1-1.94 1.514H4.061a2 2 0 0 1-1.94-1.515"/>
    <path d="m4.5 7-1 1.5 1 1.5H6l1-1.5L6 7z"/>
    <path d="M7 5.5 6 7l1 1.5h1.5l1-1.5-1-1.5zm0 3L6 10l1 1.5h1.5l1-1.5-1-1.5z"/>
  </g>
</svg>
