<svg focusable="false" xmlns="http://www.w3.org/2000/svg" fill="none" role="img" aria-label="Icon" viewBox="0 0 14 14">
  <g stroke="currentColor" stroke-linecap="round" stroke-linejoin="round">
    <path d="M5.59 8.81c.149.42.55.72 1.02.72h.72a1.08 1.08 0 0 0 1.08-1.08v-.18a1.08 1.08 0 0 0-1.08-1.08h-.36.27a.99.99 0 1 0 0-1.98H6.7a.99.99 0 0 0-.953.72"/>
    <path d="M6.039 1.282a1.135 1.135 0 0 1 1.922 0l1.866 2.952 2.432.298a1.115 1.115 0 0 1 .721 1.836l-2.028 2.327.653 3.22a1.125 1.125 0 0 1-.442 1.126 1.144 1.144 0 0 1-1.211.067L7 11.493l-2.952 1.615a1.144 1.144 0 0 1-1.211-.067 1.125 1.125 0 0 1-.442-1.125l.653-3.221L1.02 6.368a1.115 1.115 0 0 1 .72-1.836l2.433-.298z"/>
  </g>
</svg>
