<svg focusable="false" xmlns="http://www.w3.org/2000/svg" fill="none" role="img" aria-label="Icon" viewBox="0 0 14 14">
  <g stroke="currentColor" stroke-linecap="round" stroke-linejoin="round">
    <path d="M9.284 3.503a1.621 1.621 0 1 0 3.242 0 1.621 1.621 0 1 0-3.242 0"/>
    <path d="M8.473 8.367v-.81a2.432 2.432 0 0 1 4.865 0v.81M6.6 8.369h6.738M3.604 5.612a1.712 1.712 0 1 0 0-3.425 1.712 1.712 0 0 0 0 3.425"/>
    <path d="M6.6 8.609a2.996 2.996 0 1 0-5.993 0v1.284h1.285l.428 3.424h2.568l.428-3.424H6.6z"/>
  </g>
</svg>
