<svg focusable="false" xmlns="http://www.w3.org/2000/svg" fill="none" role="img" aria-label="Icon" viewBox="0 0 14 14">
  <g stroke="currentColor" stroke-linecap="round" stroke-linejoin="round">
    <path d="M9.901 4.317v1.364M9.9 2.662a.124.124 0 0 1-.124-.125c0-.07.056-.125.124-.125m.002.25a.125.125 0 0 0 .124-.125.124.124 0 0 0-.124-.125M.857 12.864h12.007M1.989 6.829a1.939 1.939 0 1 0 3.878 0 1.939 1.939 0 1 0-3.878 0"/>
    <path d="M.855 12.865V11.84a3.072 3.072 0 1 1 6.145 0v1.024m.394-6.148A3.554 3.554 0 1 0 6.33 4"/>
  </g>
</svg>
