<svg focusable="false" xmlns="http://www.w3.org/2000/svg" fill="none" role="img" aria-label="Icon" viewBox="0 0 14 14">
  <g stroke="currentColor" stroke-linecap="round" stroke-linejoin="round">
    <path d="M2.283 9.938a2.67 2.67 0 0 1 1.07-5.176c.15-.01.3-.01.45 0a3.43 3.43 0 0 1 6.71 0c.154-.01.307-.01.46 0a2.67 2.67 0 0 1 1.017 5.06"/>
    <path d="m6.645 8.22.726-.726A1.688 1.688 0 0 1 9.76 9.882l-.726.726M7.874 9.38l-1.435 1.434M5.31 9.555l-.725.726a1.688 1.688 0 0 0 2.387 2.387l.726-.726"/>
  </g>
</svg>
