<svg focusable="false" xmlns="http://www.w3.org/2000/svg" fill="none" role="img" aria-label="Icon" viewBox="0 0 14 14">
  <path d="M5.297 13.5a1.083 1.083 0 0 1-1.083-1.083v-2.013c0-.598.485-1.083 1.083-1.083h7.12c.598 0 1.083.485 1.083 1.083v2.013c0 .598-.485 1.083-1.083 1.083zm0-8.821a1.083 1.083 0 0 1-1.083-1.083V1.583C4.214.985 4.7.5 5.297.5h7.12c.598 0 1.083.485 1.083 1.083v2.013c0 .598-.485 1.083-1.083 1.083zM.5 8.857 2.357 7 .5 5.143" stroke="currentColor" stroke-linecap="round" stroke-linejoin="round"/>
</svg>
