<svg focusable="false" xmlns="http://www.w3.org/2000/svg" fill="none" role="img" aria-label="Icon" viewBox="0 0 14 14">
  <g stroke="currentColor" stroke-linecap="round" stroke-linejoin="round">
    <path d="m12 13.5.914-.914a2 2 0 0 0 .586-1.414V6.333a.833.833 0 0 0-.833-.833v0c-.92 0-1.667.746-1.667 1.667v2.397"/>
    <path d="M8 13.5v-1.586a1 1 0 0 1 .293-.707L9.75 9.75a1.06 1.06 0 0 1 1.5 1.5l-.75.75M2 13.5l-.914-.914A2 2 0 0 1 .5 11.172V6.333c0-.46.373-.833.833-.833v0C2.253 5.5 3 6.246 3 7.167v2.397"/>
    <path d="M6 13.5v-1.586a1 1 0 0 0-.293-.707L4.25 9.75a1.06 1.06 0 0 0-1.5 1.5l.75.75M6.188.5a.5.5 0 0 0-.5.5v1.406H4.282a.5.5 0 0 0-.5.5v1.625a.5.5 0 0 0 .5.5h1.406v1.407a.5.5 0 0 0 .5.5h1.625a.5.5 0 0 0 .5-.5V5.03h1.406a.5.5 0 0 0 .5-.5V2.906a.5.5 0 0 0-.5-.5H8.313V1a.5.5 0 0 0-.5-.5z"/>
  </g>
</svg>
