<svg focusable="false" xmlns="http://www.w3.org/2000/svg" fill="none" role="img" aria-label="Icon" viewBox="0 0 14 14">
  <g stroke="currentColor" stroke-linecap="round" stroke-linejoin="round">
    <path d="M2.83 13.25v-2.946a5.38 5.38 0 1 1 8.723-4.925l.959 1.864a.858.858 0 0 1-.763 1.25h-.978v1.262c0 .948-.768 1.716-1.716 1.716h-.73v1.779"/>
    <path d="M4.53 3.273a3.41 3.41 0 0 0-1.498 4.123.685.685 0 0 0 .826.412c1.846-.48 3.73-1.81 4.861-2.838.284-.258.343-.687.092-.977a3.41 3.41 0 0 0-4.282-.72"/>
  </g>
</svg>
