<svg focusable="false" xmlns="http://www.w3.org/2000/svg" fill="none" role="img" aria-label="Icon" viewBox="0 0 14 14">
  <g stroke="currentColor" stroke-linecap="round" stroke-linejoin="round">
    <path d="m6.334 7.179 1.865-1.866 1.324-1.324 1.059 1.06"/>
    <path d="M6.784 8.328a1.683 1.683 0 1 1-3.366 0 1.683 1.683 0 0 1 3.366 0m1.123-2.724L8.95 6.645M3.75 13.5H1.429a.929.929 0 0 1-.929-.929V10.25m13 0v2.321a.929.929 0 0 1-.929.929H10.25m0-13h2.321a.93.93 0 0 1 .929.929V3.75m-13 0V1.429A.93.93 0 0 1 1.429.5H3.75"/>
  </g>
</svg>
