<svg focusable="false" xmlns="http://www.w3.org/2000/svg" fill="none" role="img" aria-label="Icon" viewBox="0 0 14 14">
  <path d="m9.002 10.334 1.866-1.866 1.324-1.323 1.059 1.059m-3.799 3.28a1.683 1.683 0 1 1-3.365 0 1.683 1.683 0 0 1 3.365 0m1.124-2.724 1.044 1.041M2.73 1.616h3.308m2.237 0h2.988m1.121 1.116v2.173m-8.408 7.479H2.73m-1.114-1.116v-3.15m0-2.238V2.732M.5.5h2.232v2.232H.5zm0 5.384h2.232v2.232H.5zm0 5.384h2.232V13.5H.5zM6.037.5h2.232v2.232H6.037zm5.231 0H13.5v2.232h-2.232z" stroke="currentColor" stroke-linecap="round" stroke-linejoin="round"/>
</svg>
