<svg focusable="false" xmlns="http://www.w3.org/2000/svg" fill="none" role="img" aria-label="Icon" viewBox="0 0 14 14">
  <path d="M10.594 6.76v1.395m-2.82.233 1.21.698m-1.21 2.559 1.21-.698m1.61 2.326v-1.396m2.819-.232-1.21-.698m1.21-2.559-1.21.698m-1.609 2.791a1.861 1.861 0 1 0 0-3.722 1.861 1.861 0 0 0 0 3.722M5.5 7.5h-4a1 1 0 0 1-1-1v-5a1 1 0 0 1 1-1h10a1 1 0 0 1 1 1v4M2.5 3H3m2 0h.5m2 0H8m2 0h.5M10 5h.5m-8 0H3m2 0h3" stroke="currentColor" stroke-linecap="round" stroke-linejoin="round"/>
</svg>
