<svg focusable="false" xmlns="http://www.w3.org/2000/svg" fill="none" role="img" aria-label="Icon" viewBox="0 0 14 14">
  <g stroke="currentColor" stroke-linecap="round" stroke-linejoin="round">
    <path d="M4.5 13h5m-8.75.25a.25.25 0 1 1 0-.5m0 .5a.25.25 0 1 0 0-.5m12.5.5a.25.25 0 1 1 0-.5m0 .5a.25.25 0 1 0 0-.5m-6-6a.25.25 0 0 1-.5 0m.5 0a.25.25 0 0 0-.5 0m4.846 2.007a.25.25 0 1 1-.353-.353"/>
    <path d="M11.596 8.757a.25.25 0 1 0-.353-.353m-8.486 0a.25.25 0 0 1-.353.353"/>
    <path d="M2.757 8.404a.25.25 0 0 0-.353.353"/>
  </g>
</svg>
