<svg focusable="false" xmlns="http://www.w3.org/2000/svg" fill="none" role="img" aria-label="Icon" viewBox="0 0 14 14">
  <g stroke="currentColor" stroke-linecap="round" stroke-linejoin="round">
    <path d="M2.463 5.155V1.568a.99.99 0 0 1 .99-.99h6.432l3.463 3.464v8.411a.99.99 0 0 1-.99.99H6.236"/>
    <path d="M2.921 13.276.704 11.06a.462.462 0 0 1-.136-.29.348.348 0 0 1 .096-.274l3.82-3.82a.158.158 0 0 1 .068-.041.183.183 0 0 1 .083-.006l2.06.457a.23.23 0 0 1 .133.067.23.23 0 0 1 .067.133l.458 2.06a.183.183 0 0 1-.006.084.158.158 0 0 1-.042.067l-3.82 3.82a.348.348 0 0 1-.274.097.462.462 0 0 1-.29-.137"/>
    <path d="M4.939 9.041a.247.247 0 0 1 .35-.35m-.35.35a.247.247 0 0 0 .35-.35"/>
  </g>
</svg>
