<svg focusable="false" xmlns="http://www.w3.org/2000/svg" fill="none" role="img" aria-label="Icon" viewBox="0 0 14 14">
  <g stroke="currentColor" stroke-linecap="round" stroke-linejoin="round">
    <path d="M5.205 12h-3.69a1 1 0 0 1-1-1V1.5a1 1 0 0 1 1-1h3.69a1 1 0 0 1 1 .76l.28 1.24h6a1 1 0 0 1 1 1v1.688"/>
    <path d="m8.963 13.332-2.24-2.24a.467.467 0 0 1-.138-.294.352.352 0 0 1 .098-.277l3.86-3.86a.16.16 0 0 1 .068-.042.185.185 0 0 1 .084-.006l2.082.463c.05.006.097.03.135.067a.233.233 0 0 1 .067.134l.462 2.083a.186.186 0 0 1-.006.084.16.16 0 0 1-.042.068l-3.86 3.86a.351.351 0 0 1-.277.098.467.467 0 0 1-.293-.138"/>
    <path d="M11.002 9.052a.25.25 0 1 1 .354-.353"/>
    <path d="M11.002 9.052a.25.25 0 0 0 .354-.353"/>
  </g>
</svg>
