<svg focusable="false" xmlns="http://www.w3.org/2000/svg" fill="none" role="img" aria-label="Icon" viewBox="0 0 14 14">
  <g stroke="currentColor" stroke-linecap="round" stroke-linejoin="round">
    <path d="M5 10.5H1.5a1 1 0 0 1-1-1v-8a1 1 0 0 1 1-1h8a1 1 0 0 1 1 1v2"/>
    <path d="M5.38 7.67A6.33 6.33 0 0 0 1.69 6.5c-.4 0-.797.037-1.19.11M13 9H8a.5.5 0 0 0-.5.5V13a.5.5 0 0 0 .5.5h5a.5.5 0 0 0 .5-.5V9.5A.5.5 0 0 0 13 9M8.5 9V8a2 2 0 1 1 4 0v1M6.25 4.75a1.25 1.25 0 1 0 0-2.5 1.25 1.25 0 0 0 0 2.5"/>
  </g>
</svg>
