<svg focusable="false" xmlns="http://www.w3.org/2000/svg" fill="none" role="img" aria-label="Icon" viewBox="0 0 14 14">
  <g stroke="currentColor" stroke-linecap="round" stroke-linejoin="round">
    <path d="m10.876 6.922-2.58 3.289 2.58 3.268 2.58-3.268z"/>
    <path d="m8.33 10.255 2.544.877 2.542-.877M6 10.5H1.5a1 1 0 0 1-1-1v-8a1 1 0 0 1 1-1h8a1 1 0 0 1 1 1V3"/>
    <path d="M.5 6.604A6.538 6.538 0 0 1 1.664 6.5a6.48 6.48 0 0 1 4.69 2M6.25 4.75a1.25 1.25 0 1 0 0-2.5 1.25 1.25 0 0 0 0 2.5"/>
  </g>
</svg>
