<svg focusable="false" xmlns="http://www.w3.org/2000/svg" fill="none" role="img" aria-label="Icon" viewBox="0 0 14 14">
  <g stroke="currentColor" stroke-linecap="round" stroke-linejoin="round">
    <path d="M1.5 13.5h11a1 1 0 0 0 1-1v-11a1 1 0 0 0-1-1h-11a1 1 0 0 0-1 1v11a1 1 0 0 0 1 1"/>
    <path d="M9.24 6.5a1.75 1.75 0 1 0 0-3.5 1.75 1.75 0 0 0 0 3.5m.15 7a7.36 7.36 0 0 0-7.4-6 7.88 7.88 0 0 0-1.488.138"/>
    <path d="M13.49 9.91a7.8 7.8 0 0 0-2.5-.41 7.89 7.89 0 0 0-3.13.64"/>
  </g>
</svg>
