<svg focusable="false" xmlns="http://www.w3.org/2000/svg" fill="none" role="img" aria-label="Icon" viewBox="0 0 14 14">
  <g stroke="currentColor" stroke-linecap="round" stroke-linejoin="round">
    <path d="M2.475 9.4.675 12c-.2.3-.2.7 0 1 .2.3.5.5.8.5h10.8c.6 0 1-.4 1-1 0-.2 0-.3-.1-.5l-1.8-2.6zm8.9 0V9M5.5 3.4H3.475c-.6 0-1 .4-1 1v5M9.61 1.38l.216-.558A.503.503 0 0 1 10.294.5h.412a.503.503 0 0 1 .468.322l.216.558.734.422.593-.09a.503.503 0 0 1 .502.246l.202.352a.503.503 0 0 1-.04.568l-.368.467v.845l.377.467a.502.502 0 0 1 .04.568l-.2.352a.503.503 0 0 1-.503.246l-.593-.09-.734.422-.216.558a.503.503 0 0 1-.468.322h-.422a.503.503 0 0 1-.468-.322l-.216-.558-.734-.422-.593.09a.503.503 0 0 1-.503-.246l-.2-.352a.503.503 0 0 1 .04-.568l.367-.467v-.845l-.377-.467a.503.503 0 0 1-.04-.568l.2-.352a.503.503 0 0 1 .503-.247l.593.091z"/>
    <path d="M10 3.768a.5.5 0 1 0 1 0 .5.5 0 1 0-1 0"/>
  </g>
</svg>
