<svg focusable="false" xmlns="http://www.w3.org/2000/svg" fill="none" role="img" aria-label="Icon" viewBox="0 0 14 14">
  <path d="M2.475 9.4.675 12c-.2.3-.2.7 0 1 .2.3.5.5.8.5h10.8c.6 0 1-.4 1-1 0-.2 0-.3-.1-.5l-1.8-2.6zm8.9 0v-.9M4.5 3.4H3.475c-.6 0-1 .4-1 1v5M10.348.652l.836 1.682a.262.262 0 0 0 .214.155l1.856.282a.282.282 0 0 1 .156.486L12.04 4.56a.273.273 0 0 0 0 .252l.262 1.847a.282.282 0 0 1-.418.301l-1.652-.874a.33.33 0 0 0-.273 0l-1.652.874a.282.282 0 0 1-.418-.3L8.2 4.811a.272.272 0 0 0-.049-.252l-1.37-1.313a.282.282 0 0 1 .155-.476l1.858-.27a.262.262 0 0 0 .214-.155L9.843.662a.282.282 0 0 1 .505-.01" stroke="currentColor" stroke-linecap="round" stroke-linejoin="round"/>
</svg>
