<svg focusable="false" xmlns="http://www.w3.org/2000/svg" fill="none" role="img" aria-label="Icon" viewBox="0 0 14 14">
  <path d="M2.475 9.4.675 12c-.2.3-.2.7 0 1 .2.3.5.5.8.5h10.8c.6 0 1-.4 1-1 0-.2 0-.3-.1-.5l-1.8-2.6zm8.9 0v-.9m-4.9-5.1h-3c-.6 0-1 .4-1 1v5m9.015-6.955a1.165 1.165 0 0 0-1.101-.778h-.903a1.041 1.041 0 0 0-.223 2.059l1.375.3a1.167 1.167 0 0 1-.25 2.308h-.777c-.508 0-.94-.325-1.1-.778M10 1.667V.5m0 7V6.333" stroke="currentColor" stroke-linecap="round" stroke-linejoin="round"/>
</svg>
