<svg focusable="false" xmlns="http://www.w3.org/2000/svg" fill="none" role="img" aria-label="Icon" viewBox="0 0 14 14">
  <g stroke="currentColor" stroke-linecap="round" stroke-linejoin="round">
    <path d="M2.475 9.4.675 12c-.2.3-.2.7 0 1 .2.3.5.5.8.5h10.8c.6 0 1-.4 1-1 0-.2 0-.3-.1-.5l-1.8-2.6zm8.9 0V9M5.5 3.4H3.475c-.6 0-1 .4-1 1v5M13.42 6.156a.619.619 0 0 1-.203.81.55.55 0 0 1-.287.08H7.06a.55.55 0 0 1-.49-.3.62.62 0 0 1 0-.59L9.52.836a.54.54 0 0 1 1 0zM10 4.046v-1"/>
    <path d="M9.995 5.671a.125.125 0 1 1 0-.25m0 .25a.125.125 0 1 0 0-.25"/>
  </g>
</svg>
