<svg focusable="false" xmlns="http://www.w3.org/2000/svg" fill="none" role="img" aria-label="Icon" viewBox="0 0 14 14">
  <path d="m2.539 9.385-1.8 2.6c-.2.3-.2.7 0 1 .2.3.5.5.8.5h10.8c.6 0 1-.4 1-1 0-.2 0-.3-.1-.5l-1.8-2.6zm8.9 0v-.9m-6.4-5.1h-1.5c-.6 0-1 .4-1 1v5m4.788-5.436c-.35-.061-.35-.565 0-.626A3.176 3.176 0 0 0 9.886.873l.02-.097c.077-.347.57-.349.65-.003l.025.113a3.192 3.192 0 0 0 2.566 2.435c.352.062.352.568 0 .63a3.192 3.192 0 0 0-2.566 2.435l-.025.112c-.08.346-.573.344-.65-.003l-.02-.096a3.176 3.176 0 0 0-2.559-2.45" stroke="currentColor" stroke-linecap="round" stroke-linejoin="round"/>
</svg>
