<svg focusable="false" xmlns="http://www.w3.org/2000/svg" fill="none" role="img" aria-label="Icon" viewBox="0 0 14 14">
  <g stroke="currentColor" stroke-linecap="round" stroke-linejoin="round">
    <path d="m1.806 7.06 1 5.306c.199.551.548 1.134 2.117 1.134h4.154c1.57 0 1.938-.575 2.117-1.134l1-5.305M.883 7.06h12.234M5.983 9.287h2.034M2.804 2.674a2.1 2.1 0 0 1 .67-1.527A2.36 2.36 0 0 1 5.093.514h5.023c.597 0 1.08.483 1.08 1.08v0a1.08 1.08 0 0 1-1.08 1.08H5.513"/>
    <path d="M2.804 2.674a2.1 2.1 0 0 0 .67 1.528 2.36 2.36 0 0 0 1.619.632h5.023a1.08 1.08 0 0 0 1.08-1.08v0a1.08 1.08 0 0 0-1.08-1.08H5.504"/>
  </g>
</svg>
