<svg focusable="false" xmlns="http://www.w3.org/2000/svg" fill="none" role="img" aria-label="Icon" viewBox="0 0 14 14">
  <g stroke="currentColor" stroke-linecap="round" stroke-linejoin="round">
    <path d="M10.67 13.47a.5.5 0 0 1-.34 0A4.48 4.48 0 0 1 7.5 9.31V7.46A.47.47 0 0 1 8 7h5a.47.47 0 0 1 .46.46v1.85a4.48 4.48 0 0 1-2.79 4.16"/>
    <path d="M11.497 4.028a27.786 27.786 0 0 0-.078-2.522A1.048 1.048 0 0 0 10 .568c-2.15.619-6.63 2.167-8.51 4.823-2 2.817-.47 6.043.27 7.301a1.42 1.42 0 0 0 1 .66c.623.107 1.645.22 2.761.09"/>
    <path d="M2.23 13.182a52.182 52.182 0 0 1 2.81-4.558"/>
  </g>
</svg>
