<svg focusable="false" xmlns="http://www.w3.org/2000/svg" fill="none" role="img" aria-label="Icon" viewBox="0 0 14 14">
  <path d="M3.945 6.441v1.715M.856 12.865h12.008M.856 10.292h12.008m.477-8.649c-.397-.633-1.135-.362-1.768.035-.397-.633-.943-1.198-1.576-.8m-.953 2.776c.428 0 .857.429.857.429s.43-.43.858-.43m.889 2.083c.41.125.695.66.695.66s.536-.285.946-.16M5.781 2.46a2.08 2.08 0 1 0-3.848 1.288 1.426 1.426 0 0 0 .696 2.671h2.116A2.115 2.115 0 0 0 5.78 2.46" stroke="currentColor" stroke-linecap="round" stroke-linejoin="round"/>
</svg>
