<svg focusable="false" xmlns="http://www.w3.org/2000/svg" fill="none" role="img" aria-label="Icon" viewBox="0 0 14 14">
  <g stroke="currentColor" stroke-linecap="round" stroke-linejoin="round">
    <path d="M9.692 9.256a.25.25 0 0 1 0-.5m0 .5a.25.25 0 0 0 0-.5"/>
    <path d="M12.866 9.433c0 1.895-2.112 3.43-4.717 3.43-1.936 0-3.599-.847-4.326-2.06-.679.97-1.967 1.632-2.965 1.632V6.431c.998 0 2.286.663 2.965 1.632.727-1.213 2.39-2.06 4.326-2.06 2.605 0 4.717 1.535 4.717 3.43M.875 3.019A2.188 2.188 0 0 0 2.625.875 2.188 2.188 0 1 0 7 .875a2.187 2.187 0 1 0 4.375 0c0 1.058.751 1.941 1.75 2.144"/>
  </g>
</svg>
