<svg focusable="false" xmlns="http://www.w3.org/2000/svg" fill="none" role="img" aria-label="Icon" viewBox="0 0 14 14">
  <path d="M3.574 1.767a1.317 1.317 0 0 1-1.287 1.326A1.346 1.346 0 0 1 .99 1.767 1.326 1.326 0 0 1 2.287.5a1.316 1.316 0 0 1 1.287 1.267M1.129 5.449c0-.762.485-.643 1.158-.643.673 0 1.148-.119 1.148.643v7.424c0 .772-.485.614-1.148.614-.663 0-1.158.158-1.158-.614zm4.306.001c0-.426.158-.585.405-.634.248-.05 1.1 0 1.396 0 .297 0 .416.485.406.85a2.484 2.484 0 0 1 2.217-.989 2.97 2.97 0 0 1 3.148 3.098v5.068c0 .772-.475.614-1.149.614-.673 0-1.148.158-1.148-.614v-3.96A1.425 1.425 0 0 0 9.206 7.34 1.435 1.435 0 0 0 7.74 8.914v3.959c0 .772-.485.614-1.158.614-.673 0-1.148.158-1.148-.614z" stroke="currentColor" stroke-linecap="round" stroke-linejoin="round"/>
</svg>
