<svg focusable="false" xmlns="http://www.w3.org/2000/svg" fill="none" role="img" aria-label="Icon" viewBox="0 0 14 14">
  <g stroke="currentColor" stroke-linecap="round" stroke-linejoin="round">
    <path d="M1.563 6.043c0 3.64 3.614 6.405 4.95 7.303.297.2.677.2.975 0 1.335-.898 4.95-3.664 4.95-7.303C12.438 2.982 10.003.5 7 .5 3.997.5 1.563 2.982 1.563 6.043"/>
    <path d="M8.5 4.5H9c.545 0 1 .455 1 1v2c0 .545-.455 1-1 1H5c-.545 0-1-.455-1-1v-2c0-.545.455-1 1-1h.5l.5-1h2z"/>
    <path d="M7 6.75a.5.5 0 1 0 0-1 .5.5 0 0 0 0 1"/>
  </g>
</svg>
