<svg focusable="false" xmlns="http://www.w3.org/2000/svg" fill="none" role="img" aria-label="Icon" viewBox="0 0 14 14">
  <g stroke="currentColor" stroke-linecap="round" stroke-linejoin="round">
    <path d="M1.563 6.043c0 3.64 3.614 6.405 4.95 7.303.297.2.677.2.975 0 1.335-.898 4.95-3.664 4.95-7.303C12.438 2.982 10.003.5 7 .5 3.997.5 1.563 2.982 1.563 6.043"/>
    <path d="m3.216 5.692.71-.365a.257.257 0 0 1 .35.085l.67.764 2.77-1.939a1.882 1.882 0 0 1 2.801.547.515.515 0 0 1-.242.686l-1.677.775-.186.088-.38 2.07a.272.272 0 0 1-.152.214l-1.021.558a.28.28 0 0 1-.406-.26l.25-1.67-.122.057-1.815.903a.506.506 0 0 1-.68-.212l-.981-1.971a.257.257 0 0 1 .111-.33"/>
  </g>
</svg>
