<svg focusable="false" xmlns="http://www.w3.org/2000/svg" fill="none" role="img" aria-label="Icon" viewBox="0 0 14 14">
  <g stroke="currentColor" stroke-linecap="round" stroke-linejoin="round">
    <path d="m.503.502 12.995 12.996M7.45 7.45a2 2 0 1 0-2.4-2.4"/>
    <path d="M2.678 2.678A5.394 5.394 0 0 1 7 .5c3.003 0 5.438 2.482 5.438 5.543 0 1.752-.839 3.302-1.857 4.538M1.776 4.5a5.646 5.646 0 0 0-.214 1.543c0 3.64 3.615 6.405 4.95 7.303.298.2.678.2.976 0a15.889 15.889 0 0 0 1.758-1.376"/>
  </g>
</svg>
