<svg focusable="false" xmlns="http://www.w3.org/2000/svg" fill="none" role="img" aria-label="Icon" viewBox="0 0 14 14">
  <g stroke="currentColor" stroke-linecap="round" stroke-linejoin="round">
    <path d="M1.563 6.043c0 3.64 3.614 6.405 4.95 7.303.297.2.677.2.975 0 1.335-.898 4.95-3.664 4.95-7.303C12.438 2.982 10.003.5 7 .5 3.997.5 1.563 2.982 1.563 6.043M7 4V3m0 5.5v1"/>
    <path d="M8.436 4.75A1.124 1.124 0 0 0 7.375 4h-.87a1.004 1.004 0 0 0-.215 1.985l1.325.29a1.125 1.125 0 0 1-.24 2.225h-.75c-.49 0-.907-.313-1.061-.75"/>
  </g>
</svg>
