<svg focusable="false" xmlns="http://www.w3.org/2000/svg" fill="none" role="img" aria-label="Icon" viewBox="0 0 14 14">
  <g stroke="currentColor">
    <path d="M13.326 8.5a6.5 6.5 0 1 1-.558-4.5" stroke-linecap="round"/>
    <path d="M13.5 2v2.5H11" stroke-linecap="round" stroke-linejoin="round"/>
    <path d="M4.75 9.25v-2a.5.5 0 0 1 .5-.5h3.5a.5.5 0 0 1 .5.5v2a.5.5 0 0 1-.5.5h-3.5a.5.5 0 0 1-.5-.5Z" stroke-linejoin="round"/>
    <path d="M5.5 6.75v-1A1.5 1.5 0 0 1 7 4.25v0a1.5 1.5 0 0 1 1.5 1.5v1" stroke-linecap="round" stroke-linejoin="round"/>
  </g>
</svg>
