<svg focusable="false" xmlns="http://www.w3.org/2000/svg" fill="none" role="img" aria-label="Icon" viewBox="0 0 14 14">
  <g stroke="currentColor" stroke-linecap="round" stroke-linejoin="round">
    <path d="M5.75 11.173H4.12l-3.557.89.889-2.669V1.39a.89.89 0 0 1 .89-.89h8.894a.89.89 0 0 1 .889.89v3.86m-8.004-.748h5.337M4.121 7.17h2.473m2.085 2.901h4.285c.257 0 .429.172.429.429v2.571c0 .258-.172.429-.429.429H8.68c-.258 0-.429-.171-.429-.429V10.5c0-.257.171-.429.429-.429"/>
    <path d="M9.107 10.071v-.857A1.72 1.72 0 0 1 10.822 7.5a1.72 1.72 0 0 1 1.714 1.714v.857"/>
  </g>
</svg>
