<svg focusable="false" xmlns="http://www.w3.org/2000/svg" fill="none" role="img" aria-label="Icon" viewBox="0 0 14 14">
  <g stroke="currentColor" stroke-linecap="round" stroke-linejoin="round">
    <path d="M9.956 5.261a1.886 1.886 0 1 0 0-3.772 1.886 1.886 0 0 0 0 3.772"/>
    <path d="m11.68 11.36-.43 2.14H8.663l-.431-2.14H6.843a.442.442 0 0 1-.428-.413.298.298 0 0 1 .007-.09c.485-2.277.626-5.596 3.534-5.596s3.05 3.319 3.535 5.596a.3.3 0 0 1 .007.09.442.442 0 0 1-.429.412zM4.609 8.042h-2.81a1.3 1.3 0 0 1-.527-2.487L4.36 4.183l1.874.742M4.36 4.183v-1.11A1.287 1.287 0 1 0 3.4.929"/>
  </g>
</svg>
