<svg focusable="false" xmlns="http://www.w3.org/2000/svg" fill="none" role="img" aria-label="Icon" viewBox="0 0 14 14">
  <g stroke="currentColor" stroke-linecap="round" stroke-linejoin="round">
    <path d="m2.796 13.5-.7-.933a4 4 0 0 1-.8-2.4V3.75c0-.69.56-1.25 1.25-1.25v0c.69 0 1.25.56 1.25 1.25V6.5c1.491-.67 1.86-.736 3.5-.5V1.75c0-.69.56-1.25 1.25-1.25v0c.69 0 1.25.56 1.25 1.25v7.237"/>
    <path d="M9.3 13.5c.808-.539 1.566-1.592 2.14-2.395l1.334-1.869a1.236 1.236 0 0 0-1.97-1.49L9.8 9c-.5 0-1.7.2-2.5 1"/>
  </g>
</svg>
