<svg focusable="false" xmlns="http://www.w3.org/2000/svg" fill="none" role="img" aria-label="Icon" viewBox="0 0 14 14">
  <path d="M10.336 13.229h1.584l.531-9.009m-7.427 0h8.437m-4 0V1.745L11.83.771M7.884 11.128c.138 0 .27-.06.368-.164a.584.584 0 0 0 .152-.397c0-.52-.192-1.02-.533-1.388a1.756 1.756 0 0 0-1.287-.575H3.463c-.483 0-.946.207-1.287.575a2.043 2.043 0 0 0-.533 1.388c0 .149.055.291.152.397.098.105.23.164.368.164m-1.623 0h8.967m-1.363 0c.069 0 .135.031.184.088a.325.325 0 0 1 .076.212c0 .477-.164.935-.457 1.273-.293.338-.69.528-1.103.528H3.203c-.414 0-.81-.19-1.103-.528a1.951 1.951 0 0 1-.457-1.273c0-.08.027-.156.076-.212a.244.244 0 0 1 .184-.088M6.03 4.22l.14 2.392" stroke="currentColor" stroke-linecap="round" stroke-linejoin="round"/>
</svg>
