<svg focusable="false" xmlns="http://www.w3.org/2000/svg" fill="none" role="img" aria-label="Icon" viewBox="0 0 14 14">
  <g stroke="currentColor" stroke-linecap="round" stroke-linejoin="round">
    <path d="M7 .719v5.517M4.538 8.219s.719-.231 1.23-.632C6.299 7.173 7 6.236 7 6.236s.702.937 1.231 1.351c.513.4 1.231.632 1.231.632"/>
    <path d="M4.801 4.163h-.618a3 3 0 0 0-2.406 1.209l-.558.75a3 3 0 0 0-.594 1.791v2.234a2.645 2.645 0 0 0 2.645 2.645v0a2.645 2.645 0 0 0 2.646-2.645v-.043m3.283-5.941h.618a3 3 0 0 1 2.406 1.209l.558.75a3 3 0 0 1 .594 1.791v2.234a2.645 2.645 0 0 1-2.645 2.645v0a2.645 2.645 0 0 1-2.646-2.645v-.043"/>
  </g>
</svg>
