<svg focusable="false" xmlns="http://www.w3.org/2000/svg" fill="none" role="img" aria-label="Icon" viewBox="0 0 14 14">
  <path d="M2 3.5a1.5 1.5 0 1 0 0-3 1.5 1.5 0 0 0 0 3m5 0a1.5 1.5 0 1 0 0-3 1.5 1.5 0 0 0 0 3m5 0a1.5 1.5 0 1 0 0-3 1.5 1.5 0 0 0 0 3m-10 5a1.5 1.5 0 1 0 0-3 1.5 1.5 0 0 0 0 3m5 0a1.5 1.5 0 1 0 0-3 1.5 1.5 0 0 0 0 3m5 0a1.5 1.5 0 1 0 0-3 1.5 1.5 0 0 0 0 3m-10 5a1.5 1.5 0 1 0 0-3 1.5 1.5 0 0 0 0 3m5 0a1.5 1.5 0 1 0 0-3 1.5 1.5 0 0 0 0 3m5 0a1.5 1.5 0 1 0 0-3 1.5 1.5 0 0 0 0 3M3.06 3.06l2.88 2.88m-2.88 5 2.88-2.88m2.12-2.12 2.88-2.88" stroke="currentColor" stroke-linecap="round" stroke-linejoin="round"/>
</svg>
