<svg focusable="false" xmlns="http://www.w3.org/2000/svg" fill="none" role="img" aria-label="Icon" viewBox="0 0 14 14">
  <g stroke="currentColor" stroke-linecap="round" stroke-linejoin="round">
    <path d="M1.563 6.043c0 3.64 3.614 6.405 4.95 7.303.297.2.677.2.975 0 1.335-.898 4.95-3.664 4.95-7.303C12.438 2.982 10.003.5 7 .5 3.997.5 1.563 2.982 1.563 6.043"/>
    <path d="M6.519 2.635a.568.568 0 0 1 .962 0l.934 1.478 1.217.149a.558.558 0 0 1 .36.919L8.979 6.345l.327 1.612a.563.563 0 0 1-.221.563.573.573 0 0 1-.607.034L7 7.746l-1.477.808a.573.573 0 0 1-.606-.034.563.563 0 0 1-.222-.563l.327-1.612-1.015-1.164a.558.558 0 0 1 .361-.92l1.217-.148z"/>
  </g>
</svg>
