<svg focusable="false" xmlns="http://www.w3.org/2000/svg" fill="none" role="img" aria-label="Icon" viewBox="0 0 14 14">
  <g stroke="currentColor" stroke-linecap="round" stroke-linejoin="round">
    <path d="M12.5 12.5a1 1 0 0 1-1 1h-9a1 1 0 0 1-1-1v-11a1 1 0 0 1 1-1h6l4 4z"/>
    <path d="M3.5 10.5V6.743c0-.134.109-.243.243-.243v0c.096 0 .182.056.221.143l.754 1.675A.31.31 0 0 0 5 8.5v0a.31.31 0 0 0 .282-.182l.754-1.675a.243.243 0 0 1 .221-.143v0c.134 0 .243.109.243.243V10.5m3-4v4m-1-1 1 1 1-1"/>
  </g>
</svg>
