<svg focusable="false" xmlns="http://www.w3.org/2000/svg" fill="none" role="img" aria-label="Icon" viewBox="0 0 14 14">
  <path d="M.5 12.542V8.736c0-.528.428-.957.957-.957h3.805c.529 0 .958.429.958.957v3.806a.957.957 0 0 1-.958.957H1.457a.957.957 0 0 1-.957-.957m7.54-6.584L13.5.5m-2.6 0h2.6v2.6M.5 5.178v-1.04M4.92.5H3.88m4.68 0H7.52m1.301 12.999h1.04m3.638-4.419v1.04m0-4.681v1.04M12.46 13.5a1.04 1.04 0 0 0 1.04-1.04M.5 1.54C.5.966.965.5 1.54.5" stroke="currentColor" stroke-linecap="round" stroke-linejoin="round"/>
</svg>
