<svg focusable="false" xmlns="http://www.w3.org/2000/svg" fill="none" role="img" aria-label="Icon" viewBox="0 0 14 14">
  <g stroke="currentColor" stroke-linecap="round" stroke-linejoin="round">
    <path d="M6.478 12.207a5.729 5.729 0 1 0 0-11.457 5.729 5.729 0 0 0 0 11.457m6.772 1.043-2.722-2.722"/>
    <path d="M5.666 3.26a.5.5 0 0 0-.5.5v1.406H3.76a.5.5 0 0 0-.5.5v1.625a.5.5 0 0 0 .5.5h1.406v1.406a.5.5 0 0 0 .5.5H7.29a.5.5 0 0 0 .5-.5V7.791h1.406a.5.5 0 0 0 .5-.5V5.666a.5.5 0 0 0-.5-.5H7.791V3.76a.5.5 0 0 0-.5-.5z"/>
  </g>
</svg>
