<svg focusable="false" xmlns="http://www.w3.org/2000/svg" fill="none" role="img" aria-label="Icon" viewBox="0 0 14 14">
  <g stroke="currentColor" stroke-linecap="round" stroke-linejoin="round">
    <path d="M12.5 12.5a1 1 0 0 1-1 1h-9a1 1 0 0 1-1-1v-11a1 1 0 0 1 1-1H9L12.5 4z"/>
    <path d="M6.303 4.771a.43.43 0 0 0-.43.43v1.208H4.666a.43.43 0 0 0-.43.429v1.395c0 .238.193.43.43.43h1.207V9.87c0 .238.193.43.43.43h1.395a.43.43 0 0 0 .43-.43V8.663h1.207a.43.43 0 0 0 .43-.43V6.838a.43.43 0 0 0-.43-.43H8.128V5.202a.43.43 0 0 0-.43-.43z"/>
  </g>
</svg>
