<svg focusable="false" xmlns="http://www.w3.org/2000/svg" fill="none" role="img" aria-label="Icon" viewBox="0 0 14 14">
  <g stroke="currentColor" stroke-linecap="round" stroke-linejoin="round">
    <path d="M.5 12.25V1.75a1 1 0 0 1 1-1h3.69a1 1 0 0 1 1 .76l.31 1.24h6a1 1 0 0 1 1 1v8.5a1 1 0 0 1-1 1h-11a1 1 0 0 1-1-1"/>
    <path d="M6.302 5.5a.43.43 0 0 0-.43.43v1.207H4.666a.43.43 0 0 0-.43.43v1.395c0 .237.193.43.43.43h1.208v1.207c0 .237.192.43.43.43h1.395a.43.43 0 0 0 .43-.43V9.39h1.207a.43.43 0 0 0 .43-.43V7.567a.43.43 0 0 0-.43-.429H8.127V5.93a.43.43 0 0 0-.43-.429z"/>
  </g>
</svg>
