<svg focusable="false" xmlns="http://www.w3.org/2000/svg" fill="none" role="img" aria-label="Icon" viewBox="0 0 14 14">
  <g stroke="currentColor" stroke-linejoin="round">
    <path d="M.648 6.282h1.895m4.555 0h1.7M2.543 8.616V5.318h4.554v3.298zm6.255 0V5.318h4.554v3.298zm-4.426 1.637c.284.291 1.238.866 2.782.83" stroke-linecap="round"/>
    <path d="M12.699 5.377v-4.8c-.997.567-2.745 1.562-3.658 2.089a6.397 6.397 0 0 0-2.368-.45 6.4 6.4 0 0 0-2.268.411C3.432 2.092 1.665 1.13.648.577v7.725c.25 2.88 2.864 5.121 6.025 5.121 3.025 0 5.529-2.105 5.96-4.807"/>
  </g>
</svg>
