<svg focusable="false" xmlns="http://www.w3.org/2000/svg" fill="none" role="img" aria-label="Icon" viewBox="0 0 14 14">
  <g stroke="currentColor" stroke-linecap="round" stroke-linejoin="round">
    <path d="M3.25 13.5a1.75 1.75 0 1 0 0-3.5 1.75 1.75 0 0 0 0 3.5m7.5 0a1.75 1.75 0 1 0 0-3.5 1.75 1.75 0 0 0 0 3.5"/>
    <path d="m12.5 12 .893-4.91a.5.5 0 0 0-.492-.59H1.099a.5.5 0 0 0-.492.59L1.5 12m3.5.5h4m3.5-8a2.45 2.45 0 0 0-2.28-2c-.256 0-.51.048-.75.14A2.65 2.65 0 0 0 7 .5a2.65 2.65 0 0 0-2.47 2.14 2.12 2.12 0 0 0-.75-.14 2.45 2.45 0 0 0-2.28 2"/>
  </g>
</svg>
