<svg focusable="false" xmlns="http://www.w3.org/2000/svg" fill="none" role="img" aria-label="Icon" viewBox="0 0 14 14">
  <g stroke="currentColor" stroke-linecap="round" stroke-linejoin="round">
    <path d="M6.143 12.696a2.762 2.762 0 0 1-3.464-.381l-.39-.381a.935.935 0 0 1 0-1.308L3.944 8.99a.926.926 0 0 1 1.3 0v0a.935.935 0 0 0 1.306 0l2.598-2.597a.918.918 0 0 0 0-1.308v0a.926.926 0 0 1 0-1.299l1.645-1.645a.935.935 0 0 1 1.307 0l.381.39a2.762 2.762 0 0 1 .381 3.463 25.057 25.057 0 0 1-6.718 6.702m.79-11.539L3.67 4.421a1 1 0 0 1-1.415 0l-1.44-1.44"/>
    <path d="M4.62 1.157h2.314v2.314"/>
  </g>
</svg>
