<svg focusable="false" xmlns="http://www.w3.org/2000/svg" fill="none" role="img" aria-label="Icon" viewBox="0 0 14 14">
  <path d="M12.478 7.722a1.331 1.331 0 0 0-1.257-.889h-1.032a1.19 1.19 0 0 0-.254 2.353l1.57.344a1.334 1.334 0 0 1-.284 2.637h-.889c-.58 0-1.074-.371-1.257-.89m1.701-4.444V5.5m0 8v-1.333M8.958 4.375v-2.89a.922.922 0 0 0-.922-.923H1.583a.922.922 0 0 0-.922.922v10.142c0 .51.412.922.922.922h5.375m-2.61-2.305h.922" stroke="currentColor" stroke-linecap="round" stroke-linejoin="round"/>
</svg>
