<svg focusable="false" xmlns="http://www.w3.org/2000/svg" fill="none" role="img" aria-label="Icon" viewBox="0 0 14 14">
  <path d="M4.1 1.211c.36.351.573.824.599 1.325L6.522.723a.668.668 0 0 1 .996 0l1.475 1.535c-.21.101-.402.236-.568.398a2.052 2.052 0 0 0 2.899 2.9c.162-.167.297-.36.399-.569l1.554 1.535a.668.668 0 0 1 0 .996l-1.813 1.784A2.043 2.043 0 1 1 9.3 11.464l-1.823 1.813a.668.668 0 0 1-.996 0l-1.475-1.534c.21-.102.402-.237.568-.4a2.057 2.057 0 1 0-3.317-2.33L.723 7.478a.668.668 0 0 1 0-.996l1.813-1.783A1.993 1.993 0 0 1 1.211 4.1a2.043 2.043 0 1 1 2.89-2.89" stroke="currentColor" stroke-linecap="round" stroke-linejoin="round"/>
</svg>
