<svg focusable="false" xmlns="http://www.w3.org/2000/svg" fill="none" role="img" aria-label="Icon" viewBox="0 0 14 14">
  <path d="M13.423 8.978a1.977 1.977 0 0 0-2.965-1.71V4.533a.988.988 0 0 0-.988-.989H6.733a1.976 1.976 0 1 0-3.419 0H1.566a.988.988 0 0 0-.989.989v2.035c.162-.04.328-.06.494-.06a1.976 1.976 0 0 1 0 3.953c-.166 0-.332-.02-.494-.06v2.036a.988.988 0 0 0 .989.988h2.529a2.046 2.046 0 0 1-.06-.494 1.976 1.976 0 1 1 3.953 0c0 .167-.02.333-.06.494H9.47a.988.988 0 0 0 .988-.988v-1.749a1.976 1.976 0 0 0 2.965-1.71" stroke="currentColor" stroke-linecap="round" stroke-linejoin="round"/>
</svg>
