<svg focusable="false" xmlns="http://www.w3.org/2000/svg" fill="none" role="img" aria-label="Icon" viewBox="0 0 14 14">
  <g stroke="currentColor" stroke-linecap="round" stroke-linejoin="round">
    <path d="M6.714 12.5H2.887a1 1 0 0 1-.948-1.316l.525-1.577 2.983 2.44a2 2 0 0 0 1.267.453m0 0h.572m0 0h3.827a1 1 0 0 0 .948-1.316l-.525-1.577-2.983 2.44a2 2 0 0 1-1.267.453"/>
    <path d="M7 1.5A6.5 6.5 0 0 0 .517 7.526c-.022.3.118.584.35.774l4.58 3.748a2 2 0 0 0 1.267.452h.572a2 2 0 0 0 1.267-.452l4.58-3.748a.923.923 0 0 0 .35-.774A6.5 6.5 0 0 0 7 1.5m3.217.85L8.5 7.5M3.783 2.35 5.5 7.5"/>
  </g>
</svg>
