<svg focusable="false" xmlns="http://www.w3.org/2000/svg" fill="none" role="img" aria-label="Icon" viewBox="0 0 14 14">
  <g stroke="currentColor" stroke-linecap="round" stroke-linejoin="round">
    <path d="M11.5 6.5h-9a1 1 0 0 0-1 1v5a1 1 0 0 0 1 1h9a1 1 0 0 0 1-1v-5a1 1 0 0 0-1-1"/>
    <path d="M7 11.75a1.75 1.75 0 1 0 0-3.5 1.75 1.75 0 0 0 0 3.5m-3.725-1.5a.25.25 0 1 1 0-.5m0 .5a.25.25 0 1 0 0-.5m7.45.5a.25.25 0 1 1 0-.5m0 .5a.25.25 0 1 0 0-.5M11 .5l-4 4-2-2-2 2"/>
    <path d="M8.5.5H11V3"/>
  </g>
</svg>
