<svg focusable="false" xmlns="http://www.w3.org/2000/svg" fill="none" role="img" aria-label="Icon" viewBox="0 0 14 14">
  <g stroke="currentColor" stroke-linecap="round" stroke-linejoin="round">
    <path d="M13 6.94a5.64 5.64 0 0 1-3.13 5L7 13.5 4.13 12A5.64 5.64 0 0 1 1 6.94V1.5a1 1 0 0 1 1-1h10a1 1 0 0 1 1 1z"/>
    <path d="M8.702 4.722a1.333 1.333 0 0 0-1.258-.889H6.412a1.19 1.19 0 0 0-.254 2.353l1.571.344a1.334 1.334 0 0 1-.285 2.637h-.888a1.334 1.334 0 0 1-1.258-.89M7 3.833V2.5m0 8V9.167"/>
  </g>
</svg>
