<svg focusable="false" xmlns="http://www.w3.org/2000/svg" fill="none" role="img" aria-label="Icon" viewBox="0 0 14 14">
  <g stroke="currentColor" stroke-linecap="round" stroke-linejoin="round">
    <path d="M13.5 6.557V10.5a.5.5 0 0 1-.5.5H1a.5.5 0 0 1-.5-.5V2.257a.5.5 0 0 1 .5-.5h1.496M6 11l-1 2.5M8 11l1 2.5m-5 0h6M9 .5V4"/>
    <path d="M6.23 4.17a4.23 4.23 0 0 1 .71-.57M4.5 2.4A6.4 6.4 0 0 1 6.53 1m5.24 3.17a4.23 4.23 0 0 0-.71-.57m2.44-1.2A6.4 6.4 0 0 0 11.47 1M9 6.75a.25.25 0 0 1 0-.5m0 .5a.25.25 0 0 0 0-.5"/>
  </g>
</svg>
