<svg focusable="false" xmlns="http://www.w3.org/2000/svg" fill="none" role="img" aria-label="Icon" viewBox="0 0 14 14">
  <g stroke="currentColor" stroke-linecap="round" stroke-linejoin="round">
    <path d="M.518 6.158c0-.567.433-1.026.967-1.026h6.77c.535 0 .968.46.968 1.026v4.1c0 .566-.433 1.025-.967 1.025h-6.77c-.535 0-.968-.459-.968-1.025zm4.352 5.125V13.5m-1.934 0h3.869"/>
    <path d="M2.371 2.352v-.926c0-.511.415-.926.926-.926h9.26c.51 0 .925.415.925.926v6.481a.926.926 0 0 1-.926.926h-.926"/>
  </g>
</svg>
