<svg focusable="false" xmlns="http://www.w3.org/2000/svg" fill="none" role="img" aria-label="Icon" viewBox="0 0 14 14">
  <g stroke="currentColor" stroke-linecap="round" stroke-linejoin="round">
    <path d="m13.296 7.78-.249-.173a3.033 3.033 0 0 0-3.952.424v0a2.275 2.275 0 0 1-1.665.726h-.18c-.501 0-.99-.146-1.41-.42l-.658-.43a2.573 2.573 0 0 1-.36-.285l-.463-.438a2.427 2.427 0 0 0-1.668-.665H2.25c-.65 0-1.176-.526-1.176-1.176v0c0-.65.527-1.176 1.176-1.176h8.782M3.188 9.938 5.14 7.874"/>
    <path d="M11.563 9.734 10.79 1.56a.858.858 0 0 0-.854-.777h-.924m3.832 4.12-.125-1.472M.625 11.487a1.763 1.763 0 1 0 3.526 0 1.763 1.763 0 1 0-3.526 0"/>
    <path d="M9.757 11.487a1.763 1.763 0 1 0 3.526 0 1.763 1.763 0 1 0-3.526 0m-4.976-7.32L5.5 5.74a1 1 0 0 0 .91.584h1.216a1 1 0 0 0 1-1V4.167"/>
  </g>
</svg>
