<svg focusable="false" xmlns="http://www.w3.org/2000/svg" fill="none" role="img" aria-label="Icon" viewBox="0 0 14 14">
  <g stroke="currentColor" stroke-linecap="round" stroke-linejoin="round">
    <path d="M10.499 13.5a1.501 1.501 0 1 1 0-3.002 1.501 1.501 0 0 1 0 3.002m-7 0a1.501 1.501 0 1 1 0-3.002 1.501 1.501 0 0 1 0 3.002"/>
    <path d="M2 12H.5v-2a2 2 0 0 1 2-2h2a2 2 0 0 1 2 2v.5A1.5 1.5 0 0 0 8 12h1-4m7 0h.5c.552 0 1.012-.452.908-.994C13.077 9.278 11.866 8 10 8h-.5"/>
    <path d="M8 3.5h1.5v7.379"/>
    <path d="M11.5 4.5h-1a1 1 0 0 0 0 2h1zM1.5 6h4"/>
  </g>
</svg>
