<svg focusable="false" xmlns="http://www.w3.org/2000/svg" fill="none" role="img" aria-label="Icon" viewBox="0 0 14 14">
  <g stroke="currentColor" stroke-linecap="round" stroke-linejoin="round">
    <path d="M7.27 8.657h-.001s-1.307 0-1.307 1.307v2.164s0 1.307 1.307 1.307h.001s1.307 0 1.307-1.307V9.964s0-1.307-1.307-1.307m-1.31 3.427h-.99a.858.858 0 0 1-.847-.725L3.21 5.484a1.99 1.99 0 0 1 1.967-2.296v0"/>
    <path d="M8.574 12.084h.994a.858.858 0 0 0 .848-.725l.914-5.875a1.99 1.99 0 0 0-1.967-2.296v0M2.73.934h1.821l.973 1.254"/>
    <path d="M5.172 3.344a2.097 2.097 0 1 0 4.194 0 2.097 2.097 0 0 0-4.194 0"/>
    <path d="M11.809.934H9.988l-.973 1.254"/>
  </g>
</svg>
