<svg focusable="false" xmlns="http://www.w3.org/2000/svg" fill="none" role="img" aria-label="Icon" viewBox="0 0 14 14">
  <path d="m5.922 5.366 2.287-.831.832-2.287a.5.5 0 0 1 .94 0l.83 2.287 2.288.831a.5.5 0 0 1 0 .94l-2.287.832-.832 2.287a.5.5 0 0 1-.94 0l-.83-2.287-2.287-.832a.5.5 0 0 1 0-.94M.901 9.693l1.69-.615.615-1.69a.5.5 0 0 1 .94 0l.614 1.69 1.69.615a.5.5 0 0 1 0 .94l-1.69.614-.614 1.69a.5.5 0 0 1-.94 0l-.615-1.69-1.69-.614a.5.5 0 0 1 0-.94m0-7.183 1.062-.386.386-1.061a.5.5 0 0 1 .94 0l.385 1.061 1.062.386a.5.5 0 0 1 0 .94l-1.062.386-.386 1.061a.5.5 0 0 1-.94 0l-.385-1.061L.9 3.45a.5.5 0 0 1 0-.94" stroke="currentColor" stroke-linecap="round" stroke-linejoin="round"/>
</svg>
