<svg focusable="false" xmlns="http://www.w3.org/2000/svg" fill="none" role="img" aria-label="Icon" viewBox="0 0 14 14">
  <g stroke="currentColor" stroke-linecap="round" stroke-linejoin="round">
    <path d="M11.48.5h-9a.5.5 0 0 0-.5.5v6a.5.5 0 0 0 .5.5h9a.5.5 0 0 0 .5-.5V1a.5.5 0 0 0-.5-.5M3.98 10v3.5m6-3.5v3.5M.51 12h.32A5.89 5.89 0 0 0 4 11.14a5.07 5.07 0 0 0 2.83.86A5 5 0 0 0 10 10.91 4.94 4.94 0 0 0 12.83 12c.22-.002.441-.018.66-.05M3.48 10h1m5 0h1"/>
    <path d="M4.73 3.25a.5.5 0 1 0 0-1 .5.5 0 0 0 0 1M3.15 7.5l5.06-4.34a1 1 0 0 1 .735-.237c.264.022.534.125.726.292l2.288 1.864"/>
  </g>
</svg>
