<svg focusable="false" xmlns="http://www.w3.org/2000/svg" fill="none" role="img" aria-label="Icon" viewBox="0 0 14 14">
  <path d="M5 .5H1a.5.5 0 0 0-.5.5v5a.5.5 0 0 0 .5.5h4a.5.5 0 0 0 .5-.5V1A.5.5 0 0 0 5 .5m8 0H9a.5.5 0 0 0-.5.5v5a.5.5 0 0 0 .5.5h4a.5.5 0 0 0 .5-.5V1a.5.5 0 0 0-.5-.5M4 10v3.5m6-3.5v3.5M.5 12h.34A6.29 6.29 0 0 0 4 11.14a5.12 5.12 0 0 0 6-.23A5.48 5.48 0 0 0 12.84 12c.22.015.44.015.66 0m-10-2h1m5 0h1" stroke="currentColor" stroke-linecap="round" stroke-linejoin="round"/>
</svg>
