<svg focusable="false" xmlns="http://www.w3.org/2000/svg" fill="none" role="img" aria-label="Icon" viewBox="0 0 14 14">
  <g stroke="currentColor" stroke-linecap="round" stroke-linejoin="round">
    <path d="M5.992 8.625h2.016m-4.41 1.344c-.32.603-.729 1.186-1.241 1.442-1.393 0-1.833-.841-1.856-2.322-.02-1.253.513-4.27 1.18-6.004a.793.793 0 0 1 .751-.496h1.782l.929.464h3.714l.929-.464h1.737c.357 0 .685.203.812.537.66 1.74 1.184 4.72 1.164 5.963-.023 1.48-.583 2.322-1.976 2.322-.5-.251-.868-.815-1.154-1.404"/>
    <path d="M4.679 2.826v2.009c0 .555.415 1.004.928 1.004h2.786c.513 0 .929-.45.929-1.004V2.826M3.286 9.089a1.393 1.393 0 1 0 2.786 0 1.393 1.393 0 1 0-2.786 0m4.643 0a1.393 1.393 0 1 0 2.786 0 1.393 1.393 0 1 0-2.786 0"/>
  </g>
</svg>
