<svg focusable="false" xmlns="http://www.w3.org/2000/svg" fill="none" role="img" aria-label="Icon" viewBox="0 0 14 14">
  <g stroke="currentColor" stroke-linecap="round" stroke-linejoin="round">
    <path d="M2.23 3.131c.892-.18 2.886-.381 4.77-.381 1.884 0 3.878.201 4.77.381.22.044.403.188.5.39.761 1.584 1.252 4.809 1.23 6.193-.024 1.48-1.04 2.33-2.322 2.32-1.599-.01-2.059-2.323-2.399-3.107H5.221c-.34.784-.8 3.097-2.4 3.108-1.281.008-2.297-.841-2.32-2.321C.479 8.33.969 5.104 1.73 3.52a.707.707 0 0 1 .499-.39"/>
    <path d="m2.553 12.035.53-4.17c.177-.93 1.102-1.61 2.186-1.61h3.462c1.084 0 2.009.68 2.187 1.61l.529 4.17m-1.365-9.133L8.99 6.254M3.92 2.902l1.09 3.352"/>
  </g>
</svg>
