<svg focusable="false" xmlns="http://www.w3.org/2000/svg" fill="none" role="img" aria-label="Icon" viewBox="0 0 14 14">
  <path d="M5.604 9.125a.459.459 0 0 1-.595-.52l1.048-2.976-.211.062L2.685 6.72a.83.83 0 0 1-1.054-.508L.515 2.778a.421.421 0 0 1 .26-.509l1.24-.421a.422.422 0 0 1 .546.223l.905 1.4L8.425.994a3.087 3.087 0 0 1 4.413 1.562.844.844 0 0 1-.558 1.053L9.044 4.65l-.322.099-.297.788m1.825 7.879a3.25 3.25 0 1 1 0-6.5 3.25 3.25 0 0 1 0 6.5m2.3-.95-4.6-4.6" stroke="currentColor" stroke-linecap="round" stroke-linejoin="round"/>
</svg>
