<svg focusable="false" xmlns="http://www.w3.org/2000/svg" fill="none" role="img" aria-label="Icon" viewBox="0 0 14 14">
  <path d="m.5.5 13 13m-3.927-1.921a1.286 1.286 0 1 1-2.573 0v-.43a.858.858 0 0 0-.858-.857H4.427a.858.858 0 0 0-.858.858v.428a1.286 1.286 0 1 1-2.573 0v-7.29l1.205.964a3.43 3.43 0 0 0 2.143.752m1.798 0H7L8.241 3.52c.29-.58.885-.948 1.534-.948h.656v2.144l2.573.858v.858c0 .947-.768 1.715-1.716 1.715H9.573v1.305" stroke="currentColor" stroke-linecap="round" stroke-linejoin="round"/>
</svg>
