<svg focusable="false" xmlns="http://www.w3.org/2000/svg" fill="none" role="img" aria-label="Icon" viewBox="0 0 14 14">
  <g stroke="currentColor" stroke-linecap="round" stroke-linejoin="round">
    <path d="M8.547.5s.627 3.763 1.344 4.48c.896.896 3.137.896 3.137 3.137 0 1.344-1.674 2.24-3.018 2.24M5.453.5s-.627 3.763-1.344 4.48c-.896.896-3.136.896-3.136 3.137 0 1.344 1.673 2.24 3.017 2.24"/>
    <path d="M10.275 8.67c-1.469-.555-1.534.49-1.828.947-.21.327-.764.574-1.414.55-.65.024-1.203-.223-1.413-.55-.294-.457-.36-1.502-1.829-.947M9.2 13.5c-.893-.41-.917-1.142-.917-1.142m1.738-.644s.459.57 1.054.844m-6.209.894c.893-.41.918-1.143.918-1.143m-1.738-.644s-.459.571-1.054.845"/>
  </g>
</svg>
