<svg focusable="false" xmlns="http://www.w3.org/2000/svg" fill="none" role="img" aria-label="Icon" viewBox="0 0 14 14">
  <g stroke="currentColor" stroke-linecap="round" stroke-linejoin="round">
    <path d="M4 3.5v-3m3 3v-3m3 3v-3M12.5 2h-11a1 1 0 0 0-1 1v9.5a1 1 0 0 0 1 1h11a1 1 0 0 0 1-1V3a1 1 0 0 0-1-1"/>
    <path d="M3.804 6.031c-.23 1.264-.988 4.163-.517 4.48.682.458 3.016-3.704 3.446-3.618.431.086-.344 3.015 0 3.618.345.603 2.307-2.757 2.886-2.757.517 0 .087 2.283 1.12 2.757"/>
  </g>
</svg>
