<svg focusable="false" xmlns="http://www.w3.org/2000/svg" fill="none" role="img" aria-label="Icon" viewBox="0 0 14 14">
  <path d="M4.137.5v5.058M2.452 1.764h.421c.698 0 1.264-.566 1.264-1.264v0m1.686 5.058H2.452M8.51 8.311c.174.491.643.843 1.193.843h.843c.698 0 1.264-.566 1.264-1.264v-.211c0-.698-.566-1.265-1.264-1.265h-.421.316a1.16 1.16 0 1 0 0-2.318h-.632a1.16 1.16 0 0 0-1.116.843m-2.87 8.551H2.451v-.718c0-.502.298-.957.758-1.158l1.876-.82a1.232 1.232 0 0 0-.493-2.36h-.876c-.55 0-1.02.351-1.193.842" stroke="currentColor" stroke-linecap="round" stroke-linejoin="round"/>
</svg>
