<svg focusable="false" xmlns="http://www.w3.org/2000/svg" fill="none" role="img" aria-label="Icon" viewBox="0 0 14 14">
  <g stroke="currentColor" stroke-linecap="round" stroke-linejoin="round">
    <path d="m3.612 13.5-.734-4.557a2.573 2.573 0 0 1 1.93-2.909l3.237-.788V2.002c0-.754.611-1.366 1.366-1.366v0c.754 0 1.365.612 1.365 1.366V7.97l.395.139a2 2 0 0 1 1.245 2.49L11.5 13.5"/>
    <path d="M10.79 7.968H7.847a1.12 1.12 0 0 0-1.12 1.12v0c0 .62.501 1.121 1.12 1.121H9.63c-.968-.01-2.902.397-2.902 2.113"/>
  </g>
</svg>
