<svg focusable="false" xmlns="http://www.w3.org/2000/svg" fill="none" role="img" aria-label="Icon" viewBox="0 0 14 14">
  <path d="M5.148 2.572a1.715 1.715 0 1 0 3.43 0 1.715 1.715 0 1 0-3.43 0m-2.61 4.11 1.002-.875a4 4 0 0 1 2.63-.987h1.66a4 4 0 0 1 2.63.987l1.002.875a.888.888 0 0 1-1.14 1.361l-.992-.797v1.846l.79.67c.784.662.922 1.817.317 2.646l-.46.632a.996.996 0 0 1-1.623-1.155l.458-.657-.954-1.016H6.142l-.954 1.016.458.657a.996.996 0 0 1-1.622 1.155l-.461-.632a1.957 1.957 0 0 1 .316-2.647l.79-.67V7.247l-.992.797a.888.888 0 0 1-1.14-1.361M4.695 8.04h4.633M4.586 9.16l1.492 1.125m3.336-1.129L7.97 10.328" stroke="currentColor" stroke-linecap="round" stroke-linejoin="round"/>
</svg>
