<svg focusable="false" xmlns="http://www.w3.org/2000/svg" fill="none" role="img" aria-label="Icon" viewBox="0 0 14 14">
  <g stroke="currentColor" stroke-linecap="round" stroke-linejoin="round">
    <path d="M10.137 11.867a1.345 1.345 0 1 0 2.69 0 1.345 1.345 0 1 0-2.69 0M8.345 9.626v2.69a.896.896 0 0 1-.897.896H6.104a.896.896 0 0 1-.897-.897v-.896a.896.896 0 0 0-.896-.897M2.966 2.455a1.793 1.793 0 1 0 3.586 0 1.793 1.793 0 1 0-3.586 0"/>
    <path d="M3.491 3.723 1.174 8.28v4.93"/>
    <path d="M6.552 7.385H5.207c-1.434 0-2.24-1.345-2.24-2.24v-.39"/>
  </g>
</svg>
