<svg focusable="false" xmlns="http://www.w3.org/2000/svg" fill="none" role="img" aria-label="Icon" viewBox="0 0 14 14">
  <path d="M.777 6.331a.946.946 0 0 0 0 1.338l1.349 1.349v1.909c0 .522.423.946.946.946H4.98l1.35 1.35c.37.37.968.37 1.338 0l1.35-1.35h1.907a.946.946 0 0 0 .946-.946V9.02l1.35-1.351a.946.946 0 0 0 0-1.338l-1.35-1.35V3.07a.946.946 0 0 0-.946-.945H9.018L7.668.777a.946.946 0 0 0-1.337 0L4.982 2.126h-1.91a.946.946 0 0 0-.946.946v1.91z" stroke="currentColor" stroke-linecap="round" stroke-linejoin="round"/>
</svg>
