<svg focusable="false" xmlns="http://www.w3.org/2000/svg" fill="none" role="img" aria-label="Icon" viewBox="0 0 14 14">
  <g stroke="currentColor" stroke-linecap="round" stroke-linejoin="round">
    <path d="M4.03 4.5a2 2 0 1 0 0-4 2 2 0 0 0 0 4"/>
    <path d="M5.716 10.525 5.344 13.5H2.727l-.5-4H.529V8a3.5 3.5 0 0 1 6.942-.634M7.295 9.97c0-.487.395-.882.882-.882h4.412c.487 0 .882.395.882.883v2.647a.882.882 0 0 1-.882.882H8.177a.882.882 0 0 1-.882-.882zm1.881-.882v-.65a1 1 0 0 1 1-1h.412a1 1 0 0 1 1 1v.65"/>
  </g>
</svg>
