<svg focusable="false" xmlns="http://www.w3.org/2000/svg" fill="none" role="img" aria-label="Icon" viewBox="0 0 14 14">
  <path d="M8.461 4.75V1.594c0-.56-.454-1.015-1.015-1.015h-4.79c-.562 0-1.016.454-1.016 1.015v11.827m-1.121 0h4.968M1.64 3.187H4.1M1.64 5.75h3.847m4.993 4.282a1.75 1.75 0 1 0 0-3.5 1.75 1.75 0 0 0 0 3.5M7.479 13.42c.005-.51.139-1.013.39-1.458a3.03 3.03 0 0 1 2.611-1.538 3.03 3.03 0 0 1 2.612 1.538c.25.445.385.947.39 1.459" stroke="currentColor" stroke-linecap="round" stroke-linejoin="round"/>
</svg>
