<svg focusable="false" xmlns="http://www.w3.org/2000/svg" fill="none" role="img" aria-label="Icon" viewBox="0 0 14 14">
  <g stroke="currentColor" stroke-linecap="round" stroke-linejoin="round">
    <path d="M8.956 13.309a3.8 3.8 0 0 0 1.31-.696 3.8 3.8 0 0 0 1.158-1.61 1.27 1.27 0 0 0-1.31-1.712 1.27 1.27 0 0 0 .516-.253c.544-.443.586-1.452.143-1.996a3.806 3.806 0 0 0-3.17-1.399l1.32-3.026A1.415 1.415 0 0 0 8.172.745v0a1.347 1.347 0 0 0-1.648.479c-.991 1.482-2.814 4.487-2.927 6.7-.157 3.05 0 5.385 0 5.385"/>
    <path d="M7.16 8.64a1.27 1.27 0 1 0 1.992 1.435 1.27 1.27 0 0 1 .904-.79 1.27 1.27 0 0 1-1.108-.463 1.27 1.27 0 0 0-1.787-.182" clip-rule="evenodd"/>
    <path d="M7.612 5.646c-.256.03-.864.143-1.25.353m-2.822 3c-.895-2.001-.855-5.288-.76-6.99A1.347 1.347 0 0 1 3.955.76a1.415 1.415 0 0 1 1.6 1.228v.798"/>
  </g>
</svg>
