<svg focusable="false" xmlns="http://www.w3.org/2000/svg" fill="none" role="img" aria-label="Icon" viewBox="0 0 14 14">
  <g stroke="currentColor" stroke-linecap="round" stroke-linejoin="round">
    <path d="M12.605 13.5v-2.68a2.573 2.573 0 0 0-2.573-2.572H7.934V4.19c0-.645-.523-1.168-1.168-1.168v0c-.645 0-1.168.523-1.168 1.168v5.32l-.316.06a1.715 1.715 0 0 0-1.095 2.657l.114.167.761 1.107"/>
    <path d="M3.367 5.177a3.511 3.511 0 1 1 6.84 0M1.395 2.606A3.995 3.995 0 0 1 2.453.63m9.728 1.976A3.995 3.995 0 0 0 11.124.63"/>
  </g>
</svg>
