<svg focusable="false" xmlns="http://www.w3.org/2000/svg" fill="none" role="img" aria-label="Icon" viewBox="0 0 14 14">
  <path d="m10.852 12.095.103.307a1.306 1.306 0 0 0 2.537-.557l-.202-1.817a2.4 2.4 0 0 0-2.386-2.136H7.991c-1.223 0-2.25.92-2.386 2.136l-.202 1.816a1.306 1.306 0 0 0 2.538.558l.102-.307c.12-.359.455-.6.833-.6h1.143c.378 0 .714.241.833.6M5.094 5.298a2.297 2.297 0 1 0 0-4.593 2.297 2.297 0 0 0 0 4.593m-2.757 7.461H.5V11.38a4.134 4.134 0 0 1 4.594-4.11" stroke="currentColor" stroke-linecap="round" stroke-linejoin="round"/>
</svg>
