<svg focusable="false" xmlns="http://www.w3.org/2000/svg" fill="none" role="img" aria-label="Icon" viewBox="0 0 14 14">
  <path d="M8.224 3.204a2.638 2.638 0 1 0 5.276 0 2.638 2.638 0 1 0-5.276 0m3.201-.558-.564.557m-.625 10.231v-2.586a2.573 2.573 0 0 0-2.573-2.573H5.648V4.29c0-.633-.513-1.147-1.147-1.147v0c-.633 0-1.147.514-1.147 1.147v5.223l-.264.05a1.715 1.715 0 0 0-1.096 2.658l.086.125.748 1.088M1.167 5.258a3.446 3.446 0 0 1 4.96-3.834" stroke="currentColor" stroke-linecap="round" stroke-linejoin="round"/>
</svg>
