<svg focusable="false" xmlns="http://www.w3.org/2000/svg" fill="none" role="img" aria-label="Icon" viewBox="0 0 14 14">
  <g stroke="currentColor" stroke-linecap="round" stroke-linejoin="round">
    <path d="M9.42.5a.43.43 0 0 0-.429.43v1.207H7.783a.43.43 0 0 0-.429.43v1.395c0 .237.192.43.43.43H8.99v1.207c0 .237.192.43.43.43h1.395a.43.43 0 0 0 .43-.43V4.39h1.207a.43.43 0 0 0 .43-.43V2.567a.43.43 0 0 0-.43-.429h-1.208V.93a.43.43 0 0 0-.43-.429z"/>
    <path d="M6.118.5h-4a1 1 0 0 0-1 1v11a1 1 0 0 0 1 1h7a1 1 0 0 0 1-1v-4m-5 2.5h1"/>
  </g>
</svg>
