<svg focusable="false" xmlns="http://www.w3.org/2000/svg" fill="none" role="img" aria-label="Icon" viewBox="0 0 14 14">
  <g stroke="currentColor" stroke-linecap="round" stroke-linejoin="round">
    <path d="M1.5 12h11a1 1 0 0 0 1-1V3a1 1 0 0 0-1-1h-11a1 1 0 0 0-1 1v8a1 1 0 0 0 1 1"/>
    <path d="M9.502 6.212a1.245 1.245 0 1 0 0-2.49 1.245 1.245 0 0 0 0 2.49M9.083 12a7.097 7.097 0 0 0-7.136-5.786A7.599 7.599 0 0 0 .5 6.349"/>
    <path d="M13.5 8.94a7.716 7.716 0 0 0-5.506.225"/>
  </g>
</svg>
