<svg focusable="false" xmlns="http://www.w3.org/2000/svg" fill="none" role="img" aria-label="Icon" viewBox="0 0 14 14">
  <path d="M4.929 10.13V3.87m4.142 0v6.26m-7.656.652c.848-.202 2.385-.544 3.514-.652 1.61-.154 2.532-.154 4.142 0 1.129.108 2.666.45 3.514.652a.509.509 0 0 0 .628-.491V3.709a.509.509 0 0 0-.628-.491c-.848.202-2.385.544-3.514.652-1.61.154-2.532.154-4.142 0-1.13-.108-2.666-.45-3.514-.652a.509.509 0 0 0-.628.491v6.582c0 .327.31.567.628.491" stroke="currentColor" stroke-linecap="round" stroke-linejoin="round"/>
</svg>
