<svg focusable="false" xmlns="http://www.w3.org/2000/svg" fill="none" role="img" aria-label="Icon" viewBox="0 0 14 14">
  <g stroke="currentColor" stroke-linecap="round" stroke-linejoin="round">
    <path d="M7.004 1a3.43 3.43 0 0 0-2.27 6.004h4.539A3.43 3.43 0 0 0 7.003 1"/>
    <path d="M1 7.004a3.43 3.43 0 0 0 6.004 2.269V4.734A3.43 3.43 0 0 0 1 7.004m8.577 3.43a3.43 3.43 0 1 0-2.573-5.7v4.539a3.422 3.422 0 0 0 2.573 1.161"/>
    <path d="M7.004 13.007a3.43 3.43 0 0 0 2.269-6.003H4.734a3.43 3.43 0 0 0 2.27 6.004"/>
  </g>
</svg>
