<svg focusable="false" xmlns="http://www.w3.org/2000/svg" fill="none" role="img" aria-label="Icon" viewBox="0 0 14 14">
  <g stroke="currentColor" stroke-linecap="round" stroke-linejoin="round">
    <path d="M5 7.5H1.5a1 1 0 0 1-1-1v-5a1 1 0 0 1 1-1h9a1 1 0 0 1 1 1v3m-1.25 9a3.25 3.25 0 1 1 0-6.5 3.25 3.25 0 0 1 0 6.5m2.3-.95-4.6-4.6"/>
    <path d="M3.5 4.25a.25.25 0 0 1 0-.5m0 .5a.25.25 0 0 0 0-.5m5 .5a.25.25 0 0 1 0-.5m0 .5a.25.25 0 0 0 0-.5m-2.5.5a.25.25 0 0 1 0-.5m0 .5a.25.25 0 0 0 0-.5"/>
  </g>
</svg>
