<svg focusable="false" xmlns="http://www.w3.org/2000/svg" fill="none" role="img" aria-label="Icon" viewBox="0 0 14 14">
  <g stroke="currentColor" stroke-linecap="round" stroke-linejoin="round">
    <path d="M5.5 7.5h-4a1 1 0 0 1-1-1v-5a1 1 0 0 1 1-1h9a1 1 0 0 1 1 1V4M8 9.5h5c.3 0 .5.2.5.5v3c0 .3-.2.5-.5.5H8c-.3 0-.5-.2-.5-.5v-3c0-.3.2-.5.5-.5"/>
    <path d="M8.5 9.5v-1c0-1.1.9-2 2-2s2 .9 2 2v1m-9-5.25a.25.25 0 0 1 0-.5m0 .5a.25.25 0 0 0 0-.5m5 .5a.25.25 0 0 1 0-.5m0 .5a.25.25 0 0 0 0-.5m-2.5.5a.25.25 0 0 1 0-.5m0 .5a.25.25 0 0 0 0-.5"/>
  </g>
</svg>
