<svg focusable="false" xmlns="http://www.w3.org/2000/svg" fill="none" role="img" aria-label="Icon" viewBox="0 0 14 14">
  <g stroke="currentColor" stroke-linecap="round" stroke-linejoin="round">
    <path d="M.5 7.929c0 .512.416.928.929.928h6.5a.929.929 0 0 0 .928-.928v-6.5A.929.929 0 0 0 7.93.5h-6.5a.929.929 0 0 0-.929.929z"/>
    <path d="M8.857 5.143h3.714a.93.93 0 0 1 .929.929v6.5a.929.929 0 0 1-.929.928h-6.5a.929.929 0 0 1-.928-.928V8.857M2.538 1.325a.25.25 0 0 1 0-.5m0 .5a.25.25 0 0 0 0-.5m4.118.5a.25.25 0 0 1 0-.5m0 .5a.25.25 0 0 0 0-.5M2.538 6.104a.25.25 0 0 1 0-.5m0 .5a.25.25 0 0 0 0-.5M.768 3.585a.25.25 0 0 1 0-.5m0 .5a.25.25 0 0 0 0-.5m3.912.5a.25.25 0 0 1 0-.5m0 .5a.25.25 0 0 0 0-.5m3.66.5a.25.25 0 0 1 0-.5m0 .5a.25.25 0 0 0 0-.5M.768 8.296a.25.25 0 0 1 0-.5m0 .5a.25.25 0 0 0 0-.5m3.912.5a.25.25 0 0 1 0-.5m0 .5a.25.25 0 0 0 0-.5"/>
    <path d="M8.34 8.296a.25.25 0 0 1 0-.5m0 .5a.25.25 0 0 0 0-.5M6.656 6.104a.25.25 0 0 1 0-.5m0 .5a.25.25 0 0 0 0-.5"/>
  </g>
</svg>
