<svg focusable="false" xmlns="http://www.w3.org/2000/svg" fill="none" role="img" aria-label="Icon" viewBox="0 0 14 14">
  <g stroke="currentColor" stroke-linecap="round" stroke-linejoin="round">
    <path d="M2.75 9.75a.25.25 0 0 1 0-.5m0 .5a.25.25 0 0 0 0-.5m8.5.5a.25.25 0 1 1 0-.5m0 .5a.25.25 0 1 0 0-.5m-3.186-.861a.833.833 0 0 0-.786-.556h-.645a.744.744 0 0 0-.16 1.47l.983.216a.834.834 0 0 1-.178 1.648h-.556a.834.834 0 0 1-.786-.556M7 7.833V7m0 5v-.833"/>
    <path d="M12.5 5.5h-11a1 1 0 0 0-1 1v6a1 1 0 0 0 1 1h11a1 1 0 0 0 1-1v-6a1 1 0 0 0-1-1M7 .5v2m2.5-1v2m-5-2v2"/>
  </g>
</svg>
