<svg focusable="false" xmlns="http://www.w3.org/2000/svg" fill="none" role="img" aria-label="Icon" viewBox="0 0 14 14">
  <g stroke="currentColor" stroke-linecap="round" stroke-linejoin="round">
    <path d="M13.5 6V1.5a1 1 0 0 0-1-1h-11a1 1 0 0 0-1 1v6a1 1 0 0 0 1 1h4"/>
    <path d="M7 6.25a1.75 1.75 0 1 0 0-3.5 1.75 1.75 0 0 0 0 3.5m-4.225-1.5a.25.25 0 0 1 0-.5m0 .5a.25.25 0 0 0 0-.5m8.45.5a.25.25 0 1 1 0-.5m0 .5a.25.25 0 1 0 0-.5M10.5 13.5a3 3 0 1 0 0-6 3 3 0 0 0 0 6m.75-3.75-.75.75"/>
  </g>
</svg>
