<svg focusable="false" xmlns="http://www.w3.org/2000/svg" fill="none" role="img" aria-label="Icon" viewBox="0 0 14 14">
  <g stroke="currentColor" stroke-linecap="round" stroke-linejoin="round">
    <path d="M3.55 2.767c1.517-.45.163 7.983-1.148 6.884-.835-.7 1.96-1.814 3.97-2.084-1.71-1.522-3.819-4.504-2.822-4.8"/>
    <path d="M11.5 6.5V4L8 .5H1.5a1 1 0 0 0-1 1v11a1 1 0 0 0 1 1H5"/>
    <path d="M12.963 10.408a.835.835 0 0 1 0 1.184c-.728.74-2.096 1.908-3.463 1.908s-2.735-1.169-3.463-1.908a.835.835 0 0 1 0-1.184C6.765 9.668 8.133 8.5 9.5 8.5s2.735 1.169 3.463 1.908"/>
    <path d="M9.5 11.5a.5.5 0 1 0 0-1 .5.5 0 0 0 0 1"/>
  </g>
</svg>
