<svg focusable="false" xmlns="http://www.w3.org/2000/svg" fill="none" role="img" aria-label="Icon" viewBox="0 0 14 14">
  <g stroke="currentColor" stroke-linecap="round" stroke-linejoin="round">
    <path d="M4.716 8.577c-2.573 0-3.573-1.573-3.86-2.144.858 0 2.145-.43 2.574-1.287-1.716-.858-1.716-3.43-1.287-4.288C3.43 2.144 5.145 3.43 5.573 3.43c.43 0 1.716-1.287 3.003-1.287 1.029 0 1.572 1.287 1.715 1.716-.286 0-1.03-.258-1.715.428-.858.858-1.287 4.289-3.86 4.289m0 .001.429 2.573m-2.573 0h6.861m.5-1.716h1.573s.5 0 .5.5v2.431s0 .5-.5.5H9.933s-.5 0-.5-.5V9.934s0-.5.5-.5m.076-3.641c0-1.016.452-2.297 1.764-3.11"/>
    <path d="M11.508.809c.073.421-.003 1.771.203 1.875.125.062.828-1 1.703-.72"/>
  </g>
</svg>
