<svg focusable="false" xmlns="http://www.w3.org/2000/svg" fill="none" role="img" aria-label="Icon" viewBox="0 0 14 14">
  <g stroke="currentColor" stroke-linecap="round" stroke-linejoin="round">
    <path d="M13.5 4.5a4 4 0 0 0-7.85-1.083c-.163.576-.68 1.043-1.271 1.131C2.239 4.864.5 6.737.5 9A4.5 4.5 0 0 0 5 13.5c2.263 0 4.136-1.739 4.452-3.879a1.604 1.604 0 0 1 1.131-1.27A4.007 4.007 0 0 0 13.5 4.5"/>
    <path d="M4.75 11a.25.25 0 1 1 0-.5m0 .5a.25.25 0 1 0 0-.5m0-2a.25.25 0 0 1 0-.5m0 .5a.25.25 0 0 0 0-.5m2.5.5a.25.25 0 0 1 0-.5m0 .5a.25.25 0 0 0 0-.5m3-2.5a.25.25 0 1 1 0-.5m0 .5a.25.25 0 1 0 0-.5"/>
  </g>
</svg>
