<svg focusable="false" xmlns="http://www.w3.org/2000/svg" fill="none" role="img" aria-label="Icon" viewBox="0 0 14 14">
  <g stroke="currentColor" stroke-linecap="round" stroke-linejoin="round">
    <path d="M9 7a.5.5 0 1 0 1 0 .5.5 0 1 0-1 0M4 7a.5.5 0 1 0 1 0 .5.5 0 1 0-1 0m2.5-1.25a.5.5 0 1 0 1 0 .5.5 0 1 0-1 0m1.5 5.5H6a1 1 0 0 1-1-1V10a.5.5 0 0 1 .2-.4l1.2-.9a1 1 0 0 1 1.2 0l1.2.9a.5.5 0 0 1 .2.4v.25a1 1 0 0 1-1 1"/>
    <path d="M13.418 6.536a.999.999 0 0 1 .082.404v5.56a1 1 0 0 1-1 1h-11a1 1 0 0 1-1-1V6.94a1 1 0 0 1 .32-.74L7 .5l6.18 5.7a1 1 0 0 1 .238.336"/>
  </g>
</svg>
