<svg focusable="false" xmlns="http://www.w3.org/2000/svg" fill="none" role="img" aria-label="Icon" viewBox="0 0 14 14">
  <path d="M1.5 9.5c.552 0 1-.672 1-1.5s-.448-1.5-1-1.5-1 .672-1 1.5.448 1.5 1 1.5m3-4.5c.552 0 1-.672 1-1.5S5.052 2 4.5 2s-1 .672-1 1.5.448 1.5 1 1.5m5 0c.552 0 1-.672 1-1.5S10.052 2 9.5 2s-1 .672-1 1.5.448 1.5 1 1.5m3 4.5c.552 0 1-.672 1-1.5s-.448-1.5-1-1.5-1 .672-1 1.5.448 1.5 1 1.5M10 10c0 1.38-1.62 2-3 2s-3-.62-3-2 1-3.5 3-3.5 3 2.12 3 3.5" stroke="currentColor" stroke-linecap="round" stroke-linejoin="round"/>
</svg>
