<svg focusable="false" xmlns="http://www.w3.org/2000/svg" fill="none" role="img" aria-label="Icon" viewBox="0 0 14 14">
  <path d="m1.532 8.385-.221-1.97a1 1 0 0 1 .993-1.113h9.391a1 1 0 0 1 .994 1.112l-.221 1.97a3.997 3.997 0 0 1-1.966 3.012c.17.305.288.645.343 1.008a.748.748 0 0 1-.74.858h-6.21a.748.748 0 0 1-.74-.858c.055-.363.173-.703.342-1.008a3.998 3.998 0 0 1-1.965-3.012m5.937-3.103 2.373-3.72a1.198 1.198 0 0 1 1.644-.372v0c.569.355.736 1.107.37 1.67L10.281 5.28m-5.03 4.002H8.75M7 7.534v3.497" stroke="currentColor" stroke-linecap="round" stroke-linejoin="round"/>
</svg>
