<svg focusable="false" xmlns="http://www.w3.org/2000/svg" fill="none" role="img" aria-label="Icon" viewBox="0 0 14 14">
  <path d="M6.51 13.07a2.7 2.7 0 0 1-3.37-.36l-.38-.38a.91.91 0 0 1 0-1.28l1.6-1.59a.9.9 0 0 1 1.27 0v0a.91.91 0 0 0 1.28 0l2.55-2.55a.91.91 0 0 0 0-1.28v0a.9.9 0 0 1 0-1.27L11 2.76a.91.91 0 0 1 1.28 0l.38.38a2.7 2.7 0 0 1 .41 3.37 24.229 24.229 0 0 1-6.56 6.56M7 .5A6.5 6.5 0 0 0 .5 7M7 3a4 4 0 0 0-4 4" stroke="currentColor" stroke-linecap="round" stroke-linejoin="round"/>
</svg>
