<svg focusable="false" xmlns="http://www.w3.org/2000/svg" fill="none" role="img" aria-label="Icon" viewBox="0 0 14 14">
  <path d="M5.248 12.982a3.183 3.183 0 0 1-3.992-.44l-.449-.438a1.078 1.078 0 0 1 0-1.507L2.713 8.71a1.068 1.068 0 0 1 1.497 0 1.078 1.078 0 0 0 1.507 0L8.71 5.717a1.058 1.058 0 0 0 0-1.507 1.068 1.068 0 0 1 0-1.497L10.607.817a1.078 1.078 0 0 1 1.507 0l.439.45a3.184 3.184 0 0 1 .439 3.99 28.88 28.88 0 0 1-7.744 7.725" stroke="currentColor" stroke-linecap="round" stroke-linejoin="round"/>
</svg>
