<svg focusable="false" xmlns="http://www.w3.org/2000/svg" fill="none" role="img" aria-label="Icon" viewBox="0 0 14 14">
  <g stroke="currentColor" stroke-linecap="round" stroke-linejoin="round">
    <path d="M7 13.5a6.5 6.5 0 1 1 0-13 6.5 6.5 0 0 1 0 13m4.6-1.9L2.4 2.4"/>
    <path d="M7 10.08c-.206.144-.42.278-.64.4A2.14 2.14 0 0 1 3.9 9.9l-.31-.31a.67.67 0 0 1-.12-.92l1-1a.67.67 0 0 1 .92.12m1.72-.68.8-.8a.67.67 0 0 0-.12-.92v0a.67.67 0 0 1-.12-.92l1-1a.67.67 0 0 1 .92.12l.31.31a2.15 2.15 0 0 1 .58 2.46 10.828 10.828 0 0 1-1.8 2.31"/>
  </g>
</svg>
