<svg focusable="false" xmlns="http://www.w3.org/2000/svg" fill="none" role="img" aria-label="Icon" viewBox="0 0 14 14">
  <path d="M5 .5H1a.5.5 0 0 0-.5.5v4a.5.5 0 0 0 .5.5h4a.5.5 0 0 0 .5-.5V1A.5.5 0 0 0 5 .5m8 0H9a.5.5 0 0 0-.5.5v4a.5.5 0 0 0 .5.5h4a.5.5 0 0 0 .5-.5V1a.5.5 0 0 0-.5-.5m-8 8H1a.5.5 0 0 0-.5.5v4a.5.5 0 0 0 .5.5h4a.5.5 0 0 0 .5-.5V9a.5.5 0 0 0-.5-.5m8 0H9a.5.5 0 0 0-.5.5v4a.5.5 0 0 0 .5.5h4a.5.5 0 0 0 .5-.5V9a.5.5 0 0 0-.5-.5" stroke="currentColor" stroke-linecap="round" stroke-linejoin="round"/>
</svg>
