<svg focusable="false" xmlns="http://www.w3.org/2000/svg" fill="none" role="img" aria-label="Icon" viewBox="0 0 14 14">
  <g stroke="currentColor" stroke-linecap="round" stroke-linejoin="round">
    <path d="M11.139 8.379A4.232 4.232 0 1 1 6.63 5.052"/>
    <path d="M3.497 11.648a1.5 1.5 0 1 1-.669-1.68m8.344 0a1.5 1.5 0 1 1-.668 1.68m-2.122-.743s-.351.691-1.382.691c-1.03 0-1.382-.69-1.382-.69m5.586-2.103a3.352 3.352 0 0 1-4.142-1.555 3.352 3.352 0 0 1-4.266 1.505m5.493-4.312c-.3-.052-.3-.483 0-.536a2.72 2.72 0 0 0 2.191-2.098l.018-.083c.065-.297.488-.3.556-.003l.022.097a2.735 2.735 0 0 0 2.197 2.086c.303.052.303.486 0 .539a2.735 2.735 0 0 0-2.197 2.086l-.022.096c-.068.297-.49.295-.556-.002l-.018-.083a2.72 2.72 0 0 0-2.19-2.099M6 .5v2m-1-1h2"/>
  </g>
</svg>
