<svg focusable="false" xmlns="http://www.w3.org/2000/svg" fill="none" role="img" aria-label="Icon" viewBox="0 0 14 14">
  <g stroke="currentColor" stroke-linecap="round" stroke-linejoin="round">
    <path d="M.896 2.681c.254.68.736 1.195 1.229 1.56m4.625.661H4.896m4.938 1.502a.25.25 0 1 1 0-.5m0 .5a.25.25 0 0 0 0-.5"/>
    <path d="M10.604 1.277V3.35c1.563.65 1.844 1.762 1.844 3.213l.875.719v2.219c-.516 1.11-1.469 1.687-2.719 2.13v.984a.5.5 0 0 1-.5.5h-1.75a.5.5 0 0 1-.5-.5v-.984h-3.14v.906a.5.5 0 0 1-.5.5H2.448a.5.5 0 0 1-.5-.5v-1.77c0-.047-.092-.303-.211-.699C1.389 8.91.81 6.955 1.642 5.114c.697-1.544 2.383-2.722 6.025-2.518.522-1.38 1.906-1.741 2.612-1.71.201.01.325.19.325.392"/>
  </g>
</svg>
