<svg focusable="false" xmlns="http://www.w3.org/2000/svg" fill="none" role="img" aria-label="Icon" viewBox="0 0 14 14">
  <g stroke="currentColor" stroke-linecap="round" stroke-linejoin="round">
    <path d="M7.288 1.543c-.272-.013-.506.141-.65.361L.71 10.935c-.432.66.056 1.523.862 1.523h10.763c.399 0 .757-.23.856-.6.312-1.158.698-3.855-1.22-6.83-1.927-2.992-3.855-3.443-4.684-3.485"/>
    <path d="M5.656 3.433s2.456.186 4.44 3.163c1.985 2.977.694 5.862.694 5.862M3.185 7.165a1.488 1.488 0 1 0 1.41-2.148m.483 7.441A1.988 1.988 0 0 1 7 9.977a1.985 1.985 0 0 1 1.922 2.48"/>
  </g>
</svg>
