<svg focusable="false" xmlns="http://www.w3.org/2000/svg" fill="none" role="img" aria-label="Icon" viewBox="0 0 14 14">
  <g stroke="currentColor" stroke-linecap="round" stroke-linejoin="round">
    <path d="m3.246 6.417.71-.365a.257.257 0 0 1 .349.086l.67.764 2.77-1.94a1.882 1.882 0 0 1 2.802.547.515.515 0 0 1-.243.686l-1.677.775-.185.089-.38 2.07a.272.272 0 0 1-.153.214L6.89 9.9a.28.28 0 0 1-.406-.26l.249-1.67-.122.057-1.814.904a.506.506 0 0 1-.681-.213l-.98-1.971a.257.257 0 0 1 .11-.33"/>
    <path d="M13.5 7A6.5 6.5 0 0 1 .998 9.5M.5 7a6.5 6.5 0 0 1 12.502-2.5"/>
    <path d="M13.5 2.5v2h-2m-11 7v-2h2"/>
  </g>
</svg>
