<svg focusable="false" xmlns="http://www.w3.org/2000/svg" fill="none" role="img" aria-label="Icon" viewBox="0 0 14 14">
  <path d="M1.484 3.563h11.04M1.39 10.277h11.235M.5 7a6.5 6.5 0 1 0 13 0 6.5 6.5 0 1 0-13 0m2.949-1.145v1.062m0 0L2.74 7.98m.709-1.063.708 1.063m-.708-1.063-1.063-.354m1.063.354 1.062-.354m2.449-.708v1.062m0 0L6.253 7.98m.709-1.063L7.67 7.98m-.71-1.063-1.063-.354m1.063.354 1.062-.354m2.451-.708v1.062m0 0L9.764 7.98m.709-1.063.708 1.063m-.708-1.063L9.41 6.563m1.062.354 1.063-.354" stroke="currentColor" stroke-linecap="round" stroke-linejoin="round"/>
</svg>
