<svg focusable="false" xmlns="http://www.w3.org/2000/svg" fill="none" role="img" aria-label="Icon" viewBox="0 0 14 14">
  <g stroke="currentColor" stroke-linecap="round" stroke-linejoin="round">
    <path d="M2 12h-.5a1 1 0 0 1-1-1V9a1 1 0 0 1 1-1H3l.77-2.32a1 1 0 0 1 1-.68h4.01a1 1 0 0 1 1 .68L10.5 8h2a1 1 0 0 1 1 1v2a1 1 0 0 1-1 1H12"/>
    <path d="M10.499 13.5a1.501 1.501 0 1 1 0-3.002 1.501 1.501 0 0 1 0 3.002m-7 0a1.501 1.501 0 1 1 0-3.002 1.501 1.501 0 0 1 0 3.002M8.998 12H5m1-8v1h2V4a1 1 0 0 0-2 0M7 .5v1m2 0 .5-.5M5 1.5 4.5 1"/>
  </g>
</svg>
