<svg focusable="false" xmlns="http://www.w3.org/2000/svg" fill="none" role="img" aria-label="Icon" viewBox="0 0 14 14">
  <path d="M2.655 7.404a1.121 1.121 0 1 0 0-2.242 1.121 1.121 0 0 0 0 2.242m2.026 1.7a2.242 2.242 0 0 0-4.052 0m0 1.294H6.16m-.856 0L5 13.375m6.384-5.971a1.12 1.12 0 1 1 0-2.242 1.12 1.12 0 0 1 0 2.242m-2.026 1.7a2.242 2.242 0 0 1 4.052 0m0 1.294H7.88m.816 0L9 13.375M4.348 1.05v3.19h3.11L8.79 5.55v-4.5z" stroke="currentColor" stroke-linecap="round" stroke-linejoin="round"/>
</svg>
