<svg focusable="false" xmlns="http://www.w3.org/2000/svg" fill="none" role="img" aria-label="Icon" viewBox="0 0 14 14">
  <g stroke="currentColor">
    <path d="m2.56 6 .83 6.62a1 1 0 0 0 1 .88h5.23a1 1 0 0 0 1-.88L11.44 6" stroke-linecap="round" stroke-linejoin="round"/>
    <path d="M10.64 3.12a1.49 1.49 0 0 1 .36-.05l-.04-.01a1.5 1.5 0 0 1 0 3H3a1.49 1.49 0 0 1-1.06-.43 1.5 1.5 0 0 1 1.44-2.51 1.81 1.81 0 0 1-.14-.69A2 2 0 0 1 6.267.787 2 2 0 0 1 7 1.56 2 2 0 0 1 8.76.5a2 2 0 0 1 2.02 1.93 1.81 1.81 0 0 1-.14.69" stroke-linecap="round" stroke-linejoin="round"/>
    <path d="M7 6v7.5"/>
  </g>
</svg>
