<svg focusable="false" xmlns="http://www.w3.org/2000/svg" fill="none" role="img" aria-label="Icon" viewBox="0 0 14 14">
  <g stroke="currentColor" stroke-linecap="round" stroke-linejoin="round">
    <path d="M5 10.5H1.5a1 1 0 0 1-1-1v-8a1 1 0 0 1 1-1h8a1 1 0 0 1 1 1v2"/>
    <path d="M5.5 5.25a1.5 1.5 0 1 0 0-3 1.5 1.5 0 0 0 0 3m.71 1.57a3.35 3.35 0 0 0-.71-.07 3.49 3.49 0 0 0-2.8 1.4M13 9H8a.5.5 0 0 0-.5.5V13a.5.5 0 0 0 .5.5h5a.5.5 0 0 0 .5-.5V9.5A.5.5 0 0 0 13 9M8.5 9V8a2 2 0 1 1 4 0v1"/>
  </g>
</svg>
