<svg focusable="false" xmlns="http://www.w3.org/2000/svg" fill="none" role="img" aria-label="Icon" viewBox="0 0 14 14">
  <path d="M10.301 2.923a1.336 1.336 0 0 0-1.675-.888 1.196 1.196 0 0 0-.339.17 1.336 1.336 0 1 0-2.622-.369 1.496 1.496 0 0 0 0 .369 1.196 1.196 0 0 0-.289-.17A1.336 1.336 0 0 0 3.64 3.407a1.316 1.316 0 0 0 1.288 1.21 1.336 1.336 0 0 0 .08 2.154 1.336 1.336 0 0 0 1.864-.3c.061-.101.105-.212.13-.328.04.12.1.23.179.329a1.336 1.336 0 0 0 1.864.299 1.336 1.336 0 0 0 0-2.124c.125 0 .25-.02.369-.06a1.316 1.316 0 0 0 .887-1.664m-3.3 3.22V9m3.099 3.61a1 1 0 0 1-1 .89H4.9a1 1 0 0 1-1-.89l-.338-3.055A.5.5 0 0 1 4.058 9h5.884a.5.5 0 0 1 .496.555z" stroke="currentColor" stroke-linecap="round" stroke-linejoin="round"/>
</svg>
