<svg focusable="false" xmlns="http://www.w3.org/2000/svg" fill="none" role="img" aria-label="Icon" viewBox="0 0 14 14">
  <g stroke="currentColor" stroke-linecap="round" stroke-linejoin="round">
    <path d="M4 2.19a3.84 3.84 0 0 0-1.5 3.06A3.63 3.63 0 0 0 6 9c.319 0 .635-.047.94-.14zm6 0a3.839 3.839 0 0 1 1.5 3.06A3.63 3.63 0 0 1 8 9a3.24 3.24 0 0 1-.94-.14z"/>
    <path d="M5 4.5 7 2l2 2.5m1.1 8.11a1 1 0 0 1-1 .89H4.9a1 1 0 0 1-1-.89l-.338-3.055A.5.5 0 0 1 4.058 9h5.884a.5.5 0 0 1 .496.555z"/>
  </g>
</svg>
