<svg focusable="false" xmlns="http://www.w3.org/2000/svg" fill="none" role="img" aria-label="Icon" viewBox="0 0 14 14">
  <g stroke="currentColor" stroke-linecap="round" stroke-linejoin="round">
    <path d="M12.09 6.079a1.985 1.985 0 1 1-2.45-3.115c.853-.675 3.561-.278 3.561-.278s-.248 2.718-1.11 3.393"/>
    <path d="M3.28 3.033C5.76 4.521 7.25 6.023 7.25 9c.088-1.221 1.003-2.515 1.908-3.285"/>
    <path d="M1.713 5.017a2.54 2.54 0 0 0 3.581-3.581C4.302.454.8.553.8.553s-.08 3.472.913 4.464M10.6 12.61a1 1 0 0 1-1 .89H5.4a1 1 0 0 1-1-.89l-.338-3.055A.5.5 0 0 1 4.558 9h5.884a.5.5 0 0 1 .497.555z"/>
  </g>
</svg>
