<svg focusable="false" xmlns="http://www.w3.org/2000/svg" fill="none" role="img" aria-label="Icon" viewBox="0 0 14 14">
  <g stroke="currentColor" stroke-linecap="round" stroke-linejoin="round">
    <path d="M10.028 5.168a7.018 7.018 0 0 0-1.96-1.418l1.338-2.54C9.6.844 9.246.413 8.843.517 8.053.72 6.985.964 6.21.964 5.436.964 4.381.72 3.59.516c-.402-.104-.757.327-.563.695L4.353 3.75C2.575 4.626.639 6.445.639 9.786c0 2.668 2.997 3.714 5.571 3.714a9.44 9.44 0 0 0 1.685-.15"/>
    <path d="M4.353 3.75c.31.464.929.929 1.857.929s1.548-.465 1.857-.929M13.5 10.5h-5M11 8v5"/>
  </g>
</svg>
