<svg focusable="false" xmlns="http://www.w3.org/2000/svg" fill="none" role="img" aria-label="Icon" viewBox="0 0 14 14">
  <g stroke="currentColor" stroke-linecap="round" stroke-linejoin="round">
    <path d="M6.07 3.75 4.746 1.21c-.194-.367.16-.798.564-.694.79.204 1.845.448 2.62.448.774 0 1.841-.244 2.632-.448.403-.104.757.327.563.695L9.785 3.75c1.779.876 3.715 2.695 3.715 6.036 0 2.668-2.997 3.714-5.572 3.714-1.86 0-3.942-.547-4.953-1.857"/>
    <path d="M6.072 3.75c.31.464.929.929 1.858.929s1.547-.465 1.857-.929M5.61 6.55l.462 2.311-1.848.462"/>
    <path d="M.534 7.894c.397-.292 1.602-.756 2.514-.697 1.14.073 2.619 1.096 3.024 1.66"/>
  </g>
</svg>
