<svg focusable="false" xmlns="http://www.w3.org/2000/svg" fill="none" role="img" aria-label="Icon" viewBox="0 0 14 14">
  <g stroke="currentColor" stroke-linecap="round" stroke-linejoin="round">
    <path d="M7 13.5c-2.575 0-5.571-1.046-5.571-3.714 0-3.34 1.936-5.16 3.714-6.036L3.817 1.21c-.194-.367.16-.798.564-.694C5.17.72 6.226.964 7 .964c.774 0 1.842-.244 2.633-.448.403-.104.757.327.563.695L8.857 3.75c1.779.876 3.714 2.695 3.714 6.036 0 2.668-2.996 3.714-5.571 3.714"/>
    <path d="M5.143 3.75c.31.464.928.929 1.857.929.929 0 1.548-.465 1.857-.929"/>
  </g>
</svg>
