<svg focusable="false" xmlns="http://www.w3.org/2000/svg" fill="none" role="img" aria-label="Icon" viewBox="0 0 14 14">
  <g stroke="currentColor" stroke-linecap="round" stroke-linejoin="round">
    <path d="M11.557 7.929c-.56-2.186-2.075-3.482-3.491-4.179l1.339-2.54c.194-.367-.16-.798-.563-.694C8.05.72 6.983.964 6.209.964c-.775 0-1.83-.244-2.62-.448-.403-.104-.757.327-.563.695L4.35 3.75C2.573 4.626.637 6.445.637 9.786c0 2.668 2.997 3.714 5.572 3.714a9.52 9.52 0 0 0 1.392-.102"/>
    <path d="M4.351 3.75c.31.464.929.929 1.858.929.928 0 1.547-.465 1.857-.929M13.5 10.5h-5"/>
  </g>
</svg>
