<svg focusable="false" xmlns="http://www.w3.org/2000/svg" fill="none" role="img" aria-label="Icon" viewBox="0 0 14 14">
  <g stroke="currentColor" stroke-linecap="round" stroke-linejoin="round">
    <path d="M2.974 11.643c1.01 1.31 3.092 1.857 4.953 1.857 2.575 0 5.572-1.046 5.572-3.714 0-3.34-1.936-5.16-3.715-6.036l1.34-2.54c.193-.367-.161-.798-.564-.694-.79.204-1.858.448-2.633.448-.774 0-1.829-.244-2.62-.448-.402-.104-.756.327-.563.695L6.07 3.75c-.66.325-1.34.78-1.936 1.393"/>
    <path d="M6.071 3.75c.31.464.929.929 1.858.929.928 0 1.547-.465 1.857-.929M1.214 9.772.75 7.462 2.6 7"/>
    <path d="M6.387 8.429c-.404.291-1.63.755-2.559.696C2.668 9.052 1.163 8.03.75 7.465"/>
  </g>
</svg>
