<svg focusable="false" xmlns="http://www.w3.org/2000/svg" fill="none" role="img" aria-label="Icon" viewBox="0 0 14 14">
  <g stroke="currentColor" stroke-linecap="round" stroke-linejoin="round">
    <path d="M7 1a.25.25 0 0 1 0-.5M7 1a.25.25 0 0 0 0-.5m0 3A.25.25 0 0 1 7 3m0 .5A.25.25 0 0 0 7 3M.75 7.25a.25.25 0 0 1 0-.5m0 .5a.25.25 0 0 0 0-.5m12.5.5a.25.25 0 1 1 0-.5m0 .5a.25.25 0 1 0 0-.5M7 13.5a.25.25 0 1 1 0-.5m0 .5a.25.25 0 1 0 0-.5m0-7a.25.25 0 0 1 0-.5M7 6a.25.25 0 0 0 0-.5M1.462 4.091a.25.25 0 1 1 .25-.433"/>
    <path d="M1.462 4.091a.25.25 0 1 0 .25-.433m10.576 6.683a.25.25 0 1 1 .25-.433"/>
    <path d="M12.288 10.341a.25.25 0 1 0 .25-.433m-10.826.434a.25.25 0 0 1-.25-.434"/>
    <path d="M1.712 10.342a.25.25 0 0 0-.25-.434m11.076-5.817a.25.25 0 0 1-.25-.433m.25.433a.25.25 0 0 0-.25-.433m-8.197 8.88a.25.25 0 1 1-.433-.25m.433.25a.25.25 0 1 0-.433-.25m6.251.25a.25.25 0 1 1 .433-.25"/>
    <path d="M9.909 12.538a.25.25 0 1 0 .433-.25"/>
  </g>
</svg>
