<svg focusable="false" xmlns="http://www.w3.org/2000/svg" fill="none" role="img" aria-label="Icon" viewBox="0 0 14 14">
  <g stroke="currentColor" stroke-linecap="round" stroke-linejoin="round">
    <path d="M7 .5v1m3 0 .5-.5M4 1.5 3.5 1m10 12.5h-2.347a4 4 0 0 1-3.984-3.638l-.115-1.266a.944.944 0 0 1 .462-.9v0a.944.944 0 0 1 1.41.66L9.2 10"/>
    <path d="M13.5 9.997h-1.624a1 1 0 0 1-.992-.868l-.628-4.716a1.133 1.133 0 0 0-1.803-.756v0c-.285.214-.453.55-.453.906v2.934M.5 13.5h2.347a4 4 0 0 0 3.984-3.638l.115-1.266a.944.944 0 0 0-.462-.9v0a.944.944 0 0 0-1.41.66L4.8 10"/>
    <path d="M.5 9.996h1.624a1 1 0 0 0 .992-.868l.628-4.715a1.133 1.133 0 0 1 1.803-.757v0c.285.214.453.55.453.906v2.934"/>
  </g>
</svg>
