<svg focusable="false" xmlns="http://www.w3.org/2000/svg" fill="none" role="img" aria-label="Icon" viewBox="0 0 14 14">
  <g stroke="currentColor" stroke-linecap="round" stroke-linejoin="round">
    <path d="M12.603 13.5v-2.833a2.573 2.573 0 0 0-2.573-2.573H7.795V3.918c0-.664-.538-1.202-1.202-1.202v0c-.664 0-1.202.538-1.202 1.202v5.474l-.401.075a1.715 1.715 0 0 0-1.096 2.658l.162.235.783 1.14"/>
    <path d="M3.5 5.5H3A2.5 2.5 0 0 1 .5 3v0A2.5 2.5 0 0 1 3 .5h8A2.5 2.5 0 0 1 13.5 3v0A2.5 2.5 0 0 1 11 5.5h-1"/>
  </g>
</svg>
