<svg focusable="false" xmlns="http://www.w3.org/2000/svg" fill="none" role="img" aria-label="Icon" viewBox="0 0 14 14">
  <g stroke="currentColor" stroke-linecap="round" stroke-linejoin="round">
    <path d="M11 3.5a1.5 1.5 0 1 0 0-3 1.5 1.5 0 0 0 0 3M8.7 6c.5-1.3 2-1.9 3.3-1.3.9.4 1.5 1.3 1.5 2.3m-9-2.5h-4v4h4zm-4 9H11c1.4 0 2.5-1.1 2.5-2.5S12.4 8.5 11 8.5H.5"/>
    <path d="M.8 11.25a.25.25 0 1 0 0-.5m0 .5a.25.25 0 1 1 0-.5m5 .5a.25.25 0 1 0 0-.5m0 .5a.25.25 0 1 1 0-.5m5 .5a.25.25 0 1 0 0-.5m0 .5a.25.25 0 1 1 0-.5"/>
  </g>
</svg>
