<svg focusable="false" xmlns="http://www.w3.org/2000/svg" fill="none" role="img" aria-label="Icon" viewBox="0 0 14 14">
  <path d="M2.211 5.422a.992.992 0 0 1 .417.804.893.893 0 0 1-1.091.992C.585 6.97.138 5.55 1.04 3.25m4.663 2.172a.992.992 0 0 1 .426.804.893.893 0 0 1-1.09.992c-.993-.189-1.4-1.647-.526-3.968m7.26 5.267a.991.991 0 0 1-.416-.804.893.893 0 0 1 1.09-.991c.993.188 1.4 1.646.517 3.967M8.282 8.517a.992.992 0 0 1-.427-.804.893.893 0 0 1 1.091-.991c.992.188 1.399 1.646.526 3.967" stroke="currentColor" stroke-linecap="round" stroke-linejoin="round"/>
</svg>
