<svg focusable="false" xmlns="http://www.w3.org/2000/svg" fill="none" role="img" aria-label="Icon" viewBox="0 0 14 14">
  <g stroke="currentColor" stroke-linecap="round" stroke-linejoin="round">
    <path d="M4.08 7.25a3.82 3.82 0 0 1 0-4"/>
    <path d="M4.45 7.42a.5.5 0 1 0 0-1 .5.5 0 0 0 0 1m-3.38-.17a3.82 3.82 0 0 1 0-4"/>
    <path d="M1.44 7.42a.5.5 0 1 0 0-1 .5.5 0 0 0 0 1m8.48-.67a3.82 3.82 0 0 1 0 4"/>
    <path d="M9.55 7.58a.5.5 0 1 0 0-1 .5.5 0 0 0 0 1m3.38-.83a3.82 3.82 0 0 1 0 4"/>
    <path d="M12.56 7.58a.5.5 0 1 0 0-1 .5.5 0 0 0 0 1"/>
  </g>
</svg>
