<svg focusable="false" xmlns="http://www.w3.org/2000/svg" fill="none" role="img" aria-label="Icon" viewBox="0 0 14 14">
  <g stroke="currentColor" stroke-linecap="round" stroke-linejoin="round">
    <path d="M7 12a1.5 1.5 0 0 1-1.5 1.5h-.75A2.25 2.25 0 0 1 3.5 9.379V9c0-.38.06-.746.173-1.089L1.645 2.82a1.647 1.647 0 1 1 3.122-1.036l1.05 3.922A3.474 3.474 0 0 1 7 5.5c.415 0 .813.072 1.182.205l1.051-3.922a1.647 1.647 0 1 1 3.122 1.036l-2.028 5.093c.113.342.173.708.173 1.088v.379A2.25 2.25 0 0 1 9.25 13.5H8.5A1.5 1.5 0 0 1 7 12m0 0v-.5"/>
    <path d="M7.75 11h-1.5l.75.5zm-2-2a.25.25 0 0 1 0-.5m0 .5a.25.25 0 0 0 0-.5m2.5.5a.25.25 0 0 1 0-.5m0 .5a.25.25 0 0 0 0-.5M4.711 6.352A3.486 3.486 0 0 1 7 5.5c.875 0 1.675.321 2.289.852"/>
  </g>
</svg>
