<svg focusable="false" xmlns="http://www.w3.org/2000/svg" fill="none" role="img" aria-label="Icon" viewBox="0 0 14 14">
  <g stroke="currentColor" stroke-linecap="round" stroke-linejoin="round">
    <path d="M6.008 10.082v1.999a.29.29 0 0 1-.29.28H3.62a1.45 1.45 0 0 1-.88-.51"/>
    <path d="M2.74 11.86s-1.09-.948 1.44-3.477h1.129l-1.69-2.788H.512l.85 1.089s-.57.1-.57.89a9.994 9.994 0 0 0 1.95 4.287m7.614-5.487 1.479-1a.26.26 0 0 1 .21 0 .26.26 0 0 1 .19.12l1.15 1.72a1 1 0 0 1 0 .89"/>
    <path d="M13.424 8.003s-.32 1.3-3.628 1v-.87l-1.939 2.539 1.84 2.828.1-1.33s.369.45.999 0a18.72 18.72 0 0 0 2.628-4.167M4.36 4.285l-1.35-.62a.3.3 0 0 1-.14-.38l1.14-2.278a1 1 0 0 1 .74-.5m0 0s1.228 0 2.787 2.999l-.81 1h3.359l1.19-3.14-1.4.43a1.21 1.21 0 0 0-.73-.999 5.867 5.867 0 0 0-2.138-.29z"/>
  </g>
</svg>
