<svg focusable="false" xmlns="http://www.w3.org/2000/svg" fill="none" role="img" aria-label="Icon" viewBox="0 0 14 14">
  <path d="M.875 4.667a1.458 1.458 0 1 0 2.916 0 1.458 1.458 0 1 0-2.916 0m9.334 0a1.458 1.458 0 1 0 2.916 0 1.458 1.458 0 1 0-2.916 0m-4.667 0a1.458 1.458 0 1 0 2.916 0 1.458 1.458 0 1 0-2.916 0M.875 9.333a1.458 1.458 0 1 0 2.916 0 1.458 1.458 0 1 0-2.916 0m9.334 0a1.458 1.458 0 1 0 2.916 0 1.458 1.458 0 1 0-2.916 0m-4.667 0a1.458 1.458 0 1 0 2.916 0 1.458 1.458 0 1 0-2.916 0" stroke="currentColor" stroke-linecap="round" stroke-linejoin="round"/>
</svg>
