<svg focusable="false" xmlns="http://www.w3.org/2000/svg" fill="none" role="img" aria-label="Icon" viewBox="0 0 14 14">
  <g stroke="currentColor" stroke-linecap="round" stroke-linejoin="round">
    <path d="M4.154 2.375H2.327a.913.913 0 0 0-.914.913v7.472L.5 13.5l3.654-.913H12.5a.913.913 0 0 0 .913-.914V3.288a.914.914 0 0 0-.913-.913H7.375"/>
    <path d="M8.5.75 7 2.25l1.5 1.5m-4.281 4a.375.375 0 1 1 0-.75m0 .75a.375.375 0 1 0 0-.75m3.219.75a.375.375 0 1 1 0-.75m0 .75a.375.375 0 1 0 0-.75m3.218.75a.375.375 0 1 1 0-.75m0 .75a.375.375 0 1 0 0-.75"/>
  </g>
</svg>
