<svg focusable="false" xmlns="http://www.w3.org/2000/svg" fill="none" role="img" aria-label="Icon" viewBox="0 0 14 14">
  <g stroke="currentColor" stroke-linecap="round" stroke-linejoin="round">
    <path d="M6.87 9.5a4.5 4.5 0 1 0 0-9 4.5 4.5 0 0 0 0 9"/>
    <path d="M6.87 7a2 2 0 1 0 0-4 2 2 0 0 0 0 4M6 9.42l-.88 3.7a.51.51 0 0 1-.26.33.54.54 0 0 1-.43 0L1.11 12a.51.51 0 0 1-.18-.78L3.5 8M8 9.37l.9 3.75a.5.5 0 0 0 .27.33.51.51 0 0 0 .42 0l3.3-1.45a.5.5 0 0 0 .28-.35.48.48 0 0 0-.1-.43l-2.68-3.41"/>
  </g>
</svg>
