<svg focusable="false" xmlns="http://www.w3.org/2000/svg" fill="none" role="img" aria-label="Icon" viewBox="0 0 14 14">
  <g stroke="currentColor" stroke-linecap="round" stroke-linejoin="round">
    <path d="M3.763 13.5c-1.883-.75-2.071-2.435-1.916-3.833.107-.97.911-1.584 1.865-1.584.895 0 2.708.004 2.708.004.684.053 1.18.677 1.115 1.35-.1 1.035-1.324 1.147-2.147 1.355.631.291 1.87 1.095 1.776 1.98"/>
    <path d="m10.263 13.5.453-.453a4 4 0 0 0 1.172-2.829V4.021c0-.748-.606-1.354-1.354-1.354v0c-.748 0-1.355.606-1.355 1.354V7c-1.615-.726-2.014-.798-3.791-.542V1.854C5.388 1.106 4.782.5 4.034.5v0c-.748 0-1.354.606-1.354 1.354v6.478"/>
  </g>
</svg>
