<svg focusable="false" xmlns="http://www.w3.org/2000/svg" fill="none" role="img" aria-label="Icon" viewBox="0 0 14 14">
  <g stroke="currentColor" stroke-linecap="round" stroke-linejoin="round">
    <path d="M9.159 7.623v-3.75h2.225c.802 0 1.452-.65 1.452-1.452v0c0-.802-.65-1.452-1.452-1.452H2.418C1.47.969.702 1.737.702 2.684v7.847a1 1 0 0 0 1 1H2.5m10.798-3.912H9.16"/>
    <path d="m11.616 3.86 1.681 3.464v3.207a1 1 0 0 1-1 1h-.669m-9.126 0a1.5 1.5 0 1 0 3 0 1.5 1.5 0 1 0-3 0m6.114 0a1.5 1.5 0 1 0 3 0 1.5 1.5 0 1 0-3 0m-.063 0H5.557"/>
  </g>
</svg>
