<svg focusable="false" xmlns="http://www.w3.org/2000/svg" fill="none" role="img" aria-label="Icon" viewBox="0 0 14 14">
  <g stroke="currentColor" stroke-linejoin="round">
    <path d="M7.633 7.337a2.65 2.65 0 1 1 5.026 0"/>
    <path d="M8.867 4.172c-.193-1.017-1.104-1.82-2.177-1.82-.29 0-.568.055-.821.158a2.199 2.199 0 1 0-4.04 1.627 2.196 2.196 0 0 0-.291 2.954l.206.244M7 13.156c-2.287 0-6.45-1.42-6.45-5.82h12.9c0 4.4-4.163 5.82-6.45 5.82Z"/>
    <path d="M4.115 3.642c1.113 1.236 1.531 2.5 1.718 3.695" stroke-linecap="round"/>
  </g>
</svg>
