<svg focusable="false" xmlns="http://www.w3.org/2000/svg" fill="none" role="img" aria-label="Icon" viewBox="0 0 14 14">
  <path d="M8.702 5.138a1.333 1.333 0 0 0-1.258-.889H6.412a1.19 1.19 0 0 0-.254 2.353l1.571.344a1.334 1.334 0 0 1-.285 2.637h-.888a1.334 1.334 0 0 1-1.258-.89M7 4.25V2.915m0 8.001V9.582M5.069.656H1.165a.488.488 0 0 0-.488.488v3.904m12.687 0V1.144a.488.488 0 0 0-.488-.488H8.972m0 12.688h3.904a.488.488 0 0 0 .488-.488V8.952m-12.687 0v3.904a.488.488 0 0 0 .488.488h3.904" stroke="currentColor" stroke-linecap="round" stroke-linejoin="round"/>
</svg>
