<svg focusable="false" xmlns="http://www.w3.org/2000/svg" fill="none" role="img" aria-label="Icon" viewBox="0 0 14 14">
  <g stroke="currentColor" stroke-linecap="round" stroke-linejoin="round">
    <path d="M11.625 11.492h.802a1 1 0 0 0 1-1V7.957a1 1 0 0 0-1-1h-.552V3.375a1 1 0 0 0-1-1h-9.19a1 1 0 0 0-1 1v7.26c0 .473.384.857.857.857H2m9.875-7.283H.685m11.19 2.748H.685m3.779-2.748v2.744m3.567-2.744v2.744"/>
    <path d="M1.994 11.478a1.396 1.396 0 1 0 2.792 0 1.396 1.396 0 1 0-2.792 0m6.84 0a1.396 1.396 0 1 0 2.792 0 1.396 1.396 0 1 0-2.792 0m-4.048 0h4.049"/>
  </g>
</svg>
