<svg focusable="false" xmlns="http://www.w3.org/2000/svg" fill="none" role="img" aria-label="Icon" viewBox="0 0 14 14">
  <g stroke="currentColor" stroke-linecap="round" stroke-linejoin="round">
    <path d="M6.855.62c-4.257 0-3.961 1.476-3.961 1.476v4.817h-.152a1 1 0 0 0-1 1v4.019h10.516V7.913a1 1 0 0 0-1-1h-.147V2.096S11.11.62 6.855.62"/>
    <path d="M2.895 2.828h8.219v4.086H2.895zM.803 11.932h12.394m-9.982.002v1.316m7.691-1.316v1.316M8.35 9.3H5.694M1.172 4.863V3.685c0-.474.384-.858.858-.858h.865m9.941 2.036V3.685a.858.858 0 0 0-.858-.858h-.864M3.552 9.55a.25.25 0 0 1 0-.5m0 .5a.25.25 0 0 0 0-.5m6.94.5a.25.25 0 0 1 0-.5m0 .5a.25.25 0 1 0 0-.5"/>
  </g>
</svg>
