<svg focusable="false" xmlns="http://www.w3.org/2000/svg" fill="none" role="img" aria-label="Icon" viewBox="0 0 14 14">
  <g stroke="currentColor" stroke-linecap="round" stroke-linejoin="round">
    <path d="M4 8.282H1.349A.849.849 0 0 0 .5 9.13v3.45c0 .469.38.849.849.849H4m6-5.147h2.65c.47 0 .85.38.85.849v3.45a.85.85 0 0 1-.85.849H10M4 7.39a3 3 0 0 1 3-3v0a3 3 0 0 1 3 3v6.04H4zm3-3V.57m0 0h3V2.5H7z"/>
    <path d="M7.001 8.911a1.226 1.226 0 1 0 0-2.451 1.226 1.226 0 0 0 0 2.451M7 11.706l.008 1.724"/>
  </g>
</svg>
