<svg focusable="false" xmlns="http://www.w3.org/2000/svg" fill="none" role="img" aria-label="Icon" viewBox="0 0 14 14">
  <path d="M13.363 10.39a2.431 2.431 0 0 0-1.734-.73 2.43 2.43 0 0 0-1.734.73 2.51 2.51 0 0 0-.698 1.445h-4.27a2.512 2.512 0 0 0-.698-1.445c-.46-.468-1.083-.73-1.734-.73s-1.274.262-1.734.73m5.4-.265h2.022M1.65 12.173a.93.93 0 1 0 1.861 0 .93.93 0 0 0-1.86 0m9.101 0a.93.93 0 1 0 1.86 0 .93.93 0 0 0-1.86 0m-1.777-9.95h3.553M11.462 9.66l-.71-7.437" stroke="currentColor" stroke-linecap="round" stroke-linejoin="round"/>
</svg>
