<svg focusable="false" xmlns="http://www.w3.org/2000/svg" fill="none" role="img" aria-label="Icon" viewBox="0 0 14 14">
  <path d="M11.427 1.083a.64.64 0 0 0-.512-.095V3.25a1 1 0 0 1-1 1H9.37a1 1 0 0 1-1-1V1.06a.64.64 0 0 0-.541.029 3.197 3.197 0 0 0 .66 5.655v5.248a1.171 1.171 0 0 0 2.343.006l.028-5.3a3.206 3.206 0 0 0 .568-5.615M1.427 7.646h3a.49.49 0 0 1 .49.49v2.92a2 2 0 1 1-4 0v-2.92a.49.49 0 0 1 .51-.49m1.49-.039V4.398m.488-.007h-.976l-.976-.976.488-2.44h1.952l.488 2.44z" stroke="currentColor" stroke-linecap="round" stroke-linejoin="round"/>
</svg>
