<svg focusable="false" xmlns="http://www.w3.org/2000/svg" fill="none" role="img" aria-label="Icon" viewBox="0 0 14 14">
  <g stroke="currentColor" stroke-linecap="round" stroke-linejoin="round">
    <path d="m9.61 7.845.216-.558a.503.503 0 0 1 .468-.322h.412a.503.503 0 0 1 .468.322l.216.558.734.422.593-.09a.503.503 0 0 1 .503.246l.2.352a.503.503 0 0 1-.04.568l-.367.467v.845l.377.467a.502.502 0 0 1 .04.568l-.2.352a.503.503 0 0 1-.503.246l-.593-.09-.734.422-.216.558a.503.503 0 0 1-.468.322h-.422a.503.503 0 0 1-.468-.322l-.216-.558-.734-.422-.593.09a.503.503 0 0 1-.503-.246l-.2-.352a.503.503 0 0 1 .04-.568l.367-.467V9.81l-.377-.467a.503.503 0 0 1-.04-.568l.2-.352a.503.503 0 0 1 .503-.247l.593.09z"/>
    <path d="M10 10.232a.5.5 0 1 0 1 0 .5.5 0 1 0-1 0M4.746 2.905v1.496m2.206-1.496v1.496m2.563.099V2.214C9.515 1.268 8.747.5 7.8.5H4.06a1 1 0 0 0-.704.29L.96 3.164a1 1 0 0 0-.296.71v5.912c0 .947.768 1.714 1.714 1.714H5.5"/>
  </g>
</svg>
