<svg focusable="false" xmlns="http://www.w3.org/2000/svg" fill="none" role="img" aria-label="Icon" viewBox="0 0 14 14">
  <g stroke="currentColor" stroke-linecap="round" stroke-linejoin="round">
    <path d="M6 11.5a5.5 5.5 0 1 0 0-11 5.5 5.5 0 0 0 0 11m7.5 2L10 10"/>
    <path d="m5.278 2.845-.231.597-.797.453-.635-.097a.538.538 0 0 0-.539.264l-.215.376a.538.538 0 0 0 .043.609l.404.5v.905l-.393.501a.538.538 0 0 0-.044.609l.216.376a.538.538 0 0 0 .538.264l.636-.097.786.453.231.597a.538.538 0 0 0 .501.345h.452a.538.538 0 0 0 .501-.345l.232-.597.786-.453.635.097a.538.538 0 0 0 .539-.264l.215-.376a.538.538 0 0 0-.043-.609l-.404-.5v-.905l.393-.501a.538.538 0 0 0 .043-.609l-.215-.376a.538.538 0 0 0-.539-.264l-.635.097-.786-.453-.232-.597a.538.538 0 0 0-.5-.345h-.442a.538.538 0 0 0-.5.345"/>
    <path d="M5.5 6a.5.5 0 1 0 1 0 .5.5 0 1 0-1 0"/>
  </g>
</svg>
