<svg focusable="false" xmlns="http://www.w3.org/2000/svg" fill="none" role="img" aria-label="Icon" viewBox="0 0 14 14">
  <g stroke="currentColor" stroke-linecap="round" stroke-linejoin="round">
    <path d="M13.283 8.92a1 1 0 0 0-.943-.667h-.774a.893.893 0 0 0-.191 1.765l1.178.258a1 1 0 0 1-.213 1.977h-.667a1 1 0 0 1-.943-.666m1.276-3.334v-1m0 6v-1m-.899-7.143a5.47 5.47 0 0 0-8.734-1.366A5.471 5.471 0 0 0 .771 7.613h8.125M6.242 2.141V.5"/>
    <path d="M2.959 11.859a1.641 1.641 0 0 0 3.283 0V7.61"/>
  </g>
</svg>
