<svg focusable="false" xmlns="http://www.w3.org/2000/svg" fill="none" role="img" aria-label="Icon" viewBox="0 0 14 14">
  <g stroke="currentColor" stroke-linecap="round" stroke-linejoin="round">
    <path d="M8.702 4.51a1.333 1.333 0 0 0-1.258-.889H6.412a1.19 1.19 0 0 0-.254 2.353l1.571.344a1.334 1.334 0 0 1-.285 2.636h-.888c-.581 0-1.075-.37-1.258-.888M7 3.62V2.289m0 7.998V8.954"/>
    <path d="M7.36 13.396a1 1 0 0 1-.72 0v0A9.59 9.59 0 0 1 .5 4.456v-2.92a1 1 0 0 1 1-1h11a1 1 0 0 1 1 1v2.92a9.59 9.59 0 0 1-6.14 8.94"/>
  </g>
</svg>
