<svg focusable="false" xmlns="http://www.w3.org/2000/svg" fill="none" role="img" aria-label="Icon" viewBox="0 0 14 14">
  <path d="M3.221 7.632s1.296.412.884 1.708l-.83 2.613s-.412 1.297-1.708.885h-.001S.27 12.426.682 11.129l.83-2.613s.412-1.296 1.708-.884m6.667 2.09H4.112m6.5 1.938H3.424m7.356-4.028h-.002s-1.296.413-.884 1.709l.83 2.613s.412 1.296 1.708.884h.001s1.296-.412.885-1.708l-.83-2.613s-.413-1.296-1.709-.885m-3.777 2.09V.75M3.765 1.865C4.32 1.208 5.56.751 7 .751s2.679.457 3.234 1.114" stroke="currentColor" stroke-linecap="round" stroke-linejoin="round"/>
</svg>
