<svg focusable="false" xmlns="http://www.w3.org/2000/svg" fill="none" role="img" aria-label="Icon" viewBox="0 0 14 14">
  <path d="M2.73 1.616h3.307m2.238 0h2.988m1.121 1.116V5.88m0 2.237v3.151m-1.121 1.116H8.275m-2.238 0H2.73m-1.114-1.116v-3.15m0-2.238V2.732M.5.5h2.232v2.232H.5zm0 5.384h2.232v2.232H.5zm10.768 0H13.5v2.232h-2.232zM.5 11.268h2.232V13.5H.5zM6.037.5h2.232v2.232H6.037zm0 10.768h2.232V13.5H6.037zM11.268.5H13.5v2.232h-2.232zm0 10.768H13.5V13.5h-2.232z" stroke="currentColor" stroke-linecap="round" stroke-linejoin="round"/>
</svg>
