<svg focusable="false" xmlns="http://www.w3.org/2000/svg" fill="none" role="img" aria-label="Icon" viewBox="0 0 14 14">
  <path d="M3.5 12a1.5 1.5 0 0 1-3 0C.5 10.5 2 9 2 9s1.5 1.5 1.5 3m8.832-7.655A1.5 1.5 0 0 1 9.513 3.32c.513-1.41 2.436-2.306 2.436-2.306s.896 1.923.383 3.332M8.621 8.065A1.5 1.5 0 1 1 6.056 9.62c-.778-1.282-.274-3.343-.274-3.343s2.06.504 2.839 1.787m4.385 4.753a1.5 1.5 0 0 1-2.517-1.634c.817-1.258 2.892-1.7 2.892-1.7s.441 2.075-.375 3.333M3.932 4.568a1.5 1.5 0 1 1-1.863-2.352c1.175-.931 3.283-.687 3.283-.687s-.245 2.107-1.42 3.039" stroke="currentColor" stroke-linecap="round" stroke-linejoin="round"/>
</svg>
