<svg focusable="false" xmlns="http://www.w3.org/2000/svg" fill="none" role="img" aria-label="Icon" viewBox="0 0 14 14">
  <path d="M.504 13.341a2.349 2.349 0 0 0 1.5-1.349 2.488 2.488 0 0 0 2.498 1.499A2.488 2.488 0 0 0 7 11.992a2.488 2.488 0 0 0 2.498 1.499 2.488 2.488 0 0 0 2.499-1.499 2.35 2.35 0 0 0 1.499 1.35M.504 9.344a2.348 2.348 0 0 0 1.5-1.35 2.488 2.488 0 0 0 2.498 1.5A2.488 2.488 0 0 0 7 7.994a2.488 2.488 0 0 0 2.498 1.5 2.488 2.488 0 0 0 2.499-1.5 2.35 2.35 0 0 0 1.499 1.35M9.498 6.496V.5s-4.996 1-4.996 5.996" stroke="currentColor" stroke-linecap="round" stroke-linejoin="round"/>
</svg>
