<svg focusable="false" xmlns="http://www.w3.org/2000/svg" fill="none" role="img" aria-label="Icon" viewBox="0 0 14 14">
  <g stroke="currentColor" stroke-linecap="round" stroke-linejoin="round">
    <path d="M.875 7a6.125 6.125 0 1 0 12.25 0A6.125 6.125 0 1 0 .875 7"/>
    <path d="M5.832 7a1.27 1.27 0 1 1-2.538 0 1.27 1.27 0 0 1 2.538 0M9.64 4.716a1.27 1.27 0 1 1-2.538 0 1.27 1.27 0 0 1 2.538 0m0 4.569a1.27 1.27 0 1 1-2.539 0 1.27 1.27 0 0 1 2.539 0m-2.358-.654-1.63-.978m1.63-2.284-1.63.978"/>
  </g>
</svg>
