<svg focusable="false" xmlns="http://www.w3.org/2000/svg" fill="none" role="img" aria-label="Icon" viewBox="0 0 14 14">
  <g stroke="currentColor" stroke-linecap="round" stroke-linejoin="round">
    <path d="M2.833 3.708a1.167 1.167 0 1 1-2.333 0 1.167 1.167 0 0 1 2.333 0m4.333-2.041a1.167 1.167 0 1 1-2.333 0 1.167 1.167 0 0 1 2.333 0m0 4.083a1.167 1.167 0 1 0-2.333 0 1.167 1.167 0 0 0 2.333 0M4.992 2.254l-2.326.866m2.326 2.042-2.326-.866M7.5 13.5a2 2 0 1 0 0-4 2 2 0 0 0 0 4"/>
    <path d="M9.5 11.5v-9 0a4 4 0 0 1 4 4v0"/>
  </g>
</svg>
