<svg focusable="false" xmlns="http://www.w3.org/2000/svg" fill="none" role="img" aria-label="Icon" viewBox="0 0 14 14">
  <g stroke="currentColor" stroke-linecap="round" stroke-linejoin="round">
    <path d="m.646 10.875 2.443 2.036a2 2 0 0 0 1.28.464h6.443c.46 0 .834-.373.834-.833 0-.92-.747-1.667-1.667-1.667h-4.48"/>
    <path d="m3.646 9.875.75.75a1.06 1.06 0 0 0 1.5-1.5L4.73 7.961a2 2 0 0 0-1.414-.586H.646m5.77-3.042a3.5 3.5 0 1 0 7 0 3.5 3.5 0 1 0-7 0"/>
    <path d="M11.033 3.167a.875.875 0 0 0-.825-.584h-.677a.781.781 0 0 0-.167 1.544l1.031.226a.875.875 0 0 1-.187 1.73h-.583A.875.875 0 0 1 8.8 5.5"/>
  </g>
</svg>
