<svg focusable="false" xmlns="http://www.w3.org/2000/svg" fill="none" role="img" aria-label="Icon" viewBox="0 0 14 14">
  <g stroke="currentColor" stroke-linecap="round" stroke-linejoin="round">
    <path d="m.5 11 2.444 2.036a2 2 0 0 0 1.28.464h6.443c.46 0 .833-.373.833-.833 0-.92-.746-1.667-1.667-1.667H5.354"/>
    <path d="m3.5 10 .75.75a1.06 1.06 0 0 0 1.5-1.5L4.586 8.086A2 2 0 0 0 3.172 7.5H.5M7 2.25 10.25.5l3.25 1.75v3.5L10.25 7.5 7 5.75z"/>
    <path d="M9.75 4a.5.5 0 1 0 1 0 .5.5 0 1 0-1 0"/>
  </g>
</svg>
