<svg focusable="false" xmlns="http://www.w3.org/2000/svg" fill="none" role="img" aria-label="Icon" viewBox="0 0 14 14">
  <path d="M9.497 11.5v1a1 1 0 0 1-1 1h-3a1 1 0 0 1-1-1v-1m.278-7.649a2.5 2.5 0 0 0-3.572 3.147c-.125.16-.24.318-.345.47-.572.829-.202 1.898.678 2.388l2.96 1.644h5.047l2.924-1.642c.875-.49 1.242-1.557.672-2.383a9.947 9.947 0 0 0-.35-.477 2.5 2.5 0 0 0-3.572-3.147 2.5 2.5 0 0 0-4.442 0M8.497 7l.724-3.154m3.625 3.014L9.996 9M5.497 7l-.725-3.154M1.147 6.86 3.997 9" stroke="currentColor" stroke-linecap="round" stroke-linejoin="round"/>
</svg>
