<svg focusable="false" xmlns="http://www.w3.org/2000/svg" fill="none" role="img" aria-label="Icon" viewBox="0 0 14 14">
  <g stroke="currentColor" stroke-linecap="round" stroke-linejoin="round">
    <path d="M5.906.5v3.327M11.313 7V3.827H.5v6.654a.832.832 0 0 0 .832.832H6"/>
    <path d="m.5 3.827 1.248-2.404A1.663 1.663 0 0 1 3.195.5h5.423a1.663 1.663 0 0 1 1.489.923l1.206 2.404M8 10h3.75c.967 0 1.75.784 1.75 1.75v0a1.75 1.75 0 0 1-1.75 1.75H8.5"/>
    <path d="M9.5 11.5 8 10l1.5-1.5"/>
  </g>
</svg>
