<svg focusable="false" xmlns="http://www.w3.org/2000/svg" fill="none" role="img" aria-label="Icon" viewBox="0 0 14 14">
  <g stroke="currentColor" stroke-linecap="round" stroke-linejoin="round">
    <path d="M13.45 13.45h-.496a1.985 1.985 0 0 1-1.985-1.985 1.985 1.985 0 0 1-3.969 0 1.985 1.985 0 0 1-3.97 0 1.985 1.985 0 0 1-1.984 1.985H.55m12.642-3.81.248-1.489a.992.992 0 0 0-.567-1.06.993.993 0 0 0-.415-.091H1.542a.992.992 0 0 0-.957.724.992.992 0 0 0-.025.427L.808 9.64"/>
    <path d="M4.023 3.527h5.954a.992.992 0 0 1 .992.992V7H3.031V4.52a.992.992 0 0 1 .992-.993"/>
    <path d="M7.992 3.527 8.985.55H6.504l-.992 2.977"/>
  </g>
</svg>
