<svg focusable="false" xmlns="http://www.w3.org/2000/svg" fill="none" role="img" aria-label="Icon" viewBox="0 0 14 14">
  <g stroke="currentColor" stroke-linecap="round" stroke-linejoin="round">
    <path d="M10.946 13.5a.5.5 0 1 1 0-1 .5.5 0 0 1 0 1m-6.5 0a.5.5 0 1 1 0-1 .5.5 0 0 1 0 1M.5.5H3L3.263 3m0 0 .643 6.105A1 1 0 0 0 4.9 10h6.32a1 1 0 0 0 .97-.757l1.25-5A1 1 0 0 0 12.47 3zm3.154 5.059L9.7 4.775"/>
    <path d="M6.814 5.252a.25.25 0 0 1 0-.5m0 .5a.25.25 0 0 0 0-.5m2.659 3.329a.25.25 0 0 1 0-.5m0 .5a.25.25 0 1 0 0-.5"/>
  </g>
</svg>
