<svg focusable="false" xmlns="http://www.w3.org/2000/svg" fill="none" role="img" aria-label="Icon" viewBox="0 0 14 14">
  <g stroke="currentColor" stroke-linecap="round" stroke-linejoin="round">
    <path d="M12.37 6H1.65a1 1 0 0 0-1 1.13l.73 5.5a1 1 0 0 0 1 .87h9.24a1 1 0 0 0 1-.87l.73-5.5A1.001 1.001 0 0 0 12.37 6"/>
    <path d="M9.49 1.54A2.79 2.79 0 0 1 11.79 4l.22 2m-10 0 .22-2a2.79 2.79 0 0 1 2.3-2.44"/>
    <path d="M9.51 1.75A1.25 1.25 0 0 1 8.26 3h-2.5a1.25 1.25 0 0 1 0-2.5h2.5a1.25 1.25 0 0 1 1.25 1.25m-4.072 9.506c.167-.22.726-.658 1.618-.658.891 0 1.39.439 1.527.658M5.188 8.863a.25.25 0 0 1 0-.5m0 .5a.25.25 0 0 0 0-.5m3.645.5a.25.25 0 0 1 0-.5m0 .5a.25.25 0 0 0 0-.5"/>
  </g>
</svg>
