<svg focusable="false" xmlns="http://www.w3.org/2000/svg" fill="none" role="img" aria-label="Icon" viewBox="0 0 14 14">
  <g stroke="currentColor" stroke-linecap="round" stroke-linejoin="round">
    <path d="M8.5 13.5a5 5 0 0 0 0-10H3v1a4 4 0 0 0 4 4h1.5a2 2 0 1 1 0 4"/>
    <path d="M8.5 3.5s1 .5 1 2.5-1 2.5-1 2.5m-2.667 5H8.5v-.75A1.75 1.75 0 0 0 6.75 11h-.083C5.747 11 5 11.746 5 12.667c0 .46.373.833.833.833M3 3.5H2A1.5 1.5 0 0 1 .5 2v0A1.5 1.5 0 0 1 2 .5h4.5M6.25 6a.25.25 0 0 1 0-.5m0 .5a.25.25 0 0 0 0-.5M10.5 10C12 9.5 13 8.5 13 6.5"/>
  </g>
</svg>
