<svg focusable="false" xmlns="http://www.w3.org/2000/svg" fill="none" role="img" aria-label="Icon" viewBox="0 0 14 14">
  <g stroke="currentColor" stroke-linecap="round" stroke-linejoin="round">
    <path d="M4.5 4a1.75 1.75 0 1 0 0-3.5 1.75 1.75 0 0 0 0 3.5m0 0c1.95 0 2.44 2.5 3.828 2.5H9.5a1 1 0 0 1 0 2H7.828a3 3 0 0 1-1.158-.233L5.393 13.5H2.5V6a2 2 0 0 1 2-2"/>
    <path d="M6.67 8.267c-.557-.233-.959-.642-1.377-1.06m2.867-.719.22-1.563a1 1 0 0 1 1.25-.83l.709.19a1 1 0 0 1 .667 1.343l-.596 1.467M10.5 4a1.25 1.25 0 1 0 0-2.5 1.25 1.25 0 0 0 0 2.5"/>
  </g>
</svg>
