<svg focusable="false" xmlns="http://www.w3.org/2000/svg" fill="none" role="img" aria-label="Icon" viewBox="0 0 14 14">
  <path d="M8.12 11.8h5.028M2.102 5.506C1.099 4.797.659 4.364.528 3.324.404 2.338.958 1.32 1.79.802 2.945.08 4.32.759 5.086 1.717c.833 1.038 1.552 4.039 1.607 5.326.063 1.46-.225 2.788-.964 4.058-.508.871-1.257 1.898-2.255 2.246-.904.315-1.886.198-2.068-.869-.223-1.307.391-2.58 1.063-3.66.89-1.432 2.016-2.618 3.573-3.312.819-.365 2.5-.935 3.495 0 .948.89.075 3.117.35 3.312.276.195 1.387-2.448 2.717-2.172.371.077.885.397.885.397" stroke="currentColor" stroke-linecap="round" stroke-linejoin="round"/>
</svg>
