<svg focusable="false" xmlns="http://www.w3.org/2000/svg" fill="none" role="img" aria-label="Icon" viewBox="0 0 14 14">
  <g stroke="currentColor" stroke-linecap="round" stroke-linejoin="round">
    <path d="M10.5 4a1.25 1.25 0 1 0 0-2.5 1.25 1.25 0 0 0 0 2.5M8.16 6.488l.22-1.563a1 1 0 0 1 1.25-.83l.709.19a1 1 0 0 1 .667 1.343l-.596 1.467M5 4A1.75 1.75 0 1 0 5 .5 1.75 1.75 0 0 0 5 4"/>
    <path d="M6.48 10.856 6.055 13.5H3.5v-2.644H1.926c-.229 0-.416-.194-.426-.438 0-.013 0-.026.002-.04C1.542 9.99 2.203 4 5 4c1.738 0 1.821 2.5 3.328 2.5H9.5a1 1 0 1 1 0 2H8.328a2.34 2.34 0 0 1-.145-.004c.216.971.302 1.75.315 1.882a.276.276 0 0 1 .002.04c-.01.244-.197.438-.426.438z"/>
    <path d="M8.183 8.496c-1.01-.049-1.713-.612-2.39-1.289"/>
  </g>
</svg>
