<svg focusable="false" xmlns="http://www.w3.org/2000/svg" fill="none" role="img" aria-label="Icon" viewBox="0 0 14 14">
  <path d="m.719 2.153 2.052-1.03a3.43 3.43 0 0 1 4.144.835l1.409 1.645a.983.983 0 1 1-1.505 1.264l-.562-.682a1.266 1.266 0 0 0-1.954 1.61l.593.719a.845.845 0 0 1-1.267 1.119L2.14 6.058l-1.216.926m12.363 4.851-2.071.99a3.43 3.43 0 0 1-4.128-.914l-1.377-1.672a.983.983 0 1 1 1.53-1.235l.548.693a1.266 1.266 0 0 0 1.984-1.573l-.578-.73A.845.845 0 0 1 10.483 6.3l1.458 1.603L13.176 7" stroke="currentColor" stroke-linecap="round" stroke-linejoin="round"/>
</svg>
