<svg focusable="false" xmlns="http://www.w3.org/2000/svg" fill="none" role="img" aria-label="Icon" viewBox="0 0 14 14">
  <g stroke="currentColor" stroke-linecap="round" stroke-linejoin="round">
    <path d="M.625 7a6.344 6.344 0 1 0 12.688 0A6.344 6.344 0 1 0 .625 7"/>
    <path d="M6.156 3.781a.5.5 0 0 0-.5.5v1.407H4.25a.5.5 0 0 0-.5.5v1.625a.5.5 0 0 0 .5.5h1.406v1.406a.5.5 0 0 0 .5.5h1.625a.5.5 0 0 0 .5-.5V8.313h1.406a.5.5 0 0 0 .5-.5V6.188a.5.5 0 0 0-.5-.5H8.282V4.28a.5.5 0 0 0-.5-.5z"/>
  </g>
</svg>
