<svg focusable="false" xmlns="http://www.w3.org/2000/svg" fill="none" role="img" aria-label="Icon" viewBox="0 0 14 14">
  <g stroke="currentColor" stroke-linecap="round" stroke-linejoin="round">
    <path d="M.688 1.594a1 1 0 0 1 1-1H12.28a1 1 0 0 1 1 1v10.594a1 1 0 0 1-1 1H1.688a1 1 0 0 1-1-1z"/>
    <path d="M6.188 3.563a.5.5 0 0 0-.5.5v1.406H4.28a.5.5 0 0 0-.5.5v1.625a.5.5 0 0 0 .5.5h1.407V9.5a.5.5 0 0 0 .5.5h1.625a.5.5 0 0 0 .5-.5V8.094h1.406a.5.5 0 0 0 .5-.5V5.969a.5.5 0 0 0-.5-.5H8.313V4.062a.5.5 0 0 0-.5-.5z"/>
  </g>
</svg>
