<svg focusable="false" xmlns="http://www.w3.org/2000/svg" fill="none" role="img" aria-label="Icon" viewBox="0 0 14 14">
  <g stroke="currentColor" stroke-linecap="round" stroke-linejoin="round">
    <path d="M12.884 6.511a5.885 5.885 0 1 0-9.316 4.776v1.108a.98.98 0 0 0 .98.98h4.904a.98.98 0 0 0 .98-.98v-1.108a5.884 5.884 0 0 0 2.452-4.776M6.02 11.415v1.96m1.96-1.96v1.96"/>
    <path d="M3.567 7.246a1.226 1.226 0 1 0 2.452 0 1.226 1.226 0 1 0-2.452 0m4.414 0a1.226 1.226 0 1 0 2.452 0 1.226 1.226 0 1 0-2.452 0"/>
  </g>
</svg>
