<svg focusable="false" xmlns="http://www.w3.org/2000/svg" fill="none" role="img" aria-label="Icon" viewBox="0 0 14 14">
  <g stroke="currentColor" stroke-linecap="round" stroke-linejoin="round">
    <path d="m12.861 8.639-.09-.07c.14-.508.215-1.032.22-1.559a5.996 5.996 0 0 0-5.996-5.996 6.095 6.095 0 0 0-1.549.21l-.07-.09a2.778 2.778 0 0 0-3.887.35 2.778 2.778 0 0 0-.35 3.887l.08.06A5.906 5.906 0 0 0 1 7.01a5.996 5.996 0 0 0 5.996 5.996 5.903 5.903 0 0 0 1.58-.22l.06.08a2.778 2.778 0 0 0 3.887-.35 2.778 2.778 0 0 0 .34-3.877"/>
    <path d="M4.846 5.118c.726-2.453 4.488-1.416 4.342-.138-.145 1.278-2.1.718-2.118.795-.017.077 3.016.302 2.379 2.944-.518 2.151-4.73 1.767-4.603.178.126-1.588 2.343-.626 2.374-.742.031-.116-3.022-.847-2.374-3.037"/>
  </g>
</svg>
