<svg focusable="false" xmlns="http://www.w3.org/2000/svg" fill="none" role="img" aria-label="Icon" viewBox="0 0 14 14">
  <g stroke="currentColor" stroke-linecap="round" stroke-linejoin="round">
    <path d="M4.75 6a.25.25 0 0 1 0-.5m0 .5a.25.25 0 0 0 0-.5m4.5.5a.25.25 0 0 1 0-.5m0 .5a.25.25 0 0 0 0-.5"/>
    <path d="M11 12.124a6.5 6.5 0 1 0-8 0"/>
    <path d="M4.22 9c.646 1.123 2.138 1.752 3.63 1.404A3.068 3.068 0 0 0 9.759 9"/>
    <path d="M5.5 10.158V11.5A1.5 1.5 0 0 0 7 13v0a1.5 1.5 0 0 0 1.5-1.5v-1.333"/>
  </g>
</svg>
