<svg focusable="false" xmlns="http://www.w3.org/2000/svg" fill="none" role="img" aria-label="Icon" viewBox="0 0 14 14">
  <g stroke="currentColor" stroke-linecap="round" stroke-linejoin="round">
    <path d="M7 10.5c.828 0 1.5-.783 1.5-1.75S7.828 7 7 7s-1.5.784-1.5 1.75.672 1.75 1.5 1.75"/>
    <path d="M7 13.5a6.5 6.5 0 1 0 0-13 6.5 6.5 0 0 0 0 13"/>
    <path d="M3.735 5.591c-.005-.438.294-.91.707-1.172.414-.262.969-.33 1.363-.138m4.46 1.31c.005-.438-.294-.91-.707-1.172-.414-.262-.969-.33-1.363-.138"/>
  </g>
</svg>
