<svg focusable="false" xmlns="http://www.w3.org/2000/svg" fill="none" role="img" aria-label="Icon" viewBox="0 0 14 14">
  <g stroke="currentColor" stroke-linecap="round" stroke-linejoin="round">
    <path d="M7 13.5a6.5 6.5 0 1 0 0-13 6.5 6.5 0 0 0 0 13"/>
    <path d="M3.797 5.377c.092-.18.38-.497.713-.69s.753-.282.954-.273m3.072-.001c.201-.01.62.08.954.273.333.192.621.51.713.69M.5 7c.667.5 3 1.5 6.5 1.5s5.833-1 6.5-1.5"/>
    <path d="M7 13.5a6.472 6.472 0 0 0 3-.732V8.239c-.868.157-1.874.261-3 .261s-2.132-.104-3-.26v4.528a6.472 6.472 0 0 0 3 .732"/>
  </g>
</svg>
