<svg focusable="false" xmlns="http://www.w3.org/2000/svg" fill="none" role="img" aria-label="Icon" viewBox="0 0 14 14">
  <g stroke="currentColor" stroke-linecap="round" stroke-linejoin="round">
    <path d="M7 13.5a6.5 6.5 0 1 0 0-13 6.5 6.5 0 0 0 0 13"/>
    <path d="M5.677 3.937h-.702a.702.702 0 0 0-.702.702v0c0 .388.314.702.702.702v0c.388 0 .702.315.702.703v0a.702.702 0 0 1-.702.702h-.702m.701-2.809v-.702m0 4.214v-.702m4.756-2.81h-.703a.702.702 0 0 0-.702.702v0c0 .388.314.702.702.702v0c.388 0 .703.315.703.703v0a.702.702 0 0 1-.703.702h-.702m.702-2.809v-.702m0 4.214v-.702M4.22 9.5c.646 1.123 2.138 1.752 3.63 1.404A3.067 3.067 0 0 0 9.759 9.5"/>
  </g>
</svg>
