<svg focusable="false" xmlns="http://www.w3.org/2000/svg" fill="none" role="img" aria-label="Icon" viewBox="0 0 14 14">
  <g stroke="currentColor" stroke-linecap="round" stroke-linejoin="round">
    <path d="M9.5 9.95v1.8a1.25 1.25 0 1 1-2.5 0V11c.481-.481 1.538-1.05 2.5-1.05"/>
    <path d="M3.5 7.5A3.5 3.5 0 0 0 7 11v.75a1.25 1.25 0 1 0 2.5 0v-1.8c.619-.632 1-1.496 1-2.45z"/>
    <path d="M12.124 11A6.5 6.5 0 1 0 5 13.186"/>
    <path d="M3.797 5.377c.092-.18.38-.497.713-.69s.753-.282.954-.273m3.072-.001c.201-.01.62.08.954.273.333.192.621.51.713.69"/>
  </g>
</svg>
