<svg focusable="false" xmlns="http://www.w3.org/2000/svg" fill="none" role="img" aria-label="Icon" viewBox="0 0 14 14">
  <g stroke="currentColor" stroke-linecap="round" stroke-linejoin="round">
    <path d="M7 8.5v2m-6 3c.245-.388.661-1.473.367-2.714-.294-1.241-.122-1.81 0-1.94.245-.387.955-.775 1.836.776s.857 3.232.735 3.878m9.062 0c-.245-.388-.661-1.473-.367-2.714.294-1.241.122-1.81 0-1.94-.245-.387-.955-.775-1.836.776-.882 1.551-.857 3.232-.735 3.878M2 4.5a2 2.5 0 1 0 4 0 2 2.5 0 1 0-4 0m6 0a2 2.5 0 1 0 4 0 2 2.5 0 1 0-4 0"/>
    <path d="M1.762 8.53C1.272 7.865 1 7.204 1 6 1 2.253 3.693.5 7 .5s6 1.753 6 5.5c0 1.205-.272 1.866-.762 2.53m-8.437 2.596C4.461 12.096 5.208 13 7 13s2.539-.905 3.199-1.874"/>
  </g>
</svg>
