<svg focusable="false" xmlns="http://www.w3.org/2000/svg" fill="none" role="img" aria-label="Icon" viewBox="0 0 14 14">
  <g stroke="currentColor" stroke-linecap="round" stroke-linejoin="round">
    <path d="M4.75 5.5a.25.25 0 0 1 0-.5m0 .5a.25.25 0 0 0 0-.5m4.5.5a.25.25 0 0 1 0-.5m0 .5a.25.25 0 0 0 0-.5"/>
    <path d="M13 4.496A6.502 6.502 0 0 0 .5 7a6.5 6.5 0 0 0 11 4.69"/>
    <path d="M12.4 9.371a1.1 1.1 0 0 0 1.1-1.1c0-.607-1.1-2.006-1.1-2.006s-1.1 1.4-1.1 2.007a1.1 1.1 0 0 0 1.1 1.1M4 10c.448-1.428 2.15-2.3 3.85-1.904A3.07 3.07 0 0 1 10 10"/>
  </g>
</svg>
