<svg focusable="false" xmlns="http://www.w3.org/2000/svg" fill="none" role="img" aria-label="Icon" viewBox="0 0 14 14">
  <g stroke="currentColor" stroke-linecap="round" stroke-linejoin="round">
    <path d="M4.75 5a.25.25 0 0 1 0-.5m0 .5a.25.25 0 0 0 0-.5m4.5.5a.25.25 0 0 1 0-.5m0 .5a.25.25 0 0 0 0-.5"/>
    <path d="M10 1.232a6.5 6.5 0 1 0 3.467 5.107"/>
    <path d="M12.4 4.607a1.1 1.1 0 0 0 1.1-1.1c0-.607-1.1-2.007-1.1-2.007s-1.1 1.4-1.1 2.007a1.1 1.1 0 0 0 1.1 1.1M7 7a3 3 0 0 1 3 3H4a3 3 0 0 1 3-3"/>
  </g>
</svg>
