<svg focusable="false" xmlns="http://www.w3.org/2000/svg" fill="none" role="img" aria-label="Icon" viewBox="0 0 14 14">
  <g stroke="currentColor" stroke-linecap="round" stroke-linejoin="round">
    <path d="M4.75 5.5a.25.25 0 0 1 0-.5m0 .5a.25.25 0 0 0 0-.5m4.5.5a.25.25 0 0 1 0-.5m0 .5a.25.25 0 0 0 0-.5m2.721-.508a1.1 1.1 0 0 0 1.1-1.1c0-.608-1.1-2.007-1.1-2.007s-1.1 1.4-1.1 2.007a1.1 1.1 0 0 0 1.1 1.1M4 9.5c.448-1.428 2.15-2.3 3.85-1.904A3.07 3.07 0 0 1 10 9.5"/>
    <path d="M13.5 7a6.5 6.5 0 1 1-4-6.002"/>
  </g>
</svg>
