<svg focusable="false" xmlns="http://www.w3.org/2000/svg" fill="none" role="img" aria-label="Icon" viewBox="0 0 14 14">
  <g stroke="currentColor" stroke-linecap="round" stroke-linejoin="round">
    <path d="M13.5 7a6.5 6.5 0 1 1-13 0m5-6.326a6.518 6.518 0 0 1 3 0M3.544 3.085c-.992-1.217-2.04-.352-2.053.58 0 1.389 1.66 2.528 2.053 2.528s2.054-1.14 2.054-2.528c-.014-.932-1.062-1.797-2.054-.58m6.911 0c.992-1.217 2.04-.352 2.054.58 0 1.389-1.661 2.528-2.054 2.528-.393 0-2.053-1.14-2.053-2.528.013-.932 1.06-1.797 2.053-.58"/>
    <path d="M3.7 8c.5 1.8 2.5 2.9 4.3 2.4 1.1-.4 2-1.3 2.3-2.4"/>
  </g>
</svg>
