<svg focusable="false" xmlns="http://www.w3.org/2000/svg" fill="none" role="img" aria-label="Icon" viewBox="0 0 14 14">
  <g stroke="currentColor" stroke-linecap="round" stroke-linejoin="round">
    <path d="M3.966 4.725c.156-.255.5-.417.834-.417.334 0 .678.162.834.417m2.732 0c.156-.255.5-.417.834-.417.334 0 .678.162.834.417"/>
    <path d="M1.018 4.452a6.502 6.502 0 0 1 11.964 0M1.368 10.247A6.497 6.497 0 0 0 7 13.5a6.497 6.497 0 0 0 5.632-3.253m.485-1.976a.966.966 0 0 0 .166-1.356c-.328-.42-1.846-.795-1.846-.795s-.005 1.564.324 1.984a.966.966 0 0 0 1.356.167m-12.234 0a.966.966 0 0 1-.166-1.356c.328-.42 1.846-.795 1.846-.795s.005 1.564-.324 1.984a.966.966 0 0 1-1.356.167"/>
    <path d="M7 11a3 3 0 0 0 3-3H4a3 3 0 0 0 3 3"/>
  </g>
</svg>
