<svg focusable="false" xmlns="http://www.w3.org/2000/svg" fill="none" role="img" aria-label="Icon" viewBox="0 0 14 14">
  <g stroke="currentColor" stroke-linecap="round" stroke-linejoin="round">
    <path d="M1.232 10a6.5 6.5 0 1 1 11.536 0"/>
    <path d="M3.949 10.193C3.724 7.897 5.972 7.5 7 7.5s3.276.397 3.051 2.693a.4.4 0 0 1-.405.352h-.741C8.91 11.933 11 11.645 11 12.458c0 0-.172 1.043-4 1.043s-4-1.043-4-1.043c0-.811 2.09-.525 2.095-1.912h-.74a.4.4 0 0 1-.406-.352M9.5 4l-1 1.5h2M4.5 4l1 1.5h-2"/>
  </g>
</svg>
