<svg focusable="false" xmlns="http://www.w3.org/2000/svg" fill="none" role="img" aria-label="Icon" viewBox="0 0 14 14">
  <path d="M10.5 8a2.5 2.5 0 0 0 0-5 2.54 2.54 0 0 0-1.57.55A3.75 3.75 0 1 0 5.25 8zm-9.25 5.5a.25.25 0 0 1 0-.5m0 .5a.25.25 0 0 0 0-.5m3.75.5a.25.25 0 0 1 0-.5m0 .5a.25.25 0 0 0 0-.5m4 .5a.25.25 0 0 1 0-.5m0 .5a.25.25 0 0 0 0-.5m3.75.5a.25.25 0 0 1 0-.5m0 .5a.25.25 0 0 0 0-.5m-9.5-2a.25.25 0 0 1 0-.5m0 .5a.25.25 0 0 0 0-.5m4 .5a.25.25 0 0 1 0-.5m0 .5a.25.25 0 0 0 0-.5m3.5.5a.25.25 0 0 1 0-.5m0 .5a.25.25 0 0 0 0-.5" stroke="currentColor" stroke-linecap="round" stroke-linejoin="round"/>
</svg>
