<svg focusable="false" xmlns="http://www.w3.org/2000/svg" fill="none" role="img" aria-label="Icon" viewBox="0 0 14 14">
  <g stroke="currentColor" stroke-linecap="round" stroke-linejoin="round">
    <path d="M4.638 13.428a1.497 1.497 0 1 0 0-2.995 1.497 1.497 0 0 0 0 2.995m6.739-1.872a1.497 1.497 0 1 0 0-2.994 1.497 1.497 0 0 0 0 2.994"/>
    <path d="M12.874 10.059v-5.87a.374.374 0 0 0-.472-.359l-2.995.831m3.467 1.28L7.42 7.456M4.762 2.597c.445-.601.719-1.83.719-1.83s.274 1.229.718 1.83c.449.606 1.878 1.136 1.878 1.136s-1.43.53-1.878 1.137c-.444.6-.718 1.829-.718 1.829s-.274-1.228-.719-1.83c-.448-.605-1.877-1.136-1.877-1.136s1.429-.53 1.877-1.136m1.374 9.333V8.892M2.007 6.623V8.89M.873 7.757h2.268"/>
  </g>
</svg>
