<svg focusable="false" xmlns="http://www.w3.org/2000/svg" fill="none" role="img" aria-label="Icon" viewBox="0 0 14 14">
  <g stroke="currentColor" stroke-linecap="round" stroke-linejoin="round">
    <path d="M10.491 7.248a3.487 3.487 0 0 0 2.227-1.016c1.029-1.029.807-3.61.635-4.826a.888.888 0 0 0-.76-.759C11.38.475 8.798.253 7.768 1.282A3.486 3.486 0 0 0 6.752 3.51a3.5 3.5 0 0 0-3.243 3.243A3.486 3.486 0 0 0 1.28 7.77C.253 8.798.475 11.379.648 12.593a.888.888 0 0 0 .759.759c1.214.173 3.795.395 4.824-.633.62-.62.96-1.416 1.017-2.228a3.5 3.5 0 0 0 3.243-3.243"/>
    <path d="M5.5 7a1.5 1.5 0 1 0 3 0 1.5 1.5 0 1 0-3 0m3.25-3.25a1.5 1.5 0 1 0 3 0 1.5 1.5 0 1 0-3 0m-6.5 6.5a1.5 1.5 0 1 0 3 0 1.5 1.5 0 1 0-3 0"/>
  </g>
</svg>
