<svg focusable="false" xmlns="http://www.w3.org/2000/svg" fill="none" role="img" aria-label="Icon" viewBox="0 0 14 14">
  <g stroke="currentColor" stroke-linecap="round" stroke-linejoin="round">
    <path d="M5.043 3.163C6.12.737 9.298.147 11.176 2.024l.11.11a5.836 5.836 0 0 1 0 8.253l-.94.94a5.835 5.835 0 0 1-8.253 0l-.11-.11C.106 9.339.696 6.162 3.123 5.084v0a3.784 3.784 0 0 0 1.92-1.92"/>
    <path d="M6.927 4.14a1.81 1.81 0 0 1-.437 1.85l-.54.54a1.809 1.809 0 0 1-1.852.438v0"/>
  </g>
</svg>
