<svg focusable="false" xmlns="http://www.w3.org/2000/svg" fill="none" role="img" aria-label="Icon" viewBox="0 0 14 14">
  <g stroke="currentColor" stroke-linecap="round" stroke-linejoin="round">
    <path d="M13.5 10.5c0 1.66-2.91 3-6.5 3s-6.5-1.34-6.5-3m9-5C9.5 6.88 7.5 9 7 9S4.5 6.88 4.5 5.5c0-2 2.5-5 2.5-5s2.5 3 2.5 5"/>
    <path d="M4.88 3.89A15.7 15.7 0 0 0 1 3s.35 3.89 1.77 5.3c1 1 3.89 1.06 4.24.71"/>
    <path d="M9.12 3.89A15.7 15.7 0 0 1 13 3s-.35 3.89-1.77 5.3c-1 1-3.89 1.06-4.24.71"/>
  </g>
</svg>
