<svg focusable="false" xmlns="http://www.w3.org/2000/svg" fill="none" role="img" aria-label="Icon" viewBox="0 0 14 14">
  <g stroke="currentColor" stroke-linecap="round" stroke-linejoin="round">
    <path d="M12.422 3.438a1.498 1.498 0 1 0-1.858-1.859 6.477 6.477 0 0 0-7.129 0 1.499 1.499 0 0 0-2.882.024 1.5 1.5 0 0 0 1.025 1.835A6.518 6.518 0 0 0 .51 7.005a6.428 6.428 0 0 0 .829 3.167A1.488 1.488 0 0 0 2.008 13a1.506 1.506 0 0 0 1.258-.69 6.457 6.457 0 0 0 7.468 0 1.497 1.497 0 0 0 2.756-.809 1.49 1.49 0 0 0-.829-1.329c.545-.966.83-2.058.829-3.167a6.518 6.518 0 0 0-1.068-3.567"/>
    <path d="M7 10.5a3.5 3.5 0 1 0 0-7 3.5 3.5 0 0 0 0 7"/>
    <path d="M7 7.5a.5.5 0 1 0 0-1 .5.5 0 0 0 0 1"/>
  </g>
</svg>
