<svg focusable="false" xmlns="http://www.w3.org/2000/svg" fill="none" role="img" aria-label="Icon" viewBox="0 0 14 14">
  <g stroke="currentColor" stroke-linecap="round" stroke-linejoin="round">
    <path d="M11.889 5.393c-.844.734-2.17.61-2.862-.27a2.003 2.003 0 0 1 .411-2.845C10.292 1.603 13 2 13 2s-.248 2.718-1.111 3.393m-8.916 1.68a1.755 1.755 0 0 0 2.507-.236c.605-.77.43-1.932-.36-2.492C4.371 3.754 2 4.102 2 4.102s.217 2.38.973 2.971M.5 12s2-2 6.5-2 6.5 2 6.5 2"/>
    <path d="m9.119 5.236-.133.124c-1 1-1.89 3.304-1.986 4.64 0-1.583-.305-2.286-1.42-3.18l-.049-.047"/>
  </g>
</svg>
