<svg focusable="false" xmlns="http://www.w3.org/2000/svg" fill="none" role="img" aria-label="Icon" viewBox="0 0 14 14">
  <g stroke="currentColor" stroke-linecap="round" stroke-linejoin="round">
    <path d="M12.29 10.29A1 1 0 0 1 13 10V8a1 1 0 1 1 0-2V4a1 1 0 1 1 0-2V.5h-2.5a1 1 0 1 1-2 0h-3a1 1 0 1 1-2 0H1V2a1 1 0 1 1 0 2v2a1 1 0 1 1 0 2v2a1.001 1.001 0 1 1 0 2v1.5h2.5a1 1 0 1 1 2 0h3a1 1 0 1 1 2 0H13V12a1 1 0 0 1-.71-1.71"/>
    <path d="M6 4v1.71C4.5 6 4.5 7.48 4.5 8.5c0 1.38 1.12 2 2.5 2s2.5-.62 2.5-2c0-1 0-2.5-1.5-2.79V4M5 4h4"/>
  </g>
</svg>
