<svg focusable="false" xmlns="http://www.w3.org/2000/svg" fill="none" role="img" aria-label="Icon" viewBox="0 0 14 14">
  <g stroke="currentColor" stroke-linecap="round" stroke-linejoin="round">
    <path d="M3.582 8.122 1.237 4.606a1.5 1.5 0 0 1 .272-1.971L4 .5l1.755 5.642m4.659 1.98 2.344-3.516a1.5 1.5 0 0 0-.272-1.971L9.996.5 8.24 6.142"/>
    <path d="M10.782 9.706a3.782 3.782 0 1 1-7.564 0 3.782 3.782 0 0 1 7.564 0"/>
    <path d="m7.143 7.92.482.97a.151.151 0 0 0 .124.09l1.07.162a.163.163 0 0 1 .09.28l-.79.752a.157.157 0 0 0 0 .145l.151 1.065a.162.162 0 0 1-.24.174l-.954-.504a.191.191 0 0 0-.157 0l-.953.504a.163.163 0 0 1-.233-.081.162.162 0 0 1-.008-.093l.18-1.065a.157.157 0 0 0-.029-.145l-.79-.757a.163.163 0 0 1 .09-.275l1.07-.157a.151.151 0 0 0 .124-.09l.482-.97a.163.163 0 0 1 .291-.005M4.935 3.5H9.07M4 .5h6"/>
  </g>
</svg>
