<svg focusable="false" xmlns="http://www.w3.org/2000/svg" fill="none" role="img" aria-label="Icon" viewBox="0 0 14 14">
  <g stroke="currentColor" stroke-linecap="round" stroke-linejoin="round">
    <path d="M10.75 9.75a3.75 3.75 0 1 1-7.5 0 3.75 3.75 0 0 1 7.5 0"/>
    <path d="m7.143 7.808.482.97a.151.151 0 0 0 .124.09l1.07.162a.163.163 0 0 1 .09.28l-.79.752a.157.157 0 0 0 0 .145l.151 1.066a.162.162 0 0 1-.24.173l-.954-.504a.19.19 0 0 0-.157 0l-.953.504a.162.162 0 0 1-.241-.173l.18-1.066a.157.157 0 0 0-.029-.145l-.79-.757a.163.163 0 0 1 .09-.275l1.07-.157a.151.151 0 0 0 .124-.09l.482-.97a.163.163 0 0 1 .291-.005m-2.885-.616L3.042 3.141A1 1 0 0 1 3 2.853V1.5a1 1 0 0 1 1-1h6a1 1 0 0 1 1 1v1.353a.999.999 0 0 1-.042.288L9.742 7.192M7 6V.5"/>
  </g>
</svg>
