<svg focusable="false" xmlns="http://www.w3.org/2000/svg" fill="none" role="img" aria-label="Icon" viewBox="0 0 14 14">
  <g stroke="currentColor" stroke-linecap="round" stroke-linejoin="round">
    <path d="M12.5.5h-11a1 1 0 0 0-1 1v11a1 1 0 0 0 1 1h11a1 1 0 0 0 1-1v-11a1 1 0 0 0-1-1"/>
    <path d="m7.26 3.82.86 1.73a.27.27 0 0 0 .22.16l1.91.29a.29.29 0 0 1 .16.5L9 7.84a.28.28 0 0 0 0 .26l.27 1.9a.29.29 0 0 1-.43.31l-1.7-.9a.34.34 0 0 0-.28 0l-1.7.9a.29.29 0 0 1-.43-.31l.32-1.9A.28.28 0 0 0 5 7.84L3.59 6.49A.29.29 0 0 1 3.75 6l1.91-.28a.27.27 0 0 0 .22-.16l.86-1.73a.29.29 0 0 1 .52-.01"/>
  </g>
</svg>
