<svg focusable="false" xmlns="http://www.w3.org/2000/svg" fill="none" role="img" aria-label="Icon" viewBox="0 0 14 14">
  <g stroke="currentColor" stroke-linecap="round" stroke-linejoin="round">
    <path d="M5.71 4.31C3.79 3 2 4 .5 5.54l3.32 2m5.87.75C11 10.21 10 12 8.46 13.5l-2-3.32"/>
    <path d="m3.82 7.53 2.65 2.65C8.59 8.91 11 7.68 12.1 6.54c2.38-2.38 1-5.64 1-5.64s-3.26-1.38-5.64 1C6.32 3 5.08 5.42 3.82 7.53m1.46-2.51 3.7 3.7"/>
    <path d="M10.5 4a.5.5 0 1 0 0-1 .5.5 0 0 0 0 1m-6.82 8.44C3.1 13 .5 13.5.5 13.5s.5-2.6 1.06-3.18a1.501 1.501 0 0 1 2.597 1.049 1.5 1.5 0 0 1-.477 1.07"/>
  </g>
</svg>
