<svg focusable="false" xmlns="http://www.w3.org/2000/svg" fill="none" role="img" aria-label="Icon" viewBox="0 0 14 14">
  <path d="M.5 10.967h13m-2.5 2.5 2.5-2.5-2.5-2.5M2.2 5.778V1.51c0 .589-.478 1.066-1.067 1.066H.778m2.844 3.202H.778m7.644 0H5.578V5.17c0-.423.25-.807.639-.977L7.8 3.502a1.04 1.04 0 0 0-.417-1.991h-.739c-.464 0-.86.296-1.006.71m6.545 1.245c.59 0 1.067.478 1.067 1.067v.178c0 .589-.478 1.067-1.067 1.067h-.71c-.465 0-.86-.297-1.007-.712m.154-2.844a.978.978 0 0 1 .941-.711h.533a.978.978 0 0 1 0 1.955h-.088" stroke="currentColor" stroke-linecap="round" stroke-linejoin="round"/>
</svg>
