<svg focusable="false" xmlns="http://www.w3.org/2000/svg" fill="none" role="img" aria-label="Icon" viewBox="0 0 14 14">
  <g stroke="currentColor" stroke-linecap="round" stroke-linejoin="round">
    <path d="M.55 10.5h12.9m-1.985-1.984 1.984 1.984-1.984 1.984M5.889 1.518v2.097h1.62a1.049 1.049 0 1 0 0-2.097z"/>
    <path d="M5.889 3.615v2.478h1.81a1.24 1.24 0 0 0 0-2.478zM13.45 2.28a1.144 1.144 0 0 0-1.08-.762h-.762c-.632 0-1.144.512-1.144 1.144V4.95c0 .631.512 1.143 1.144 1.143h.763c.498 0 .921-.318 1.078-.762M.55 6.093 1.956 1.88a.529.529 0 0 1 .502-.362v0a.53.53 0 0 1 .502.362l1.405 4.213M1.059 4.568h2.796"/>
  </g>
</svg>
