<svg focusable="false" xmlns="http://www.w3.org/2000/svg" fill="none" role="img" aria-label="Icon" viewBox="0 0 14 14">
  <path d="M8.022 3.037C7.087 3.017 6.9 2.5 6.869 1.384a.51.51 0 0 0-.505-.5h-1.53a.488.488 0 0 0-.492.477c-.02 1.648.322 2.968 2.122 3.554v3.198a.5.5 0 0 1-.783.413l-.869-.595A1.784 1.784 0 0 0 2.02 9.403v2.476a1.237 1.237 0 1 0 2.474 0v-1.512c1.993 4.032 7.537 2.429 7.995-2.13.366-3.647-2.604-5.162-4.467-5.2" stroke="currentColor" stroke-linecap="round" stroke-linejoin="round"/>
</svg>
