<svg focusable="false" xmlns="http://www.w3.org/2000/svg" fill="none" role="img" aria-label="Icon" viewBox="0 0 14 14">
  <path d="M2.08 13.05a1 1 0 0 0 .84.45h8.16a1 1 0 0 0 .84-.45c.21-.31.324-.675.33-1.05 0-1.66-2.35-3-5.25-3s-5.25 1.34-5.25 3c.006.375.12.74.33 1.05M7.5 9c2.347 0 4.25-1.12 4.25-2.5S9.847 4 7.5 4 3.25 5.12 3.25 6.5 5.153 9 7.5 9M6.25 4c1.657 0 3-.783 3-1.75S7.907.5 6.25.5s-3 .784-3 1.75S4.593 4 6.25 4" stroke="currentColor" stroke-linecap="round" stroke-linejoin="round"/>
</svg>
