<svg focusable="false" xmlns="http://www.w3.org/2000/svg" fill="none" role="img" aria-label="Icon" viewBox="0 0 14 14">
  <g stroke="currentColor" stroke-linecap="round" stroke-linejoin="round">
    <path d="M3.248 7a3.752 3.795 0 1 0 7.504 0 3.752 3.795 0 1 0-7.504 0M.61 6.139a6.506 6.506 0 0 0 0 1.593m2.505-5.933a6.506 6.506 0 0 1 1.38-.797M1.068 4.43a6.502 6.502 0 0 1 .796-1.38"/>
    <path d="M7.012.5c3.55 0 6.427 2.91 6.427 6.5s-2.877 6.5-6.427 6.5c-2.446 0-4.573-1.382-5.659-3.416"/>
  </g>
</svg>
