<svg focusable="false" xmlns="http://www.w3.org/2000/svg" fill="none" role="img" aria-label="Icon" viewBox="0 0 14 14">
  <g stroke="currentColor">
    <path d="M5 .5C5.833.5 7 1.8 7 3 7 1.8 8.167.5 9 .5M2.5 7c0-2.8 2-4 4.5-4s4.5 1.2 4.5 4c0 3.5-2.5 6.5-4.5 6.5s-4.5-3-4.5-6.5" stroke-linecap="round" stroke-linejoin="round"/>
    <path d="M4.75 7a.25.25 0 0 1 0-.5m0 .5a.25.25 0 0 0 0-.5m1 3.558a.25.25 0 1 1 0-.5m0 .5a.25.25 0 1 0 0-.5m2.5.5a.25.25 0 1 1 0-.5m0 .5a.25.25 0 1 0 0-.5M7 7a.25.25 0 0 1 0-.5M7 7a.25.25 0 0 0 0-.5m2.25.5a.25.25 0 0 1 0-.5m0 .5a.25.25 0 0 0 0-.5"/>
  </g>
</svg>
