<svg focusable="false" xmlns="http://www.w3.org/2000/svg" fill="none" role="img" aria-label="Icon" viewBox="0 0 14 14">
  <g stroke="currentColor" stroke-linecap="round" stroke-linejoin="round">
    <path d="M4.16 8.66a2.573 2.573 0 0 1 1.658-.587l1.636-3.566a3.062 3.062 0 1 1 3.444 2.34L8.227 9.761a2.585 2.585 0 1 1-4.993 1.196"/>
    <path d="M9.147 3.795a1.319 1.319 0 1 0 2.634-.152 1.319 1.319 0 1 0-2.634.152M1.011 6.93 5.6 9.483c.467.26.681.818.507 1.324v0c-.202.588-.85.892-1.432.674L.56 9.936"/>
  </g>
</svg>
