<svg focusable="false" xmlns="http://www.w3.org/2000/svg" fill="none" role="img" aria-label="Icon" viewBox="0 0 14 14">
  <g stroke="currentColor">
    <path d="M.5.5h.806a1 1 0 0 1 .937.65l1.255 3.357" stroke-linecap="round" stroke-linejoin="round"/>
    <path d="M10 12a1.5 1.5 0 1 0 3 0 1.5 1.5 0 1 0-3 0m-6.5 0a1.5 1.5 0 1 0 3 0 1.5 1.5 0 1 0-3 0"/>
    <path d="M3.5 6.5v-2h10v2a2 2 0 0 1-2 2h-6a2 2 0 0 1-2-2m5.5-2v-4h.5a4 4 0 0 1 4 4v0" stroke-linecap="round" stroke-linejoin="round"/>
  </g>
</svg>
