<svg focusable="false" xmlns="http://www.w3.org/2000/svg" fill="none" role="img" aria-label="Icon" viewBox="0 0 14 14">
  <path d="M3.542 7.495a2.738 2.738 0 0 1 0-.5 3.498 3.498 0 1 1 6.995 0c.015.167.015.334 0 .5M.504 6.996h1m.999-4.497.5.5M7 .5v1m4.497.999-.5.5m2.499 3.997h-1M.504 13.341a2.349 2.349 0 0 0 1.5-1.349A2.488 2.488 0 0 0 4.5 13.491 2.488 2.488 0 0 0 7 11.992a2.488 2.488 0 0 0 2.498 1.499 2.488 2.488 0 0 0 2.498-1.499 2.35 2.35 0 0 0 1.5 1.35m-.001-2.999a2.348 2.348 0 0 1-1.499-1.349 2.489 2.489 0 0 1-2.498 1.5A2.488 2.488 0 0 1 7 8.993a2.488 2.488 0 0 1-2.499 1.5 2.488 2.488 0 0 1-2.498-1.5 2.348 2.348 0 0 1-1.499 1.35" stroke="currentColor" stroke-linecap="round" stroke-linejoin="round"/>
</svg>
