<svg focusable="false" xmlns="http://www.w3.org/2000/svg" fill="none" role="img" aria-label="Icon" viewBox="0 0 14 14">
  <g stroke="currentColor" stroke-linecap="round" stroke-linejoin="round">
    <path d="M3.177 13.189.995 9.394a.82.82 0 0 1 .163-1.02v0a.82.82 0 0 1 1.143.046l1.56 1.64V4.07c0-.605.491-1.096 1.097-1.096v0c.605 0 1.096.49 1.096 1.096v3.807l1.15-.034a2.573 2.573 0 0 1 2.638 2.804l-.23 2.542"/>
    <path d="M8.415 5.137a3.524 3.524 0 1 0-6.865 0M7.88 2.32h4.26M10.504.812l1.635 1.506-1.635 1.506"/>
  </g>
</svg>
