<svg focusable="false" xmlns="http://www.w3.org/2000/svg" fill="none" role="img" aria-label="Icon" viewBox="0 0 14 14">
  <g stroke="currentColor" stroke-linecap="round" stroke-linejoin="round">
    <path d="M4.683 5.216a3.524 3.524 0 1 1 6.865 0M5.219 2.4H.958M2.594.89.959 2.398l1.635 1.506"/>
    <path d="M6.363 13.269 4.181 9.474a.82.82 0 0 1 .163-1.02v0a.82.82 0 0 1 1.143.045l1.56 1.641V4.15c0-.606.491-1.097 1.097-1.097v0c.605 0 1.096.491 1.096 1.097v3.807l1.15-.034a2.573 2.573 0 0 1 2.638 2.804l-.23 2.542"/>
  </g>
</svg>
