<svg focusable="false" xmlns="http://www.w3.org/2000/svg" fill="none" role="img" aria-label="Icon" viewBox="0 0 14 14">
  <path d="M7 6.563v.875m0-3.792v.875M7 9.48v.874m0 2.042v.875M7 .729v.875m1.85 6.025V2.248c0-.713.453-1.389 1.166-1.389v0a3.485 3.485 0 0 1 1.286 6.725v-.006A3 3 0 0 1 9.531 13v0c-.403 0-.682-.362-.682-.764zm-3.7 0V2.248c0-.713-.453-1.389-1.166-1.389v0a3.485 3.485 0 0 0-1.286 6.725v-.006A3 3 0 0 0 4.469 13v0c.403 0 .682-.362.682-.764z" stroke="currentColor" stroke-linecap="round" stroke-linejoin="round"/>
</svg>
