<svg focusable="false" xmlns="http://www.w3.org/2000/svg" fill="none" role="img" aria-label="Icon" viewBox="0 0 14 14">
  <g stroke="currentColor">
    <path d="M1.094 11.012A5.571 5.571 0 0 1 6.665 5.44h.67a5.571 5.571 0 0 1 5.571 5.572.928.928 0 0 1-.928.928H2.022a.929.929 0 0 1-.928-.928Z" stroke-linejoin="round"/>
    <path d="m1.876 8.19-.456-.52-.385-.558c-.33-.48-.124-1.154.414-1.348l.785-.283a.88.88 0 0 0 .57-.784l.043-.769c.03-.552.536-.94 1.054-.808l.985.25a.835.835 0 0 0 .84-.272l.636-.741a.834.834 0 0 1 1.276 0l.635.74c.21.246.534.35.841.272l.985-.25c.518-.13 1.024.257 1.055.81l.042.768a.88.88 0 0 0 .57.784l.785.283c.538.194.745.869.414 1.348l-.385.558-.454.52" stroke-linecap="round"/>
    <path d="M3.633 10.003a.125.125 0 1 1 0-.25m0 .25a.125.125 0 1 0 0-.25m1.062-1.458a.125.125 0 0 1 0-.25m0 .25a.125.125 0 1 0 0-.25m1.563 1.708a.125.125 0 0 1 0-.25m0 .25a.125.125 0 1 0 0-.25" stroke-linecap="round" stroke-linejoin="round"/>
  </g>
</svg>
