<svg focusable="false" xmlns="http://www.w3.org/2000/svg" fill="none" role="img" aria-label="Icon" viewBox="0 0 14 14">
  <path d="M12.54 3.598A6.496 6.496 0 0 0 7 .5a6.496 6.496 0 0 0-5.54 3.098m0 6.804A6.496 6.496 0 0 0 7 13.5a6.496 6.496 0 0 0 5.54-3.098M7.66 5.469H5.82V8.53h1.84M5.82 6.872h1.61M2.028 8.531V5.47L4.07 8.53V5.47m4.84-.001.487 2.926a.164.164 0 0 0 .161.136v0c.07 0 .132-.044.155-.11l.643-1.871a.09.09 0 0 1 .085-.06v0a.09.09 0 0 1 .084.06l.643 1.87a.163.163 0 0 0 .155.111v0c.08 0 .148-.058.161-.136l.488-2.926" stroke="currentColor" stroke-linecap="round" stroke-linejoin="round"/>
</svg>
