<svg focusable="false" xmlns="http://www.w3.org/2000/svg" fill="none" role="img" aria-label="Icon" viewBox="0 0 14 14">
  <path d="M12.54 3.598A6.496 6.496 0 0 0 7 .5a6.496 6.496 0 0 0-5.54 3.098m0 6.804A6.496 6.496 0 0 0 7 13.5a6.496 6.496 0 0 0 5.54-3.098M9.647 5.469h-1.84V8.53h1.84m-1.84-1.658h1.61m3.57-1.403h-1.84V8.53h1.84m-1.84-1.658h1.61M1.013 8.531V5.47h1.84m-1.84 1.402h1.61m1.73 1.659V7.255m0 0V5.47h.946c.494 0 .894.4.894.893v0c0 .493-.4.893-.894.893zm1.15 0 .804 1.276" stroke="currentColor" stroke-linecap="round" stroke-linejoin="round"/>
</svg>
