<svg focusable="false" xmlns="http://www.w3.org/2000/svg" fill="none" role="img" aria-label="Icon" viewBox="0 0 14 14">
  <path d="M13.5 3.563V3a1 1 0 0 0-1-1h-11a1 1 0 0 0-1 1v.563m0 6.875V11a1 1 0 0 0 1 1h11a1 1 0 0 0 1-1v-.562M9.647 5.469h-1.84V8.53h1.84M7.808 6.872h1.61m3.569-1.403h-1.84V8.53h1.84m-1.84-1.658h1.61M1.013 8.531V5.47h1.84m-1.84 1.402h1.61m1.73 1.659V7.255m0 0V5.47h.946c.494 0 .894.4.894.893v0c0 .493-.4.893-.894.893zm1.15 0 .805 1.276" stroke="currentColor" stroke-linecap="round" stroke-linejoin="round"/>
</svg>
