<svg focusable="false" xmlns="http://www.w3.org/2000/svg" fill="none" role="img" aria-label="Icon" viewBox="0 0 14 14">
  <g stroke="currentColor" stroke-linecap="round" stroke-linejoin="round">
    <path d="M.5 3a1 1 0 0 1 1-1h11a1 1 0 0 1 1 1v8a1 1 0 0 1-1 1h-11a1 1 0 0 1-1-1z"/>
    <path d="M4.5 9.5h5l1 2.5h-7zm-2-3.75c0-.69.56-1.25 1.25-1.25h6.5c.69 0 1.25.56 1.25 1.25v0c0 .69-.56 1.25-1.25 1.25h-6.5C3.06 7 2.5 6.44 2.5 5.75"/>
    <path d="M4.833 4.5a1.5 1.5 0 0 1 0 2.5m4.334-2.5a1.5 1.5 0 0 0 0 2.5"/>
  </g>
</svg>
