<svg focusable="false" xmlns="http://www.w3.org/2000/svg" fill="none" role="img" aria-label="Icon" viewBox="0 0 14 14">
  <path d="m5.098 11.888.086.259a1.1 1.1 0 0 0 2.138-.47l-.17-1.53a2.023 2.023 0 0 0-2.01-1.8H2.687c-1.03 0-1.896.775-2.01 1.8l-.17 1.53a1.1 1.1 0 0 0 2.138.47l.086-.26a.74.74 0 0 1 .702-.505h.963a.74.74 0 0 1 .702.506m4.705-6.917a1.935 1.935 0 1 0 0-3.87m.214 5.414A3.483 3.483 0 0 1 13.5 9.998v1.161h-1.548M6.28 4.971a1.935 1.935 0 1 1 0-3.87 1.935 1.935 0 0 1 0 3.87m2.917 6.189h.78V9.997a3.484 3.484 0 0 0-3.87-3.462" stroke="currentColor" stroke-linecap="round" stroke-linejoin="round"/>
</svg>
