<svg focusable="false" xmlns="http://www.w3.org/2000/svg" fill="none" role="img" aria-label="Icon" viewBox="0 0 14 14">
  <path d="M.504 12.101a1.399 1.399 0 1 0 2.798 0 1.399 1.399 0 1 0-2.798 0m12.992-.001a1.399 1.399 0 1 1-2.798 0 1.399 1.399 0 1 1 2.798 0M.504 1.9a1.399 1.399 0 1 1 2.798 0 1.399 1.399 0 1 1-2.798 0m12.992.001a1.399 1.399 0 1 0-2.798 0 1.399 1.399 0 1 0 2.798 0M7.004 4.785l.04 4.575m1.049.001h-2.1M4.624 6.184v-1.4h4.839v1.4M1.867 3.298v7.404m8.832-8.836H3.294m8.84 8.836V3.298m-8.832 8.836h7.404" stroke="currentColor" stroke-linecap="round" stroke-linejoin="round"/>
</svg>
