<svg focusable="false" xmlns="http://www.w3.org/2000/svg" fill="none" role="img" aria-label="Icon" viewBox="0 0 14 14">
  <path d="M1.866 3.298v7.404m8.832-8.836H3.295m8.839 8.836V3.298m-8.832 8.836h7.403M.504 12.101a1.399 1.399 0 1 0 2.798 0 1.399 1.399 0 1 0-2.798 0m12.992-.001a1.399 1.399 0 1 1-2.798 0 1.399 1.399 0 1 1 2.798 0M.504 1.9a1.399 1.399 0 1 1 2.798 0 1.399 1.399 0 1 1-2.798 0m12.992.001a1.399 1.399 0 1 0-2.798 0 1.399 1.399 0 1 0 2.798 0M4.707 4.792h4.587M4.707 7h4.587M4.707 9.208h4.587" stroke="currentColor" stroke-linecap="round" stroke-linejoin="round"/>
</svg>
