<svg focusable="false" xmlns="http://www.w3.org/2000/svg" fill="none" role="img" aria-label="Icon" viewBox="0 0 14 14">
  <g stroke="currentColor" stroke-linecap="round" stroke-linejoin="round">
    <path d="M9.532 9.5v3a1 1 0 0 1-1 1h-7a1 1 0 0 1-1-1v-11a1 1 0 0 1 1-1h5m-2 10.5h1"/>
    <path d="M13.42 6.326a.62.62 0 0 1-.203.809.55.55 0 0 1-.287.08H7.06a.55.55 0 0 1-.49-.3.62.62 0 0 1 0-.59l2.95-5.32a.54.54 0 0 1 1 0zM10 4.216v-1"/>
    <path d="M9.995 5.841a.125.125 0 1 1 0-.25m0 .249a.125.125 0 1 0 0-.25"/>
  </g>
</svg>
