<svg focusable="false" xmlns="http://www.w3.org/2000/svg" fill="none" role="img" aria-label="Icon" viewBox="0 0 14 14">
  <g stroke="currentColor" stroke-linecap="round" stroke-linejoin="round">
    <path d="M13.5 9.5v1a.5.5 0 0 1-.5.5H1a.5.5 0 0 1-.5-.5v-8A.5.5 0 0 1 1 2h4.5m.5 9-1 2.5M8 11l1 2.5m-5 0h6"/>
    <path d="M13.42 6.307a.62.62 0 0 1-.203.81.55.55 0 0 1-.287.08H7.06a.55.55 0 0 1-.49-.3.62.62 0 0 1 0-.59L9.52.987a.54.54 0 0 1 1 0zM10 4.197v-1"/>
    <path d="M9.995 5.823a.125.125 0 0 1 0-.25m0 .249a.125.125 0 1 0 0-.25"/>
  </g>
</svg>
