<svg focusable="false" xmlns="http://www.w3.org/2000/svg" fill="none" role="img" aria-label="Icon" viewBox="0 0 14 14">
  <g stroke="currentColor" stroke-linecap="round" stroke-linejoin="round">
    <path d="M.5 3.494h13M12.5.5h-11a1 1 0 0 0-1 1v11a1 1 0 0 0 1 1h11a1 1 0 0 0 1-1v-11a1 1 0 0 0-1-1"/>
    <path d="M10.43 10.656a.619.619 0 0 1-.203.81.55.55 0 0 1-.287.08H4.07a.55.55 0 0 1-.49-.3.62.62 0 0 1 0-.59l2.95-5.32a.54.54 0 0 1 1 0zm-3.42-2.11v-1"/>
    <path d="M7.005 10.171a.125.125 0 0 1 0-.25m0 .25a.125.125 0 0 0 0-.25"/>
  </g>
</svg>
