<svg focusable="false" xmlns="http://www.w3.org/2000/svg" fill="none" role="img" aria-label="Icon" viewBox="0 0 14 14">
  <g stroke="currentColor" stroke-linecap="round" stroke-linejoin="round">
    <path d="M.906 10.68a1 1 0 0 0 1 1h10.188a1 1 0 0 0 1-1V8.84a1.907 1.907 0 0 1 0-3.68V3.32a1 1 0 0 0-1-1H1.906a1 1 0 0 0-1 1v1.836a1.907 1.907 0 0 1 0 3.688z"/>
    <path d="m7.197 4.37.663 1.335a.208.208 0 0 0 .17.123l1.472.224a.224.224 0 0 1 .124.385L8.539 7.47a.216.216 0 0 0 0 .2l.208 1.466a.224.224 0 0 1-.332.239l-1.31-.694a.262.262 0 0 0-.216 0l-1.311.694a.224.224 0 0 1-.332-.24l.247-1.464a.216.216 0 0 0-.038-.2L4.367 6.428a.224.224 0 0 1 .124-.377l1.472-.216a.208.208 0 0 0 .17-.124l.663-1.333a.224.224 0 0 1 .401-.008"/>
  </g>
</svg>
