<svg focusable="false" xmlns="http://www.w3.org/2000/svg" fill="none" role="img" aria-label="Icon" viewBox="0 0 14 14">
  <path d="M.505 13.341a2.349 2.349 0 0 0 1.498-1.349 2.488 2.488 0 0 0 2.499 1.499A2.488 2.488 0 0 0 7 11.992a2.488 2.488 0 0 0 2.498 1.499 2.488 2.488 0 0 0 2.499-1.499 2.35 2.35 0 0 0 1.499 1.35M.505 9.344a2.375 2.375 0 0 0 1.498-1.35c.418.976 1.5 1.5 2.499 1.5 1.998 0 3.497-1.5 3.497-2.998C8 4.497 7 2.499 4.502 3.498 4.668 2.498 5.7.5 8.499.5s4.497 1.999 4.996 2.998" stroke="currentColor" stroke-linecap="round" stroke-linejoin="round"/>
</svg>
