<svg focusable="false" xmlns="http://www.w3.org/2000/svg" fill="none" role="img" aria-label="Icon" viewBox="0 0 14 14">
  <g stroke="currentColor" stroke-linecap="round" stroke-linejoin="round">
    <path d="M.505 1.85A2.348 2.348 0 0 0 2.003.5a2.488 2.488 0 0 0 2.499 1.499A2.488 2.488 0 0 0 7 .5a2.488 2.488 0 0 0 2.498 1.499A2.488 2.488 0 0 0 11.997.5a2.347 2.347 0 0 0 1.499 1.35M8.5 6.906V8.54l4.013 2.317a3 3 0 0 1-4.098 1.099L7 11.138l-4.013 2.317a3 3 0 0 1 1.098-4.098L5.5 8.54V3.906a3 3 0 0 1 3 3"/>
    <path d="M5.5 9.406a1.5 1.5 0 1 0 3 0 1.5 1.5 0 1 0-3 0"/>
  </g>
</svg>
