<svg focusable="false" xmlns="http://www.w3.org/2000/svg" fill="none" role="img" aria-label="Icon" viewBox="0 0 14 14">
  <g stroke="currentColor" stroke-linecap="round" stroke-linejoin="round">
    <path d="M3.538 5.677a1.572 1.572 0 1 0 0-3.144 1.572 1.572 0 0 0 0 3.144"/>
    <path d="M6.289 8.427a2.75 2.75 0 0 0-5.502 0v1.18h1.18l.392 3.143h2.358l.393-3.144h1.179zm3.971-2.543a1.572 1.572 0 1 0 0-3.144 1.572 1.572 0 0 0 0 3.144m1.437 5.082-.36 1.784H9.182l-.36-1.784H7.665a.368.368 0 0 1-.356-.336.25.25 0 0 1 .007-.09c.402-1.898.523-4.656 2.943-4.656s2.542 2.758 2.944 4.656c.007.03.01.06.007.09a.368.368 0 0 1-.356.336z"/>
  </g>
</svg>
