<svg focusable="false" xmlns="http://www.w3.org/2000/svg" fill="none" role="img" aria-label="Icon" viewBox="0 0 14 14">
  <path d="M1 .5h12.007M7.004.5v5.146M3.42.5h7.168v4.322a3.584 3.584 0 0 1-3.584 3.584v0a3.584 3.584 0 0 1-3.585-3.584zm-.657 10.615a.25.25 0 0 0 0-.5m0 .5a.25.25 0 0 1 0-.5m2.075 2.57a.25.25 0 1 0 0-.5m0 .5a.25.25 0 1 1 0-.5m4.151.5a.25.25 0 1 0 0-.5m0 .5a.25.25 0 1 1 0-.5m-2.076-1.57a.25.25 0 0 0 0-.5m0 .5a.25.25 0 0 1 0-.5m4.151.5a.25.25 0 0 0 0-.5m0 .5a.25.25 0 0 1 0-.5" stroke="currentColor" stroke-linecap="round" stroke-linejoin="round"/>
</svg>
