<svg focusable="false" xmlns="http://www.w3.org/2000/svg" fill="none" role="img" aria-label="Icon" viewBox="0 0 14 14">
  <g stroke="currentColor" stroke-linecap="round" stroke-linejoin="round">
    <path d="M1.49 5.132c.324-2.947 2.917-3.231 4.682-2.208.555.322 1.1.322 1.656 0 1.765-1.023 4.358-.739 4.682 2.208.325 2.956-1.34 6.084-2.232 7.282-.203.272-.53.403-.87.403a1.32 1.32 0 0 1-1.242-.873l-.315-.874a.905.905 0 0 0-1.702 0l-.315.874a1.32 1.32 0 0 1-1.242.873c-.34 0-.668-.13-.87-.403-.892-1.198-2.557-4.326-2.232-7.282"/>
    <path d="M8.291 5.28c-1.06.386-1.63.378-2.582 0"/>
  </g>
</svg>
