<svg focusable="false" xmlns="http://www.w3.org/2000/svg" fill="none" role="img" aria-label="Icon" viewBox="0 0 14 14">
  <g stroke="currentColor" stroke-linecap="round" stroke-linejoin="round">
    <path d="M13.477 10.804V3.966c0-.916-.368-1.794-1.022-2.441A3.511 3.511 0 0 0 9.984.514H2.247C1.282.514.501 1.287.501 2.24v7.346M4.294.514v7.623"/>
    <path d="M12.695 8.92a2.67 2.67 0 0 1-1.887 4.556H1.835a1.335 1.335 0 0 1 0-2.67 1.335 1.335 0 1 1 0-2.669h8.973a2.67 2.67 0 0 1 1.887.782m-10.86 1.888h8.098"/>
  </g>
</svg>
