<svg focusable="false" xmlns="http://www.w3.org/2000/svg" fill="none" role="img" aria-label="Icon" viewBox="0 0 14 14">
  <path d="M.898 9.913a2.14 2.14 0 0 0 2.15 1.33h.438a.67.67 0 0 0 .735-.566V9.263a.67.67 0 0 0-.735-.566.67.67 0 0 1-.735-.566V5.868a.67.67 0 0 1 .735-.565.67.67 0 0 0 .735-.566V3.323a.67.67 0 0 0-.735-.566h-.438a2.15 2.15 0 0 0-2.15 1.33 12 12 0 0 0 0 5.826m9.24 0a2.14 2.14 0 0 0 2.15 1.33h.438a.67.67 0 0 0 .735-.566V9.263a.67.67 0 0 0-.735-.566.67.67 0 0 1-.736-.566V5.868a.67.67 0 0 1 .736-.565.67.67 0 0 0 .735-.566V3.323a.67.67 0 0 0-.735-.566h-.439a2.15 2.15 0 0 0-2.15 1.33 12 12 0 0 0 0 5.826M5.115 7h2.968M6.638 5.555 8.083 7 6.638 8.446" stroke="currentColor" stroke-linecap="round" stroke-linejoin="round"/>
</svg>
