<svg focusable="false" xmlns="http://www.w3.org/2000/svg" fill="none" role="img" aria-label="Icon" viewBox="0 0 14 14">
  <path d="M7 11.621a4.069 4.069 0 1 0 0-8.138 4.069 4.069 0 0 0 0 8.138M4.121 10.43 7 7.553m0-5.845a.25.25 0 0 1 0-.5m0 .5a.25.25 0 0 0 0-.5M2.681 3.483a.25.25 0 0 1 0-.5m0 .5a.25.25 0 0 0 0-.5M.906 7.802a.25.25 0 0 1 0-.5m0 .5a.25.25 0 0 0 0-.5m12.188.5a.25.25 0 1 1 0-.5m0 .5a.25.25 0 1 0 0-.5M11.32 3.483a.25.25 0 1 1 0-.5m0 .5a.25.25 0 1 0 0-.5m-8.639 9.138a.25.25 0 1 1 0-.5m0 .5a.25.25 0 1 0 0-.5m8.639.5a.25.25 0 1 1 0-.5m0 .5a.25.25 0 1 0 0-.5" stroke="currentColor" stroke-linecap="round" stroke-linejoin="round"/>
</svg>
