<svg focusable="false" xmlns="http://www.w3.org/2000/svg" fill="none" role="img" aria-label="Icon" viewBox="0 0 14 14">
  <g stroke="currentColor" stroke-linecap="round" stroke-linejoin="round">
    <path d="M2.263 5.982a3.498 3.498 0 0 1 4.085-4.229 3.498 3.498 0 0 1 6.09 3.041"/>
    <path d="m7.312 8.257.616-4.69a1.29 1.29 0 0 1 1.278-1.121v0c.778 0 1.38.685 1.278 1.457l-.572 4.354h.473c1.185 0 2.145.96 2.145 2.145v3.079M7.31 8.266 6.733 4.91A1.313 1.313 0 0 0 5.44 3.82v0c-.793 0-1.405.697-1.302 1.483l.57 4.368-.648.121a1.715 1.715 0 0 0-1.095 2.659l.298.432.423.617"/>
  </g>
</svg>
