<svg focusable="false" xmlns="http://www.w3.org/2000/svg" fill="none" role="img" aria-label="Icon" viewBox="0 0 14 14">
  <g stroke="currentColor" stroke-linecap="round" stroke-linejoin="round">
    <path d="M2.084 6.487a3.263 3.263 0 0 1 3.81-3.945 3.263 3.263 0 0 1 5.681 2.837"/>
    <path d="m6.793 8.61.575-4.375A1.202 1.202 0 0 1 8.56 3.189v0c.726 0 1.287.639 1.192 1.359L9.22 8.61h.297c1.184 0 2.144.96 2.144 2.144v2.728M6.79 8.618l-.536-3.13a1.225 1.225 0 0 0-1.207-1.017v0c-.74 0-1.31.65-1.215 1.382l.532 4.075-.43.08a1.715 1.715 0 0 0-1.095 2.659l.177.258.396.575m9.244-11.405A3.49 3.49 0 0 0 11.198.79M1.542 2.385A3.49 3.49 0 0 1 3.11 1.213"/>
  </g>
</svg>
