<svg focusable="false" xmlns="http://www.w3.org/2000/svg" fill="none" role="img" aria-label="Icon" viewBox="0 0 14 14">
  <path d="M6.95 7.574 5.993 3.29a1.196 1.196 0 0 1 .757-1.384v0a1.196 1.196 0 0 1 1.577.863l.888 3.976.267-.097a2.144 2.144 0 0 1 2.75 1.278l.926 2.537M6.95 7.581l-1.57-2.74a1.218 1.218 0 0 0-1.474-.538v0a1.218 1.218 0 0 0-.662 1.706L5.13 9.633l-.36.215a1.715 1.715 0 0 0-.118 2.873l.242.171.565.403M1.75.5.5 1.75 1.75 3M.5 1.75h3M12.25.5l1.25 1.25L12.25 3m1.25-1.25h-3" stroke="currentColor" stroke-linecap="round" stroke-linejoin="round"/>
</svg>
