<svg focusable="false" xmlns="http://www.w3.org/2000/svg" fill="none" role="img" aria-label="Icon" viewBox="0 0 14 14">
  <g stroke="currentColor" stroke-linecap="round" stroke-linejoin="round">
    <path d="m11.349 2.684-.546.539M.736 6.267A3.25 3.25 0 0 1 4.53 2.34a3.242 3.242 0 0 1 2.492-1.164M5.426 8.38l.571-4.356a1.197 1.197 0 0 1 1.187-1.042v0c.723 0 1.282.637 1.187 1.354l-.53 4.044h.286c1.184 0 2.145.96 2.145 2.144v2.707"/>
    <path d="m5.423 8.388-.535-3.116a1.22 1.22 0 0 0-1.201-1.013v0a1.22 1.22 0 0 0-1.21 1.377l.53 4.056-.417.079a1.715 1.715 0 0 0-1.096 2.658l.17.247.394.573M8.676 1.826A2.552 2.552 0 1 1 9.93 5.633"/>
  </g>
</svg>
