<svg focusable="false" xmlns="http://www.w3.org/2000/svg" fill="none" role="img" aria-label="Icon" viewBox="0 0 14 14">
  <g stroke="currentColor" stroke-linecap="round" stroke-linejoin="round">
    <path d="M1.276 10.053a4.648 4.648 0 0 1-.618-2.324 4.68 4.68 0 0 1 4.684-4.676A4.68 4.68 0 0 1 9.797 9.18"/>
    <path d="M6.516 13.469a4.012 4.012 0 0 1-2.002-.527 4.019 4.019 0 0 1-1.51-5.483 4.029 4.029 0 0 1 6.03-1.14"/>
    <path d="M.5 7a6.5 6.5 0 1 0 13 0 6.5 6.5 0 1 0-13 0"/>
    <path d="M5.009 8.278a2.471 2.507 0 1 0 4.942 0 2.471 2.507 0 1 0-4.942 0"/>
  </g>
</svg>
