<svg focusable="false" xmlns="http://www.w3.org/2000/svg" fill="none" role="img" aria-label="Icon" viewBox="0 0 14 14">
  <g stroke="currentColor" stroke-linecap="round" stroke-linejoin="round">
    <path d="M7 13.5a6.5 6.5 0 1 0 0-13 6.5 6.5 0 0 0 0 13"/>
    <path d="M8.25 11.25a1.78 1.78 0 0 0-1-1.5c-1-.5-2.12.4-2.73.27-.28-.02-1.2-1.62-.31-2.29C5.55 6.72 5 5.54 6 5c2.19-1.2 3.48 1.14 5.18.84m-5.46-.6L4.25 3m3.25.5.35 1.23"/>
    <path d="M9 7c.7.82 1.32.3 1.75 1.38M9 9a1.52 1.52 0 0 0 1.25.75"/>
  </g>
</svg>
