<svg focusable="false" xmlns="http://www.w3.org/2000/svg" fill="none" role="img" aria-label="Icon" viewBox="0 0 14 14">
  <g stroke="currentColor" stroke-linecap="round" stroke-linejoin="round">
    <path d="M6.97 13.5a2 2 0 1 0 0-4 2 2 0 0 0 0 4m0-4v-9M5.47 2 6.97.5 8.47 2"/>
    <path d="M6 9.78a4.14 4.14 0 0 1-2.6-2.29"/>
    <path d="M3.22 7.5a1.25 1.25 0 1 0 0-2.5 1.25 1.25 0 0 0 0 2.5M7 8.6a5.6 5.6 0 0 0 3.49-3.07"/>
    <path d="M10.78 5.57a1.25 1.25 0 1 0 0-2.5 1.25 1.25 0 0 0 0 2.5"/>
  </g>
</svg>
