<svg focusable="false" xmlns="http://www.w3.org/2000/svg" fill="none" role="img" aria-label="Icon" viewBox="0 0 14 14">
  <g stroke="currentColor" stroke-linecap="round" stroke-linejoin="round">
    <path d="M8.49 5.445a1.166 1.166 0 0 0-1.101-.778h-.903a1.041 1.041 0 0 0-.223 2.058l1.375.301a1.167 1.167 0 0 1-.25 2.307h-.777c-.508 0-.94-.324-1.1-.777M7 4.667V3.5m0 7V9.333"/>
    <path d="M7 13.5a6.5 6.5 0 1 0 0-13 6.5 6.5 0 0 0 0 13"/>
    <path d="M5 3.54a4 4 0 0 0 0 6.92m4 0a4 4 0 0 0 0-6.92"/>
  </g>
</svg>
