<svg focusable="false" xmlns="http://www.w3.org/2000/svg" fill="none" role="img" aria-label="Icon" viewBox="0 0 14 14">
  <path d="M5 5.5a2.5 2.5 0 1 0 0-5 2.5 2.5 0 0 0 0 5m.511 7H.5v-.542A4.51 4.51 0 0 1 5.204 7.5c.141.007.283.02.423.04m3.165 2.377a1.167 1.167 0 1 1-2.333 0 1.167 1.167 0 0 1 2.333 0m4.333-2.042a1.167 1.167 0 1 1-2.333 0 1.167 1.167 0 0 1 2.333 0m0 4.083a1.167 1.167 0 1 0-2.333 0 1.167 1.167 0 0 0 2.333 0M10.95 8.463l-2.325.866m2.325 2.041-2.325-.865" stroke="currentColor" stroke-linecap="round" stroke-linejoin="round"/>
</svg>
