<svg focusable="false" xmlns="http://www.w3.org/2000/svg" fill="none" role="img" aria-label="Icon" viewBox="0 0 14 14">
  <g stroke="currentColor" stroke-linecap="round" stroke-linejoin="round">
    <path d="M10.438 8a1.61 1.61 0 1 1 0-3.22 1.61 1.61 0 0 1 0 3.22m-2.339 2.485a3.22 3.22 0 0 1 4.494-.18M5.229 7.483a1.995 1.995 0 1 1 0-3.99 1.995 1.995 0 0 1 0 3.99"/>
    <path d="M8.967 13.181c-.1-1.192-.397-1.975-.56-2.251a3.95 3.95 0 0 0-1.414-1.414A3.78 3.78 0 0 0 5.09 9a3.78 3.78 0 0 0-1.903.516c-.463.27-.867.634-1.188 1.07l-.203.305"/>
    <path d="M7 13.5a6.5 6.5 0 1 1 0-13 6.5 6.5 0 0 1 0 13"/>
  </g>
</svg>
