<svg focusable="false" xmlns="http://www.w3.org/2000/svg" fill="none" role="img" aria-label="Icon" viewBox="0 0 14 14">
  <g stroke="currentColor" stroke-linecap="round" stroke-linejoin="round">
    <path d="M13.18 13.5a6.49 6.49 0 0 0-12.36 0z"/>
    <path d="M7 9A4.232 4.232 0 1 0 7 .536 4.232 4.232 0 0 0 7 9"/>
    <path d="M8.382 6.405s-.351.691-1.382.691c-1.03 0-1.382-.69-1.382-.69m5.537-2.444h-.028a4.117 4.117 0 0 1-3.09-1.392 4.117 4.117 0 0 1-3.091 1.392 4.109 4.109 0 0 1-1.973-.5 4.234 4.234 0 0 1 8.182.5"/>
  </g>
</svg>
