<svg focusable="false" xmlns="http://www.w3.org/2000/svg" fill="none" role="img" aria-label="Icon" viewBox="0 0 14 14">
  <g stroke="currentColor" stroke-linecap="round" stroke-linejoin="round">
    <path d="M7 13.5a6.5 6.5 0 1 0 0-13 6.5 6.5 0 0 0 0 13"/>
    <path d="M8.087 7.456S7.811 8 7 8c-.811 0-1.088-.544-1.088-.544"/>
    <path d="M7 10.042a3.74 3.74 0 1 0 0-7.48 3.74 3.74 0 0 0 0 7.48"/>
    <path d="M2.932 12.057a5.113 5.113 0 0 1 8.136 0M5.75 5.792a.125.125 0 0 1 0-.25m0 .25a.125.125 0 0 0 0-.25m2.516.25a.125.125 0 0 1 0-.25m0 .25a.125.125 0 0 0 0-.25"/>
  </g>
</svg>
