<svg focusable="false" xmlns="http://www.w3.org/2000/svg" fill="none" role="img" aria-label="Icon" viewBox="0 0 14 14">
  <g stroke="currentColor" stroke-linecap="round" stroke-linejoin="round">
    <path d="M3.89 7.504a3.567 3.567 0 0 0 1.98 1.369"/>
    <path d="M2.429 2.394a6.465 6.465 0 0 0 6.094 10.855l4.524-3.99a6.46 6.46 0 0 0-1.475-6.865 6.465 6.465 0 0 0-9.143 0"/>
    <path d="M8.545 13.26a3.03 3.03 0 1 1 4.511-4.03M5.25 5.5a.25.25 0 0 1 0-.5m0 .5a.25.25 0 0 0 0-.5m3.5.5a.25.25 0 0 1 0-.5m0 .5a.25.25 0 0 0 0-.5"/>
  </g>
</svg>
