<svg focusable="false" xmlns="http://www.w3.org/2000/svg" fill="none" role="img" aria-label="Icon" viewBox="0 0 14 14">
  <g stroke="currentColor" stroke-linecap="round" stroke-linejoin="round">
    <path d="M3.887 12.548a5.89 5.89 0 0 0 3.153.91c1.158 0 2.24-.334 3.152-.91M1.126 7.545c0-2.28 1.292-4.26 3.184-5.246m8.642 5.246c0-2.28-1.292-4.26-3.184-5.246M5.844.543h2.392v2.392H5.844zm5.202 9.733a1.196 1.196 0 1 0 2.392 0 1.196 1.196 0 1 0-2.392 0m-10.484.871 1.524-2.376 1.525 2.376zM5.59 6.371a1.449 1.449 0 1 0 2.897 0 1.449 1.449 0 0 0-2.897 0"/>
    <path d="M4.837 9.254c.23-.438.554-.8.94-1.05A2.31 2.31 0 0 1 7.04 7.82c.442 0 .877.132 1.263.383.386.251.71.613.94 1.051"/>
  </g>
</svg>
