<svg focusable="false" xmlns="http://www.w3.org/2000/svg" fill="none" role="img" aria-label="Icon" viewBox="0 0 14 14">
  <path d="M3.222 6.386c2.443.47 4.81.47 7.254 0v4.377c-2.458.648-4.796.648-7.254 0zM3.193 8.65c-.6-.175-1.927-.662-2.438-1.22m9.75 1.22c.6-.175 1.927-.662 2.438-1.22M.5 3.44V1.429A.93.93 0 0 1 1.429.5h2.01m7.121 0h2.011a.93.93 0 0 1 .93.929v2.01M.5 10.56v2.011a.93.93 0 0 0 .929.929h2.01M13.5 10.56v2.011a.929.929 0 0 1-.929.929h-2.01M5 4.25a.25.25 0 0 1 0-.5m0 .5a.25.25 0 0 0 0-.5m4 .5a.25.25 0 0 1 0-.5m0 .5a.25.25 0 0 0 0-.5" stroke="currentColor" stroke-linecap="round" stroke-linejoin="round"/>
</svg>
