<svg focusable="false" xmlns="http://www.w3.org/2000/svg" fill="none" role="img" aria-label="Icon" viewBox="0 0 14 14">
  <path d="M3.75 3.75a1.625 1.625 0 1 0 0-3.25 1.625 1.625 0 0 0 0 3.25m6.5 0a1.625 1.625 0 1 0 0-3.25 1.625 1.625 0 0 0 0 3.25M5.607 9.786 5.143 13.5H2.357l-.464-3.714H.964A.464.464 0 0 1 .5 9.32v-.928a3.25 3.25 0 0 1 3.25-3.25h6.5a3.25 3.25 0 0 1 3.25 3.25v.928a.464.464 0 0 1-.464.465h-.929l-.464 3.714H8.857l-.464-3.714" stroke="currentColor" stroke-linecap="round" stroke-linejoin="round"/>
</svg>
