<svg focusable="false" xmlns="http://www.w3.org/2000/svg" fill="none" role="img" aria-label="Icon" viewBox="0 0 14 14">
  <g stroke="currentColor" stroke-linecap="round">
    <path d="M10.67 13.47c-.11.04-.23.04-.34 0A4.48 4.48 0 0 1 7.5 9.31V8a.47.47 0 0 1 .5-.5h5a.47.47 0 0 1 .5.5v1.31a4.48 4.48 0 0 1-2.83 4.16m-.17-4.22v2" stroke-linejoin="round"/>
    <path d="M9.5 10.25h2"/>
    <path d="M5 5.5a2.5 2.5 0 1 0 0-5 2.5 2.5 0 0 0 0 5m1.5 7h-6v-.542a4.51 4.51 0 0 1 .584-2.174A4.549 4.549 0 0 1 5.204 7.5c.162.008.323.024.483.05" stroke-linejoin="round"/>
  </g>
</svg>
