<svg focusable="false" xmlns="http://www.w3.org/2000/svg" fill="none" role="img" aria-label="Icon" viewBox="0 0 14 14">
  <g stroke="currentColor" stroke-linecap="round" stroke-linejoin="round">
    <path d="m10.15 8.063-.841.636-.636-.841"/>
    <path d="M9.262 8.636a2.58 2.58 0 0 0-3.25-3.585M3.795 6.865l.84-.635.636.84"/>
    <path d="M4.682 6.293a2.58 2.58 0 0 0 3.25 3.585"/>
    <path d="M13.5 4.5a1 1 0 0 0-1-1h-2L9 1.5H5l-1.5 2h-2a1 1 0 0 0-1 1v7a1 1 0 0 0 1 1h11a1 1 0 0 0 1-1z"/>
  </g>
</svg>
