<svg focusable="false" xmlns="http://www.w3.org/2000/svg" fill="none" role="img" aria-label="Icon" viewBox="0 0 14 14">
  <g stroke="currentColor" stroke-linecap="round" stroke-linejoin="round">
    <path d="M12.82 3.75 10 5V3a1 1 0 0 0-1-1H1.5a1 1 0 0 0-1 1v8a1 1 0 0 0 1 1H9a1 1 0 0 0 1-1V9l2.82 1.25a.5.5 0 0 0 .68-.47V4.22a.5.5 0 0 0-.68-.47"/>
    <path d="M3.794 6a.25.25 0 0 1 0-.5m0 .5a.25.25 0 0 0 0-.5m3.038.5a.25.25 0 0 1 0-.5m0 .5a.25.25 0 0 0 0-.5M3.643 8a2.043 2.043 0 0 0 3.34 0"/>
  </g>
</svg>
