<svg focusable="false" xmlns="http://www.w3.org/2000/svg" fill="none" role="img" aria-label="Icon" viewBox="0 0 14 14">
  <path d="M7 2.281v1.68M3.969 7a3.031 3.031 0 1 0 6.062 0 3.031 3.031 0 1 0-6.062 0m2.187-5.562a.844.844 0 1 0 1.688 0 .844.844 0 1 0-1.688 0M7 11.719v-1.68m.844 2.524a.844.844 0 1 0-1.688 0 .844.844 0 1 0 1.688 0M11.719 7h-1.68m2.524-.844a.844.844 0 1 0 0 1.688.844.844 0 1 0 0-1.688M2.281 7h1.68m-2.523.844a.844.844 0 1 0 0-1.688.844.844 0 1 0 0 1.688m8.898-4.181L9.15 4.851m1.186-2.381a.844.844 0 1 0 1.194 1.194.844.844 0 1 0-1.194-1.194m-6.672 7.867L4.85 9.149M3.664 11.53a.844.844 0 1 0-1.194-1.194.844.844 0 1 0 1.194 1.194m6.672-1.193L9.15 9.149m2.38 1.187a.844.844 0 1 0-1.194 1.194.844.844 0 1 0 1.194-1.194M3.664 3.663 4.85 4.851M2.47 3.664A.844.844 0 1 0 3.664 2.47.844.844 0 1 0 2.47 3.664" stroke="currentColor" stroke-linecap="round" stroke-linejoin="round"/>
</svg>
