<svg focusable="false" xmlns="http://www.w3.org/2000/svg" fill="none" role="img" aria-label="Icon" viewBox="0 0 14 14">
  <g stroke="currentColor" stroke-linecap="round" stroke-linejoin="round">
    <path d="M7 2.5c-1.434 0-2.734.614-3.777 1.342-1.047.73-1.875 1.605-2.377 2.193l-.004.005C.618 6.31.5 6.653.5 7s.118.69.342.96l.004.005c.502.588 1.33 1.462 2.377 2.193C4.266 10.886 5.566 11.5 7 11.5c1.434 0 2.734-.614 3.777-1.342 1.047-.73 1.875-1.605 2.377-2.193l.004-.005c.224-.27.342-.613.342-.96s-.118-.69-.342-.96l-.004-.005c-.502-.588-1.33-1.462-2.377-2.193C9.734 3.114 8.434 2.5 7 2.5"/>
    <path d="M8.414 8.414a2 2 0 0 0-2.828-2.828M3.595 3.595l6.81 6.81m-8.832-5.16 6.197 6.197"/>
  </g>
</svg>
