<svg focusable="false" xmlns="http://www.w3.org/2000/svg" fill="none" role="img" aria-label="Icon" viewBox="0 0 14 14">
  <g stroke="currentColor" stroke-linecap="round" stroke-linejoin="round">
    <path d="m8.395 13.152 1.74-5.222a.656.656 0 0 1 .623-.449v0c.282 0 .533.18.622.449l1.74 5.222m-4.093-1.89h3.465M7.079 5.808a2.066 2.066 0 0 1-4.133 0V2.915a2.066 2.066 0 0 1 4.133 0zM6.85 9.659a3.711 3.711 0 0 1-1.424.28h-.827A3.711 3.711 0 0 1 .879 6.22m4.133 3.72v1.653m5.041-7.41 1.572.866.865-1.573"/>
    <path d="M11.623 5.048a5.885 5.885 0 0 0-1.626-3.605"/>
  </g>
</svg>
