<svg focusable="false" xmlns="http://www.w3.org/2000/svg" fill="none" role="img" aria-label="Icon" viewBox="0 0 14 14">
  <g stroke="currentColor" stroke-linecap="round" stroke-linejoin="round">
    <path d="M1.5 2a1 1 0 0 0-1 1v9.5a1 1 0 0 0 1 1h11a1 1 0 0 0 1-1V3a1 1 0 0 0-1-1h-2M3.5.5v3m7-3v3M3.5 2h5"/>
    <path d="M6.188 4.562a.5.5 0 0 0-.5.5v1.406H4.28a.5.5 0 0 0-.5.5v1.625a.5.5 0 0 0 .5.5h1.407v1.406a.5.5 0 0 0 .5.5h1.625a.5.5 0 0 0 .5-.5V9.093h1.406a.5.5 0 0 0 .5-.5V6.968a.5.5 0 0 0-.5-.5H8.313V5.062a.5.5 0 0 0-.5-.5z"/>
  </g>
</svg>
