<svg focusable="false" xmlns="http://www.w3.org/2000/svg" fill="none" role="img" aria-label="Icon" viewBox="0 0 14 14">
  <g stroke="currentColor" stroke-linecap="round" stroke-linejoin="round">
    <path d="M2.496 3.113a1.715 1.715 0 1 0 3.43 0 1.715 1.715 0 1 0-3.43 0"/>
    <path d="m1.025 12.867 2.573-8.148c.278.706 1.564 2.557 3.194 2.385m2.248.212h1.156c.338 0 1.114.304 1.518 1.518.244.732.483 1.546.603 1.977"/>
    <path d="M11.969 9.637H10.87c-.598 0-1.154.312-1.465.823l-.264.433M2.495 8.239 4.583 9.74a1 1 0 0 1 .387.577l.616 2.549m2.668.292a.25.25 0 0 1 0-.5m0 .5a.25.25 0 0 0 0-.5m4.415.5a.25.25 0 0 1 0-.5m0 .5a.25.25 0 0 0 0-.5"/>
  </g>
</svg>
