<svg focusable="false" xmlns="http://www.w3.org/2000/svg" fill="none" role="img" aria-label="Icon" viewBox="0 0 14 14">
  <g stroke="currentColor" stroke-linecap="round" stroke-linejoin="round">
    <path d="M9.5 5.75H7.292M9.5 8.25H7.292M9.5 2.5v-1a1 1 0 0 0-1-1h-3a1 1 0 0 0-1 1v1m5 9v1a1 1 0 0 1-1 1h-3a1 1 0 0 1-1-1v-1"/>
    <path d="M10.5 2.5h-7a1 1 0 0 0-1 1v7a1 1 0 0 0 1 1h7a1 1 0 0 0 1-1v-7a1 1 0 0 0-1-1"/>
    <path d="M4.958 6a.25.25 0 0 1 0-.5m0 .5a.25.25 0 0 0 0-.5m0 3a.25.25 0 0 1 0-.5m0 .5a.25.25 0 0 0 0-.5"/>
  </g>
</svg>
