<svg focusable="false" xmlns="http://www.w3.org/2000/svg" fill="none" role="img" aria-label="Icon" viewBox="0 0 14 14">
  <g stroke="currentColor" stroke-linecap="round" stroke-linejoin="round">
    <path d="M7.487 8.926a.695.695 0 0 1-.972 0L4.88 7.349C3.787 6.285 5.215 3.932 7 5.672c1.782-1.737 3.21.616 2.12 1.677z"/>
    <path d="M7 11.5a4.5 4.5 0 1 0 0-9 4.5 4.5 0 0 0 0 9"/>
    <path d="M9.5 3.25V1.5a1 1 0 0 0-1-1h-3a1 1 0 0 0-1 1v1.75m5 7.484V12.5a1 1 0 0 1-1 1h-3a1 1 0 0 1-1-1v-1.766"/>
  </g>
</svg>
