<svg focusable="false" xmlns="http://www.w3.org/2000/svg" fill="none" role="img" aria-label="Icon" viewBox="0 0 14 14">
  <g stroke="currentColor" stroke-linecap="round" stroke-linejoin="round">
    <path d="M13.044 3.938a2.86 2.86 0 0 0-.546-1.508m-9.081-.866A2.86 2.86 0 0 1 4.644.531m-1.475 11.48-.346-.393A6 6 0 0 1 1.71 9.762l-.687-1.835a1.113 1.113 0 0 1 .355-1.266v0a1.113 1.113 0 0 1 1.706.429l.581 1.325c.435.116 1.432.57 1.942 1.452"/>
    <path d="M3.666 8.416 5.123 2.98c.161-.6.778-.957 1.38-.796v0c.6.16.956.778.795 1.379l-.874 3.262 1.224-4.567c.16-.6.778-.957 1.379-.796v0c.6.16.957.778.796 1.378l-1.34 5.003.757-2.828c.161-.6.778-.957 1.379-.796v0c.6.161.957.779.796 1.38l-1.709 6.376a2 2 0 0 1-.932 1.215l-.385.222"/>
  </g>
</svg>
