<svg focusable="false" xmlns="http://www.w3.org/2000/svg" fill="none" role="img" aria-label="Icon" viewBox="0 0 14 14">
  <g stroke="currentColor" stroke-linecap="round" stroke-linejoin="round">
    <path d="M12.5 8.5h-5a1 1 0 0 1-1-1v-1a1 1 0 0 1 1-1h5a1 1 0 0 1 1 1v1a1 1 0 0 1-1 1m0-5h-5a1 1 0 0 1-1-1v-1a1 1 0 0 1 1-1h5a1 1 0 0 1 1 1v1a1 1 0 0 1-1 1m0 10h-5a1 1 0 0 1-1-1v-1a1 1 0 0 1 1-1h5a1 1 0 0 1 1 1v1a1 1 0 0 1-1 1M1.5 7h5m-5-5h5"/>
    <path d="M6.5 12h-4a1 1 0 0 1-1-1V.5"/>
  </g>
</svg>
