<svg focusable="false" xmlns="http://www.w3.org/2000/svg" fill="none" role="img" aria-label="Icon" viewBox="0 0 14 14">
  <path d="m5.53 10.85.84 2.35M1.98.97l.34.94m3.21 8.94-1.75-.43m1.75.43L6.6 9.4m-1.92-.9-1.75-.44m1.75.44 1.08-1.45m-1.92-.91-1.75-.43m1.75.43L4.91 4.7m-1.92-.91-1.75-.43m1.75.43 1.08-1.45m5.44 7.91-.56 2.25M11.85.8l-.22.9m-2.12 8.55L8.38 9.01m1.13 1.24 1.57-.56M10.06 8 8.94 6.76M10.06 8l1.58-.57m-1.02-1.68L9.5 4.51m1.12 1.24 1.58-.57M11.18 3.5l-1.12-1.24m1.12 1.24 1.58-.57" stroke="currentColor" stroke-linecap="round" stroke-linejoin="round"/>
</svg>
