<svg focusable="false" xmlns="http://www.w3.org/2000/svg" fill="none" role="img" aria-label="Icon" viewBox="0 0 14 14">
  <g stroke="currentColor" stroke-linecap="round" stroke-linejoin="round">
    <path d="M2.75 11.52a3.2 3.2 0 0 0 1.028 1.36 3.17 3.17 0 0 0 1.582.62C7.37 13.48 9 10.59 9 7S7.37.5 5.36.5a3.2 3.2 0 0 0-2.61 2m8.32 3.32A10.88 10.88 0 0 0 13.5 5l-2-1"/>
    <path d="M.5 5.5a10.34 10.34 0 0 1 4-1 4.51 4.51 0 0 1 2 .5m4.57 4.64c.84-.177 1.655-.452 2.43-.82l-2-1m-11 1.5a10.34 10.34 0 0 1 4-1 4.51 4.51 0 0 1 2 .51"/>
  </g>
</svg>
