<svg focusable="false" xmlns="http://www.w3.org/2000/svg" fill="none" role="img" aria-label="Icon" viewBox="0 0 14 14">
  <g stroke="currentColor" stroke-linecap="round" stroke-linejoin="round">
    <path d="M5.5.586a6.503 6.503 0 0 0-5 6.326m9.75 5.63a6.503 6.503 0 0 1-7.98-1.167m7.98-10.092a6.502 6.502 0 0 1 2.978 7.493"/>
    <path d="M5.5.586v5.46l-2.131 1.23a3 3 0 0 0-1.098 4.099l4.728-2.73 2.131 1.23a3 3 0 0 0 4.098-1.099l-4.729-2.73v-2.46a3 3 0 0 0-3-3"/>
    <path d="M5.499 6.913a1.5 1.5 0 1 0 3 0 1.5 1.5 0 1 0-3 0"/>
  </g>
</svg>
