<svg focusable="false" xmlns="http://www.w3.org/2000/svg" fill="none" role="img" aria-label="Icon" viewBox="0 0 14 14">
  <g stroke="currentColor" stroke-linecap="round" stroke-linejoin="round">
    <path d="M5.499 2.002a1.502 1.502 0 1 0 3.004 0 1.502 1.502 0 0 0-3.004 0m5.099 10.069a1.429 1.429 0 1 0 2.857 0 1.429 1.429 0 0 0-2.857 0m-5.028 0a1.429 1.429 0 1 0 2.858 0 1.429 1.429 0 0 0-2.857 0m-5.027 0a1.429 1.429 0 1 0 2.857 0 1.429 1.429 0 0 0-2.857 0m9.35-5.569a2.904 2.904 0 0 0-5.786 0"/>
    <path d="M1.973 10.643V8.497h10.054v2.146M7 8.908v1.735" stroke-miterlimit="10"/>
  </g>
</svg>
