<svg focusable="false" xmlns="http://www.w3.org/2000/svg" fill="none" role="img" aria-label="Icon" viewBox="0 0 14 14">
  <path d="M11.75.75a1.75 1.75 0 1 1 0 3.5 1.75 1.75 0 0 1 0-3.5m0 9.25a1.75 1.75 0 1 1 0 3.5 1.75 1.75 0 0 1 0-3.5m-11 2.5V11a1 1 0 0 1 1-1h1.5a1 1 0 0 1 1 1v1.5a1 1 0 0 1-1 1h-1.5a1 1 0 0 1-1-1m3.75-10-2-2-2 2 2 2zm3 7.75 1.5 1.5-1.5 1.5M7 1 5.5 2.5 7 4M1 7.5 2.5 9 4 7.5M2.5 9V4.5m3-2H10m-5.75 9.25H9" stroke="currentColor" stroke-linecap="round" stroke-linejoin="round"/>
</svg>
