<svg focusable="false" xmlns="http://www.w3.org/2000/svg" fill="none" role="img" aria-label="Icon" viewBox="0 0 14 14">
  <g stroke="currentColor" stroke-linecap="round" stroke-linejoin="round">
    <path d="M6.58 5.405A3.102 3.102 0 0 1 8.863.5l-.535 1.997a1.034 1.034 0 1 0 1.997.536l.536-1.998a3.102 3.102 0 0 1-1.239 5.62L9.26 8.01"/>
    <path d="m1.3 9.303 1.598-.932 1.915-2.766c.32-.469.932-.641 1.452-.41.555.248.826.876.626 1.445L6.186 8h3.639a1.87 1.87 0 0 1 1.854 2.172l-.218 1.77A1.875 1.875 0 0 1 9.607 13.5H1.3"/>
  </g>
</svg>
