<svg focusable="false" xmlns="http://www.w3.org/2000/svg" fill="none" role="img" aria-label="Icon" viewBox="0 0 14 14">
  <g stroke="currentColor" stroke-linecap="round">
    <path d="m5.649 12.962-2.556-1.957a.988.988 0 0 1-.237-1.308v0a.988.988 0 0 1 1.077-.435l1.918.479-1.523-5.305a1.212 1.212 0 0 1 .83-1.5v0a1.212 1.212 0 0 1 1.5.831L7.82 7.814l1.692-.54a2.573 2.573 0 0 1 3.27 1.79l.552 2.083M.5 6l1-1 1 1m-2-4 1 1 1-1m-1 3v2.5" stroke-linejoin="round"/>
    <path d="M1.5.5V3"/>
  </g>
</svg>
